G04 DesignSpark PCB Gerber Version 9.0 Build 5138 *
G04 #@! TF.Part,Single*
G04 #@! TF.FileFunction,Soldermask,Bot *
G04 #@! TF.FilePolarity,Negative *
%FSLAX35Y35*%
%MOIN*%
G04 #@! TA.AperFunction,ComponentPad*
%ADD91R,0.07000X0.07000*%
G04 #@! TA.AperFunction,WasherPad*
%ADD77C,0.02969*%
G04 #@! TA.AperFunction,ComponentPad*
%ADD87C,0.07000*%
G04 #@! TA.AperFunction,WasherPad*
%ADD78C,0.16748*%
X0Y0D02*
D02*
D77*
X10250Y75250D03*
Y87750D03*
Y97750D03*
Y107750D03*
Y116500D03*
Y127750D03*
Y139000D03*
Y151500D03*
Y161500D03*
Y170250D03*
Y177750D03*
Y186500D03*
Y195250D03*
Y205250D03*
Y215250D03*
Y225250D03*
Y236500D03*
Y246500D03*
Y255250D03*
Y264000D03*
X32750Y54000D03*
X34000Y284000D03*
X41500D03*
X42750Y54000D03*
X50250Y284000D03*
X54000Y54000D03*
X60250Y284000D03*
X64000Y54000D03*
X71500Y284000D03*
X74000Y54000D03*
X81500Y284000D03*
X84000Y54000D03*
X91500Y284000D03*
X94000Y54000D03*
X101500Y284000D03*
X104000Y94000D03*
Y100250D03*
Y107750D03*
Y114000D03*
Y120250D03*
Y127750D03*
Y135250D03*
Y142750D03*
Y150250D03*
Y157750D03*
X105250Y54000D03*
X106500Y74000D03*
X111500Y284000D03*
X116500Y52750D03*
Y60250D03*
Y67750D03*
Y74000D03*
Y92750D03*
Y100250D03*
Y107750D03*
Y115250D03*
Y122750D03*
Y130250D03*
Y137750D03*
Y145250D03*
Y152750D03*
X121500Y284000D03*
X131500D03*
X137750Y55250D03*
Y62750D03*
Y70250D03*
Y79000D03*
X141500Y284000D03*
X145250Y55250D03*
X151500Y284000D03*
X155250Y55250D03*
X164000Y284000D03*
X166500Y55250D03*
X175250Y284000D03*
X176500Y55250D03*
X186500D03*
Y284000D03*
X195250D03*
X196500Y55250D03*
X205250Y284000D03*
X206500Y55250D03*
X215250Y284000D03*
X217750Y55250D03*
X237750Y70250D03*
Y80250D03*
Y90250D03*
Y100250D03*
Y110250D03*
Y120250D03*
Y131500D03*
Y144000D03*
Y154000D03*
Y164000D03*
Y174000D03*
Y184000D03*
Y194000D03*
Y204000D03*
Y214000D03*
Y224000D03*
Y235250D03*
Y245250D03*
Y254000D03*
Y261500D03*
D02*
D78*
X16500Y60250D03*
Y277750D03*
X230250Y60250D03*
X231500Y279000D03*
D02*
D87*
X67750Y219000D03*
Y239000D03*
D02*
D91*
X27750Y86000D03*
Y96000D03*
Y106000D03*
Y116000D03*
Y126000D03*
Y136000D03*
Y156000D03*
Y166000D03*
Y176000D03*
Y186000D03*
Y196000D03*
Y206000D03*
Y216000D03*
Y226000D03*
X217750Y86000D03*
Y96000D03*
Y106000D03*
Y116000D03*
Y126000D03*
Y136000D03*
Y146000D03*
Y156000D03*
Y169000D03*
Y179000D03*
Y189000D03*
Y199000D03*
Y209000D03*
Y219000D03*
Y229000D03*
Y239000D03*
Y249000D03*
Y259000D03*
X0Y0D02*
M02*
