G04 DesignSpark PCB Gerber Version 9.0 Build 5138 *
G04 #@! TF.Part,Single*
G04 #@! TF.FileFunction,Soldermask,Top *
G04 #@! TF.FilePolarity,Negative *
%FSLAX35Y35*%
%MOIN*%
G04 #@! TA.AperFunction,SMDPad,CuDef*
%ADD80R,0.01787X0.04740*%
%ADD84R,0.02100X0.02200*%
%ADD86R,0.03600X0.04300*%
%ADD90R,0.03800X0.04500*%
%ADD88R,0.04937X0.05291*%
%ADD92R,0.06500X0.07000*%
G04 #@! TA.AperFunction,ComponentPad*
%ADD91R,0.07000X0.07000*%
G04 #@! TA.AperFunction,SMDPad,CuDef*
%ADD81R,0.17535X0.17535*%
G04 #@! TA.AperFunction,WasherPad*
%ADD77C,0.02969*%
G04 #@! TA.AperFunction,ComponentPad*
%ADD87C,0.07000*%
G04 #@! TA.AperFunction,SMDPad,CuDef*
%ADD79R,0.04740X0.01787*%
%ADD85R,0.02200X0.02100*%
%ADD83R,0.04200X0.02200*%
%ADD89R,0.05291X0.04937*%
G04 #@! TA.AperFunction,WasherPad*
%ADD78C,0.16748*%
G04 #@! TA.AperFunction,SMDPad,CuDef*
%ADD93R,0.07000X0.06500*%
%ADD82R,0.25603X0.06718*%
X0Y0D02*
D02*
D77*
X10250Y75250D03*
Y87750D03*
Y97750D03*
Y107750D03*
Y116500D03*
Y127750D03*
Y139000D03*
Y151500D03*
Y161500D03*
Y170250D03*
Y177750D03*
Y186500D03*
Y195250D03*
Y205250D03*
Y215250D03*
Y225250D03*
Y236500D03*
Y246500D03*
Y255250D03*
Y264000D03*
X32750Y54000D03*
X34000Y284000D03*
X41500D03*
X42750Y54000D03*
X50250Y284000D03*
X54000Y54000D03*
X60250Y284000D03*
X64000Y54000D03*
X71500Y284000D03*
X74000Y54000D03*
X81500Y284000D03*
X84000Y54000D03*
X91500Y284000D03*
X94000Y54000D03*
X101500Y284000D03*
X104000Y94000D03*
Y100250D03*
Y107750D03*
Y114000D03*
Y120250D03*
Y127750D03*
Y135250D03*
Y142750D03*
Y150250D03*
Y157750D03*
X105250Y54000D03*
X106500Y74000D03*
X111500Y284000D03*
X116500Y52750D03*
Y60250D03*
Y67750D03*
Y74000D03*
Y92750D03*
Y100250D03*
Y107750D03*
Y115250D03*
Y122750D03*
Y130250D03*
Y137750D03*
Y145250D03*
Y152750D03*
X121500Y284000D03*
X131500D03*
X137750Y55250D03*
Y62750D03*
Y70250D03*
Y79000D03*
X141500Y284000D03*
X145250Y55250D03*
X151500Y284000D03*
X155250Y55250D03*
X164000Y284000D03*
X166500Y55250D03*
X175250Y284000D03*
X176500Y55250D03*
X186500D03*
Y284000D03*
X195250D03*
X196500Y55250D03*
X205250Y284000D03*
X206500Y55250D03*
X215250Y284000D03*
X217750Y55250D03*
X237750Y70250D03*
Y80250D03*
Y90250D03*
Y100250D03*
Y110250D03*
Y120250D03*
Y131500D03*
Y144000D03*
Y154000D03*
Y164000D03*
Y174000D03*
Y184000D03*
Y194000D03*
Y204000D03*
Y214000D03*
Y224000D03*
Y235250D03*
Y245250D03*
Y254000D03*
Y261500D03*
D02*
D78*
X16500Y60250D03*
Y277750D03*
X230250Y60250D03*
X231500Y279000D03*
D02*
D79*
X106333Y175339D03*
Y176913D03*
Y178488D03*
Y180063D03*
Y181638D03*
Y183213D03*
Y184787D03*
Y186362D03*
Y187937D03*
Y189512D03*
Y191087D03*
Y192661D03*
X129167Y175339D03*
Y176913D03*
Y178488D03*
Y180063D03*
Y181638D03*
Y183213D03*
Y184787D03*
Y186362D03*
Y187937D03*
Y189512D03*
Y191087D03*
Y192661D03*
D02*
D80*
X109089Y172583D03*
Y195417D03*
X110663Y172583D03*
Y195417D03*
X112238Y172583D03*
Y195417D03*
X113813Y172583D03*
Y195417D03*
X115388Y172583D03*
Y195417D03*
X116963Y172583D03*
Y195417D03*
X118537Y172583D03*
Y195417D03*
X120112Y172583D03*
Y195417D03*
X121687Y172583D03*
Y195417D03*
X123262Y172583D03*
Y195417D03*
X124837Y172583D03*
Y195417D03*
X126411Y172583D03*
Y195417D03*
D02*
D81*
X117750Y184000D03*
D02*
D82*
X127750Y16170D03*
Y44330D03*
D02*
D83*
X107691Y81728D03*
Y84287D03*
Y86846D03*
X112809Y81728D03*
Y84287D03*
Y86846D03*
D02*
D84*
X175150Y106047D03*
Y108016D03*
Y109984D03*
Y111953D03*
X181350Y106047D03*
Y108016D03*
Y109984D03*
Y111953D03*
D02*
D85*
X177266Y105900D03*
Y112100D03*
X179234Y105900D03*
Y112100D03*
D02*
D86*
X187632Y153300D03*
Y159000D03*
X192750Y153300D03*
Y159000D03*
D02*
D87*
X67750Y219000D03*
Y239000D03*
D02*
D88*
X57750Y230500D03*
Y237500D03*
X62750Y150500D03*
Y157500D03*
X72750Y139000D03*
Y146000D03*
X87750Y131750D03*
Y138750D03*
X102750Y230500D03*
Y237500D03*
X112750Y225500D03*
Y232500D03*
X122750Y225500D03*
Y232500D03*
X127750Y123000D03*
Y130000D03*
Y145000D03*
Y152000D03*
X135250Y123000D03*
Y130000D03*
Y145000D03*
Y152000D03*
X142750Y123000D03*
Y130000D03*
Y145500D03*
Y152500D03*
X150250Y145500D03*
Y152500D03*
X152750Y205500D03*
Y212500D03*
X177750Y150500D03*
Y157500D03*
X192750Y120500D03*
Y127500D03*
D02*
D89*
X54250Y129000D03*
Y139000D03*
Y169000D03*
Y179000D03*
X59250Y209000D03*
X61250Y129000D03*
Y139000D03*
Y169000D03*
Y179000D03*
X66250Y209000D03*
X80500Y150250D03*
X87500D03*
X89250Y159000D03*
Y209000D03*
Y219000D03*
X90500Y124000D03*
X96250Y159000D03*
Y209000D03*
Y219000D03*
X97500Y124000D03*
X134250Y204000D03*
X141250D03*
X153000Y101500D03*
X154250Y189000D03*
X160000Y101500D03*
X161250Y189000D03*
X174250Y179000D03*
X181250D03*
D02*
D90*
X107750Y96450D03*
Y101550D03*
X112750Y96450D03*
Y101550D03*
D02*
D91*
X27750Y86000D03*
Y96000D03*
Y106000D03*
Y116000D03*
Y126000D03*
Y136000D03*
Y156000D03*
Y166000D03*
Y176000D03*
Y186000D03*
Y196000D03*
Y206000D03*
Y216000D03*
Y226000D03*
X217750Y86000D03*
Y96000D03*
Y106000D03*
Y116000D03*
Y126000D03*
Y136000D03*
Y146000D03*
Y156000D03*
Y169000D03*
Y179000D03*
Y189000D03*
Y199000D03*
Y209000D03*
Y219000D03*
Y229000D03*
Y239000D03*
Y249000D03*
Y259000D03*
D02*
D92*
X52750Y149500D03*
Y158500D03*
X96500Y139500D03*
Y148500D03*
D02*
D93*
X57750Y189000D03*
X66750D03*
X0Y0D02*
M02*
