G04 DesignSpark PCB Gerber Version 9.0 Build 5138 *
G04 #@! TF.Part,Single*
G04 #@! TF.FileFunction,Copper,L1,Top *
G04 #@! TF.FilePolarity,Positive *
%FSLAX35Y35*%
%MOIN*%
G04 #@! TA.AperFunction,SMDPad,CuDef*
%ADD21R,0.00787X0.03740*%
%ADD25R,0.01100X0.01200*%
%ADD27R,0.02600X0.03300*%
%ADD73R,0.02800X0.03500*%
%ADD29R,0.03937X0.04291*%
%ADD75R,0.05500X0.06000*%
G04 #@! TA.AperFunction,ComponentPad*
%ADD74R,0.06000X0.06000*%
G04 #@! TA.AperFunction,SMDPad,CuDef*
%ADD22R,0.16535X0.16535*%
G04 #@! TD.AperFunction*
%ADD94C,0.00500*%
%ADD11C,0.00598*%
%ADD98C,0.00787*%
%ADD103C,0.00906*%
%ADD101C,0.00984*%
%ADD95C,0.01000*%
%ADD102C,0.01181*%
%ADD104C,0.01378*%
%ADD15C,0.01496*%
%ADD99C,0.01575*%
G04 #@! TA.AperFunction,ViaPad*
%ADD14C,0.01969*%
G04 #@! TD.AperFunction*
%ADD12C,0.02500*%
%ADD19C,0.03937*%
%ADD96C,0.04331*%
G04 #@! TA.AperFunction,ViaPad*
%ADD16C,0.04800*%
G04 #@! TD.AperFunction*
%ADD10C,0.05000*%
G04 #@! TA.AperFunction,ViaPad*
%ADD13C,0.05600*%
G04 #@! TA.AperFunction,ComponentPad*
%ADD28C,0.06000*%
G04 #@! TD.AperFunction*
%ADD97C,0.12402*%
G04 #@! TA.AperFunction,WasherPad*
%ADD71C,0.15748*%
G04 #@! TA.AperFunction,SMDPad,CuDef*
%ADD20R,0.03740X0.00787*%
%ADD26R,0.01200X0.01100*%
%ADD24R,0.03200X0.01200*%
%ADD72R,0.04291X0.03937*%
%ADD76R,0.06000X0.05500*%
%ADD23R,0.24603X0.05718*%
X0Y0D02*
D02*
D10*
X27750Y176000D02*
X17750D01*
X54250Y129000D02*
X42750D01*
X54250Y169000D02*
X42750D01*
X54250Y179000D02*
X42750D01*
X57750Y189000D02*
X47250D01*
X57750Y230500D02*
Y219000D01*
X59250Y209000D02*
Y199000D01*
X72750Y139000D02*
Y127500D01*
X80500Y150250D02*
Y140250D01*
X89250Y209000D02*
X77750D01*
X89250Y219000D02*
X77750D01*
X90500Y124000D02*
X80250D01*
X96250Y209000D02*
Y199000D01*
Y219000D02*
Y209000D01*
X97500Y124000D02*
X97750Y115250D01*
X102750Y230500D02*
X92750D01*
X102750Y237500D02*
X92750D01*
X112750Y232500D02*
Y243500D01*
X117750Y184000D02*
X122750Y232500*
Y244000D01*
X127750Y123000D02*
Y114000D01*
Y130000D02*
X135250D01*
X127750Y145000D02*
Y137750D01*
Y152000D02*
X135250D01*
Y123000D02*
Y114000D01*
Y130000D02*
X142750D01*
X135250Y145000D02*
Y137750D01*
Y152000D02*
X142250D01*
X142750Y152500*
X141250Y204000D02*
Y214000D01*
X142750Y123000D02*
Y114000D01*
Y130000D02*
X157750D01*
X142750Y145500D02*
Y137750D01*
Y152500D02*
X150250D01*
Y145500D02*
Y137750D01*
Y152500D02*
X159000D01*
X152750Y205500D02*
X162750D01*
X152750Y212500D02*
Y219500D01*
X153000Y101500D02*
X144000D01*
X160000D02*
Y110250D01*
X161250Y189000D02*
X172750D01*
X174250Y179000D02*
X162750D01*
X177750Y150500D02*
Y138500D01*
X182250Y189000D02*
Y184000D01*
X181250Y179000*
X192750Y120500D02*
X200250D01*
X192750Y127500D02*
Y136953D01*
D02*
D11*
X126411Y172583D02*
Y170339D01*
X129073Y173000*
X175150Y106047D02*
Y103900D01*
X172750Y101500*
X160000*
X175150Y108016D02*
X169650D01*
D02*
D12*
X153250Y179000D02*
Y183000D01*
X154250Y184000*
Y189000*
X187632Y153300D02*
Y146150D01*
X192750Y159000D02*
X200191D01*
D02*
D13*
X17750Y176000D03*
X42750Y129000D03*
Y169000D03*
Y179000D03*
X47250Y189000D03*
X57750Y219000D03*
X59250Y199000D03*
X72750Y127500D03*
X77750Y209000D03*
Y219000D03*
X80250Y124000D03*
X80500Y140250D03*
X92750Y230500D03*
Y237500D03*
X96250Y199000D03*
X97750Y115250D03*
X100250Y84287D03*
X112750Y243500D03*
X117750Y184000D03*
X122750Y244000D03*
X126500Y92750D03*
X127750Y114000D03*
Y137750D03*
X135250Y114000D03*
Y137750D03*
X141250Y214000D03*
X142750Y114000D03*
Y137750D03*
X144000Y101500D03*
X150250Y137750D03*
X152750Y219500D03*
X157750Y130000D03*
X159000Y152500D03*
X160000Y110250D03*
X162750Y179000D03*
Y205500D03*
X172750Y189000D03*
X177750Y138500D03*
X182250Y189000D03*
X182750Y119000D03*
X192750Y136953D03*
X200191Y159000D03*
X200250Y120500D03*
D02*
D14*
X10250Y75250D03*
Y87750D03*
Y97750D03*
Y107750D03*
Y116500D03*
Y127750D03*
Y139000D03*
Y151500D03*
Y161500D03*
Y170250D03*
Y177750D03*
Y186500D03*
Y195250D03*
Y205250D03*
Y215250D03*
Y225250D03*
Y236500D03*
Y246500D03*
Y255250D03*
Y264000D03*
X32750Y54000D03*
X34000Y284000D03*
X41500D03*
X42750Y54000D03*
X50250Y284000D03*
X54000Y54000D03*
X60250Y284000D03*
X64000Y54000D03*
X71500Y284000D03*
X74000Y54000D03*
X81500Y284000D03*
X84000Y54000D03*
X91500Y284000D03*
X94000Y54000D03*
X101500Y284000D03*
X104000Y94000D03*
Y100250D03*
Y107750D03*
Y114000D03*
Y120250D03*
Y127750D03*
Y135250D03*
Y142750D03*
Y150250D03*
Y157750D03*
X105250Y54000D03*
X106500Y74000D03*
X111500Y284000D03*
X116500Y52750D03*
Y60250D03*
Y67750D03*
Y74000D03*
Y92750D03*
Y100250D03*
Y107750D03*
Y115250D03*
Y122750D03*
Y130250D03*
Y137750D03*
Y145250D03*
Y152750D03*
X121500Y284000D03*
X131500D03*
X134250Y189500D03*
X137750Y55250D03*
Y62750D03*
Y70250D03*
Y79000D03*
X141500Y284000D03*
X145250Y55250D03*
X151500Y284000D03*
X153250Y179000D03*
X155250Y55250D03*
X164000Y284000D03*
X166500Y55250D03*
X169650Y108016D03*
X175250Y284000D03*
X176500Y55250D03*
X184650Y109984D03*
X186500Y55250D03*
Y284000D03*
X187632Y146150D03*
X195250Y284000D03*
X196500Y55250D03*
X205250Y284000D03*
X206500Y55250D03*
X215250Y284000D03*
X217750Y55250D03*
X237750Y70250D03*
Y80250D03*
Y90250D03*
Y100250D03*
Y110250D03*
Y120250D03*
Y131500D03*
Y144000D03*
Y154000D03*
Y164000D03*
Y174000D03*
Y184000D03*
Y194000D03*
Y204000D03*
Y214000D03*
Y224000D03*
Y235250D03*
Y245250D03*
Y254000D03*
Y261500D03*
D02*
D15*
X52750Y149500D02*
Y139500D01*
X54250Y139000*
X61250D02*
Y129000D01*
X62750Y150500D02*
Y139500D01*
X61250Y139000*
X62750Y157500D02*
X53750D01*
X52750Y158500*
X66250Y209000D02*
Y217500D01*
X67750Y219000*
Y239000D02*
X58250D01*
X57750Y237500*
X72750Y179000D02*
X61250D01*
X82463Y183213D02*
X68250Y169000D01*
X61250*
X85888Y181638D02*
X62750Y157500D01*
X87500Y150250D02*
Y139000D01*
X87750Y138750*
Y131750D02*
X93000D01*
X95250Y134000*
Y138250*
X96500Y139500*
X89250Y159000D02*
Y156750D01*
X87750Y155250*
Y150500*
X87500Y150250*
X89313Y180063D02*
X73250Y164000D01*
Y160000*
X62750Y150500*
X90388Y186362D02*
X87750Y189000D01*
X66750*
X92738Y178488D02*
X78250Y164000D01*
Y159000*
X72750Y153500*
Y146000*
X93813Y187937D02*
X87750Y194000D01*
X52750*
X47750Y199000*
Y228500*
X57750Y237500*
X95663Y176913D02*
X87750Y169000D01*
Y159500*
X89250Y159000*
X96250D02*
Y148750D01*
X96500Y148500*
X96250Y189512D02*
X86762Y199000D01*
X72750*
X67750Y204000*
Y207500*
X66250Y209000*
X99089Y175339D02*
X97750Y174000D01*
Y159500*
X96250Y159000*
X102750Y205339D02*
X100911D01*
X96250Y209000*
X107691Y84287D02*
X100250D01*
X107750Y209000D02*
Y249000D01*
X112750Y254000*
X137750*
X142750Y249000*
X110663Y195417D02*
Y201087D01*
X102750Y209000*
Y230500*
X112750Y86906D02*
X112809Y86846D01*
X112750Y209000D02*
Y225500D01*
X112809Y81728D02*
X125022D01*
X127750Y79000*
X113813Y166313D02*
X107750Y160250D01*
X115388Y162888D02*
X112750Y160250D01*
X118537Y158213D02*
X122750Y154000D01*
X126750*
X127750Y152000*
X118537Y220287D02*
X122750Y225500D01*
X120112Y211362D02*
X147750Y239000D01*
X172750*
X192750Y219000*
X217750*
X121687Y165063D02*
X122750Y164000D01*
X182750*
Y163882*
X187632Y159000*
X123262Y204512D02*
X147750Y229000D01*
X172750*
X202750Y199000*
X217750*
X127750Y53080D02*
Y44330D01*
X129073Y173000D02*
X202750D01*
X217750Y188000*
Y189000*
X135750Y180063D02*
X139687Y184000D01*
Y195937*
X142750Y199000*
X147750*
X152750Y205500*
X136750Y184787D02*
Y203000D01*
X134250Y204000*
X137238Y178488D02*
X142750Y184000D01*
Y189000*
X147750Y194000*
X197750*
X207750Y184000*
X141163Y176913D02*
X154250Y189000D01*
X146411Y175339D02*
X147750Y174000D01*
X168250*
X174250Y179000*
X147750Y234000D02*
X172750D01*
X197750Y209000*
X217750*
X168016Y109984D02*
X164000Y114000D01*
X170250Y116500D02*
Y114000D01*
X172297Y111953*
X177750Y157500D02*
X173750D01*
X172750Y158500*
X123537*
X120112Y161925*
X179234Y97516D02*
X182750Y94000D01*
X187750*
X179234Y115484D02*
X182750Y119000D01*
X185703Y106047D02*
X197750Y94000D01*
X202750*
X185703Y111953D02*
X187750Y114000D01*
Y139000*
X192750Y144000*
X197750*
X207750Y154000*
Y165500*
X189234Y108016D02*
X192750Y111531D01*
Y120500*
D02*
D16*
X142750Y249000D03*
X164000Y114000D03*
X170250Y116500D03*
X176766Y126500D03*
X187750Y94000D03*
X202750D03*
X207750Y165500D03*
Y184000D03*
D02*
D19*
X107750Y96450D02*
Y86906D01*
X107691Y86846*
X112750Y96450D02*
Y86906D01*
D02*
D71*
X16500Y60250D03*
Y277750D03*
X230250Y60250D03*
X231500Y279000D03*
D02*
D20*
X106333Y175339D03*
Y176913D03*
Y178488D03*
Y180063D03*
Y181638D03*
Y183213D03*
Y184787D03*
Y186362D03*
Y187937D03*
Y189512D03*
Y191087D03*
Y192661D03*
X129167Y175339D03*
Y176913D03*
Y178488D03*
Y180063D03*
Y181638D03*
Y183213D03*
Y184787D03*
Y186362D03*
Y187937D03*
Y189512D03*
Y191087D03*
Y192661D03*
D02*
D21*
X109089Y172583D03*
Y195417D03*
X110663Y172583D03*
Y195417D03*
X112238Y172583D03*
Y195417D03*
X113813Y172583D03*
Y195417D03*
X115388Y172583D03*
Y195417D03*
X116963Y172583D03*
Y195417D03*
X118537Y172583D03*
Y195417D03*
X120112Y172583D03*
Y195417D03*
X121687Y172583D03*
Y195417D03*
X123262Y172583D03*
Y195417D03*
X124837Y172583D03*
Y195417D03*
X126411Y172583D03*
Y195417D03*
D02*
D22*
X117750Y184000D03*
D02*
D23*
X127750Y16170D03*
Y44330D03*
D02*
D24*
X107691Y81728D03*
Y84287D03*
Y86846D03*
X112809Y81728D03*
Y84287D03*
Y86846D03*
D02*
D25*
X175150Y106047D03*
Y108016D03*
Y109984D03*
Y111953D03*
X181350Y106047D03*
Y108016D03*
Y109984D03*
Y111953D03*
D02*
D26*
X177266Y105900D03*
Y112100D03*
X179234Y105900D03*
Y112100D03*
D02*
D27*
X187632Y153300D03*
Y159000D03*
X192750Y153300D03*
Y159000D03*
D02*
D28*
X67750Y219000D03*
Y239000D03*
D02*
D29*
X57750Y230500D03*
Y237500D03*
X62750Y150500D03*
Y157500D03*
X72750Y139000D03*
Y146000D03*
X87750Y131750D03*
Y138750D03*
X102750Y230500D03*
Y237500D03*
X112750Y225500D03*
Y232500D03*
X122750Y225500D03*
Y232500D03*
X127750Y123000D03*
Y130000D03*
Y145000D03*
Y152000D03*
X135250Y123000D03*
Y130000D03*
Y145000D03*
Y152000D03*
X142750Y123000D03*
Y130000D03*
Y145500D03*
Y152500D03*
X150250Y145500D03*
Y152500D03*
X152750Y205500D03*
Y212500D03*
X177750Y150500D03*
Y157500D03*
X192750Y120500D03*
Y127500D03*
D02*
D72*
X54250Y129000D03*
Y139000D03*
Y169000D03*
Y179000D03*
X59250Y209000D03*
X61250Y129000D03*
Y139000D03*
Y169000D03*
Y179000D03*
X66250Y209000D03*
X80500Y150250D03*
X87500D03*
X89250Y159000D03*
Y209000D03*
Y219000D03*
X90500Y124000D03*
X96250Y159000D03*
Y209000D03*
Y219000D03*
X97500Y124000D03*
X134250Y204000D03*
X141250D03*
X153000Y101500D03*
X154250Y189000D03*
X160000Y101500D03*
X161250Y189000D03*
X174250Y179000D03*
X181250D03*
D02*
D73*
X107750Y96450D03*
Y101550D03*
X112750Y96450D03*
Y101550D03*
D02*
D74*
X27750Y86000D03*
Y96000D03*
Y106000D03*
Y116000D03*
Y126000D03*
Y136000D03*
Y156000D03*
Y166000D03*
Y176000D03*
Y186000D03*
Y196000D03*
Y206000D03*
Y216000D03*
Y226000D03*
X217750Y86000D03*
Y96000D03*
Y106000D03*
Y116000D03*
Y126000D03*
Y136000D03*
Y146000D03*
Y156000D03*
Y169000D03*
Y179000D03*
Y189000D03*
Y199000D03*
Y209000D03*
Y219000D03*
Y229000D03*
Y239000D03*
Y249000D03*
Y259000D03*
D02*
D75*
X52750Y149500D03*
Y158500D03*
X96500Y139500D03*
Y148500D03*
D02*
D76*
X57750Y189000D03*
X66750D03*
D02*
D94*
X7750Y275165D02*
Y62835D01*
G75*
G02X25624Y60250I8750J-2585*
G01*
G75*
G02X19085Y51500I-9124*
G01*
X114648*
G75*
G02X114266Y52750I1852J1250*
G01*
G75*
G02X118734I2234*
G01*
G75*
G02X118352Y51500I-2234*
G01*
X120469*
G75*
G02X120299Y53080I7281J1579*
G01*
Y79000*
G75*
G02X120335Y79730I7451J0*
G01*
X112809*
G75*
G02X112055Y79878J1998*
G01*
X104841*
Y85530*
G75*
G02X104531Y86906I2909J1376*
G01*
Y91830*
G75*
G02X101766Y94000I-531J2170*
G01*
G75*
G02X104531Y96170I2234*
G01*
Y96450*
G75*
G02X105100Y98277I3219*
G01*
Y98306*
G75*
G02X101766Y100250I-1100J1944*
G01*
G75*
G02X104335Y102459I2234*
G01*
Y105541*
G75*
G02X101766Y107750I-335J2209*
G01*
G75*
G02X104335Y109959I2234*
G01*
Y111791*
G75*
G02X101766Y114000I-335J2209*
G01*
G75*
G02X104335Y116209I2234*
G01*
Y118041*
G75*
G02X101766Y120250I-335J2209*
G01*
G75*
G02X104335Y122459I2234*
G01*
Y125541*
G75*
G02X102175Y126461I-335J2209*
G01*
X101017Y125303*
G75*
G02X101248Y124107I-3517J-1302*
G01*
X101455Y116886*
G75*
G02X101800Y115250I-3705J-1636*
G01*
G75*
G02X93700I-4050*
G01*
G75*
G02X93958Y116672I4050*
G01*
X93799Y122218*
G75*
G02X86750Y124000I-3299J1782*
G01*
G75*
G02X94000Y125346I3750*
G01*
G75*
G02X94104Y125591I3500J-1346*
G01*
Y127219*
X95576*
G75*
G02X98421Y127635I1924J-3219*
G01*
X99508Y128722*
Y135250*
X97248*
Y134000*
G75*
G02X96663Y132587I-1998J0*
G01*
X94413Y130337*
G75*
G02X92997Y129752I-1413J1413*
G01*
X90969*
Y128354*
X84531*
Y135146*
X90969*
Y133748*
X92172*
X93252Y134828*
Y135250*
X92500*
Y143750*
X99508*
Y144250*
X92500*
Y152750*
X94252*
Y155781*
X92854*
Y162219*
X95752*
Y174000*
G75*
G02X95761Y174185I2000J-1*
G01*
X89748Y168172*
Y162219*
X92646*
Y155781*
X90998*
G75*
G02X90663Y155337I-1748J968*
G01*
X89748Y154422*
Y153469*
X90896*
Y147031*
X89498*
Y142146*
X90969*
Y135354*
X84531*
Y139863*
G75*
G02X76450Y140250I-4031J387*
G01*
G75*
G02X84531Y140637I4050*
G01*
Y142146*
X85502*
Y147031*
X84104*
Y149215*
G75*
G02X76750Y150250I-3604J1035*
G01*
G75*
G02X84104Y151285I3750*
G01*
Y153469*
X85752*
Y155250*
G75*
G02X85854Y155881I1999*
G01*
Y158869*
G75*
G02X85752Y159500I1896J631*
G01*
Y168676*
X80248Y163172*
Y159000*
G75*
G02X79663Y157587I-1998J0*
G01*
X74748Y152672*
Y149396*
X75969*
Y142604*
X73785*
G75*
G02X76500Y139000I-1035J-3604*
G01*
G75*
G02X69000I-3750*
G01*
G75*
G02X71715Y142604I3750*
G01*
X69531*
Y149396*
X70752*
Y153500*
G75*
G02X71337Y154913I1998J0*
G01*
X76252Y159828*
Y164000*
G75*
G02X76261Y164185I2000J-1*
G01*
X75248Y163172*
Y160000*
G75*
G02X74588Y158516I-1998*
G01*
X65969Y150718*
Y147104*
X64748*
Y139500*
G75*
G02X64646Y138869I-1999*
G01*
Y135781*
X63248*
Y132219*
X64646*
Y125781*
X57854*
Y127965*
G75*
G02X50500Y129000I-3604J1035*
G01*
G75*
G02X57854Y130035I3750*
G01*
Y132219*
X59252*
Y135781*
X57854*
Y142219*
X60752*
Y147104*
X59531*
Y153896*
X63525*
X63756Y154104*
X59531*
Y155502*
X56750*
Y154250*
X48750*
Y162750*
X56750*
Y159498*
X59531*
Y160896*
X63237*
X69558Y167490*
G75*
G02X68247Y167002I-1308J1511*
G01*
X64646*
Y165781*
X57854*
Y167965*
G75*
G02X50500Y169000I-3604J1035*
G01*
G75*
G02X57854Y170035I3750*
G01*
Y172219*
X64646*
Y170998*
X67422*
X73631Y177207*
G75*
G02X72750Y177002I-881J1793*
G01*
X64646*
Y175781*
X57854*
Y177965*
G75*
G02X50500Y179000I-3604J1035*
G01*
G75*
G02X57854Y180035I3750*
G01*
Y182219*
X64646*
Y180998*
X72424*
X76967Y185541*
G75*
G02X78537Y186530I1570J-754*
G01*
X87395*
X86922Y187002*
X71000*
Y185000*
X62500*
Y192002*
X62000*
Y185000*
X53500*
Y192002*
X52753*
G75*
G02X51337Y192587I-3J1998*
G01*
X46337Y197587*
G75*
G02X45752Y199000I1413J1413*
G01*
Y228500*
G75*
G02X46413Y229985I1998*
G01*
X54531Y237291*
Y240896*
X57619*
G75*
G02X58252Y240998I631J-1896*
G01*
X63999*
G75*
G02X72000Y239000I3751J-1998*
G01*
G75*
G02X63999Y237002I-4250*
G01*
X60969*
Y234104*
X58785*
G75*
G02X61500Y230500I-1035J-3604*
G01*
G75*
G02X54000I-3750*
G01*
G75*
G02X54159Y231580I3750J1*
G01*
X49748Y227610*
Y199828*
X53578Y195998*
X56531*
G75*
G02X55200Y199000I2719J3002*
G01*
G75*
G02X63300I4050*
G01*
G75*
G02X61969Y195998I-4050*
G01*
X86938*
X85934Y197002*
X72753*
G75*
G02X71337Y197587I-3J1998*
G01*
X66337Y202587*
G75*
G02X65752Y204000I1413J1413*
G01*
Y205781*
X62854*
Y207965*
G75*
G02X55500Y209000I-3604J1035*
G01*
G75*
G02X62854Y210035I3750*
G01*
Y212219*
X64252*
Y216586*
G75*
G02X63500Y219000I3498J2414*
G01*
G75*
G02X72000I4250*
G01*
G75*
G02X68248Y214779I-4250*
G01*
Y212219*
X69646*
Y208131*
G75*
G02X69748Y207500I-1896J-631*
G01*
Y204828*
X73578Y200998*
X86759*
G75*
G02X88175Y200413I3J-1998*
G01*
X97333Y191254*
X103213*
Y194305*
X107445*
Y194840*
G75*
G02X107346Y195417I1643J577*
G01*
Y198139*
X102145Y203341*
X100911*
G75*
G02X100000Y203561I0J1998*
G01*
Y200530*
G75*
G02X100300Y199000I-3750J-1530*
G01*
G75*
G02X92200I-4050*
G01*
G75*
G02X92500Y200530I4050*
G01*
Y207129*
G75*
G02X85500Y209000I-3250J1871*
G01*
G75*
G02X92500Y210871I3750*
G01*
Y217129*
G75*
G02X85500Y219000I-3250J1871*
G01*
G75*
G02X92750Y220346I3750*
G01*
G75*
G02X92854Y220591I3500J-1346*
G01*
Y222219*
X94326*
G75*
G02X98174I1924J-3219*
G01*
X99646*
Y220591*
G75*
G02X100000Y219000I-3396J-1591*
G01*
Y208595*
X101535Y207390*
X101337Y207587*
G75*
G02X100752Y209000I1413J1413*
G01*
Y226750*
X94280*
G75*
G02X90712Y234000I-1530J3750*
G01*
G75*
G02X88700Y237500I2038J3500*
G01*
G75*
G02X96800I4050*
G01*
G75*
G02X95167Y234250I-4050*
G01*
X100879*
G75*
G02X99000Y237500I1871J3250*
G01*
G75*
G02X105752Y239747I3750*
G01*
Y249000*
G75*
G02X106337Y250413I1998J0*
G01*
X111337Y255413*
G75*
G02X112753Y255998I1413J-1413*
G01*
X137747*
G75*
G02X139163Y255413I3J-1998*
G01*
X142003Y252573*
G75*
G02X146400Y249000I747J-3573*
G01*
G75*
G02X139100I-3650*
G01*
G75*
G02X139177Y249747I3651J0*
G01*
X136922Y252002*
X113578*
X109748Y248172*
Y246219*
G75*
G02X116800Y243500I3002J-2719*
G01*
G75*
G02X109748Y240781I-4050*
G01*
Y234747*
G75*
G02X116500Y232500I3002J-2247*
G01*
G75*
G02X113785Y228896I-3750*
G01*
X115969*
Y222104*
X114748*
Y209744*
X116759Y207733*
G75*
G02X116795Y207696I-1386J-1365*
G01*
Y219309*
G75*
G02X116983Y221543I1742J978*
G01*
X119531Y224696*
Y228896*
X121715*
G75*
G02X119000Y232500I1035J3604*
G01*
G75*
G02X126500I3750*
G01*
G75*
G02X123785Y228896I-3750*
G01*
X125969*
Y222104*
X122575*
X120280Y219264*
Y214355*
X146337Y240413*
G75*
G02X147753Y240998I1413J-1413*
G01*
X172747*
G75*
G02X174163Y240413I3J-1998*
G01*
X193578Y220998*
X213500*
Y223250*
X222000*
Y214750*
X213500*
Y217002*
X192753*
G75*
G02X192565Y217011I-2J2001*
G01*
X198578Y210998*
X213500*
Y213250*
X222000*
Y204750*
X213500*
Y207002*
X197753*
G75*
G02X197565Y207011I-2J2001*
G01*
X203578Y200998*
X213500*
Y203250*
X222000*
Y194750*
X213500*
Y197002*
X202753*
G75*
G02X201337Y197587I-3J1998*
G01*
X171922Y227002*
X148578*
X138802Y217227*
G75*
G02X145300Y214000I2448J-3227*
G01*
G75*
G02X137200I-4050*
G01*
G75*
G02X138023Y216448I4050*
G01*
X125004Y203428*
Y198537*
X128055*
Y194305*
X132287*
Y190568*
G75*
G02X134752Y191677I1963J-1068*
G01*
Y200781*
X130854*
Y207219*
X137646*
Y205035*
G75*
G02X145000Y204000I3604J-1035*
G01*
G75*
G02X143497Y200998I-3750*
G01*
X146766*
X149231Y204203*
G75*
G02X149531Y207424I3519J1297*
G01*
Y208896*
X151159*
G75*
G02X151404Y209000I1591J-3395*
G01*
G75*
G02X151031Y215833I1346J3500*
G01*
G75*
G02X148700Y219500I1719J3667*
G01*
G75*
G02X156800I4050*
G01*
G75*
G02X154469Y215833I-4050*
G01*
G75*
G02X154621Y209250I-1719J-3333*
G01*
X161220*
G75*
G02X166800Y205500I1530J-3750*
G01*
G75*
G02X161220Y201750I-4050*
G01*
X152750*
G75*
G02X152399Y201767I1J3750*
G01*
X149334Y197782*
G75*
G02X147748Y197002I-1584J1219*
G01*
X143578*
X141685Y195109*
Y190761*
X146337Y195413*
G75*
G02X147753Y195998I1413J-1413*
G01*
X197747*
G75*
G02X199163Y195413I3J-1998*
G01*
X207003Y187573*
G75*
G02X211400Y184000I747J-3573*
G01*
G75*
G02X204100I-3650*
G01*
G75*
G02X204177Y184747I3651J0*
G01*
X196922Y192002*
X184969*
G75*
G02X186300Y189000I-2719J-3002*
G01*
G75*
G02X178200I-4050*
G01*
G75*
G02X179531Y192002I4050*
G01*
X175469*
G75*
G02X172750Y184950I-2719J-3002*
G01*
G75*
G02X170031Y192002J4050*
G01*
X163497*
G75*
G02X161250Y185250I-2247J-3002*
G01*
G75*
G02X157646Y187965J3750*
G01*
Y185781*
X156750*
Y184000*
G75*
G02X156018Y182232I-2500*
G01*
X155750Y181965*
Y179000*
G75*
G02X150750I-2500*
G01*
Y183000*
G75*
G02X150750Y183048I2500J4*
G01*
X144289Y177081*
X145433*
G75*
G02X147824Y176752I978J-1742*
G01*
X148578Y175998*
X160031*
G75*
G02X164280Y182750I2718J3002*
G01*
X174250*
G75*
G02X176174Y182219J-3750*
G01*
X177646*
Y180591*
G75*
G02X177750Y180346I-3395J-1591*
G01*
G75*
G02X185000Y179000I3500J-1346*
G01*
G75*
G02X177750Y177654I-3750*
G01*
G75*
G02X177646Y177409I-3500J1346*
G01*
Y175781*
X176174*
G75*
G02X174250Y175250I-1924J3219*
G01*
X172871*
X169529Y172465*
G75*
G02X168249Y172002I-1279J1535*
G01*
X147750*
G75*
G02X146334Y172590I0J1998*
G01*
X145328Y173596*
X129167*
G75*
G02X128590Y173695J1742*
G01*
X128055*
Y170998*
X201922*
X213500Y182576*
Y183250*
X214174*
X215674Y184750*
X213500*
Y193250*
X222000*
Y184750*
X219748*
Y184000*
G75*
G02X219602Y183250I-1998*
G01*
X222000*
Y174750*
X213500*
Y176924*
X204163Y167587*
G75*
G02X202747Y167002I-1413J1413*
G01*
X127750*
G75*
G02X125762Y168797J1998*
G01*
X125318Y169241*
G75*
G02X125133Y169463I1094J1099*
G01*
X123429*
Y166146*
X123578Y165998*
X182750*
G75*
G02X184180Y165395I0J-1998*
G01*
X187591Y161902*
X190183*
Y150402*
X190132*
Y146150*
G75*
G02X185132I-2500*
G01*
Y150402*
X185081*
Y158753*
X181908Y162002*
X122861*
X124365Y160498*
X172747*
G75*
G02X174163Y159913I3J-1998*
G01*
X174531Y159544*
Y160896*
X180969*
Y154104*
X178785*
G75*
G02X181500Y150500I-1035J-3604*
G01*
G75*
G02X174000I-3750*
G01*
G75*
G02X176715Y154104I3750*
G01*
X174531*
Y155502*
X173753*
G75*
G02X172337Y156087I-3J1998*
G01*
X171922Y156502*
X159622*
G75*
G02X163050Y152500I-622J-4002*
G01*
G75*
G02X157470Y148750I-4050*
G01*
X152121*
G75*
G02X150691Y141776I-1871J-3250*
G01*
G75*
G02X150884Y133750I-441J-4026*
G01*
X156220*
G75*
G02X161800Y130000I1530J-3750*
G01*
G75*
G02X156220Y126250I-4050*
G01*
X144621*
G75*
G02X146500Y123000I-1871J-3250*
G01*
G75*
G02X139000I-3750*
G01*
G75*
G02X140879Y126250I3750*
G01*
X137121*
G75*
G02X139000Y123000I-1871J-3250*
G01*
G75*
G02X131500I-3750*
G01*
G75*
G02X133379Y126250I3750*
G01*
X129621*
G75*
G02X131500Y123000I-1871J-3250*
G01*
G75*
G02X124000I-3750*
G01*
G75*
G02X126404Y126500I3750*
G01*
G75*
G02X126159Y126604I1346J3500*
G01*
X124531*
Y128076*
G75*
G02X124248Y128660I3218J1924*
G01*
G75*
G02X124087Y128801I1003J1302*
G01*
X119089Y133800*
G75*
G02X118606Y134963I1161J1163*
G01*
Y137005*
G75*
G02X116165Y135541I-2106J745*
G01*
Y132459*
G75*
G02X118734Y130250I335J-2209*
G01*
G75*
G02X116165Y128041I-2234*
G01*
Y124959*
G75*
G02X118734Y122750I335J-2209*
G01*
G75*
G02X116165Y120541I-2234*
G01*
Y117459*
G75*
G02X118734Y115250I335J-2209*
G01*
G75*
G02X116165Y113041I-2234*
G01*
Y109959*
G75*
G02X118734Y107750I335J-2209*
G01*
G75*
G02X116165Y105541I-2234*
G01*
Y102459*
G75*
G02X118734Y100250I335J-2209*
G01*
G75*
G02X115400Y98306I-2234*
G01*
Y98277*
G75*
G02X115969Y96450I-2650J-1827*
G01*
Y94920*
G75*
G02X118734Y92750I531J-2170*
G01*
G75*
G02X115969Y90580I-2234*
G01*
Y86906*
G75*
G02X115659Y85530I-3218*
G01*
Y83726*
X121990*
G75*
G02X135201Y79000I5760J-4726*
G01*
Y53080*
G75*
G02X135031Y51500I-7451J0*
G01*
X227665*
G75*
G02X221126Y60250I2585J8750*
G01*
G75*
G02X239374I9124*
G01*
G75*
G02X232835Y51500I-9124*
G01*
X242750*
Y289000*
X7750*
Y280335*
G75*
G02X25624Y277750I8750J-2585*
G01*
G75*
G02X7750Y275165I-9124*
G01*
X34000Y286234D02*
G75*
G02X36234Y284000J-2234D01*
G01*
G75*
G02X34000Y281766I-2234*
G01*
G75*
G02X31766Y284000J2234*
G01*
G75*
G02X34000Y286234I2234*
G01*
X38700Y129000D02*
G75*
G02X46800I4050D01*
G01*
G75*
G02X38700I-4050*
G01*
X40516Y54000D02*
G75*
G02X44984I2234D01*
G01*
G75*
G02X40516I-2234*
G01*
X38700Y169000D02*
G75*
G02X46800I4050D01*
G01*
G75*
G02X38700I-4050*
G01*
Y179000D02*
G75*
G02X46800I4050D01*
G01*
G75*
G02X38700I-4050*
G01*
X41500Y286234D02*
G75*
G02X43734Y284000J-2234D01*
G01*
G75*
G02X41500Y281766I-2234*
G01*
G75*
G02X39266Y284000J2234*
G01*
G75*
G02X41500Y286234I2234*
G01*
X43200Y189000D02*
G75*
G02X51300I4050D01*
G01*
G75*
G02X43200I-4050*
G01*
X54748Y142219D02*
X57646D01*
Y135781*
X50854*
Y138869*
G75*
G02X50752Y139500I1896J631*
G01*
Y145250*
X48750*
Y153750*
X56750*
Y145250*
X54748*
Y142219*
X50250Y286234D02*
G75*
G02X52484Y284000J-2234D01*
G01*
G75*
G02X50250Y281766I-2234*
G01*
G75*
G02X48016Y284000J2234*
G01*
G75*
G02X50250Y286234I2234*
G01*
X60250D02*
G75*
G02X62484Y284000J-2234D01*
G01*
G75*
G02X60250Y281766I-2234*
G01*
G75*
G02X58016Y284000J2234*
G01*
G75*
G02X60250Y286234I2234*
G01*
X71500D02*
G75*
G02X73734Y284000J-2234D01*
G01*
G75*
G02X71500Y281766I-2234*
G01*
G75*
G02X69266Y284000J2234*
G01*
G75*
G02X71500Y286234I2234*
G01*
X77750Y213050D02*
G75*
G02X81800Y209000J-4050D01*
G01*
G75*
G02X77750Y204950I-4050*
G01*
G75*
G02X73700Y209000J4050*
G01*
G75*
G02X77750Y213050I4050*
G01*
Y223050D02*
G75*
G02X81800Y219000J-4050D01*
G01*
G75*
G02X77750Y214950I-4050*
G01*
G75*
G02X73700Y219000J4050*
G01*
G75*
G02X77750Y223050I4050*
G01*
X81500Y286234D02*
G75*
G02X83734Y284000J-2234D01*
G01*
G75*
G02X81500Y281766I-2234*
G01*
G75*
G02X79266Y284000J2234*
G01*
G75*
G02X81500Y286234I2234*
G01*
X91500D02*
G75*
G02X93734Y284000J-2234D01*
G01*
G75*
G02X91500Y281766I-2234*
G01*
G75*
G02X89266Y284000J2234*
G01*
G75*
G02X91500Y286234I2234*
G01*
X101500D02*
G75*
G02X103734Y284000J-2234D01*
G01*
G75*
G02X101500Y281766I-2234*
G01*
G75*
G02X99266Y284000J2234*
G01*
G75*
G02X101500Y286234I2234*
G01*
X111500D02*
G75*
G02X113734Y284000J-2234D01*
G01*
G75*
G02X111500Y281766I-2234*
G01*
G75*
G02X109266Y284000J2234*
G01*
G75*
G02X111500Y286234I2234*
G01*
X121500D02*
G75*
G02X123734Y284000J-2234D01*
G01*
G75*
G02X121500Y281766I-2234*
G01*
G75*
G02X119266Y284000J2234*
G01*
G75*
G02X121500Y286234I2234*
G01*
X131500D02*
G75*
G02X133734Y284000J-2234D01*
G01*
G75*
G02X131500Y281766I-2234*
G01*
G75*
G02X129266Y284000J2234*
G01*
G75*
G02X131500Y286234I2234*
G01*
X141500D02*
G75*
G02X143734Y284000J-2234D01*
G01*
G75*
G02X141500Y281766I-2234*
G01*
G75*
G02X139266Y284000J2234*
G01*
G75*
G02X141500Y286234I2234*
G01*
X151500D02*
G75*
G02X153734Y284000J-2234D01*
G01*
G75*
G02X151500Y281766I-2234*
G01*
G75*
G02X149266Y284000J2234*
G01*
G75*
G02X151500Y286234I2234*
G01*
X164000D02*
G75*
G02X166234Y284000J-2234D01*
G01*
G75*
G02X164000Y281766I-2234*
G01*
G75*
G02X161766Y284000J2234*
G01*
G75*
G02X164000Y286234I2234*
G01*
X175250D02*
G75*
G02X177484Y284000J-2234D01*
G01*
G75*
G02X175250Y281766I-2234*
G01*
G75*
G02X173016Y284000J2234*
G01*
G75*
G02X175250Y286234I2234*
G01*
X186500D02*
G75*
G02X188734Y284000J-2234D01*
G01*
G75*
G02X186500Y281766I-2234*
G01*
G75*
G02X184266Y284000J2234*
G01*
G75*
G02X186500Y286234I2234*
G01*
X195250D02*
G75*
G02X197484Y284000J-2234D01*
G01*
G75*
G02X195250Y281766I-2234*
G01*
G75*
G02X193016Y284000J2234*
G01*
G75*
G02X195250Y286234I2234*
G01*
X205250D02*
G75*
G02X207484Y284000J-2234D01*
G01*
G75*
G02X205250Y281766I-2234*
G01*
G75*
G02X203016Y284000J2234*
G01*
G75*
G02X205250Y286234I2234*
G01*
X215250D02*
G75*
G02X217484Y284000J-2234D01*
G01*
G75*
G02X215250Y281766I-2234*
G01*
G75*
G02X213016Y284000J2234*
G01*
G75*
G02X215250Y286234I2234*
G01*
X213500Y233250D02*
X222000D01*
Y224750*
X213500*
Y233250*
Y243250D02*
X222000D01*
Y234750*
X213500*
Y243250*
Y253250D02*
X222000D01*
Y244750*
X213500*
Y253250*
Y263250D02*
X222000D01*
Y254750*
X213500*
Y263250*
X222376Y279000D02*
G75*
G02X240624I9124D01*
G01*
G75*
G02X222376I-9124*
G01*
X235516Y70250D02*
G75*
G02X239984I2234D01*
G01*
G75*
G02X235516I-2234*
G01*
Y80250D02*
G75*
G02X239984I2234D01*
G01*
G75*
G02X235516I-2234*
G01*
Y90250D02*
G75*
G02X239984I2234D01*
G01*
G75*
G02X235516I-2234*
G01*
Y100250D02*
G75*
G02X239984I2234D01*
G01*
G75*
G02X235516I-2234*
G01*
Y110250D02*
G75*
G02X239984I2234D01*
G01*
G75*
G02X235516I-2234*
G01*
Y120250D02*
G75*
G02X239984I2234D01*
G01*
G75*
G02X235516I-2234*
G01*
Y131500D02*
G75*
G02X239984I2234D01*
G01*
G75*
G02X235516I-2234*
G01*
Y144000D02*
G75*
G02X239984I2234D01*
G01*
G75*
G02X235516I-2234*
G01*
Y154000D02*
G75*
G02X239984I2234D01*
G01*
G75*
G02X235516I-2234*
G01*
Y164000D02*
G75*
G02X239984I2234D01*
G01*
G75*
G02X235516I-2234*
G01*
Y174000D02*
G75*
G02X239984I2234D01*
G01*
G75*
G02X235516I-2234*
G01*
Y184000D02*
G75*
G02X239984I2234D01*
G01*
G75*
G02X235516I-2234*
G01*
Y194000D02*
G75*
G02X239984I2234D01*
G01*
G75*
G02X235516I-2234*
G01*
Y204000D02*
G75*
G02X239984I2234D01*
G01*
G75*
G02X235516I-2234*
G01*
Y214000D02*
G75*
G02X239984I2234D01*
G01*
G75*
G02X235516I-2234*
G01*
Y224000D02*
G75*
G02X239984I2234D01*
G01*
G75*
G02X235516I-2234*
G01*
Y235250D02*
G75*
G02X239984I2234D01*
G01*
G75*
G02X235516I-2234*
G01*
Y245250D02*
G75*
G02X239984I2234D01*
G01*
G75*
G02X235516I-2234*
G01*
Y254000D02*
G75*
G02X239984I2234D01*
G01*
G75*
G02X235516I-2234*
G01*
Y261500D02*
G75*
G02X239984I2234D01*
G01*
G75*
G02X235516I-2234*
G01*
X8016Y75250D02*
G75*
G02X12484I2234D01*
G01*
G75*
G02X8016I-2234*
G01*
Y87750D02*
G75*
G02X12484I2234D01*
G01*
G75*
G02X8016I-2234*
G01*
Y97750D02*
G75*
G02X12484I2234D01*
G01*
G75*
G02X8016I-2234*
G01*
Y107750D02*
G75*
G02X12484I2234D01*
G01*
G75*
G02X8016I-2234*
G01*
Y116500D02*
G75*
G02X12484I2234D01*
G01*
G75*
G02X8016I-2234*
G01*
Y127750D02*
G75*
G02X12484I2234D01*
G01*
G75*
G02X8016I-2234*
G01*
Y139000D02*
G75*
G02X12484I2234D01*
G01*
G75*
G02X8016I-2234*
G01*
Y151500D02*
G75*
G02X12484I2234D01*
G01*
G75*
G02X8016I-2234*
G01*
Y161500D02*
G75*
G02X12484I2234D01*
G01*
G75*
G02X8016I-2234*
G01*
Y170250D02*
G75*
G02X12484I2234D01*
G01*
G75*
G02X8016I-2234*
G01*
Y177750D02*
G75*
G02X12484I2234D01*
G01*
G75*
G02X8016I-2234*
G01*
Y186500D02*
G75*
G02X12484I2234D01*
G01*
G75*
G02X8016I-2234*
G01*
Y195250D02*
G75*
G02X12484I2234D01*
G01*
G75*
G02X8016I-2234*
G01*
Y205250D02*
G75*
G02X12484I2234D01*
G01*
G75*
G02X8016I-2234*
G01*
Y215250D02*
G75*
G02X12484I2234D01*
G01*
G75*
G02X8016I-2234*
G01*
Y225250D02*
G75*
G02X12484I2234D01*
G01*
G75*
G02X8016I-2234*
G01*
Y236500D02*
G75*
G02X12484I2234D01*
G01*
G75*
G02X8016I-2234*
G01*
Y246500D02*
G75*
G02X12484I2234D01*
G01*
G75*
G02X8016I-2234*
G01*
Y255250D02*
G75*
G02X12484I2234D01*
G01*
G75*
G02X8016I-2234*
G01*
Y264000D02*
G75*
G02X12484I2234D01*
G01*
G75*
G02X8016I-2234*
G01*
X13700Y176000D02*
G75*
G02X21800I4050D01*
G01*
G75*
G02X13700I-4050*
G01*
X23500Y90250D02*
X32000D01*
Y81750*
X23500*
Y90250*
X30516Y54000D02*
G75*
G02X34984I2234D01*
G01*
G75*
G02X30516I-2234*
G01*
X23500Y100250D02*
X32000D01*
Y91750*
X23500*
Y100250*
Y110250D02*
X32000D01*
Y101750*
X23500*
Y110250*
Y120250D02*
X32000D01*
Y111750*
X23500*
Y120250*
Y130250D02*
X32000D01*
Y121750*
X23500*
Y130250*
Y140250D02*
X32000D01*
Y131750*
X23500*
Y140250*
Y160250D02*
X32000D01*
Y151750*
X23500*
Y160250*
Y170250D02*
X32000D01*
Y161750*
X23500*
Y170250*
Y180250D02*
X32000D01*
Y171750*
X23500*
Y180250*
Y190250D02*
X32000D01*
Y181750*
X23500*
Y190250*
Y200250D02*
X32000D01*
Y191750*
X23500*
Y200250*
Y210250D02*
X32000D01*
Y201750*
X23500*
Y210250*
Y220250D02*
X32000D01*
Y211750*
X23500*
Y220250*
Y230250D02*
X32000D01*
Y221750*
X23500*
Y230250*
X114266Y60250D02*
G75*
G02X118734I2234D01*
G01*
G75*
G02X114266I-2234*
G01*
Y67750D02*
G75*
G02X118734I2234D01*
G01*
G75*
G02X114266I-2234*
G01*
Y74000D02*
G75*
G02X118734I2234D01*
G01*
G75*
G02X114266I-2234*
G01*
X96200Y84287D02*
G75*
G02X104300I4050D01*
G01*
G75*
G02X96200I-4050*
G01*
X103016Y54000D02*
G75*
G02X107484I2234D01*
G01*
G75*
G02X103016I-2234*
G01*
X104266Y74000D02*
G75*
G02X108734I2234D01*
G01*
G75*
G02X104266I-2234*
G01*
X91766Y54000D02*
G75*
G02X96234I2234D01*
G01*
G75*
G02X91766I-2234*
G01*
X68700Y127500D02*
G75*
G02X76800I4050D01*
G01*
G75*
G02X68700I-4050*
G01*
X71766Y54000D02*
G75*
G02X76234I2234D01*
G01*
G75*
G02X71766I-2234*
G01*
X76200Y124000D02*
G75*
G02X84300I4050D01*
G01*
G75*
G02X76200I-4050*
G01*
X81766Y54000D02*
G75*
G02X86234I2234D01*
G01*
G75*
G02X81766I-2234*
G01*
X61766D02*
G75*
G02X66234I2234D01*
G01*
G75*
G02X61766I-2234*
G01*
X51766D02*
G75*
G02X56234I2234D01*
G01*
G75*
G02X51766I-2234*
G01*
X57750Y223050D02*
G75*
G02X61800Y219000J-4050D01*
G01*
G75*
G02X57750Y214950I-4050*
G01*
G75*
G02X53700Y219000J4050*
G01*
G75*
G02X57750Y223050I4050*
G01*
X118700Y244000D02*
G75*
G02X126800I4050D01*
G01*
G75*
G02X118700I-4050*
G01*
X213500Y90250D02*
X222000D01*
Y81750*
X213500*
Y90250*
X215516Y55250D02*
G75*
G02X219984I2234D01*
G01*
G75*
G02X215516I-2234*
G01*
X213500Y100250D02*
X222000D01*
Y91750*
X213500*
Y100250*
Y110250D02*
X222000D01*
Y101750*
X213500*
Y110250*
Y120250D02*
X222000D01*
Y111750*
X213500*
Y120250*
Y130250D02*
X222000D01*
Y121750*
X213500*
Y130250*
Y140250D02*
X222000D01*
Y131750*
X213500*
Y140250*
Y150250D02*
X222000D01*
Y141750*
X213500*
Y150250*
Y160250D02*
X222000D01*
Y151750*
X213500*
Y160250*
Y173250D02*
X222000D01*
Y164750*
X213500*
Y173250*
X204100Y165500D02*
G75*
G02X211400I3650D01*
G01*
G75*
G02X209748Y162445I-3650*
G01*
Y154000*
G75*
G02X209163Y152587I-1998J0*
G01*
X199163Y142587*
G75*
G02X197747Y142002I-1413J1413*
G01*
X193578*
X192574Y140999*
G75*
G02X196800Y136953I176J-4046*
G01*
G75*
G02X189748Y134234I-4050*
G01*
Y129747*
G75*
G02X196500Y127500I3002J-2247*
G01*
G75*
G02X194621Y124250I-3750*
G01*
X198720*
G75*
G02X204300Y120500I1530J-3750*
G01*
G75*
G02X198720Y116750I-4050*
G01*
X194748*
Y111531*
G75*
G02X194163Y110119I-1998J0*
G01*
X190647Y106603*
G75*
G02X188353Y106222I-1413J1413*
G01*
X198578Y95998*
X199695*
G75*
G02X206400Y94000I3055J-1998*
G01*
G75*
G02X199695Y92002I-3650*
G01*
X197753*
G75*
G02X196337Y92587I-3J1998*
G01*
X184521Y104404*
X183152*
Y104197*
X181085*
Y104098*
X180878*
Y98698*
X183578Y95998*
X184695*
G75*
G02X191400Y94000I3055J-1998*
G01*
G75*
G02X184695Y92002I-3650*
G01*
X182753*
G75*
G02X181337Y92587I-3J1998*
G01*
X177821Y96103*
G75*
G02X177591Y98652I1413J1413*
G01*
Y104098*
X176699*
Y103900*
G75*
G02X176243Y102802I-1549*
G01*
X173848Y100407*
G75*
G02X172750Y99951I-1098J1093*
G01*
X163415*
G75*
G02X163396Y99909I-3428J1544*
G01*
Y98281*
X161924*
G75*
G02X158076I-1924J3219*
G01*
X156604*
Y99909*
G75*
G02X156500Y100154I3395J1591*
G01*
G75*
G02X149250Y101500I-3500J1346*
G01*
G75*
G02X156250Y103371I3750*
G01*
Y108720*
G75*
G02X160361Y114284I3750J1530*
G01*
G75*
G02X166600Y116561I3639J-284*
G01*
G75*
G02X173900Y116500I3650J-61*
G01*
G75*
G02X167650Y113939I-3650*
G01*
G75*
G02X164049Y110350I-3650J61*
G01*
G75*
G02X164050Y110250I-4053J-98*
G01*
G75*
G02X163750Y108720I-4050*
G01*
Y103049*
X172108*
X173348Y104289*
Y106467*
X171260*
G75*
G02X167416Y108016I-1610J1549*
G01*
G75*
G02X171260Y109565I2234*
G01*
X173348*
Y113803*
X175415*
Y113902*
X181085*
Y113803*
X183152*
Y113703*
X184627*
X185752Y114828*
Y116281*
G75*
G02X178700Y119000I-3002J2719*
G01*
G75*
G02X185752Y121719I4050*
G01*
Y139000*
G75*
G02X186337Y140413I1998J0*
G01*
X191337Y145413*
G75*
G02X192753Y145998I1413J-1413*
G01*
X196922*
X205752Y154828*
Y162445*
G75*
G02X204100Y165500I1998J3055*
G01*
X204266Y55250D02*
G75*
G02X208734I2234D01*
G01*
G75*
G02X204266I-2234*
G01*
X194266D02*
G75*
G02X198734I2234D01*
G01*
G75*
G02X194266I-2234*
G01*
X184266D02*
G75*
G02X188734I2234D01*
G01*
G75*
G02X184266I-2234*
G01*
X174266D02*
G75*
G02X178734I2234D01*
G01*
G75*
G02X174266I-2234*
G01*
X164266D02*
G75*
G02X168734I2234D01*
G01*
G75*
G02X164266I-2234*
G01*
X153016D02*
G75*
G02X157484I2234D01*
G01*
G75*
G02X153016I-2234*
G01*
X197005Y161500D02*
G75*
G02X204241Y159000I3186J-2500D01*
G01*
G75*
G02X197005Y156500I-4050*
G01*
X195301*
Y150402*
X190199*
Y161902*
X195301*
Y161500*
X197005*
X173116Y126500D02*
G75*
G02X180416I3650D01*
G01*
G75*
G02X173116I-3650*
G01*
X177750Y142550D02*
G75*
G02X181800Y138500J-4050D01*
G01*
G75*
G02X177750Y134450I-4050*
G01*
G75*
G02X173700Y138500J4050*
G01*
G75*
G02X177750Y142550I4050*
G01*
X122450Y92750D02*
G75*
G02X130550I4050D01*
G01*
G75*
G02X122450I-4050*
G01*
X139000Y115530D02*
G75*
G02X146800Y114000I3750J-1530D01*
G01*
G75*
G02X139000Y112470I-4050*
G01*
G75*
G02X131500I-3750J1530*
G01*
G75*
G02X123700Y114000I-3750J1530*
G01*
G75*
G02X131500Y115530I4050*
G01*
G75*
G02X139000I3750J-1530*
G01*
X139950Y101500D02*
G75*
G02X148050I4050D01*
G01*
G75*
G02X139950I-4050*
G01*
X143016Y55250D02*
G75*
G02X147484I2234D01*
G01*
G75*
G02X143016I-2234*
G01*
X135516D02*
G75*
G02X139984I2234D01*
G01*
G75*
G02X135516I-2234*
G01*
Y62750D02*
G75*
G02X139984I2234D01*
G01*
G75*
G02X135516I-2234*
G01*
Y70250D02*
G75*
G02X139984I2234D01*
G01*
G75*
G02X135516I-2234*
G01*
Y79000D02*
G75*
G02X139984I2234D01*
G01*
G75*
G02X135516I-2234*
G01*
X23147Y54000D02*
G36*
G75*
G02X19816Y51750I-6648J6250D01*
G01*
X114502*
G75*
G02X114266Y52750I1997J1000*
G01*
Y52750*
G75*
G02X114648Y54000I2234*
G01*
X107484*
G75*
G02X103016I-2234*
G01*
X96234*
G75*
G02X91766I-2234*
G01*
X86234*
G75*
G02X81766I-2234*
G01*
X76234*
G75*
G02X71766I-2234*
G01*
X66234*
G75*
G02X61766I-2234*
G01*
X56234*
G75*
G02X51766I-2234*
G01*
X44984*
G75*
G02X40516I-2234*
G01*
X34984*
G75*
G02X30516I-2234*
G01*
X23147*
G37*
X118352D02*
G36*
G75*
G02X118734Y52750I-1852J-1250D01*
G01*
Y52750*
G75*
G02X118498Y51750I-2233*
G01*
X120419*
G75*
G02X120299Y53080I7343J1331*
G01*
Y54000*
X118352*
G37*
X135201Y53080D02*
G36*
G75*
G02X135081Y51750I-7470J2D01*
G01*
X226934*
G75*
G02X223603Y54000I3316J8500*
G01*
X219602*
G75*
G02X215898I-1852J1250*
G01*
X208352*
G75*
G02X204648I-1852J1250*
G01*
X198352*
G75*
G02X194648I-1852J1250*
G01*
X188352*
G75*
G02X184648I-1852J1250*
G01*
X178352*
G75*
G02X174648I-1852J1250*
G01*
X168352*
G75*
G02X164648I-1852J1250*
G01*
X157102*
G75*
G02X153398I-1852J1250*
G01*
X147102*
G75*
G02X143398I-1852J1250*
G01*
X139602*
G75*
G02X135898I-1852J1250*
G01*
X135201*
Y53080*
G37*
X236897Y54000D02*
G36*
G75*
G02X233566Y51750I-6648J6250D01*
G01*
X242500*
Y54000*
X236897*
G37*
X25624Y60250D02*
G36*
G75*
G02X23147Y54000I-9125J1D01*
G01*
X30516*
G75*
G02X34984I2234*
G01*
X40516*
G75*
G02X44984I2234*
G01*
X51766*
G75*
G02X56234I2234*
G01*
X61766*
G75*
G02X66234I2234*
G01*
X71766*
G75*
G02X76234I2234*
G01*
X81766*
G75*
G02X86234I2234*
G01*
X91766*
G75*
G02X96234I2234*
G01*
X103016*
G75*
G02X107484I2234*
G01*
X114648*
G75*
G02X118352I1852J-1250*
G01*
X120299*
Y60250*
X118734*
G75*
G02X114266I-2234*
G01*
X25624*
G37*
X135201D02*
G36*
Y54000D01*
X135898*
G75*
G02X135516Y55250I1852J1250*
G01*
G75*
G02X139984I2234*
G01*
G75*
G02X139602Y54000I-2234*
G01*
X143398*
G75*
G02X143016Y55250I1852J1250*
G01*
G75*
G02X147484I2234*
G01*
G75*
G02X147102Y54000I-2234*
G01*
X153398*
G75*
G02X153016Y55250I1852J1250*
G01*
G75*
G02X157484I2234*
G01*
G75*
G02X157102Y54000I-2234*
G01*
X164648*
G75*
G02X164266Y55250I1852J1250*
G01*
G75*
G02X168734I2234*
G01*
G75*
G02X168352Y54000I-2234*
G01*
X174648*
G75*
G02X174266Y55250I1852J1250*
G01*
G75*
G02X178734I2234*
G01*
G75*
G02X178352Y54000I-2234*
G01*
X184648*
G75*
G02X184266Y55250I1852J1250*
G01*
G75*
G02X188734I2234*
G01*
G75*
G02X188352Y54000I-2234*
G01*
X194648*
G75*
G02X194266Y55250I1852J1250*
G01*
G75*
G02X198734I2234*
G01*
G75*
G02X198352Y54000I-2234*
G01*
X204648*
G75*
G02X204266Y55250I1852J1250*
G01*
G75*
G02X208734I2234*
G01*
G75*
G02X208352Y54000I-2234*
G01*
X215898*
G75*
G02X215516Y55250I1852J1250*
G01*
G75*
G02X219984I2234*
G01*
G75*
G02X219602Y54000I-2234*
G01*
X223603*
G75*
G02X221126Y60250I6647J6250*
G01*
X135201*
G37*
X239374D02*
G36*
G75*
G02X236897Y54000I-9125J1D01*
G01*
X242500*
Y60250*
X239374*
G37*
X25275Y62750D02*
G36*
G75*
G02X25624Y60250I-8775J-2500D01*
G01*
X114266*
G75*
G02X118734I2234*
G01*
X120299*
Y62750*
X25275*
G37*
X135201D02*
G36*
Y60250D01*
X221126*
G75*
G02X221475Y62750I9124*
G01*
X139984*
G75*
G02X135516I-2234*
G01*
X135201*
G37*
X239025D02*
G36*
G75*
G02X239374Y60250I-8775J-2500D01*
G01*
X242500*
Y62750*
X239025*
G37*
X8000Y67750D02*
G36*
Y63566D01*
G75*
G02X11304Y67750I8500J-3317*
G01*
X8000*
G37*
X21696D02*
G36*
G75*
G02X25275Y62750I-5196J-7500D01*
G01*
X120299*
Y67750*
X118734*
G75*
G02X114266I-2234*
G01*
X21696*
G37*
X135201D02*
G36*
Y62750D01*
X135516*
G75*
G02X139984I2234*
G01*
X221475*
G75*
G02X225054Y67750I8775J-2500*
G01*
X135201*
G37*
X235446D02*
G36*
G75*
G02X239025Y62750I-5196J-7500D01*
G01*
X242500*
Y67750*
X235446*
G37*
X8000Y70250D02*
G36*
Y67750D01*
X11304*
G75*
G02X21696I5196J-7500*
G01*
X114266*
G75*
G02X118734I2234*
G01*
X120299*
Y70250*
X8000*
G37*
X135201D02*
G36*
Y67750D01*
X225054*
G75*
G02X235446I5196J-7500*
G01*
X242500*
Y70250*
X239984*
G75*
G02X235516I-2234*
G01*
X139984*
G75*
G02X135516I-2234*
G01*
X135201*
G37*
X8000Y75250D02*
G36*
Y70250D01*
X120299*
Y75250*
X118352*
G75*
G02X118734Y74000I-1852J-1250*
G01*
G75*
G02X114266I-2234*
G01*
G75*
G02X114648Y75250I2234*
G01*
X108352*
G75*
G02X108734Y74000I-1852J-1250*
G01*
G75*
G02X104266I-2234*
G01*
G75*
G02X104648Y75250I2234*
G01*
X12484*
G75*
G02X8016I-2234*
G01*
X8000*
G37*
X135201D02*
G36*
Y70250D01*
X135516*
G75*
G02X139984I2234*
G01*
X235516*
G75*
G02X239984I2234*
G01*
X242500*
Y75250*
X135201*
G37*
X8000Y80250D02*
G36*
Y75250D01*
X8016*
G75*
G02X12484I2234*
G01*
X104648*
G75*
G02X108352I1852J-1250*
G01*
X114648*
G75*
G02X118352I1852J-1250*
G01*
X120299*
Y79000*
G75*
G02X120335Y79730I7550J-4*
G01*
X112809*
G75*
G02X112055Y79878I1J2005*
G01*
X104841*
Y80250*
X100569*
G75*
G02X99931I-319J4039*
G01*
X8000*
G37*
X135201Y79000D02*
G36*
Y75250D01*
X242500*
Y80250*
X239984*
G75*
G02X235516I-2234*
G01*
X139602*
G75*
G02X139984Y79000I-1852J-1250*
G01*
G75*
G02X135516I-2234*
G01*
G75*
G02X135898Y80250I2234*
G01*
X135095*
G75*
G02X135201Y79000I-7346J-1250*
G01*
G37*
X8000Y87750D02*
G36*
Y80250D01*
X99931*
G75*
G02X96200Y84287I319J4037*
G01*
G75*
G02X98149Y87750I4050*
G01*
X32000*
Y81750*
X23500*
Y87750*
X12484*
G75*
G02X8016I-2234*
G01*
X8000*
G37*
X104300Y84287D02*
G36*
G75*
G02X100569Y80250I-4050D01*
G01*
X104841*
Y85530*
G75*
G02X104531Y86906I2914J1377*
G01*
Y87750*
X102351*
G75*
G02X104300Y84287I-2101J-3463*
G01*
G37*
X115659Y85530D02*
G36*
Y83726D01*
X121990*
G75*
G02X135095Y80250I5760J-4726*
G01*
X135898*
G75*
G02X139602I1852J-1250*
G01*
X235516*
G75*
G02X239984I2234*
G01*
X242500*
Y87750*
X222000*
Y81750*
X213500*
Y87750*
X115969*
Y86906*
G75*
G02X115659Y85530I-3223J1*
G01*
G37*
X8000Y90250D02*
G36*
Y87750D01*
X8016*
G75*
G02X12484I2234*
G01*
X23500*
Y90250*
X8000*
G37*
X32000D02*
G36*
Y87750D01*
X98149*
G75*
G02X102351I2101J-3463*
G01*
X104531*
Y90250*
X32000*
G37*
X115969D02*
G36*
Y87750D01*
X213500*
Y90250*
X129686*
G75*
G02X123314I-3186J2500*
G01*
X115969*
G37*
X222000D02*
G36*
Y87750D01*
X242500*
Y90250*
X239984*
G75*
G02X235516I-2234*
G01*
X222000*
G37*
X8000Y97750D02*
G36*
Y90250D01*
X23500*
X32000*
X104531*
Y91830*
G75*
G02X101766Y94000I-531J2170*
G01*
G75*
G02X104531Y96170I2234*
G01*
Y96450*
G75*
G02X104806Y97750I3223J-1*
G01*
X32000*
Y91750*
X23500*
Y97750*
X12484*
G75*
G02X8016I-2234*
G01*
X8000*
G37*
X115969Y90580D02*
G36*
Y90250D01*
X123314*
G75*
G02X122450Y92750I3186J2500*
G01*
G75*
G02X130550I4050*
G01*
G75*
G02X129686Y90250I-4050*
G01*
X213500*
X222000*
X235516*
G75*
G02X239984I2234*
G01*
X242500*
Y97750*
X222000*
Y91750*
X213500*
Y97750*
X196826*
X198578Y95998*
X199695*
G75*
G02X206400Y94000I3055J-1998*
G01*
G75*
G02X199695Y92002I-3650*
G01*
X197753*
G75*
G02X196337Y92587I-2J2000*
G01*
X191174Y97750*
X181826*
X183578Y95998*
X184695*
G75*
G02X191400Y94000I3055J-1998*
G01*
G75*
G02X184695Y92002I-3650*
G01*
X182753*
G75*
G02X181337Y92587I-2J2000*
G01*
X177821Y96103*
G75*
G02X177236Y97515I1412J1413*
G01*
G75*
G02X177250Y97750I1998J0*
G01*
X160000*
X153018*
G75*
G02X152983I-17J3752*
G01*
X145530*
G75*
G02X142470I-1530J3750*
G01*
X115694*
G75*
G02X115969Y96450I-2948J-1301*
G01*
Y94920*
G75*
G02X118734Y92750I531J-2170*
G01*
G75*
G02X115969Y90580I-2234*
G01*
G37*
X8000Y100250D02*
G36*
Y97750D01*
X8016*
G75*
G02X12484I2234*
G01*
X23500*
Y100250*
X8000*
G37*
X32000D02*
G36*
Y97750D01*
X104806*
G75*
G02X105100Y98277I2948J-1301*
G01*
Y98306*
G75*
G02X101766Y100250I-1100J1944*
G01*
X32000*
G37*
X115400Y98306D02*
G36*
Y98277D01*
G75*
G02X115694Y97750I-2654J-1828*
G01*
X142470*
G75*
G02X140148Y100250I1530J3750*
G01*
X118734*
G75*
G02X115400Y98306I-2234*
G01*
G37*
X147852Y100250D02*
G36*
G75*
G02X145530Y97750I-3852J1250D01*
G01*
X152983*
G75*
G02X149465Y100250I17J3750*
G01*
X147852*
G37*
X156500Y100154D02*
G36*
G75*
G02X153018Y97750I-3500J1346D01*
G01*
X160000*
X177250*
G75*
G02X177591Y98652I1984J-235*
G01*
Y100250*
X173665*
G75*
G02X172750Y99951I-915J1251*
G01*
X163415*
G75*
G02X163396Y99909I-944J407*
G01*
Y98281*
X161924*
G75*
G02X160000Y97750I-1924J3218*
G01*
G75*
G02X158076Y98281J3750*
G01*
X156604*
Y99909*
G75*
G02X156500Y100154I3489J1631*
G01*
G37*
X180878Y100250D02*
G36*
Y98698D01*
X181826Y97750*
X191174*
X188674Y100250*
X180878*
G37*
X194326D02*
G36*
X196826Y97750D01*
X213500*
Y100250*
X194326*
G37*
X222000D02*
G36*
Y97750D01*
X242500*
Y100250*
X239984*
G75*
G02X235516I-2234*
G01*
X222000*
G37*
X8000Y107750D02*
G36*
Y100250D01*
X23500*
X32000*
X101766*
G75*
G02X104335Y102459I2234*
G01*
Y105541*
G75*
G02X101766Y107750I-335J2209*
G01*
X32000*
Y101750*
X23500*
Y107750*
X12484*
G75*
G02X8016I-2234*
G01*
X8000*
G37*
X116165Y105541D02*
G36*
Y102459D01*
G75*
G02X118734Y100250I335J-2209*
G01*
X140148*
G75*
G02X139950Y101500I3852J1250*
G01*
G75*
G02X148050I4050*
G01*
G75*
G02X147852Y100250I-4050J0*
G01*
X149465*
G75*
G02X149250Y101500I3536J1250*
G01*
G75*
G02X156250Y103371I3750*
G01*
Y107750*
X118734*
G75*
G02X116165Y105541I-2234*
G01*
G37*
X163750Y107750D02*
G36*
Y103049D01*
X172108*
X173348Y104289*
Y106467*
X171260*
G75*
G02X167431Y107750I-1610J1549*
G01*
X163750*
G37*
X173848Y100407D02*
G36*
G75*
G02X173665Y100250I-1098J1095D01*
G01*
X177591*
Y104098*
X176699*
Y103900*
G75*
G02X176243Y102802I-1550J0*
G01*
X173848Y100407*
G37*
X180878Y104098D02*
G36*
Y100250D01*
X188674*
X184521Y104404*
X183152*
Y104197*
X181085*
Y104098*
X180878*
G37*
X190647Y106603D02*
G36*
G75*
G02X188353Y106222I-1413J1413D01*
G01*
X194326Y100250*
X213500*
X222000*
X235516*
G75*
G02X239984I2234*
G01*
X242500*
Y107750*
X222000*
Y101750*
X213500*
Y107750*
X191794*
X190647Y106603*
G37*
X8000Y110250D02*
G36*
Y107750D01*
X8016*
G75*
G02X12484I2234*
G01*
X23500*
Y110250*
X8000*
G37*
X32000D02*
G36*
Y107750D01*
X101766*
G75*
G02X104335Y109959I2234*
G01*
Y110250*
X32000*
G37*
X116165D02*
G36*
Y109959D01*
G75*
G02X118734Y107750I335J-2209*
G01*
X156250*
Y108720*
G75*
G02X155950Y110250I3751J1530*
G01*
X144279*
G75*
G02X141221I-1529J3750*
G01*
X136779*
G75*
G02X133721I-1529J3750*
G01*
X129279*
G75*
G02X126221I-1529J3750*
G01*
X116165*
G37*
X163750Y108720D02*
G36*
Y107750D01*
X167431*
G75*
G02X167416Y108016I2220J265*
G01*
G75*
G02X169632Y110250I2234*
G01*
X164050*
G75*
G02Y110249I-4101J0*
G01*
G75*
G02X163750Y108720I-4045*
G01*
G37*
X169668Y110250D02*
G36*
G75*
G02X171260Y109565I-18J-2234D01*
G01*
X173348*
Y110250*
X169668*
G37*
X194163Y110119D02*
G36*
X191794Y107750D01*
X213500*
Y110250*
X194283*
G75*
G02X194163Y110119I-1534J1280*
G01*
G37*
X222000Y110250D02*
G36*
Y107750D01*
X242500*
Y110250*
X239984*
G75*
G02X235516I-2234*
G01*
X222000*
G37*
X8000Y116500D02*
G36*
Y110250D01*
X23500*
X32000*
X104335*
Y111791*
G75*
G02X101766Y114000I-335J2209*
G01*
G75*
G02X104335Y116209I2234*
G01*
Y116500*
X101602*
G75*
G02X101800Y115250I-3857J-1252*
G01*
G75*
G02X93700I-4050*
G01*
G75*
G02X93898Y116500I4050J0*
G01*
X32000*
Y111750*
X23500*
Y116500*
X12484*
G75*
G02X8016I-2234*
G01*
X8000*
G37*
X116165Y113041D02*
G36*
Y110250D01*
X126221*
G75*
G02X123700Y114000I1529J3750*
G01*
G75*
G02X124564Y116500I4050*
G01*
X118352*
G75*
G02X118734Y115250I-1852J-1250*
G01*
G75*
G02X116165Y113041I-2234*
G01*
G37*
X131500Y112470D02*
G36*
G75*
G02X129279Y110250I-3750J1530D01*
G01*
X133721*
G75*
G02X131500Y112470I1529J3750*
G01*
G37*
X130936Y116500D02*
G36*
G75*
G02X131500Y115530I-3186J-2500D01*
G01*
G75*
G02X132064Y116500I3750J-1530*
G01*
X130936*
G37*
X139000Y112470D02*
G36*
G75*
G02X136779Y110250I-3750J1530D01*
G01*
X141221*
G75*
G02X139000Y112470I1529J3750*
G01*
G37*
X138436Y116500D02*
G36*
G75*
G02X139000Y115530I-3186J-2500D01*
G01*
G75*
G02X139564Y116500I3750J-1530*
G01*
X138436*
G37*
X146800Y114000D02*
G36*
G75*
G02X144279Y110250I-4050J0D01*
G01*
X155950*
G75*
G02X160361Y114284I4050J0*
G01*
G75*
G02X161341Y116500I3639J-284*
G01*
X145936*
G75*
G02X146800Y114000I-3186J-2500*
G01*
G37*
X164049Y110350D02*
G36*
G75*
G02X164050Y110250I-6327J-125D01*
G01*
X169632*
G75*
G02X169668I18J-2241*
G01*
X173348*
Y113803*
X175415*
Y113902*
X181085*
Y113803*
X183152*
Y113703*
X184627*
X185752Y114828*
Y116281*
G75*
G02X179564Y116500I-3002J2719*
G01*
X173900*
G75*
G02X167650Y113939I-3650J0*
G01*
G75*
G02X164049Y110350I-3650J61*
G01*
G37*
X194748Y116500D02*
G36*
Y111531D01*
G75*
G02X194283Y110250I-1999*
G01*
X213500*
X222000*
X235516*
G75*
G02X239984I2234*
G01*
X242500*
Y116500*
X222000*
Y111750*
X213500*
Y116500*
X200884*
G75*
G02X199616I-634J4000*
G01*
X194748*
G37*
X8000Y120250D02*
G36*
Y116500D01*
X8016*
G75*
G02X12484I2234*
G01*
X23500*
Y120250*
X8000*
G37*
X32000D02*
G36*
Y116500D01*
X93898*
G75*
G02X93958Y116672I3853J-1252*
G01*
X93856Y120250*
X81780*
G75*
G02X78720I-1530J3750*
G01*
X32000*
G37*
X101359D02*
G36*
X101455Y116886D01*
G75*
G02X101602Y116500I-3710J-1636*
G01*
X104335*
Y118041*
G75*
G02X101766Y120250I-335J2209*
G01*
X101359*
G37*
X116165D02*
G36*
Y117459D01*
G75*
G02X118352Y116500I335J-2209*
G01*
X124564*
G75*
G02X130936I3186J-2500*
G01*
X132064*
G75*
G02X138436I3186J-2501*
G01*
X139564*
G75*
G02X145936I3186J-2500*
G01*
X161341*
G75*
G02X166600Y116561I2659J-2500*
G01*
G75*
G02X173900Y116500I3650J-61*
G01*
X179564*
G75*
G02X178700Y119000I3186J2500*
G01*
G75*
G02X178898Y120250I4050J0*
G01*
X145300*
G75*
G02X140200I-2550J2750*
G01*
X137797*
G75*
G02X132702I-2547J2752*
G01*
X130297*
G75*
G02X125202I-2547J2752*
G01*
X116165*
G37*
X194748Y116750D02*
G36*
Y116500D01*
X199616*
G75*
G02X198720Y116750I634J4000*
G01*
X194748*
G37*
X204292Y120250D02*
G36*
G75*
G02X200884Y116500I-4042J250D01*
G01*
X213500*
Y120250*
X204292*
G37*
X222000D02*
G36*
Y116500D01*
X242500*
Y120250*
X239984*
G75*
G02X235516I-2234*
G01*
X222000*
G37*
X8000Y129000D02*
G36*
Y120250D01*
X23500*
X32000*
X78720*
G75*
G02X76200Y124000I1530J3750*
G01*
G75*
G02X84300I4050*
G01*
G75*
G02X81780Y120250I-4050*
G01*
X93856*
X93799Y122218*
G75*
G02X86750Y124000I-3299J1782*
G01*
G75*
G02X94000Y125346I3750*
G01*
G75*
G02X94104Y125591I3593J-1386*
G01*
Y127219*
X95576*
G75*
G02X98421Y127635I1925J-3220*
G01*
X99508Y128722*
Y129000*
X90969*
Y128354*
X84531*
Y129000*
X76512*
G75*
G02X76800Y127500I-3762J-1500*
G01*
G75*
G02X68700I-4050*
G01*
G75*
G02X68988Y129000I4050J0*
G01*
X64646*
Y125781*
X57854*
Y127965*
G75*
G02X50500Y129000I-3604J1035*
G01*
X46800*
G75*
G02X38700I-4050*
G01*
X32000*
Y121750*
X23500*
Y129000*
X12102*
G75*
G02X12484Y127750I-1852J-1250*
G01*
G75*
G02X8016I-2234*
G01*
G75*
G02X8398Y129000I2234*
G01*
X8000*
G37*
X101017Y125303D02*
G36*
G75*
G02X101248Y124107I-3504J-1300D01*
G01*
X101359Y120250*
X101766*
G75*
G02X104335Y122459I2234*
G01*
Y125541*
G75*
G02X102175Y126461I-335J2209*
G01*
X101017Y125303*
G37*
X116165Y120541D02*
G36*
Y120250D01*
X125202*
G75*
G02X124000Y123000I2547J2752*
G01*
G75*
G02X126404Y126500I3750*
G01*
G75*
G02X126159Y126604I1386J3593*
G01*
X124531*
Y128076*
G75*
G02X124248Y128660I3178J1905*
G01*
G75*
G02X124087Y128801I1004J1303*
G01*
X123888Y129000*
X118352*
G75*
G02X116165Y128041I-1852J1250*
G01*
Y124959*
G75*
G02X118734Y122750I335J-2209*
G01*
G75*
G02X116165Y120541I-2234*
G01*
G37*
X131500Y123000D02*
G36*
G75*
G02X130297Y120250I-3750J1D01*
G01*
X132702*
G75*
G02X131500Y123000I2547J2752*
G01*
Y123000*
G75*
G02X133379Y126250I3750*
G01*
X129621*
G75*
G02X131500Y123000I-1874J-3251*
G01*
G37*
X139000D02*
G36*
G75*
G02X137797Y120250I-3750J1D01*
G01*
X140200*
G75*
G02X139000Y123000I2550J2750*
G01*
Y123000*
G75*
G02X140879Y126250I3750*
G01*
X137121*
G75*
G02X139000Y123000I-1874J-3251*
G01*
G37*
X146500Y123000D02*
G36*
G75*
G02X145300Y120250I-3750D01*
G01*
X178898*
G75*
G02X185752Y121719I3852J-1250*
G01*
Y129000*
X179425*
G75*
G02X180416Y126500I-2659J-2500*
G01*
G75*
G02X173116I-3650*
G01*
G75*
G02X174106Y129000I3650*
G01*
X161675*
G75*
G02X156220Y126250I-3925J1000*
G01*
X144621*
G75*
G02X146500Y123000I-1870J-3250*
G01*
Y123000*
G37*
X196187Y129000D02*
G36*
G75*
G02X196500Y127500I-3437J-1500D01*
G01*
Y127500*
G75*
G02X194621Y124250I-3750*
G01*
X198720*
G75*
G02X204300Y120500I1530J-3750*
G01*
G75*
G02X204292Y120250I-4051J2*
G01*
X213500*
X222000*
X235516*
G75*
G02X239984I2234*
G01*
X242500*
Y129000*
X222000*
Y121750*
X213500*
Y129000*
X196187*
G37*
X8000Y131500D02*
G36*
Y129000D01*
X8398*
G75*
G02X12102I1852J-1250*
G01*
X23500*
Y130250*
X32000*
Y129000*
X38700*
G75*
G02X39564Y131500I4050*
G01*
X8000*
G37*
X45936D02*
G36*
G75*
G02X46800Y129000I-3186J-2500D01*
G01*
X50500*
G75*
G02X51455Y131500I3750J0*
G01*
X45936*
G37*
X57045D02*
G36*
G75*
G02X57854Y130035I-2795J-2500D01*
G01*
Y131500*
X57045*
G37*
X64646D02*
G36*
Y129000D01*
X68988*
G75*
G02X72116Y131500I3762J-1500*
G01*
X64646*
G37*
X73384D02*
G36*
G75*
G02X76512Y129000I-634J-4000D01*
G01*
X84531*
Y131500*
X73384*
G37*
X90969Y129752D02*
G36*
Y129000D01*
X99508*
Y131500*
X95576*
X94413Y130337*
G75*
G02X92997Y129752I-1413J1415*
G01*
X90969*
G37*
X118734Y130250D02*
G36*
G75*
G02X118352Y129000I-2234D01*
G01*
X123888*
X121388Y131500*
X118352*
G75*
G02X118734Y130250I-1852J-1250*
G01*
G37*
X161800Y130000D02*
G36*
G75*
G02X161675Y129000I-4050J-1D01*
G01*
X174106*
G75*
G02X179425I2659J-2500*
G01*
X185752*
Y131500*
X161512*
G75*
G02X161800Y130000I-3762J-1500*
G01*
G37*
X189748Y131500D02*
G36*
Y129747D01*
G75*
G02X196187Y129000I3002J-2248*
G01*
X213500*
Y130250*
X222000*
Y129000*
X242500*
Y131500*
X239984*
G75*
G02X235516I-2234*
G01*
X189748*
G37*
X8000Y139000D02*
G36*
Y131500D01*
X39564*
G75*
G02X45936I3186J-2500*
G01*
X51455*
G75*
G02X57045I2795J-2500*
G01*
X57854*
Y132219*
X59252*
Y135781*
X57854*
Y139000*
X57646*
Y135781*
X50854*
Y138869*
G75*
G02X50815Y139000I1882J629*
G01*
X32000*
Y131750*
X23500*
Y139000*
X12484*
G75*
G02X8016I-2234*
G01*
X8000*
G37*
X63248Y135781D02*
G36*
Y132219D01*
X64646*
Y131500*
X72116*
G75*
G02X73384I634J-3999*
G01*
X84531*
Y135146*
X90969*
Y133748*
X92172*
X93252Y134828*
Y135250*
X92500*
Y139000*
X90969*
Y135354*
X84531*
Y139000*
X84352*
G75*
G02X76648I-3852J1250*
G01*
X76500*
G75*
G02X69000I-3750*
G01*
X64685*
G75*
G02X64646Y138869I-1926J499*
G01*
Y135781*
X63248*
G37*
X96663Y132587D02*
G36*
X95576Y131500D01*
X99508*
Y135250*
X97248*
Y134000*
G75*
G02X96663Y132587I-1999*
G01*
G37*
X116165Y135541D02*
G36*
Y132459D01*
G75*
G02X118352Y131500I335J-2209*
G01*
X121388*
X119089Y133800*
G75*
G02X118606Y134962I1159J1162*
G01*
G75*
G02Y134963I1805J0*
G01*
Y137005*
G75*
G02X116165Y135541I-2106J745*
G01*
G37*
X154300Y137750D02*
G36*
G75*
G02X150884Y133750I-4050D01*
G01*
X156220*
G75*
G02X161512Y131500I1530J-3750*
G01*
X185752*
Y139000*
X181769*
G75*
G02X181800Y138500I-4019J-501*
G01*
G75*
G02X177750Y134450I-4050*
G01*
G75*
G02X173700Y138500J4050*
G01*
G75*
G02X173731Y139000I4050J-1*
G01*
X154102*
G75*
G02X154300Y137750I-3852J-1250*
G01*
G37*
X189748Y134234D02*
G36*
Y131500D01*
X235516*
G75*
G02X239984I2234*
G01*
X242500*
Y139000*
X222000*
Y131750*
X213500*
Y139000*
X196244*
G75*
G02X196800Y136953I-3494J-2047*
G01*
G75*
G02X189748Y134234I-4050J0*
G01*
G37*
X8000Y144766D02*
G36*
Y139000D01*
X8016*
G75*
G02X12484I2234*
G01*
X23500*
Y140250*
X32000*
Y139000*
X50815*
G75*
G02X50752Y139498I1921J498*
G01*
G75*
G02Y139500I1933J1*
G01*
Y144766*
X8000*
G37*
X54748D02*
G36*
Y142219D01*
X57646*
Y139000*
X57854*
Y142219*
X60752*
Y144766*
X54748*
G37*
X64748D02*
G36*
Y139500D01*
G75*
G02Y139498I-1920J-1*
G01*
G75*
G02X64685Y139000I-1989J0*
G01*
X69000*
G75*
G02X71715Y142604I3750*
G01*
X69531*
Y144766*
X64748*
G37*
X75969Y142604D02*
G36*
X73785D01*
G75*
G02X76500Y139000I-1035J-3604*
G01*
X76648*
G75*
G02X76450Y140250I3852J1250*
G01*
G75*
G02X84531Y140637I4050*
G01*
Y142146*
X85502*
Y144766*
X75969*
Y142604*
G37*
X84352Y139000D02*
G36*
X84531D01*
Y139863*
G75*
G02X84352Y139000I-4031J386*
G01*
G37*
X89498Y144766D02*
G36*
Y142146D01*
X90969*
Y139000*
X92500*
Y143750*
X99508*
Y144250*
X92500*
Y144766*
X89498*
G37*
X153928D02*
G36*
G75*
G02X150691Y141776I-3678J734D01*
G01*
G75*
G02X154102Y139000I-441J-4026*
G01*
X173731*
G75*
G02X177750Y142550I4019J-500*
G01*
G75*
G02X181769Y139000J-4050*
G01*
X185752*
G75*
G02X186337Y140413I1999*
G01*
X190690Y144766*
X189714*
G75*
G02X185550I-2082J1384*
G01*
X153928*
G37*
X193578Y142002D02*
G36*
X192574Y140999D01*
G75*
G02X196244Y139000I176J-4046*
G01*
X213500*
Y140250*
X222000*
Y139000*
X242500*
Y144766*
X239849*
G75*
G02X239984Y144000I-2099J-766*
G01*
G75*
G02X235516I-2234*
G01*
G75*
G02X235651Y144766I2234J0*
G01*
X222000*
Y141750*
X213500*
Y144766*
X201342*
X199163Y142587*
G75*
G02X197747Y142002I-1413J1415*
G01*
X193578*
G37*
X8000Y151500D02*
G36*
Y144766D01*
X50752*
Y145250*
X48750*
Y151500*
X12484*
G75*
G02X8016I-2234*
G01*
X8000*
G37*
X54748Y145250D02*
G36*
Y144766D01*
X60752*
Y147104*
X59531*
Y151500*
X56750*
Y145250*
X54748*
G37*
X64748Y147104D02*
G36*
Y144766D01*
X69531*
Y149396*
X70752*
Y151500*
X66833*
X65969Y150718*
Y147104*
X64748*
G37*
X74748Y151500D02*
G36*
Y149396D01*
X75969*
Y144766*
X85502*
Y147031*
X84104*
Y149215*
G75*
G02X76750Y150250I-3604J1035*
G01*
G75*
G02X76965Y151500I3750J0*
G01*
X74748*
G37*
X84035D02*
G36*
G75*
G02X84104Y151285I-3537J-1252D01*
G01*
Y151500*
X84035*
G37*
X89498Y147031D02*
G36*
Y144766D01*
X92500*
Y151500*
X90896*
Y147031*
X89498*
G37*
X154000Y145500D02*
G36*
G75*
G02X153928Y144766I-3750J-1D01*
G01*
X185550*
G75*
G02X185132Y146150I2082J1384*
G01*
Y150402*
X185081*
Y151500*
X181364*
G75*
G02X181500Y150500I-3615J-1000*
G01*
G75*
G02X174000I-3750*
G01*
G75*
G02X174136Y151500I3750*
G01*
X162925*
G75*
G02X157470Y148750I-3925J1000*
G01*
X152121*
G75*
G02X154000Y145500I-1871J-3250*
G01*
G37*
X190132Y146150D02*
G36*
G75*
G02X189714Y144766I-2500D01*
G01*
X190690*
X191337Y145413*
G75*
G02X192753Y145998I1413J-1415*
G01*
X196922*
X202424Y151500*
X195301*
Y150402*
X190199*
Y151500*
X190183*
Y150402*
X190132*
Y146150*
G37*
X208076Y151500D02*
G36*
X201342Y144766D01*
X213500*
Y150250*
X222000*
Y144766*
X235651*
G75*
G02X239849I2099J-766*
G01*
X242500*
Y151500*
X208076*
G37*
X8000Y154000D02*
G36*
Y151500D01*
X8016*
G75*
G02X12484I2234*
G01*
X48750*
Y153750*
X56750*
Y151500*
X59531*
Y153896*
X63525*
X63641Y154000*
X32000*
Y151750*
X23500*
Y154000*
X8000*
G37*
X69596D02*
G36*
X66833Y151500D01*
X70752*
Y153500*
G75*
G02X70815Y154000I1999J1*
G01*
X69596*
G37*
X74748Y152672D02*
G36*
Y151500D01*
X76965*
G75*
G02X84035I3535J-1250*
G01*
X84104*
Y153469*
X85752*
Y154000*
X76076*
X74748Y152672*
G37*
X89748Y154000D02*
G36*
Y153469D01*
X90896*
Y151500*
X92500*
Y152750*
X94252*
Y154000*
X89748*
G37*
X163050Y152500D02*
G36*
G75*
G02X162925Y151500I-4050J-1D01*
G01*
X174136*
G75*
G02X176404Y154000I3614J-1000*
G01*
X162762*
G75*
G02X163050Y152500I-3763J-1500*
G01*
G37*
X179096Y154000D02*
G36*
G75*
G02X181364Y151500I-1346J-3500D01*
G01*
X185081*
Y154000*
X179096*
G37*
X190183D02*
G36*
Y151500D01*
X190199*
Y154000*
X190183*
G37*
X195301D02*
G36*
Y151500D01*
X202424*
X204924Y154000*
X195301*
G37*
X209163Y152587D02*
G36*
X208076Y151500D01*
X242500*
Y154000*
X239984*
G75*
G02X235516I-2234*
G01*
X222000*
Y151750*
X213500*
Y154000*
X209748*
G75*
G02X209163Y152587I-1999*
G01*
G37*
X8000Y161500D02*
G36*
Y154000D01*
X23500*
Y160250*
X32000*
Y154000*
X63641*
X63756Y154104*
X59531*
Y155502*
X56750*
Y154250*
X48750*
Y161500*
X12484*
G75*
G02X8016I-2234*
G01*
X8000*
G37*
X56750D02*
G36*
Y159498D01*
X59531*
Y160896*
X63237*
X63817Y161500*
X56750*
G37*
X69596Y154000D02*
G36*
X70815D01*
G75*
G02X71337Y154913I1935J-500*
G01*
X76252Y159828*
Y161500*
X75248*
Y160000*
G75*
G02X74588Y158516I-2000J0*
G01*
X69596Y154000*
G37*
X79663Y157587D02*
G36*
X76076Y154000D01*
X85752*
Y155250*
G75*
G02Y155252I1920J1*
G01*
G75*
G02X85854Y155881I1989*
G01*
Y158869*
G75*
G02X85752Y159498I1882J629*
G01*
G75*
G02Y159500I1933J1*
G01*
Y161500*
X80248*
Y159000*
G75*
G02X79663Y157587I-1999*
G01*
G37*
X89748Y154422D02*
G36*
Y154000D01*
X94252*
Y155781*
X92854*
Y161500*
X92646*
Y155781*
X90998*
G75*
G02X90663Y155337I-1739J961*
G01*
X89748Y154422*
G37*
X123363Y161500D02*
G36*
X124365Y160498D01*
X172747*
G75*
G02X174163Y159913I2J-2000*
G01*
X174531Y159544*
Y160896*
X180969*
Y154104*
X178785*
G75*
G02X179096Y154000I-1035J-3606*
G01*
X185081*
Y158753*
X182398Y161500*
X123363*
G37*
X159622Y156502D02*
G36*
G75*
G02X162762Y154000I-622J-4002D01*
G01*
X176404*
G75*
G02X176715Y154104I1346J-3502*
G01*
X174531*
Y155502*
X173753*
G75*
G02X172337Y156087I-2J2000*
G01*
X171922Y156502*
X159622*
G37*
X190183Y161500D02*
G36*
Y154000D01*
X190199*
Y161500*
X190183*
G37*
X195301Y156500D02*
G36*
Y154000D01*
X204924*
X205752Y154828*
Y161500*
X203377*
G75*
G02X204241Y159000I-3186J-2500*
G01*
G75*
G02X197005Y156500I-4050*
G01*
X195301*
G37*
X209748Y161500D02*
G36*
Y154000D01*
X213500*
Y160250*
X222000*
Y154000*
X235516*
G75*
G02X239984I2234*
G01*
X242500*
Y161500*
X209748*
G37*
X8000Y164000D02*
G36*
Y161500D01*
X8016*
G75*
G02X12484I2234*
G01*
X48750*
Y162750*
X56750*
Y161500*
X63817*
X66213Y164000*
X32000*
Y161750*
X23500*
Y164000*
X8000*
G37*
X75248Y163172D02*
G36*
Y161500D01*
X76252*
Y164000*
X76076*
X75248Y163172*
G37*
X80248D02*
G36*
Y161500D01*
X85752*
Y164000*
X81076*
X80248Y163172*
G37*
X89748Y164000D02*
G36*
Y162219D01*
X92646*
Y161500*
X92854*
Y162219*
X95752*
Y164000*
X89748*
G37*
X122861Y162002D02*
G36*
X123363Y161500D01*
X182398*
X181908Y162002*
X122861*
G37*
X185543Y164000D02*
G36*
X187591Y161902D01*
X190183*
Y161500*
X190199*
Y161902*
X195301*
Y161500*
X197005*
G75*
G02X203377I3186J-2500*
G01*
X205752*
Y162445*
G75*
G02X204422Y164000I1998J3055*
G01*
X185543*
G37*
X209748Y162445D02*
G36*
Y161500D01*
X242500*
Y164000*
X239984*
G75*
G02X235516I-2234*
G01*
X211078*
G75*
G02X209748Y162445I-3328J1500*
G01*
G37*
X8000Y169000D02*
G36*
Y164000D01*
X23500*
Y169000*
X12102*
G75*
G02X8398I-1852J1250*
G01*
X8000*
G37*
X32000D02*
G36*
Y164000D01*
X66213*
X69558Y167490*
G75*
G02X68247Y167002I-1309J1513*
G01*
X64646*
Y165781*
X57854*
Y167965*
G75*
G02X50500Y169000I-3604J1035*
G01*
X46800*
G75*
G02X38700I-4050*
G01*
X32000*
G37*
X76076Y164000D02*
G36*
X76252D01*
G75*
G02X76261Y164185I2183J-9*
G01*
X76076Y164000*
G37*
X81076D02*
G36*
X85752D01*
Y168676*
X81076Y164000*
G37*
X89748Y168172D02*
G36*
Y164000D01*
X95752*
Y169000*
X90576*
X89748Y168172*
G37*
X123429Y169000D02*
G36*
Y166146D01*
X123578Y165998*
X182750*
G75*
G02X184180Y165395I-1J-2000*
G01*
X185543Y164000*
X204422*
G75*
G02X204100Y165500I3328J1500*
G01*
G75*
G02X206715Y169000I3650*
G01*
X205576*
X204163Y167587*
G75*
G02X202747Y167002I-1413J1415*
G01*
X127750*
G75*
G02X125762Y168797J1998*
G01*
X125559Y169000*
X123429*
G37*
X211400Y165500D02*
G36*
G75*
G02X211078Y164000I-3650D01*
G01*
X235516*
G75*
G02X239984I2234*
G01*
X242500*
Y169000*
X222000*
Y164750*
X213500*
Y169000*
X208785*
G75*
G02X211400Y165500I-1035J-3500*
G01*
G37*
X8000Y174000D02*
G36*
Y169000D01*
X8398*
G75*
G02X8016Y170250I1852J1250*
G01*
G75*
G02X12484I2234*
G01*
G75*
G02X12102Y169000I-2234*
G01*
X23500*
Y170250*
X32000*
Y169000*
X38700*
G75*
G02X46800I4050*
G01*
X50500*
G75*
G02X57854Y170035I3750*
G01*
Y172219*
X64646*
Y170998*
X67422*
X70424Y174000*
X32000*
Y171750*
X23500*
Y174000*
X21272*
G75*
G02X14228I-3522J2000*
G01*
X8000*
G37*
X95576D02*
G36*
X90576Y169000D01*
X95752*
Y174000*
X95576*
G37*
X123429Y169463D02*
G36*
Y169000D01*
X125559*
X125318Y169241*
G75*
G02X125133Y169463I1093J1098*
G01*
X123429*
G37*
X128055Y173695D02*
G36*
Y170998D01*
X201922*
X204924Y174000*
X171371*
X169529Y172465*
G75*
G02X168249Y172002I-1280J1537*
G01*
X147750*
G75*
G02X146334Y172590I0J1998*
G01*
X145328Y173596*
X129167*
G75*
G02X128590Y173695J1741*
G01*
X128055*
G37*
X205576Y169000D02*
G36*
X206715D01*
G75*
G02X208785I1035J-3500*
G01*
X213500*
Y173250*
X222000*
Y169000*
X242500*
Y174000*
X239984*
G75*
G02X235516I-2234*
G01*
X210576*
X205576Y169000*
G37*
X8000Y179000D02*
G36*
Y174000D01*
X14228*
G75*
G02X13700Y176000I3522J2000*
G01*
G75*
G02X15029Y179000I4050*
G01*
X12102*
G75*
G02X12484Y177750I-1852J-1250*
G01*
G75*
G02X8016I-2234*
G01*
G75*
G02X8398Y179000I2234*
G01*
X8000*
G37*
X21800Y176000D02*
G36*
G75*
G02X21272Y174000I-4050D01*
G01*
X23500*
Y179000*
X20471*
G75*
G02X21800Y176000I-2721J-3000*
G01*
G37*
X32000Y179000D02*
G36*
Y174000D01*
X70424*
X73631Y177207*
G75*
G02X72750Y177002I-882J1797*
G01*
X64646*
Y175781*
X57854*
Y177965*
G75*
G02X50500Y179000I-3604J1035*
G01*
X46800*
G75*
G02X38700I-4050*
G01*
X32000*
G37*
X95576Y174000D02*
G36*
X95752D01*
G75*
G02X95761Y174185I2183J-9*
G01*
X95576Y174000*
G37*
X144289Y177081D02*
G36*
X145433D01*
G75*
G02X147824Y176752I979J-1742*
G01*
X148578Y175998*
X160031*
G75*
G02X158700Y179000I2719J3002*
G01*
X155750*
G75*
G02X150750I-2500*
G01*
X146367*
X144289Y177081*
G37*
X172871Y175250D02*
G36*
X171371Y174000D01*
X204924*
X209924Y179000*
X185000*
G75*
G02X177750Y177654I-3750*
G01*
G75*
G02X177646Y177409I-3593J1386*
G01*
Y175781*
X176174*
G75*
G02X174250Y175250I-1925J3220*
G01*
X172871*
G37*
X213500Y174750D02*
G36*
Y176924D01*
X210576Y174000*
X235516*
G75*
G02X239984I2234*
G01*
X242500*
Y179000*
X222000*
Y174750*
X213500*
G37*
X8000Y184000D02*
G36*
Y179000D01*
X8398*
G75*
G02X12102I1852J-1250*
G01*
X15029*
G75*
G02X20471I2721J-3000*
G01*
X23500*
Y180250*
X32000*
Y179000*
X38700*
G75*
G02X46800I4050*
G01*
X50500*
G75*
G02X57854Y180035I3750*
G01*
Y182219*
X64646*
Y180998*
X72424*
X75426Y184000*
X32000*
Y181750*
X23500*
Y184000*
X8000*
G37*
X146367Y179000D02*
G36*
X150750D01*
Y183000*
G75*
G02Y183012I1491J6*
G01*
G75*
G02X150750Y183048I1458J2*
G01*
X146367Y179000*
G37*
X155750Y181965D02*
G36*
Y179000D01*
X158700*
G75*
G02X164280Y182750I4050*
G01*
X174250*
G75*
G02X176174Y182219I-1J-3754*
G01*
X177646*
Y180591*
G75*
G02X177750Y180346I-3489J-1631*
G01*
G75*
G02X185000Y179000I3500J-1346*
G01*
X209924*
X213500Y182576*
Y183250*
X214174*
X214924Y184000*
X211400*
G75*
G02X204100I-3650*
G01*
X156750*
G75*
G02Y183999I-2820J0*
G01*
G75*
G02X156018Y182232I-2498*
G01*
X155750Y181965*
G37*
X219748Y184000D02*
G36*
G75*
G02X219602Y183250I-2008J2D01*
G01*
X222000*
Y179000*
X242500*
Y184000*
X239984*
G75*
G02X235516I-2234*
G01*
X219748*
G37*
X8000Y186500D02*
G36*
Y184000D01*
X23500*
Y186500*
X12484*
G75*
G02X8016I-2234*
G01*
X8000*
G37*
X32000D02*
G36*
Y184000D01*
X75426*
X76967Y185541*
G75*
G02X78219Y186500I1571J-755*
G01*
X71000*
Y185000*
X62500*
Y186500*
X62000*
Y185000*
X53500*
Y186500*
X50436*
G75*
G02X44064I-3186J2500*
G01*
X32000*
G37*
X156750Y185781D02*
G36*
Y184000D01*
X204100*
G75*
G02Y184001I3222J0*
G01*
G75*
G02X204177Y184747I3648*
G01*
X202424Y186500*
X185436*
G75*
G02X179064I-3186J2500*
G01*
X175936*
G75*
G02X172750Y184950I-3187J2500*
G01*
G75*
G02X169564Y186500I0J4050*
G01*
X164045*
G75*
G02X161250Y185250I-2795J2500*
G01*
G75*
G02X158455Y186500J3750*
G01*
X157646*
Y185781*
X156750*
G37*
X210409Y186500D02*
G36*
G75*
G02X211400Y184000I-2660J-2501D01*
G01*
X214924*
X215674Y184750*
X213500*
Y186500*
X210409*
G37*
X219748Y184750D02*
G36*
Y184000D01*
X235516*
G75*
G02X239984I2234*
G01*
X242500*
Y186500*
X222000*
Y184750*
X219748*
G37*
X8000Y189000D02*
G36*
Y186500D01*
X8016*
G75*
G02X12484I2234*
G01*
X23500*
Y189000*
X8000*
G37*
X32000D02*
G36*
Y186500D01*
X44064*
G75*
G02X43200Y189000I3186J2500*
G01*
X32000*
G37*
X51300D02*
G36*
G75*
G02X50436Y186500I-4050D01*
G01*
X53500*
Y189000*
X51300*
G37*
X62000D02*
G36*
Y186500D01*
X62500*
Y189000*
X62000*
G37*
X71000Y187002D02*
G36*
Y186500D01*
X78219*
G75*
G02X78537Y186530I320J-1714*
G01*
X87395*
X86922Y187002*
X71000*
G37*
X157646Y187965D02*
G36*
Y186500D01*
X158455*
G75*
G02X157646Y187965I2795J2500*
G01*
G37*
X165000Y189000D02*
G36*
G75*
G02X164045Y186500I-3750J0D01*
G01*
X169564*
G75*
G02X168700Y189000I3187J2500*
G01*
X165000*
G37*
X176800D02*
G36*
G75*
G02X175936Y186500I-4050J0D01*
G01*
X179064*
G75*
G02X178200Y189000I3186J2500*
G01*
X176800*
G37*
X186300D02*
G36*
G75*
G02X185436Y186500I-4050D01*
G01*
X202424*
X199924Y189000*
X186300*
G37*
X205576D02*
G36*
X207003Y187573D01*
G75*
G02X210409Y186500I747J-3573*
G01*
X213500*
Y189000*
X205576*
G37*
X222000D02*
G36*
Y186500D01*
X242500*
Y189000*
X222000*
G37*
X8000Y194000D02*
G36*
Y189000D01*
X23500*
Y190250*
X32000*
Y189000*
X43200*
G75*
G02X51300I4050*
G01*
X53500*
Y192002*
X52753*
G75*
G02X51337Y192587I-2J2000*
G01*
X49924Y194000*
X32000*
Y191750*
X23500*
Y194000*
X12102*
G75*
G02X8398I-1852J1250*
G01*
X8000*
G37*
X62000Y192002D02*
G36*
Y189000D01*
X62500*
Y192002*
X62000*
G37*
X94587Y194000D02*
G36*
X97333Y191254D01*
X103213*
Y194000*
X94587*
G37*
X132287D02*
G36*
Y190568D01*
G75*
G02X134752Y191677I1963J-1068*
G01*
Y194000*
X132287*
G37*
X141685D02*
G36*
Y190761D01*
X144924Y194000*
X141685*
G37*
X165000Y189000D02*
G36*
X168700D01*
G75*
G02X170031Y192002I4050J0*
G01*
X163497*
G75*
G02X165000Y189000I-2248J-3002*
G01*
G37*
X176800D02*
G36*
X178200D01*
G75*
G02Y189001I3470J0*
G01*
G75*
G02X179531Y192002I4048*
G01*
X175469*
G75*
G02X176800Y189000I-2719J-3002*
G01*
G37*
X186300Y189001D02*
G36*
G75*
G02Y189000I-3470J0D01*
G01*
X199924*
X196922Y192002*
X184969*
G75*
G02X186300Y189001I-2717J-3001*
G01*
G37*
X200576Y194000D02*
G36*
X205576Y189000D01*
X213500*
Y193250*
X222000*
Y189000*
X242500*
Y194000*
X239984*
G75*
G02X235516I-2234*
G01*
X200576*
G37*
X8000Y204000D02*
G36*
Y194000D01*
X8398*
G75*
G02X8016Y195250I1852J1250*
G01*
G75*
G02X12484I2234*
G01*
G75*
G02X12102Y194000I-2234*
G01*
X23500*
Y200250*
X32000*
Y194000*
X49924*
X46337Y197587*
G75*
G02X45752Y199000I1414J1413*
G01*
Y204000*
X32000*
Y201750*
X23500*
Y204000*
X12102*
G75*
G02X8398I-1852J1250*
G01*
X8000*
G37*
X49748D02*
G36*
Y199828D01*
X53578Y195998*
X56531*
G75*
G02X55200Y198999I2717J3001*
G01*
G75*
G02Y199000I3470J0*
G01*
G75*
G02X63300I4050*
G01*
G75*
G02Y198999I-3470J0*
G01*
G75*
G02X61969Y195998I-4048*
G01*
X86938*
X85934Y197002*
X72753*
G75*
G02X71337Y197587I-2J2000*
G01*
X66337Y202587*
G75*
G02X65752Y204000I1414J1413*
G01*
X49748*
G37*
X70576D02*
G36*
X73578Y200998D01*
X86759*
G75*
G02X88175Y200413I2J-2000*
G01*
X94587Y194000*
X103213*
Y194305*
X107445*
Y194840*
G75*
G02X107346Y195417I1643J577*
G01*
Y198139*
X102145Y203341*
X100911*
G75*
G02X100000Y203561I1J2000*
G01*
Y200530*
G75*
G02X100300Y199002I-3741J-1528*
G01*
G75*
G02Y199000I-4101J-1*
G01*
G75*
G02X92200I-4050*
G01*
G75*
G02Y199001I4101J0*
G01*
G75*
G02X92500Y200530I4045*
G01*
Y204000*
X70576*
G37*
X125004Y203428D02*
G36*
Y198537D01*
X128055*
Y194305*
X132287*
Y194000*
X134752*
Y200781*
X130854*
Y204000*
X125576*
X125004Y203428*
G37*
X141685Y195109D02*
G36*
Y194000D01*
X144924*
X146337Y195413*
G75*
G02X147753Y195998I1413J-1415*
G01*
X197747*
G75*
G02X199163Y195413I2J-2000*
G01*
X200576Y194000*
X235516*
G75*
G02X239984I2234*
G01*
X242500*
Y204000*
X239984*
G75*
G02X235516I-2234*
G01*
X200576*
X203578Y200998*
X213500*
Y203250*
X222000*
Y194750*
X213500*
Y197002*
X202753*
G75*
G02X201337Y197587I-2J2000*
G01*
X194924Y204000*
X166512*
G75*
G02X161220Y201750I-3762J1500*
G01*
X152750*
G75*
G02X152399Y201767I9J3931*
G01*
X149334Y197782*
G75*
G02X147748Y197002I-1584J1218*
G01*
X143578*
X141685Y195109*
G37*
X145000Y204000D02*
G36*
G75*
G02X143497Y200998I-3752J1D01*
G01*
X146766*
X149076Y204000*
X145000*
G37*
X8000Y209000D02*
G36*
Y204000D01*
X8398*
G75*
G02X8016Y205250I1852J1250*
G01*
G75*
G02X12484I2234*
G01*
G75*
G02X12102Y204000I-2234*
G01*
X23500*
Y209000*
X8000*
G37*
X32000D02*
G36*
Y204000D01*
X45752*
Y209000*
X32000*
G37*
X49748D02*
G36*
Y204000D01*
X65752*
Y205781*
X62854*
Y207965*
G75*
G02X55500Y209000I-3604J1035*
G01*
X49748*
G37*
X69646D02*
G36*
Y208131D01*
G75*
G02X69748Y207502I-1882J-629*
G01*
G75*
G02Y207500I-1933J-1*
G01*
Y204828*
X70576Y204000*
X92500*
Y207129*
G75*
G02X85500Y209000I-3250J1871*
G01*
X81800*
G75*
G02X77750Y204950I-4050*
G01*
G75*
G02X73700Y209000J4050*
G01*
X69646*
G37*
X100000D02*
G36*
Y208595D01*
X101535Y207390*
X101337Y207587*
G75*
G02X100752Y209000I1414J1413*
G01*
X100000*
G37*
X115492D02*
G36*
X116759Y207733D01*
X116795Y207696*
Y209000*
X115492*
G37*
X130576D02*
G36*
X125576Y204000D01*
X130854*
Y207219*
X137646*
Y205035*
G75*
G02X145000Y204000I3604J-1035*
G01*
X149076*
X149231Y204203*
G75*
G02X149000Y205500I3519J1297*
G01*
G75*
G02X149531Y207424I3750*
G01*
Y208896*
X151159*
G75*
G02X151404Y209000I1631J-3489*
G01*
X130576*
G37*
X166800Y205500D02*
G36*
G75*
G02X166512Y204000I-4050J0D01*
G01*
X194924*
X189924Y209000*
X164788*
G75*
G02X166800Y205500I-2038J-3500*
G01*
G37*
X197753Y207002D02*
G36*
G75*
G02X197565Y207011I-8J1866D01*
G01*
X200576Y204000*
X235516*
G75*
G02X239984I2234*
G01*
X242500*
Y209000*
X222000*
Y204750*
X213500*
Y207002*
X197753*
G37*
X8000Y214000D02*
G36*
Y209000D01*
X23500*
Y210250*
X32000*
Y209000*
X45752*
Y214000*
X32000*
Y211750*
X23500*
Y214000*
X12102*
G75*
G02X8398I-1852J1250*
G01*
X8000*
G37*
X49748D02*
G36*
Y209000D01*
X55500*
G75*
G02X62854Y210035I3750*
G01*
Y212219*
X64252*
Y214000*
X49748*
G37*
X68248D02*
G36*
Y212219D01*
X69646*
Y209000*
X73700*
G75*
G02X77750Y213050I4050*
G01*
G75*
G02X81800Y209000J-4050*
G01*
X85500*
G75*
G02X92500Y210871I3750*
G01*
Y214000*
X68248*
G37*
X100000D02*
G36*
Y209000D01*
X100752*
Y214000*
X100000*
G37*
X114748D02*
G36*
Y209744D01*
X115492Y209000*
X116795*
Y214000*
X114748*
G37*
X135576D02*
G36*
X130576Y209000D01*
X151404*
G75*
G02X149000Y212500I1346J3500*
G01*
G75*
G02X149313Y214000I3750J0*
G01*
X145300*
G75*
G02X137200I-4050*
G01*
X135576*
G37*
X156500Y212500D02*
G36*
G75*
G02X154621Y209250I-3750D01*
G01*
X161220*
G75*
G02X164788Y209000I1530J-3750*
G01*
X189924*
X184924Y214000*
X156187*
G75*
G02X156500Y212500I-3437J-1501*
G01*
G37*
X195576Y214000D02*
G36*
X198578Y210998D01*
X213500*
Y213250*
X222000*
Y209000*
X242500*
Y214000*
X239984*
G75*
G02X235516I-2234*
G01*
X195576*
G37*
X8000Y219000D02*
G36*
Y214000D01*
X8398*
G75*
G02X8016Y215250I1852J1250*
G01*
G75*
G02X12484I2234*
G01*
G75*
G02X12102Y214000I-2234*
G01*
X23500*
Y219000*
X8000*
G37*
X32000D02*
G36*
Y214000D01*
X45752*
Y219000*
X32000*
G37*
X49748D02*
G36*
Y214000D01*
X64252*
Y216586*
G75*
G02X63500Y219000I3501J2415*
G01*
X61800*
G75*
G02X57750Y214950I-4050*
G01*
G75*
G02X53700Y219000J4050*
G01*
X49748*
G37*
X68248Y214779D02*
G36*
Y214000D01*
X92500*
Y217129*
G75*
G02X85500Y219000I-3250J1871*
G01*
X81800*
G75*
G02X77750Y214950I-4050*
G01*
G75*
G02X73700Y219000J4050*
G01*
X72000*
G75*
G02X68248Y214779I-4250J0*
G01*
G37*
X100000Y219000D02*
G36*
Y214000D01*
X100752*
Y219000*
X100000*
G37*
X114748D02*
G36*
Y214000D01*
X116795*
Y219000*
X114748*
G37*
X120280D02*
G36*
Y214355D01*
X124924Y219000*
X120280*
G37*
X135576Y214000D02*
G36*
X137200D01*
G75*
G02X138023Y216448I4051J0*
G01*
X135576Y214000*
G37*
X140576Y219000D02*
G36*
X138802Y217227D01*
G75*
G02X145300Y214000I2448J-3227*
G01*
X149313*
G75*
G02X151031Y215833I3437J-1500*
G01*
G75*
G02X148731Y219000I1718J3667*
G01*
X140576*
G37*
X154469Y215833D02*
G36*
G75*
G02X156187Y214000I-1719J-3333D01*
G01*
X184924*
X179924Y219000*
X156769*
G75*
G02X154469Y215833I-4018J499*
G01*
G37*
X192753Y217002D02*
G36*
G75*
G02X192565Y217011I-8J1866D01*
G01*
X195576Y214000*
X235516*
G75*
G02X239984I2234*
G01*
X242500*
Y219000*
X222000*
Y214750*
X213500*
Y217002*
X192753*
G37*
X8000Y224000D02*
G36*
Y219000D01*
X23500*
Y220250*
X32000*
Y219000*
X45752*
Y224000*
X32000*
Y221750*
X23500*
Y224000*
X12102*
G75*
G02X8398I-1852J1250*
G01*
X8000*
G37*
X49748D02*
G36*
Y219000D01*
X53700*
G75*
G02X57750Y223050I4050*
G01*
G75*
G02X61800Y219000J-4050*
G01*
X63500*
G75*
G02X72000I4250*
G01*
X73700*
G75*
G02X77750Y223050I4050*
G01*
G75*
G02X81800Y219000J-4050*
G01*
X85500*
G75*
G02X92750Y220346I3750*
G01*
G75*
G02X92854Y220591I3593J-1386*
G01*
Y222219*
X94326*
G75*
G02X98174I1924J-3218*
G01*
X99646*
Y220591*
G75*
G02X100000Y219000I-3399J-1592*
G01*
X100752*
Y224000*
X49748*
G37*
X114748Y222104D02*
G36*
Y219000D01*
X116795*
Y219309*
G75*
G02X116539Y220287I1743J978*
G01*
G75*
G02X116983Y221543I1998*
G01*
X118969Y224000*
X115969*
Y222104*
X114748*
G37*
X120280Y219264D02*
G36*
Y219000D01*
X124924*
X129924Y224000*
X125969*
Y222104*
X122575*
X120280Y219264*
G37*
X145576Y224000D02*
G36*
X140576Y219000D01*
X148731*
G75*
G02X148700Y219499I4018J498*
G01*
G75*
G02Y219500I4511J0*
G01*
G75*
G02X156800I4050*
G01*
G75*
G02Y219499I-4511J0*
G01*
G75*
G02X156769Y219000I-4049J-2*
G01*
X179924*
X174924Y224000*
X145576*
G37*
X190576D02*
G36*
X193578Y220998D01*
X213500*
Y223250*
X222000*
Y219000*
X242500*
Y224000*
X239984*
G75*
G02X235516I-2234*
G01*
X190576*
G37*
X8000Y229000D02*
G36*
Y224000D01*
X8398*
G75*
G02X8016Y225250I1852J1250*
G01*
G75*
G02X12484I2234*
G01*
G75*
G02X12102Y224000I-2234*
G01*
X23500*
Y229000*
X8000*
G37*
X32000D02*
G36*
Y224000D01*
X45752*
Y228500*
Y228500*
G75*
G02X45815Y229000I1997J0*
G01*
X32000*
G37*
X49748Y227610D02*
G36*
Y224000D01*
X100752*
Y226750*
X94280*
G75*
G02X88988Y229000I-1530J3750*
G01*
X61187*
G75*
G02X54313I-3437J1500*
G01*
X51292*
X49748Y227610*
G37*
X114096Y229000D02*
G36*
G75*
G02X113785Y228896I-1346J3502D01*
G01*
X115969*
Y224000*
X118969*
X119531Y224696*
Y228896*
X121715*
G75*
G02X121404Y229000I1035J3606*
G01*
X114096*
G37*
X124096D02*
G36*
G75*
G02X123785Y228896I-1346J3502D01*
G01*
X125969*
Y224000*
X129924*
X134924Y229000*
X124096*
G37*
X148578Y227002D02*
G36*
X145576Y224000D01*
X174924*
X171922Y227002*
X148578*
G37*
X185576Y229000D02*
G36*
X190576Y224000D01*
X235516*
G75*
G02X239984I2234*
G01*
X242500*
Y229000*
X222000*
Y224750*
X213500*
Y229000*
X185576*
G37*
X8000Y235250D02*
G36*
Y229000D01*
X23500*
Y230250*
X32000*
Y229000*
X45815*
G75*
G02X46413Y229985I1934J-500*
G01*
X52263Y235250*
X12102*
G75*
G02X8398I-1852J1250*
G01*
X8000*
G37*
X54000Y230500D02*
G36*
G75*
G02Y230501I3383J1D01*
G01*
G75*
G02X54159Y231580I3746*
G01*
X51292Y229000*
X54313*
G75*
G02X54000Y230500I3437J1500*
G01*
G37*
X60969Y234104D02*
G36*
X58785D01*
G75*
G02X61500Y230500I-1035J-3604*
G01*
G75*
G02X61187Y229000I-3750*
G01*
X88988*
G75*
G02X88700Y230500I3762J1500*
G01*
G75*
G02X90712Y234000I4050*
G01*
G75*
G02X89383Y235250I2039J3500*
G01*
X69750*
G75*
G02X65750I-2000J3750*
G01*
X60969*
Y234104*
G37*
X96117Y235250D02*
G36*
G75*
G02X95167Y234250I-3369J2251D01*
G01*
X100879*
G75*
G02X99750Y235250I1870J3249*
G01*
X96117*
G37*
X109748D02*
G36*
Y234747D01*
G75*
G02X110201Y235250I3002J-2248*
G01*
X109748*
G37*
X115299D02*
G36*
G75*
G02X116500Y232500I-2549J-2750D01*
G01*
G75*
G02X114096Y229000I-3750*
G01*
X121404*
G75*
G02X119000Y232500I1346J3500*
G01*
G75*
G02X120200Y235250I3750*
G01*
X115299*
G37*
X125300D02*
G36*
G75*
G02X126500Y232500I-2550J-2750D01*
G01*
G75*
G02X124096Y229000I-3750*
G01*
X134924*
X141174Y235250*
X125300*
G37*
X179326D02*
G36*
X185576Y229000D01*
X213500*
Y233250*
X222000*
Y229000*
X242500*
Y235250*
X239984*
G75*
G02X235516I-2234*
G01*
X222000*
Y234750*
X213500*
Y235250*
X179326*
G37*
X8000Y239000D02*
G36*
Y235250D01*
X8398*
G75*
G02X8016Y236500I1852J1250*
G01*
G75*
G02X12484I2234*
G01*
G75*
G02X12102Y235250I-2234*
G01*
X52263*
X54531Y237291*
Y239000*
X8000*
G37*
X60969Y237002D02*
G36*
Y235250D01*
X65750*
G75*
G02X63999Y237002I2000J3750*
G01*
X60969*
G37*
X72000Y239000D02*
G36*
G75*
G02X69750Y235250I-4250J0D01*
G01*
X89383*
G75*
G02X88700Y237500I3368J2250*
G01*
G75*
G02X88988Y239000I4050J0*
G01*
X72000*
G37*
X96800Y237500D02*
G36*
G75*
G02X96117Y235250I-4052J1D01*
G01*
X99750*
G75*
G02X99000Y237500I3000J2250*
G01*
Y237500*
G75*
G02X99313Y239000I3750*
G01*
X96512*
G75*
G02X96800Y237500I-3762J-1500*
G01*
G37*
X109748Y239000D02*
G36*
Y235250D01*
X110201*
G75*
G02X115299I2549J-2750*
G01*
X120200*
G75*
G02X125300I2550J-2750*
G01*
X141174*
X144924Y239000*
X109748*
G37*
X175576D02*
G36*
X179326Y235250D01*
X213500*
Y239000*
X175576*
G37*
X222000D02*
G36*
Y235250D01*
X235516*
G75*
G02X239984I2234*
G01*
X242500*
Y239000*
X222000*
G37*
X8000Y245250D02*
G36*
Y239000D01*
X54531*
Y240896*
X57619*
G75*
G02X58252Y240998I631J-1896*
G01*
X63999*
G75*
G02X72000Y239000I3751J-1998*
G01*
X88988*
G75*
G02X96512I3762J-1500*
G01*
X99313*
G75*
G02X105752Y239747I3437J-1500*
G01*
Y245250*
X12102*
G75*
G02X8398I-1852J1250*
G01*
X8000*
G37*
X109748Y240781D02*
G36*
Y239000D01*
X144924*
X146337Y240413*
G75*
G02X147753Y240998I1413J-1415*
G01*
X172747*
G75*
G02X174163Y240413I2J-2000*
G01*
X175576Y239000*
X213500*
Y243250*
X222000*
Y239000*
X242500*
Y245250*
X239984*
G75*
G02X235516I-2234*
G01*
X222000*
Y244750*
X213500*
Y245250*
X126602*
G75*
G02X126800Y244000I-3852J-1250*
G01*
G75*
G02X118700I-4050*
G01*
G75*
G02X118898Y245250I4050J0*
G01*
X116402*
G75*
G02X116800Y243500I-3652J-1750*
G01*
G75*
G02X109748Y240781I-4050J0*
G01*
G37*
X8000Y249000D02*
G36*
Y245250D01*
X8398*
G75*
G02X8016Y246500I1852J1250*
G01*
G75*
G02X12484I2234*
G01*
G75*
G02X12102Y245250I-2234*
G01*
X105752*
Y249000*
X8000*
G37*
X109748Y248172D02*
G36*
Y246219D01*
G75*
G02X116402Y245250I3002J-2719*
G01*
X118898*
G75*
G02X126602I3852J-1250*
G01*
X213500*
Y249000*
X146400*
G75*
G02X139100I-3650*
G01*
X110576*
X109748Y248172*
G37*
X222000Y249000D02*
G36*
Y245250D01*
X235516*
G75*
G02X239984I2234*
G01*
X242500*
Y249000*
X222000*
G37*
X8000Y254000D02*
G36*
Y249000D01*
X105752*
G75*
G02X106337Y250413I1999*
G01*
X109924Y254000*
X12102*
G75*
G02X8398I-1852J1250*
G01*
X8000*
G37*
X113578Y252002D02*
G36*
X110576Y249000D01*
X139100*
G75*
G02Y249001I3222J0*
G01*
G75*
G02X139177Y249747I3648*
G01*
X136922Y252002*
X113578*
G37*
X140576Y254000D02*
G36*
X142003Y252573D01*
G75*
G02X146400Y249000I747J-3573*
G01*
X213500*
Y253250*
X222000*
Y249000*
X242500*
Y254000*
X239984*
G75*
G02X235516I-2234*
G01*
X140576*
G37*
X8000Y259000D02*
G36*
Y254000D01*
X8398*
G75*
G02X8016Y255250I1852J1250*
G01*
G75*
G02X12484I2234*
G01*
G75*
G02X12102Y254000I-2234*
G01*
X109924*
X111337Y255413*
G75*
G02X112753Y255998I1413J-1415*
G01*
X137747*
G75*
G02X139163Y255413I2J-2000*
G01*
X140576Y254000*
X235516*
G75*
G02X239984I2234*
G01*
X242500*
Y259000*
X222000*
Y254750*
X213500*
Y259000*
X8000*
G37*
Y261500D02*
G36*
Y259000D01*
X213500*
Y261500*
X8000*
G37*
X222000D02*
G36*
Y259000D01*
X242500*
Y261500*
X239984*
G75*
G02X235516I-2234*
G01*
X222000*
G37*
X8000Y264000D02*
G36*
Y261500D01*
X213500*
Y263250*
X222000*
Y261500*
X235516*
G75*
G02X239984I2234*
G01*
X242500*
Y264000*
X12484*
G75*
G02X8016I-2234*
G01*
X8000*
G37*
Y274437D02*
G36*
Y264000D01*
X8016*
G75*
G02X12484I2234*
G01*
X242500*
Y284000*
X239132*
G75*
G02X240624Y279000I-7632J-5000*
G01*
G75*
G02X222376I-9124*
G01*
G75*
G02X223868Y284000I9124J0*
G01*
X217484*
Y284000*
G75*
G02X215250Y281766I-2234*
G01*
G75*
G02X213016Y284000J2234*
G01*
Y284000*
X207484*
Y284000*
G75*
G02X205250Y281766I-2234*
G01*
G75*
G02X203016Y284000J2234*
G01*
Y284000*
X197484*
Y284000*
G75*
G02X195250Y281766I-2234*
G01*
G75*
G02X193016Y284000J2234*
G01*
Y284000*
X188734*
Y284000*
G75*
G02X186500Y281766I-2234*
G01*
G75*
G02X184266Y284000J2234*
G01*
Y284000*
X177484*
Y284000*
G75*
G02X175250Y281766I-2234*
G01*
G75*
G02X173016Y284000J2234*
G01*
Y284000*
X166234*
Y284000*
G75*
G02X164000Y281766I-2234*
G01*
G75*
G02X161766Y284000J2234*
G01*
Y284000*
X153734*
Y284000*
G75*
G02X151500Y281766I-2234*
G01*
G75*
G02X149266Y284000J2234*
G01*
Y284000*
X143734*
Y284000*
G75*
G02X141500Y281766I-2234*
G01*
G75*
G02X139266Y284000J2234*
G01*
Y284000*
X133734*
Y284000*
G75*
G02X131500Y281766I-2234*
G01*
G75*
G02X129266Y284000J2234*
G01*
Y284000*
X123734*
Y284000*
G75*
G02X121500Y281766I-2234*
G01*
G75*
G02X119266Y284000J2234*
G01*
Y284000*
X113734*
Y284000*
G75*
G02X111500Y281766I-2234*
G01*
G75*
G02X109266Y284000J2234*
G01*
Y284000*
X103734*
Y284000*
G75*
G02X101500Y281766I-2234*
G01*
G75*
G02X99266Y284000J2234*
G01*
Y284000*
X93734*
Y284000*
G75*
G02X91500Y281766I-2234*
G01*
G75*
G02X89266Y284000J2234*
G01*
Y284000*
X83734*
Y284000*
G75*
G02X81500Y281766I-2234*
G01*
G75*
G02X79266Y284000J2234*
G01*
Y284000*
X73734*
Y284000*
G75*
G02X71500Y281766I-2234*
G01*
G75*
G02X69266Y284000J2234*
G01*
Y284000*
X62484*
Y284000*
G75*
G02X60250Y281766I-2234*
G01*
G75*
G02X58016Y284000J2234*
G01*
Y284000*
X52484*
Y284000*
G75*
G02X50250Y281766I-2234*
G01*
G75*
G02X48016Y284000J2234*
G01*
Y284000*
X43734*
Y284000*
G75*
G02X41500Y281766I-2234*
G01*
G75*
G02X39266Y284000J2234*
G01*
Y284000*
X36234*
Y284000*
G75*
G02X34000Y281766I-2234*
G01*
G75*
G02X31766Y284000J2234*
G01*
Y284000*
X23147*
G75*
G02X25624Y277750I-6647J-6250*
G01*
G75*
G02X8000Y274437I-9124J0*
G01*
G37*
Y284000D02*
G36*
Y281066D01*
G75*
G02X9853Y284000I8500J-3316*
G01*
X8000*
G37*
Y288750D02*
G36*
Y284000D01*
X9853*
G75*
G02X23147I6647J-6250*
G01*
X31766*
Y284000*
G75*
G02X34000Y286234I2234*
G01*
G75*
G02X36234Y284000J-2234*
G01*
Y284000*
X39266*
Y284000*
G75*
G02X41500Y286234I2234*
G01*
G75*
G02X43734Y284000J-2234*
G01*
Y284000*
X48016*
Y284000*
G75*
G02X50250Y286234I2234*
G01*
G75*
G02X52484Y284000J-2234*
G01*
Y284000*
X58016*
Y284000*
G75*
G02X60250Y286234I2234*
G01*
G75*
G02X62484Y284000J-2234*
G01*
Y284000*
X69266*
Y284000*
G75*
G02X71500Y286234I2234*
G01*
G75*
G02X73734Y284000J-2234*
G01*
Y284000*
X79266*
Y284000*
G75*
G02X81500Y286234I2234*
G01*
G75*
G02X83734Y284000J-2234*
G01*
Y284000*
X89266*
Y284000*
G75*
G02X91500Y286234I2234*
G01*
G75*
G02X93734Y284000J-2234*
G01*
Y284000*
X99266*
Y284000*
G75*
G02X101500Y286234I2234*
G01*
G75*
G02X103734Y284000J-2234*
G01*
Y284000*
X109266*
Y284000*
G75*
G02X111500Y286234I2234*
G01*
G75*
G02X113734Y284000J-2234*
G01*
Y284000*
X119266*
Y284000*
G75*
G02X121500Y286234I2234*
G01*
G75*
G02X123734Y284000J-2234*
G01*
Y284000*
X129266*
Y284000*
G75*
G02X131500Y286234I2234*
G01*
G75*
G02X133734Y284000J-2234*
G01*
Y284000*
X139266*
Y284000*
G75*
G02X141500Y286234I2234*
G01*
G75*
G02X143734Y284000J-2234*
G01*
Y284000*
X149266*
Y284000*
G75*
G02X151500Y286234I2234*
G01*
G75*
G02X153734Y284000J-2234*
G01*
Y284000*
X161766*
Y284000*
G75*
G02X164000Y286234I2234*
G01*
G75*
G02X166234Y284000J-2234*
G01*
Y284000*
X173016*
Y284000*
G75*
G02X175250Y286234I2234*
G01*
G75*
G02X177484Y284000J-2234*
G01*
Y284000*
X184266*
Y284000*
G75*
G02X186500Y286234I2234*
G01*
G75*
G02X188734Y284000J-2234*
G01*
Y284000*
X193016*
Y284000*
G75*
G02X195250Y286234I2234*
G01*
G75*
G02X197484Y284000J-2234*
G01*
Y284000*
X203016*
Y284000*
G75*
G02X205250Y286234I2234*
G01*
G75*
G02X207484Y284000J-2234*
G01*
Y284000*
X213016*
Y284000*
G75*
G02X215250Y286234I2234*
G01*
G75*
G02X217484Y284000J-2234*
G01*
Y284000*
X223868*
G75*
G02X239132I7632J-5000*
G01*
X242500*
Y288750*
X8000*
G37*
X99748Y173172D02*
Y159883D01*
G75*
G02X100018Y160232I1502J-883*
G01*
X109249Y169463*
X107445*
Y173695*
X106910*
G75*
G02X106333Y173596I-577J1643*
G01*
X100172*
X99748Y173172*
G36*
Y159883*
G75*
G02X100018Y160232I1502J-883*
G01*
X109249Y169463*
X107445*
Y173695*
X106910*
G75*
G02X106333Y173596I-577J1643*
G01*
X100172*
X99748Y173172*
G37*
X121894Y152195D02*
Y135643D01*
X124531Y133006*
Y133396*
X126159*
G75*
G02X127309Y133724I1591J-3396*
G01*
G75*
G02X126313Y141536I441J4026*
G01*
G75*
G02X126404Y148500I1437J3464*
G01*
G75*
G02X126159Y148604I1346J3500*
G01*
X124531*
Y150076*
G75*
G02X124000Y152000I3219J1924*
G01*
G75*
G02Y152002I3759J1*
G01*
X122753*
G75*
G02X121894Y152195I-2J1998*
G01*
G36*
Y135643*
X124531Y133006*
Y133396*
X126159*
G75*
G02X127309Y133724I1591J-3396*
G01*
G75*
G02X126313Y141536I441J4026*
G01*
G75*
G02X126404Y148500I1437J3464*
G01*
G75*
G02X126159Y148604I1346J3500*
G01*
X124531*
Y150076*
G75*
G02X124000Y152000I3219J1924*
G01*
G75*
G02Y152002I3759J1*
G01*
X122753*
G75*
G02X121894Y152195I-2J1998*
G01*
G37*
X144163Y182587D02*
X141759Y180183D01*
X150854Y188583*
Y192002*
X148578*
X144748Y188172*
Y184000*
G75*
G02X144163Y182587I-1998J0*
G01*
G36*
X141759Y180183*
X150854Y188583*
Y192002*
X148578*
X144748Y188172*
Y184000*
G75*
G02X144163Y182587I-1998J0*
G01*
G37*
D02*
D95*
X15450Y176000D02*
X13450D01*
X17750Y173700D02*
Y171700D01*
Y178300D02*
Y180300D01*
X20050Y176000D02*
X22050D01*
X25250D02*
X23250D01*
X27750Y173500D02*
Y171500D01*
Y178500D02*
Y180500D01*
X30250Y176000D02*
X32250D01*
X40450Y129000D02*
X38450D01*
X40450Y169000D02*
X38450D01*
X40450Y179000D02*
X38450D01*
X42750Y126700D02*
Y124700D01*
Y131300D02*
Y133300D01*
Y166700D02*
Y164700D01*
Y171300D02*
Y173300D01*
Y176700D02*
Y174700D01*
Y181300D02*
Y183300D01*
X44950Y189000D02*
X42950D01*
X45050Y129000D02*
X47050D01*
X45050Y169000D02*
X47050D01*
X45050Y179000D02*
X47050D01*
X47250Y186700D02*
Y184700D01*
Y191300D02*
Y193300D01*
X49550Y189000D02*
X51550D01*
X52635Y127385D02*
X51422Y126172D01*
X52635Y130615D02*
X51422Y131828D01*
X52635Y167385D02*
X51422Y166172D01*
X52635Y170615D02*
X51422Y171828D01*
X52635Y177385D02*
X51422Y176172D01*
X52635Y180615D02*
X51422Y181828D01*
X55250Y189000D02*
X53250D01*
X55450Y219000D02*
X53450D01*
X55865Y127385D02*
X57078Y126172D01*
X55865Y130615D02*
X57078Y131828D01*
X55865Y167385D02*
X57078Y166172D01*
X55865Y170615D02*
X57078Y171828D01*
X55865Y177385D02*
X57078Y176172D01*
X55865Y180615D02*
X57078Y181828D01*
X56281Y230500D02*
X53750D01*
X56950Y199000D02*
X54950D01*
X57635Y207385D02*
X56422Y206172D01*
X57635Y210615D02*
X56422Y211828D01*
X57750Y186750D02*
Y184750D01*
Y216700D02*
Y214700D01*
Y221300D02*
Y223300D01*
Y228854D02*
Y226500D01*
X59219Y230500D02*
X61750D01*
X59250Y201300D02*
Y203300D01*
X60050Y219000D02*
X62050D01*
X60250Y189000D02*
X62250D01*
X60865Y207385D02*
X62078Y206172D01*
X60865Y210615D02*
X62078Y211828D01*
X61550Y199000D02*
X63550D01*
X70450Y127500D02*
X68450D01*
X71135Y137385D02*
X69922Y136172D01*
X71135Y140615D02*
X69922Y141828D01*
X72750Y125200D02*
Y123200D01*
Y129800D02*
Y131800D01*
X74365Y137385D02*
X75578Y136172D01*
X74365Y140615D02*
X75578Y141828D01*
X75050Y127500D02*
X77050D01*
X75450Y209000D02*
X73450D01*
X75450Y219000D02*
X73450D01*
X77750Y206700D02*
Y204700D01*
Y211300D02*
Y213300D01*
Y216700D02*
Y214700D01*
Y221300D02*
Y223300D01*
X77950Y124000D02*
X75950D01*
X78874Y138624D02*
X77459Y137209D01*
X78874Y141876D02*
X77459Y143291D01*
X78885Y148635D02*
X77672Y147422D01*
X78885Y151865D02*
X77672Y153078D01*
X80050Y209000D02*
X82050D01*
X80050Y219000D02*
X82050D01*
X80250Y121700D02*
Y119700D01*
Y126300D02*
Y128300D01*
X82115Y148635D02*
X83328Y147422D01*
X82115Y151865D02*
X83328Y153078D01*
X82126Y138624D02*
X83541Y137209D01*
X82126Y141876D02*
X83541Y143291D01*
X82550Y124000D02*
X84550D01*
X87635Y207385D02*
X86422Y206172D01*
X87635Y210615D02*
X86422Y211828D01*
X87635Y217385D02*
X86422Y216172D01*
X87635Y220615D02*
X86422Y221828D01*
X88885Y122385D02*
X87672Y121172D01*
X88885Y125615D02*
X87672Y126828D01*
X90450Y237500D02*
X88450D01*
X90865Y207385D02*
X92078Y206172D01*
X90865Y210615D02*
X92078Y211828D01*
X90865Y217385D02*
X92078Y216172D01*
X90865Y220615D02*
X92078Y221828D01*
X92115Y122385D02*
X93328Y121172D01*
X92115Y125615D02*
X93328Y126828D01*
X92750Y239800D02*
Y241800D01*
X95050Y237500D02*
X97050D01*
X97950Y84287D02*
X95950D01*
X100250Y81987D02*
Y79987D01*
Y86587D02*
Y88587D01*
X101281Y237500D02*
X98750D01*
X102550Y84287D02*
X104550D01*
X102750Y239146D02*
Y241500D01*
X112750Y234146D02*
Y236500D01*
Y241200D02*
Y239200D01*
Y245800D02*
Y247800D01*
X114219Y232500D02*
X116750D01*
X115050Y243500D02*
X117050D01*
X120450Y244000D02*
X118450D01*
X121135Y230885D02*
X119922Y229672D01*
X121135Y234115D02*
X119922Y235328D01*
X122750Y241700D02*
Y239700D01*
Y246300D02*
Y248300D01*
X124200Y92750D02*
X122200D01*
X124365Y230885D02*
X125578Y229672D01*
X124365Y234115D02*
X125578Y235328D01*
X125050Y244000D02*
X127050D01*
X126124Y112374D02*
X124709Y110959D01*
X126124Y115626D02*
X124709Y117041D01*
X126124Y136124D02*
X124709Y134709D01*
X126124Y139376D02*
X124709Y140791D01*
X126135Y121385D02*
X124922Y120172D01*
X126135Y124615D02*
X124922Y125828D01*
X126135Y143385D02*
X124922Y142172D01*
X126135Y146615D02*
X124922Y147828D01*
X126500Y90450D02*
Y88450D01*
Y95050D02*
Y97050D01*
X128800Y92750D02*
X130800D01*
X129365Y121385D02*
X130578Y120172D01*
X129365Y124615D02*
X130578Y125828D01*
X129376Y112374D02*
X130791Y110959D01*
X129376Y115626D02*
X130791Y117041D01*
X133624Y112374D02*
X132209Y110959D01*
X133624Y115626D02*
X132209Y117041D01*
X133635Y121385D02*
X132422Y120172D01*
X133635Y124615D02*
X132422Y125828D01*
X134250Y189984D02*
Y191984D01*
X136865Y121385D02*
X138078Y120172D01*
X136865Y124615D02*
X138078Y125828D01*
X136876Y112374D02*
X138291Y110959D01*
X136876Y115626D02*
X138291Y117041D01*
X138950Y214000D02*
X136950D01*
X141124Y112374D02*
X139709Y110959D01*
X141124Y115626D02*
X139709Y117041D01*
X141135Y121385D02*
X139922Y120172D01*
X141135Y124615D02*
X139922Y125828D01*
X141250Y205469D02*
Y208000D01*
Y211700D02*
Y209700D01*
Y216300D02*
Y218300D01*
X141700Y101500D02*
X139700D01*
X142896Y204000D02*
X145250D01*
X143550Y214000D02*
X145550D01*
X144000Y99200D02*
Y97200D01*
Y103800D02*
Y105800D01*
X144365Y121385D02*
X145578Y120172D01*
X144365Y124615D02*
X145578Y125828D01*
X144376Y112374D02*
X145791Y110959D01*
X144376Y115626D02*
X145791Y117041D01*
X146300Y101500D02*
X148300D01*
X151124Y217874D02*
X149709Y216459D01*
X151124Y221126D02*
X149709Y222541D01*
X151135Y210885D02*
X149922Y209672D01*
X151135Y214115D02*
X149922Y215328D01*
X151385Y99885D02*
X150172Y98672D01*
X151385Y103115D02*
X150172Y104328D01*
X151865Y143885D02*
X153078Y142672D01*
X151865Y147115D02*
X153078Y148328D01*
X151876Y136124D02*
X153291Y134709D01*
X151876Y139376D02*
X153291Y140791D01*
X154365Y210885D02*
X155578Y209672D01*
X154365Y214115D02*
X155578Y215328D01*
X154376Y217874D02*
X155791Y216459D01*
X154376Y221126D02*
X155791Y222541D01*
X154615Y99885D02*
X155828Y98672D01*
X154615Y103115D02*
X155828Y104328D01*
X161250Y187531D02*
Y185000D01*
X162656Y115344D02*
X161242Y116758D01*
X162896Y189000D02*
X165250D01*
X165344Y112656D02*
X166758Y111242D01*
X170250Y114600D02*
Y112600D01*
Y118400D02*
Y120400D01*
X170450Y189000D02*
X168450D01*
X172150Y116500D02*
X174150D01*
X172750Y186700D02*
Y184700D01*
X174866Y126500D02*
X172866D01*
X174954Y110181D02*
X173100Y112034D01*
X175050Y189000D02*
X177050D01*
X175100Y111953D02*
X173100D01*
X175150Y112053D02*
Y114051D01*
X175450Y138500D02*
X173450D01*
X176135Y148885D02*
X174922Y147672D01*
X176135Y152115D02*
X174922Y153328D01*
X176766Y124600D02*
Y122600D01*
Y128400D02*
Y130400D01*
X177069Y112296D02*
X175216Y114150D01*
X177462Y112296D02*
X179315Y114150D01*
X177750Y136200D02*
Y134200D01*
Y140800D02*
Y142800D01*
X178666Y126500D02*
X180666D01*
X179234Y112150D02*
Y114150D01*
X179365Y148885D02*
X180578Y147672D01*
X179365Y152115D02*
X180578Y153328D01*
X179635Y177385D02*
X178422Y176172D01*
X179635Y180615D02*
X178422Y181828D01*
X179950Y189000D02*
X177950D01*
X180050Y138500D02*
X182050D01*
X180450Y119000D02*
X178450D01*
X181350Y111953D02*
X185703D01*
X182250Y186700D02*
Y184700D01*
X182750Y116700D02*
Y114700D01*
Y121300D02*
Y123300D01*
X182865Y177385D02*
X184078Y176172D01*
X182865Y180615D02*
X184078Y181828D01*
X184550Y189000D02*
X186550D01*
X192750Y129146D02*
Y131500D01*
Y134653D02*
Y132653D01*
Y152150D02*
Y150150D01*
X193550Y153300D02*
X195549D01*
X194219Y127500D02*
X196750D01*
X195050Y136953D02*
X197050D01*
X215250Y229000D02*
X213250D01*
X217750Y226500D02*
Y224500D01*
Y231500D02*
Y233500D01*
X220250Y229000D02*
X222250D01*
D02*
D96*
X107750Y160250D02*
Y101550D01*
X112750Y160250D02*
Y101550D01*
D02*
D97*
X127750Y79000D02*
Y53080D01*
D02*
D98*
X78537Y184787D02*
X72750Y179000D01*
X116963Y172583D02*
Y157287D01*
X120250Y154000*
Y134963*
X125250Y129963*
X127463*
X127750Y130000*
X172297Y111953D02*
X175150D01*
Y109984D02*
X168016D01*
X177266Y112100D02*
Y119500D01*
X176766*
Y126500*
X179234Y105900D02*
Y97516D01*
Y112100D02*
Y115484D01*
X181350Y106047D02*
X185703D01*
X181350Y108016D02*
X189234D01*
D02*
D99*
X112809Y84287D02*
X118037D01*
X126500Y92750*
D02*
D101*
X106333Y175339D02*
X99089D01*
X106333Y176913D02*
X95663D01*
X106333Y178488D02*
X92738D01*
X106333Y180063D02*
X89313D01*
X106333Y181638D02*
X85888D01*
X106333Y183213D02*
X82463D01*
X106333Y184787D02*
X78537D01*
X106333Y186362D02*
X90388D01*
X106333Y187937D02*
X93813D01*
X106333Y189512D02*
X96250D01*
X109089Y195417D02*
Y199000D01*
X112238Y172583D02*
Y169988D01*
X101250Y159000*
Y128000*
X97500Y124250*
Y124000*
X112238Y195417D02*
Y189512D01*
X117750Y184000*
X113813Y172583D02*
Y166313D01*
X115388Y172583D02*
Y162888D01*
X116963Y195417D02*
Y184787D01*
X117750Y184000*
X118537Y172583D02*
Y158213D01*
Y195417D02*
Y220287D01*
X120112Y161925D02*
Y172583D01*
Y195417D02*
Y211362D01*
X121687Y172583D02*
Y165063D01*
Y195417D02*
Y207937D01*
X123262Y172583D02*
Y178488D01*
X117750Y184000*
X123262Y195417D02*
Y204512D01*
X129167Y175339D02*
X146411D01*
X129167Y176913D02*
X141163D01*
X129167Y178488D02*
X137238D01*
X129167Y180063D02*
X135750D01*
X129167Y186362D02*
X132612D01*
X134250Y188000*
Y189500*
X129167Y186362D02*
X120112D01*
X117750Y184000*
X181350Y109984D02*
X184650D01*
D02*
D102*
X109089Y199000D02*
X102750Y205339D01*
X113813Y195417D02*
Y202937D01*
X107750Y209000*
X121687Y207937D02*
X147750Y234000D01*
X129167Y184787D02*
X136750D01*
D02*
D103*
X115388Y195417D02*
Y206362D01*
D02*
D104*
X112750Y209000D01*
X0Y0D02*
M02*
