G04 DesignSpark PCB Gerber Version 9.0 Build 5138 *
G04 #@! TF.Part,Single*
G04 #@! TF.FileFunction,Drillmap *
G04 #@! TF.FilePolarity,Positive *
%FSLAX35Y35*%
%MOIN*%
%ADD94C,0.00500*%
G04 #@! TA.AperFunction,ViaPad*
%ADD133C,0.10000*%
X0Y0D02*
D02*
D94*
X23375Y81813D02*
X23063Y81500D01*
X22437Y81187*
X21500*
X20875Y81500*
X20563Y81813*
X20250Y82437*
Y83687*
X20563Y84313*
X20875Y84625*
X21500Y84937*
X22437*
X23063Y84625*
X23375Y84313*
Y94313D02*
X23063Y94000D01*
X22437Y93687*
X21500*
X20875Y94000*
X20563Y94313*
X20250Y94937*
Y96187*
X20563Y96813*
X20875Y97125*
X21500Y97437*
X22437*
X23063Y97125*
X23375Y96813*
Y104313D02*
X23063Y104000D01*
X22437Y103687*
X21500*
X20875Y104000*
X20563Y104313*
X20250Y104937*
Y106187*
X20563Y106813*
X20875Y107125*
X21500Y107437*
X22437*
X23063Y107125*
X23375Y106813*
Y114313D02*
X23063Y114000D01*
X22437Y113687*
X21500*
X20875Y114000*
X20563Y114313*
X20250Y114937*
Y116187*
X20563Y116813*
X20875Y117125*
X21500Y117437*
X22437*
X23063Y117125*
X23375Y116813*
Y123063D02*
X23063Y122750D01*
X22437Y122437*
X21500*
X20875Y122750*
X20563Y123063*
X20250Y123687*
Y124937*
X20563Y125563*
X20875Y125875*
X21500Y126187*
X22437*
X23063Y125875*
X23375Y125563*
Y134313D02*
X23063Y134000D01*
X22437Y133687*
X21500*
X20875Y134000*
X20563Y134313*
X20250Y134937*
Y136187*
X20563Y136813*
X20875Y137125*
X21500Y137437*
X22437*
X23063Y137125*
X23375Y136813*
Y145563D02*
X23063Y145250D01*
X22437Y144937*
X21500*
X20875Y145250*
X20563Y145563*
X20250Y146187*
Y147437*
X20563Y148063*
X20875Y148375*
X21500Y148687*
X22437*
X23063Y148375*
X23375Y148063*
Y158063D02*
X23063Y157750D01*
X22437Y157437*
X21500*
X20875Y157750*
X20563Y158063*
X20250Y158687*
Y159937*
X20563Y160563*
X20875Y160875*
X21500Y161187*
X22437*
X23063Y160875*
X23375Y160563*
Y168063D02*
X23063Y167750D01*
X22437Y167437*
X21500*
X20875Y167750*
X20563Y168063*
X20250Y168687*
Y169937*
X20563Y170563*
X20875Y170875*
X21500Y171187*
X22437*
X23063Y170875*
X23375Y170563*
Y176813D02*
X23063Y176500D01*
X22437Y176187*
X21500*
X20875Y176500*
X20563Y176813*
X20250Y177437*
Y178687*
X20563Y179313*
X20875Y179625*
X21500Y179937*
X22437*
X23063Y179625*
X23375Y179313*
Y184313D02*
X23063Y184000D01*
X22437Y183687*
X21500*
X20875Y184000*
X20563Y184313*
X20250Y184937*
Y186187*
X20563Y186813*
X20875Y187125*
X21500Y187437*
X22437*
X23063Y187125*
X23375Y186813*
Y193063D02*
X23063Y192750D01*
X22437Y192437*
X21500*
X20875Y192750*
X20563Y193063*
X20250Y193687*
Y194937*
X20563Y195563*
X20875Y195875*
X21500Y196187*
X22437*
X23063Y195875*
X23375Y195563*
Y201813D02*
X23063Y201500D01*
X22437Y201187*
X21500*
X20875Y201500*
X20563Y201813*
X20250Y202437*
Y203687*
X20563Y204313*
X20875Y204625*
X21500Y204937*
X22437*
X23063Y204625*
X23375Y204313*
Y211813D02*
X23063Y211500D01*
X22437Y211187*
X21500*
X20875Y211500*
X20563Y211813*
X20250Y212437*
Y213687*
X20563Y214313*
X20875Y214625*
X21500Y214937*
X22437*
X23063Y214625*
X23375Y214313*
Y221813D02*
X23063Y221500D01*
X22437Y221187*
X21500*
X20875Y221500*
X20563Y221813*
X20250Y222437*
Y223687*
X20563Y224313*
X20875Y224625*
X21500Y224937*
X22437*
X23063Y224625*
X23375Y224313*
Y231813D02*
X23063Y231500D01*
X22437Y231187*
X21500*
X20875Y231500*
X20563Y231813*
X20250Y232437*
Y233687*
X20563Y234313*
X20875Y234625*
X21500Y234937*
X22437*
X23063Y234625*
X23375Y234313*
Y243063D02*
X23063Y242750D01*
X22437Y242437*
X21500*
X20875Y242750*
X20563Y243063*
X20250Y243687*
Y244937*
X20563Y245563*
X20875Y245875*
X21500Y246187*
X22437*
X23063Y245875*
X23375Y245563*
Y253063D02*
X23063Y252750D01*
X22437Y252437*
X21500*
X20875Y252750*
X20563Y253063*
X20250Y253687*
Y254937*
X20563Y255563*
X20875Y255875*
X21500Y256187*
X22437*
X23063Y255875*
X23375Y255563*
Y261813D02*
X23063Y261500D01*
X22437Y261187*
X21500*
X20875Y261500*
X20563Y261813*
X20250Y262437*
Y263687*
X20563Y264313*
X20875Y264625*
X21500Y264937*
X22437*
X23063Y264625*
X23375Y264313*
Y270563D02*
X23063Y270250D01*
X22437Y269937*
X21500*
X20875Y270250*
X20563Y270563*
X20250Y271187*
Y272437*
X20563Y273063*
X20875Y273375*
X21500Y273687*
X22437*
X23063Y273375*
X23375Y273063*
X26500Y66187D02*
Y69937D01*
X29625*
X29000Y68063D02*
X26500D01*
Y66187D02*
X29625D01*
X26500Y283687D02*
Y287437D01*
X29625*
X29000Y285563D02*
X26500D01*
Y283687D02*
X29625D01*
X27750Y181937D02*
X29313Y185687D01*
X30875Y181937*
X28375Y183500D02*
X30250D01*
X39937Y93813D02*
X40563Y93500D01*
X40875Y92875*
X40563Y92250*
X39937Y91937*
X37750*
Y95687*
X39937*
X40563Y95375*
X40875Y94750*
X40563Y94125*
X39937Y93813*
X37750*
X39937Y103813D02*
X40563Y103500D01*
X40875Y102875*
X40563Y102250*
X39937Y101937*
X37750*
Y105687*
X39937*
X40563Y105375*
X40875Y104750*
X40563Y104125*
X39937Y103813*
X37750*
X39937Y113813D02*
X40563Y113500D01*
X40875Y112875*
X40563Y112250*
X39937Y111937*
X37750*
Y115687*
X39937*
X40563Y115375*
X40875Y114750*
X40563Y114125*
X39937Y113813*
X37750*
X39937Y123813D02*
X40563Y123500D01*
X40875Y122875*
X40563Y122250*
X39937Y121937*
X37750*
Y125687*
X39937*
X40563Y125375*
X40875Y124750*
X40563Y124125*
X39937Y123813*
X37750*
X39937Y133813D02*
X40563Y133500D01*
X40875Y132875*
X40563Y132250*
X39937Y131937*
X37750*
Y135687*
X39937*
X40563Y135375*
X40875Y134750*
X40563Y134125*
X39937Y133813*
X37750*
X39937Y143813D02*
X40563Y143500D01*
X40875Y142875*
X40563Y142250*
X39937Y141937*
X37750*
Y145687*
X39937*
X40563Y145375*
X40875Y144750*
X40563Y144125*
X39937Y143813*
X37750*
X39937Y163813D02*
X40563Y163500D01*
X40875Y162875*
X40563Y162250*
X39937Y161937*
X37750*
Y165687*
X39937*
X40563Y165375*
X40875Y164750*
X40563Y164125*
X39937Y163813*
X37750*
X39937Y173813D02*
X40563Y173500D01*
X40875Y172875*
X40563Y172250*
X39937Y171937*
X37750*
Y175687*
X39937*
X40563Y175375*
X40875Y174750*
X40563Y174125*
X39937Y173813*
X37750*
X39937Y183813D02*
X40563Y183500D01*
X40875Y182875*
X40563Y182250*
X39937Y181937*
X37750*
Y185687*
X39937*
X40563Y185375*
X40875Y184750*
X40563Y184125*
X39937Y183813*
X37750*
X39937Y193813D02*
X40563Y193500D01*
X40875Y192875*
X40563Y192250*
X39937Y191937*
X37750*
Y195687*
X39937*
X40563Y195375*
X40875Y194750*
X40563Y194125*
X39937Y193813*
X37750*
X39937Y203813D02*
X40563Y203500D01*
X40875Y202875*
X40563Y202250*
X39937Y201937*
X37750*
Y205687*
X39937*
X40563Y205375*
X40875Y204750*
X40563Y204125*
X39937Y203813*
X37750*
X39937Y213813D02*
X40563Y213500D01*
X40875Y212875*
X40563Y212250*
X39937Y211937*
X37750*
Y215687*
X39937*
X40563Y215375*
X40875Y214750*
X40563Y214125*
X39937Y213813*
X37750*
X39937Y223813D02*
X40563Y223500D01*
X40875Y222875*
X40563Y222250*
X39937Y221937*
X37750*
Y225687*
X39937*
X40563Y225375*
X40875Y224750*
X40563Y224125*
X39937Y223813*
X37750*
X39937Y233813D02*
X40563Y233500D01*
X40875Y232875*
X40563Y232250*
X39937Y231937*
X37750*
Y235687*
X39937*
X40563Y235375*
X40875Y234750*
X40563Y234125*
X39937Y233813*
X37750*
X45875Y60563D02*
X45563Y60250D01*
X44937Y59937*
X44000*
X43375Y60250*
X43063Y60563*
X42750Y61187*
Y62437*
X43063Y63063*
X43375Y63375*
X44000Y63687*
X44937*
X45563Y63375*
X45875Y63063*
X47125Y290563D02*
X46813Y290250D01*
X46187Y289937*
X45250*
X44625Y290250*
X44313Y290563*
X44000Y291187*
Y292437*
X44313Y293063*
X44625Y293375*
X45250Y293687*
X46187*
X46813Y293375*
X47125Y293063*
X54625Y290563D02*
X54313Y290250D01*
X53687Y289937*
X52750*
X52125Y290250*
X51813Y290563*
X51500Y291187*
Y292437*
X51813Y293063*
X52125Y293375*
X52750Y293687*
X53687*
X54313Y293375*
X54625Y293063*
X55875Y60563D02*
X55563Y60250D01*
X54937Y59937*
X54000*
X53375Y60250*
X53063Y60563*
X52750Y61187*
Y62437*
X53063Y63063*
X53375Y63375*
X54000Y63687*
X54937*
X55563Y63375*
X55875Y63063*
X52750Y134937D02*
X54313Y138687D01*
X55875Y134937*
X53375Y136500D02*
X55250D01*
X52750Y174937D02*
X54313Y178687D01*
X55875Y174937*
X53375Y176500D02*
X55250D01*
X52750Y184937D02*
X54313Y188687D01*
X55875Y184937*
X53375Y186500D02*
X55250D01*
X57250Y194937D02*
X58813Y198687D01*
X60375Y194937*
X57875Y196500D02*
X59750D01*
X63375Y290563D02*
X63063Y290250D01*
X62437Y289937*
X61500*
X60875Y290250*
X60563Y290563*
X60250Y291187*
Y292437*
X60563Y293063*
X60875Y293375*
X61500Y293687*
X62437*
X63063Y293375*
X63375Y293063*
X67125Y60563D02*
X66813Y60250D01*
X66187Y59937*
X65250*
X64625Y60250*
X64313Y60563*
X64000Y61187*
Y62437*
X64313Y63063*
X64625Y63375*
X65250Y63687*
X66187*
X66813Y63375*
X67125Y63063*
X67750Y224937D02*
X69313Y228687D01*
X70875Y224937*
X68375Y226500D02*
X70250D01*
X69250Y204937D02*
X70813Y208687D01*
X72375Y204937*
X69875Y206500D02*
X71750D01*
X73375Y290563D02*
X73063Y290250D01*
X72437Y289937*
X71500*
X70875Y290250*
X70563Y290563*
X70250Y291187*
Y292437*
X70563Y293063*
X70875Y293375*
X71500Y293687*
X72437*
X73063Y293375*
X73375Y293063*
X77125Y60563D02*
X76813Y60250D01*
X76187Y59937*
X75250*
X74625Y60250*
X74313Y60563*
X74000Y61187*
Y62437*
X74313Y63063*
X74625Y63375*
X75250Y63687*
X76187*
X76813Y63375*
X77125Y63063*
X77750Y224937D02*
X79313Y228687D01*
X80875Y224937*
X78375Y226500D02*
X80250D01*
X77750Y244937D02*
X79313Y248687D01*
X80875Y244937*
X78375Y246500D02*
X80250D01*
X84625Y290563D02*
X84313Y290250D01*
X83687Y289937*
X82750*
X82125Y290250*
X81813Y290563*
X81500Y291187*
Y292437*
X81813Y293063*
X82125Y293375*
X82750Y293687*
X83687*
X84313Y293375*
X84625Y293063*
X82750Y133437D02*
X84313Y137187D01*
X85875Y133437*
X83375Y135000D02*
X85250D01*
X87125Y60563D02*
X86813Y60250D01*
X86187Y59937*
X85250*
X84625Y60250*
X84313Y60563*
X84000Y61187*
Y62437*
X84313Y63063*
X84625Y63375*
X85250Y63687*
X86187*
X86813Y63375*
X87125Y63063*
X87750Y214937D02*
X89313Y218687D01*
X90875Y214937*
X88375Y216500D02*
X90250D01*
X87750Y224937D02*
X89313Y228687D01*
X90875Y224937*
X88375Y226500D02*
X90250D01*
Y129937D02*
X91813Y133687D01*
X93375Y129937*
X90875Y131500D02*
X92750D01*
X90500Y146187D02*
X92063Y149937D01*
X93625Y146187*
X91125Y147750D02*
X93000D01*
X94625Y290563D02*
X94313Y290250D01*
X93687Y289937*
X92750*
X92125Y290250*
X91813Y290563*
X91500Y291187*
Y292437*
X91813Y293063*
X92125Y293375*
X92750Y293687*
X93687*
X94313Y293375*
X94625Y293063*
X97125Y60563D02*
X96813Y60250D01*
X96187Y59937*
X95250*
X94625Y60250*
X94313Y60563*
X94000Y61187*
Y62437*
X94313Y63063*
X94625Y63375*
X95250Y63687*
X96187*
X96813Y63375*
X97125Y63063*
X104625Y290563D02*
X104313Y290250D01*
X103687Y289937*
X102750*
X102125Y290250*
X101813Y290563*
X101500Y291187*
Y292437*
X101813Y293063*
X102125Y293375*
X102750Y293687*
X103687*
X104313Y293375*
X104625Y293063*
X102750Y236437D02*
X104313Y240187D01*
X105875Y236437*
X103375Y238000D02*
X105250D01*
X102750Y243437D02*
X104313Y247187D01*
X105875Y243437*
X103375Y245000D02*
X105250D01*
X107125Y60563D02*
X106813Y60250D01*
X106187Y59937*
X105250*
X104625Y60250*
X104313Y60563*
X104000Y61187*
Y62437*
X104313Y63063*
X104625Y63375*
X105250Y63687*
X106187*
X106813Y63375*
X107125Y63063*
X106250Y204937D02*
X107813Y208687D01*
X109375Y204937*
X106875Y206500D02*
X108750D01*
X107750Y121187D02*
X109313Y124937D01*
X110875Y121187*
X108375Y122750D02*
X110250D01*
Y90225D02*
X111813Y93975D01*
X113375Y90225*
X110875Y91787D02*
X112750D01*
X114625Y290563D02*
X114313Y290250D01*
X113687Y289937*
X112750*
X112125Y290250*
X111813Y290563*
X111500Y291187*
Y292437*
X111813Y293063*
X112125Y293375*
X112750Y293687*
X113687*
X114313Y293375*
X114625Y293063*
X117125Y100563D02*
X116813Y100250D01*
X116187Y99937*
X115250*
X114625Y100250*
X114313Y100563*
X114000Y101187*
Y102437*
X114313Y103063*
X114625Y103375*
X115250Y103687*
X116187*
X116813Y103375*
X117125Y103063*
Y106813D02*
X116813Y106500D01*
X116187Y106187*
X115250*
X114625Y106500*
X114313Y106813*
X114000Y107437*
Y108687*
X114313Y109313*
X114625Y109625*
X115250Y109937*
X116187*
X116813Y109625*
X117125Y109313*
Y114313D02*
X116813Y114000D01*
X116187Y113687*
X115250*
X114625Y114000*
X114313Y114313*
X114000Y114937*
Y116187*
X114313Y116813*
X114625Y117125*
X115250Y117437*
X116187*
X116813Y117125*
X117125Y116813*
Y120563D02*
X116813Y120250D01*
X116187Y119937*
X115250*
X114625Y120250*
X114313Y120563*
X114000Y121187*
Y122437*
X114313Y123063*
X114625Y123375*
X115250Y123687*
X116187*
X116813Y123375*
X117125Y123063*
Y126813D02*
X116813Y126500D01*
X116187Y126187*
X115250*
X114625Y126500*
X114313Y126813*
X114000Y127437*
Y128687*
X114313Y129313*
X114625Y129625*
X115250Y129937*
X116187*
X116813Y129625*
X117125Y129313*
Y134313D02*
X116813Y134000D01*
X116187Y133687*
X115250*
X114625Y134000*
X114313Y134313*
X114000Y134937*
Y136187*
X114313Y136813*
X114625Y137125*
X115250Y137437*
X116187*
X116813Y137125*
X117125Y136813*
Y141813D02*
X116813Y141500D01*
X116187Y141187*
X115250*
X114625Y141500*
X114313Y141813*
X114000Y142437*
Y143687*
X114313Y144313*
X114625Y144625*
X115250Y144937*
X116187*
X116813Y144625*
X117125Y144313*
Y149313D02*
X116813Y149000D01*
X116187Y148687*
X115250*
X114625Y149000*
X114313Y149313*
X114000Y149937*
Y151187*
X114313Y151813*
X114625Y152125*
X115250Y152437*
X116187*
X116813Y152125*
X117125Y151813*
Y156813D02*
X116813Y156500D01*
X116187Y156187*
X115250*
X114625Y156500*
X114313Y156813*
X114000Y157437*
Y158687*
X114313Y159313*
X114625Y159625*
X115250Y159937*
X116187*
X116813Y159625*
X117125Y159313*
Y164313D02*
X116813Y164000D01*
X116187Y163687*
X115250*
X114625Y164000*
X114313Y164313*
X114000Y164937*
Y166187*
X114313Y166813*
X114625Y167125*
X115250Y167437*
X116187*
X116813Y167125*
X117125Y166813*
X118375Y60563D02*
X118063Y60250D01*
X117437Y59937*
X116500*
X115875Y60250*
X115563Y60563*
X115250Y61187*
Y62437*
X115563Y63063*
X115875Y63375*
X116500Y63687*
X117437*
X118063Y63375*
X118375Y63063*
X119625Y80563D02*
X119313Y80250D01*
X118687Y79937*
X117750*
X117125Y80250*
X116813Y80563*
X116500Y81187*
Y82437*
X116813Y83063*
X117125Y83375*
X117750Y83687*
X118687*
X119313Y83375*
X119625Y83063*
X124625Y290563D02*
X124313Y290250D01*
X123687Y289937*
X122750*
X122125Y290250*
X121813Y290563*
X121500Y291187*
Y292437*
X121813Y293063*
X122125Y293375*
X122750Y293687*
X123687*
X124313Y293375*
X124625Y293063*
X122750Y249437D02*
X124313Y253187D01*
X125875Y249437*
X123375Y251000D02*
X125250D01*
X129625Y59313D02*
X129313Y59000D01*
X128687Y58687*
X127750*
X127125Y59000*
X126813Y59313*
X126500Y59937*
Y61187*
X126813Y61813*
X127125Y62125*
X127750Y62437*
X128687*
X129313Y62125*
X129625Y61813*
Y66813D02*
X129313Y66500D01*
X128687Y66187*
X127750*
X127125Y66500*
X126813Y66813*
X126500Y67437*
Y68687*
X126813Y69313*
X127125Y69625*
X127750Y69937*
X128687*
X129313Y69625*
X129625Y69313*
Y74313D02*
X129313Y74000D01*
X128687Y73687*
X127750*
X127125Y74000*
X126813Y74313*
X126500Y74937*
Y76187*
X126813Y76813*
X127125Y77125*
X127750Y77437*
X128687*
X129313Y77125*
X129625Y76813*
Y80563D02*
X129313Y80250D01*
X128687Y79937*
X127750*
X127125Y80250*
X126813Y80563*
X126500Y81187*
Y82437*
X126813Y83063*
X127125Y83375*
X127750Y83687*
X128687*
X129313Y83375*
X129625Y83063*
Y99313D02*
X129313Y99000D01*
X128687Y98687*
X127750*
X127125Y99000*
X126813Y99313*
X126500Y99937*
Y101187*
X126813Y101813*
X127125Y102125*
X127750Y102437*
X128687*
X129313Y102125*
X129625Y101813*
Y106813D02*
X129313Y106500D01*
X128687Y106187*
X127750*
X127125Y106500*
X126813Y106813*
X126500Y107437*
Y108687*
X126813Y109313*
X127125Y109625*
X127750Y109937*
X128687*
X129313Y109625*
X129625Y109313*
Y114313D02*
X129313Y114000D01*
X128687Y113687*
X127750*
X127125Y114000*
X126813Y114313*
X126500Y114937*
Y116187*
X126813Y116813*
X127125Y117125*
X127750Y117437*
X128687*
X129313Y117125*
X129625Y116813*
Y121813D02*
X129313Y121500D01*
X128687Y121187*
X127750*
X127125Y121500*
X126813Y121813*
X126500Y122437*
Y123687*
X126813Y124313*
X127125Y124625*
X127750Y124937*
X128687*
X129313Y124625*
X129625Y124313*
Y129313D02*
X129313Y129000D01*
X128687Y128687*
X127750*
X127125Y129000*
X126813Y129313*
X126500Y129937*
Y131187*
X126813Y131813*
X127125Y132125*
X127750Y132437*
X128687*
X129313Y132125*
X129625Y131813*
Y136813D02*
X129313Y136500D01*
X128687Y136187*
X127750*
X127125Y136500*
X126813Y136813*
X126500Y137437*
Y138687*
X126813Y139313*
X127125Y139625*
X127750Y139937*
X128687*
X129313Y139625*
X129625Y139313*
Y144313D02*
X129313Y144000D01*
X128687Y143687*
X127750*
X127125Y144000*
X126813Y144313*
X126500Y144937*
Y146187*
X126813Y146813*
X127125Y147125*
X127750Y147437*
X128687*
X129313Y147125*
X129625Y146813*
Y151813D02*
X129313Y151500D01*
X128687Y151187*
X127750*
X127125Y151500*
X126813Y151813*
X126500Y152437*
Y153687*
X126813Y154313*
X127125Y154625*
X127750Y154937*
X128687*
X129313Y154625*
X129625Y154313*
Y159313D02*
X129313Y159000D01*
X128687Y158687*
X127750*
X127125Y159000*
X126813Y159313*
X126500Y159937*
Y161187*
X126813Y161813*
X127125Y162125*
X127750Y162437*
X128687*
X129313Y162125*
X129625Y161813*
X127750Y189937D02*
X129313Y193687D01*
X130875Y189937*
X128375Y191500D02*
X130250D01*
X134625Y290563D02*
X134313Y290250D01*
X133687Y289937*
X132750*
X132125Y290250*
X131813Y290563*
X131500Y291187*
Y292437*
X131813Y293063*
X132125Y293375*
X132750Y293687*
X133687*
X134313Y293375*
X134625Y293063*
X132750Y249937D02*
X134313Y253687D01*
X135875Y249937*
X133375Y251500D02*
X135250D01*
X136500Y98687D02*
X138063Y102437D01*
X139625Y98687*
X137125Y100250D02*
X139000D01*
X137750Y119937D02*
X139313Y123687D01*
X140875Y119937*
X138375Y121500D02*
X140250D01*
X137750Y143687D02*
X139313Y147437D01*
X140875Y143687*
X138375Y145250D02*
X140250D01*
X144625Y290563D02*
X144313Y290250D01*
X143687Y289937*
X142750*
X142125Y290250*
X141813Y290563*
X141500Y291187*
Y292437*
X141813Y293063*
X142125Y293375*
X142750Y293687*
X143687*
X144313Y293375*
X144625Y293063*
X147375Y196063D02*
X147063Y195750D01*
X146437Y195437*
X145500*
X144875Y195750*
X144563Y196063*
X144250Y196687*
Y197937*
X144563Y198563*
X144875Y198875*
X145500Y199187*
X146437*
X147063Y198875*
X147375Y198563*
X145250Y119937D02*
X146813Y123687D01*
X148375Y119937*
X145875Y121500D02*
X147750D01*
X145250Y143687D02*
X146813Y147437D01*
X148375Y143687*
X145875Y145250D02*
X147750D01*
X150875Y61813D02*
X150563Y61500D01*
X149937Y61187*
X149000*
X148375Y61500*
X148063Y61813*
X147750Y62437*
Y63687*
X148063Y64313*
X148375Y64625*
X149000Y64937*
X149937*
X150563Y64625*
X150875Y64313*
Y69313D02*
X150563Y69000D01*
X149937Y68687*
X149000*
X148375Y69000*
X148063Y69313*
X147750Y69937*
Y71187*
X148063Y71813*
X148375Y72125*
X149000Y72437*
X149937*
X150563Y72125*
X150875Y71813*
Y76813D02*
X150563Y76500D01*
X149937Y76187*
X149000*
X148375Y76500*
X148063Y76813*
X147750Y77437*
Y78687*
X148063Y79313*
X148375Y79625*
X149000Y79937*
X149937*
X150563Y79625*
X150875Y79313*
Y85563D02*
X150563Y85250D01*
X149937Y84937*
X149000*
X148375Y85250*
X148063Y85563*
X147750Y86187*
Y87437*
X148063Y88063*
X148375Y88375*
X149000Y88687*
X149937*
X150563Y88375*
X150875Y88063*
X151250Y219937D02*
X152813Y223687D01*
X154375Y219937*
X151875Y221500D02*
X153750D01*
X154625Y290563D02*
X154313Y290250D01*
X153687Y289937*
X152750*
X152125Y290250*
X151813Y290563*
X151500Y291187*
Y292437*
X151813Y293063*
X152125Y293375*
X152750Y293687*
X153687*
X154313Y293375*
X154625Y293063*
X152750Y119937D02*
X154313Y123687D01*
X155875Y119937*
X153375Y121500D02*
X155250D01*
X152750Y143687D02*
X154313Y147437D01*
X155875Y143687*
X153375Y145250D02*
X155250D01*
X152750Y254937D02*
Y258687D01*
X154625*
X155250Y258375*
X155563Y258063*
X155875Y257437*
Y256187*
X155563Y255563*
X155250Y255250*
X154625Y254937*
X152750*
X154000Y107437D02*
X155563Y111187D01*
X157125Y107437*
X154625Y109000D02*
X156500D01*
X158375Y61813D02*
X158063Y61500D01*
X157437Y61187*
X156500*
X155875Y61500*
X155563Y61813*
X155250Y62437*
Y63687*
X155563Y64313*
X155875Y64625*
X156500Y64937*
X157437*
X158063Y64625*
X158375Y64313*
X160250Y143687D02*
X161813Y147437D01*
X163375Y143687*
X160875Y145250D02*
X162750D01*
X164625Y290563D02*
X164313Y290250D01*
X163687Y289937*
X162750*
X162125Y290250*
X161813Y290563*
X161500Y291187*
Y292437*
X161813Y293063*
X162125Y293375*
X162750Y293687*
X163687*
X164313Y293375*
X164625Y293063*
X162750Y225437D02*
X164313Y229187D01*
X165875Y225437*
X163375Y227000D02*
X165250D01*
X166375Y185563D02*
X166063Y185250D01*
X165437Y184937*
X164500*
X163875Y185250*
X163563Y185563*
X163250Y186187*
Y187437*
X163563Y188063*
X163875Y188375*
X164500Y188687*
X165437*
X166063Y188375*
X166375Y188063*
X168375Y61813D02*
X168063Y61500D01*
X167437Y61187*
X166500*
X165875Y61500*
X165563Y61813*
X165250Y62437*
Y63687*
X165563Y64313*
X165875Y64625*
X166500Y64937*
X167437*
X168063Y64625*
X168375Y64313*
X167750Y135937D02*
X169313Y139687D01*
X170875Y135937*
X168375Y137500D02*
X170250D01*
X169000Y158437D02*
X170563Y162187D01*
X172125Y158437*
X169625Y160000D02*
X171500D01*
X170000Y116187D02*
X171563Y119937D01*
X173125Y116187*
X170625Y117750D02*
X172500D01*
X172750Y184937D02*
X174313Y188687D01*
X175875Y184937*
X173375Y186500D02*
X175250D01*
X172750Y211437D02*
X174313Y215187D01*
X175875Y211437*
X173375Y213000D02*
X175250D01*
X174000Y119937D02*
Y123687D01*
X175875*
X176500Y123375*
X176813Y123063*
X177125Y122437*
Y121187*
X176813Y120563*
X176500Y120250*
X175875Y119937*
X174000*
X177125Y290563D02*
X176813Y290250D01*
X176187Y289937*
X175250*
X174625Y290250*
X174313Y290563*
X174000Y291187*
Y292437*
X174313Y293063*
X174625Y293375*
X175250Y293687*
X176187*
X176813Y293375*
X177125Y293063*
X179625Y61813D02*
X179313Y61500D01*
X178687Y61187*
X177750*
X177125Y61500*
X176813Y61813*
X176500Y62437*
Y63687*
X176813Y64313*
X177125Y64625*
X177750Y64937*
X178687*
X179313Y64625*
X179625Y64313*
X182775Y114578D02*
X182463Y114266D01*
X181837Y113953*
X180900*
X180275Y114266*
X179963Y114578*
X179650Y115203*
Y116453*
X179963Y117078*
X180275Y117391*
X180900Y117703*
X181837*
X182463Y117391*
X182775Y117078*
X180250Y122437D02*
Y126187D01*
X182125*
X182750Y125875*
X183063Y125563*
X183375Y124937*
Y123687*
X183063Y123063*
X182750Y122750*
X182125Y122437*
X180250*
X182750Y194937D02*
X184313Y198687D01*
X185875Y194937*
X183375Y196500D02*
X185250D01*
X188375Y290563D02*
X188063Y290250D01*
X187437Y289937*
X186500*
X185875Y290250*
X185563Y290563*
X185250Y291187*
Y292437*
X185563Y293063*
X185875Y293375*
X186500Y293687*
X187437*
X188063Y293375*
X188375Y293063*
X189625Y61813D02*
X189313Y61500D01*
X188687Y61187*
X187750*
X187125Y61500*
X186813Y61813*
X186500Y62437*
Y63687*
X186813Y64313*
X187125Y64625*
X187750Y64937*
X188687*
X189313Y64625*
X189625Y64313*
X186766Y132437D02*
Y136187D01*
X188641*
X189266Y135875*
X189578Y135563*
X189891Y134937*
Y133687*
X189578Y133063*
X189266Y132750*
X188641Y132437*
X186766*
X187750Y144437D02*
X189313Y148187D01*
X190875Y144437*
X188375Y146000D02*
X190250D01*
X192250Y194937D02*
X193813Y198687D01*
X195375Y194937*
X192875Y196500D02*
X194750D01*
X192750Y124937D02*
X194313Y128687D01*
X195875Y124937*
X193375Y126500D02*
X195250D01*
X197775Y116547D02*
X197463Y116234D01*
X196837Y115922*
X195900*
X195275Y116234*
X194963Y116547*
X194650Y117172*
Y118422*
X194963Y119047*
X195275Y119359*
X195900Y119672*
X196837*
X197463Y119359*
X197775Y119047*
X199625Y61813D02*
X199313Y61500D01*
X198687Y61187*
X197750*
X197125Y61500*
X196813Y61813*
X196500Y62437*
Y63687*
X196813Y64313*
X197125Y64625*
X197750Y64937*
X198687*
X199313Y64625*
X199625Y64313*
Y290563D02*
X199313Y290250D01*
X198687Y289937*
X197750*
X197125Y290250*
X196813Y290563*
X196500Y291187*
Y292437*
X196813Y293063*
X197125Y293375*
X197750Y293687*
X198687*
X199313Y293375*
X199625Y293063*
X200757Y152713D02*
X200444Y152400D01*
X199819Y152087*
X198882*
X198257Y152400*
X197944Y152713*
X197632Y153337*
Y154587*
X197944Y155213*
X198257Y155525*
X198882Y155837*
X199819*
X200444Y155525*
X200757Y155213*
X197750Y99937D02*
Y103687D01*
X199625*
X200250Y103375*
X200563Y103063*
X200875Y102437*
Y101187*
X200563Y100563*
X200250Y100250*
X199625Y99937*
X197750*
X202750Y142890D02*
X204313Y146640D01*
X205875Y142890*
X203375Y144453D02*
X205250D01*
X208375Y290563D02*
X208063Y290250D01*
X207437Y289937*
X206500*
X205875Y290250*
X205563Y290563*
X205250Y291187*
Y292437*
X205563Y293063*
X205875Y293375*
X206500Y293687*
X207437*
X208063Y293375*
X208375Y293063*
X209625Y61813D02*
X209313Y61500D01*
X208687Y61187*
X207750*
X207125Y61500*
X206813Y61813*
X206500Y62437*
Y63687*
X206813Y64313*
X207125Y64625*
X207750Y64937*
X208687*
X209313Y64625*
X209625Y64313*
X210191Y164937D02*
X211754Y168687D01*
X213316Y164937*
X210816Y166500D02*
X212691D01*
X210250Y126437D02*
X211813Y130187D01*
X213375Y126437*
X210875Y128000D02*
X212750D01*
Y99937D02*
Y103687D01*
X214625*
X215250Y103375*
X215563Y103063*
X215875Y102437*
Y101187*
X215563Y100563*
X215250Y100250*
X214625Y99937*
X212750*
X218375Y290563D02*
X218063Y290250D01*
X217437Y289937*
X216500*
X215875Y290250*
X215563Y290563*
X215250Y291187*
Y292437*
X215563Y293063*
X215875Y293375*
X216500Y293687*
X217437*
X218063Y293375*
X218375Y293063*
X219625Y61813D02*
X219313Y61500D01*
X218687Y61187*
X217750*
X217125Y61500*
X216813Y61813*
X216500Y62437*
Y63687*
X216813Y64313*
X217125Y64625*
X217750Y64937*
X218687*
X219313Y64625*
X219625Y64313*
X217750Y171437D02*
Y175187D01*
X219625*
X220250Y174875*
X220563Y174563*
X220875Y173937*
Y172687*
X220563Y172063*
X220250Y171750*
X219625Y171437*
X217750*
Y189937D02*
Y193687D01*
X219625*
X220250Y193375*
X220563Y193063*
X220875Y192437*
Y191187*
X220563Y190563*
X220250Y190250*
X219625Y189937*
X217750*
X228375Y290563D02*
X228063Y290250D01*
X227437Y289937*
X226500*
X225875Y290250*
X225563Y290563*
X225250Y291187*
Y292437*
X225563Y293063*
X225875Y293375*
X226500Y293687*
X227437*
X228063Y293375*
X228375Y293063*
X230875Y61813D02*
X230563Y61500D01*
X229937Y61187*
X229000*
X228375Y61500*
X228063Y61813*
X227750Y62437*
Y63687*
X228063Y64313*
X228375Y64625*
X229000Y64937*
X229937*
X230563Y64625*
X230875Y64313*
X229937Y93813D02*
X230563Y93500D01*
X230875Y92875*
X230563Y92250*
X229937Y91937*
X227750*
Y95687*
X229937*
X230563Y95375*
X230875Y94750*
X230563Y94125*
X229937Y93813*
X227750*
X229937Y103813D02*
X230563Y103500D01*
X230875Y102875*
X230563Y102250*
X229937Y101937*
X227750*
Y105687*
X229937*
X230563Y105375*
X230875Y104750*
X230563Y104125*
X229937Y103813*
X227750*
X229937Y113813D02*
X230563Y113500D01*
X230875Y112875*
X230563Y112250*
X229937Y111937*
X227750*
Y115687*
X229937*
X230563Y115375*
X230875Y114750*
X230563Y114125*
X229937Y113813*
X227750*
X229937Y123813D02*
X230563Y123500D01*
X230875Y122875*
X230563Y122250*
X229937Y121937*
X227750*
Y125687*
X229937*
X230563Y125375*
X230875Y124750*
X230563Y124125*
X229937Y123813*
X227750*
X229937Y133813D02*
X230563Y133500D01*
X230875Y132875*
X230563Y132250*
X229937Y131937*
X227750*
Y135687*
X229937*
X230563Y135375*
X230875Y134750*
X230563Y134125*
X229937Y133813*
X227750*
X229937Y143813D02*
X230563Y143500D01*
X230875Y142875*
X230563Y142250*
X229937Y141937*
X227750*
Y145687*
X229937*
X230563Y145375*
X230875Y144750*
X230563Y144125*
X229937Y143813*
X227750*
X229937Y153813D02*
X230563Y153500D01*
X230875Y152875*
X230563Y152250*
X229937Y151937*
X227750*
Y155687*
X229937*
X230563Y155375*
X230875Y154750*
X230563Y154125*
X229937Y153813*
X227750*
X229937Y163813D02*
X230563Y163500D01*
X230875Y162875*
X230563Y162250*
X229937Y161937*
X227750*
Y165687*
X229937*
X230563Y165375*
X230875Y164750*
X230563Y164125*
X229937Y163813*
X227750*
X229937Y176813D02*
X230563Y176500D01*
X230875Y175875*
X230563Y175250*
X229937Y174937*
X227750*
Y178687*
X229937*
X230563Y178375*
X230875Y177750*
X230563Y177125*
X229937Y176813*
X227750*
X229937Y186813D02*
X230563Y186500D01*
X230875Y185875*
X230563Y185250*
X229937Y184937*
X227750*
Y188687*
X229937*
X230563Y188375*
X230875Y187750*
X230563Y187125*
X229937Y186813*
X227750*
X229937Y196813D02*
X230563Y196500D01*
X230875Y195875*
X230563Y195250*
X229937Y194937*
X227750*
Y198687*
X229937*
X230563Y198375*
X230875Y197750*
X230563Y197125*
X229937Y196813*
X227750*
X229937Y206813D02*
X230563Y206500D01*
X230875Y205875*
X230563Y205250*
X229937Y204937*
X227750*
Y208687*
X229937*
X230563Y208375*
X230875Y207750*
X230563Y207125*
X229937Y206813*
X227750*
X229937Y216813D02*
X230563Y216500D01*
X230875Y215875*
X230563Y215250*
X229937Y214937*
X227750*
Y218687*
X229937*
X230563Y218375*
X230875Y217750*
X230563Y217125*
X229937Y216813*
X227750*
X229937Y226813D02*
X230563Y226500D01*
X230875Y225875*
X230563Y225250*
X229937Y224937*
X227750*
Y228687*
X229937*
X230563Y228375*
X230875Y227750*
X230563Y227125*
X229937Y226813*
X227750*
X229937Y236813D02*
X230563Y236500D01*
X230875Y235875*
X230563Y235250*
X229937Y234937*
X227750*
Y238687*
X229937*
X230563Y238375*
X230875Y237750*
X230563Y237125*
X229937Y236813*
X227750*
X229937Y246813D02*
X230563Y246500D01*
X230875Y245875*
X230563Y245250*
X229937Y244937*
X227750*
Y248687*
X229937*
X230563Y248375*
X230875Y247750*
X230563Y247125*
X229937Y246813*
X227750*
X229937Y256813D02*
X230563Y256500D01*
X230875Y255875*
X230563Y255250*
X229937Y254937*
X227750*
Y258687*
X229937*
X230563Y258375*
X230875Y257750*
X230563Y257125*
X229937Y256813*
X227750*
X229937Y266813D02*
X230563Y266500D01*
X230875Y265875*
X230563Y265250*
X229937Y264937*
X227750*
Y268687*
X229937*
X230563Y268375*
X230875Y267750*
X230563Y267125*
X229937Y266813*
X227750*
X240250Y66187D02*
Y69937D01*
X243375*
X242750Y68063D02*
X240250D01*
Y66187D02*
X243375D01*
X241500Y284937D02*
Y288687D01*
X244625*
X244000Y286813D02*
X241500D01*
Y284937D02*
X244625D01*
X250875Y76813D02*
X250563Y76500D01*
X249937Y76187*
X249000*
X248375Y76500*
X248063Y76813*
X247750Y77437*
Y78687*
X248063Y79313*
X248375Y79625*
X249000Y79937*
X249937*
X250563Y79625*
X250875Y79313*
Y86813D02*
X250563Y86500D01*
X249937Y86187*
X249000*
X248375Y86500*
X248063Y86813*
X247750Y87437*
Y88687*
X248063Y89313*
X248375Y89625*
X249000Y89937*
X249937*
X250563Y89625*
X250875Y89313*
Y96813D02*
X250563Y96500D01*
X249937Y96187*
X249000*
X248375Y96500*
X248063Y96813*
X247750Y97437*
Y98687*
X248063Y99313*
X248375Y99625*
X249000Y99937*
X249937*
X250563Y99625*
X250875Y99313*
Y106813D02*
X250563Y106500D01*
X249937Y106187*
X249000*
X248375Y106500*
X248063Y106813*
X247750Y107437*
Y108687*
X248063Y109313*
X248375Y109625*
X249000Y109937*
X249937*
X250563Y109625*
X250875Y109313*
Y116813D02*
X250563Y116500D01*
X249937Y116187*
X249000*
X248375Y116500*
X248063Y116813*
X247750Y117437*
Y118687*
X248063Y119313*
X248375Y119625*
X249000Y119937*
X249937*
X250563Y119625*
X250875Y119313*
Y126813D02*
X250563Y126500D01*
X249937Y126187*
X249000*
X248375Y126500*
X248063Y126813*
X247750Y127437*
Y128687*
X248063Y129313*
X248375Y129625*
X249000Y129937*
X249937*
X250563Y129625*
X250875Y129313*
Y138063D02*
X250563Y137750D01*
X249937Y137437*
X249000*
X248375Y137750*
X248063Y138063*
X247750Y138687*
Y139937*
X248063Y140563*
X248375Y140875*
X249000Y141187*
X249937*
X250563Y140875*
X250875Y140563*
Y150563D02*
X250563Y150250D01*
X249937Y149937*
X249000*
X248375Y150250*
X248063Y150563*
X247750Y151187*
Y152437*
X248063Y153063*
X248375Y153375*
X249000Y153687*
X249937*
X250563Y153375*
X250875Y153063*
Y160563D02*
X250563Y160250D01*
X249937Y159937*
X249000*
X248375Y160250*
X248063Y160563*
X247750Y161187*
Y162437*
X248063Y163063*
X248375Y163375*
X249000Y163687*
X249937*
X250563Y163375*
X250875Y163063*
Y170563D02*
X250563Y170250D01*
X249937Y169937*
X249000*
X248375Y170250*
X248063Y170563*
X247750Y171187*
Y172437*
X248063Y173063*
X248375Y173375*
X249000Y173687*
X249937*
X250563Y173375*
X250875Y173063*
Y180563D02*
X250563Y180250D01*
X249937Y179937*
X249000*
X248375Y180250*
X248063Y180563*
X247750Y181187*
Y182437*
X248063Y183063*
X248375Y183375*
X249000Y183687*
X249937*
X250563Y183375*
X250875Y183063*
Y190563D02*
X250563Y190250D01*
X249937Y189937*
X249000*
X248375Y190250*
X248063Y190563*
X247750Y191187*
Y192437*
X248063Y193063*
X248375Y193375*
X249000Y193687*
X249937*
X250563Y193375*
X250875Y193063*
Y200563D02*
X250563Y200250D01*
X249937Y199937*
X249000*
X248375Y200250*
X248063Y200563*
X247750Y201187*
Y202437*
X248063Y203063*
X248375Y203375*
X249000Y203687*
X249937*
X250563Y203375*
X250875Y203063*
Y210563D02*
X250563Y210250D01*
X249937Y209937*
X249000*
X248375Y210250*
X248063Y210563*
X247750Y211187*
Y212437*
X248063Y213063*
X248375Y213375*
X249000Y213687*
X249937*
X250563Y213375*
X250875Y213063*
Y220563D02*
X250563Y220250D01*
X249937Y219937*
X249000*
X248375Y220250*
X248063Y220563*
X247750Y221187*
Y222437*
X248063Y223063*
X248375Y223375*
X249000Y223687*
X249937*
X250563Y223375*
X250875Y223063*
Y230563D02*
X250563Y230250D01*
X249937Y229937*
X249000*
X248375Y230250*
X248063Y230563*
X247750Y231187*
Y232437*
X248063Y233063*
X248375Y233375*
X249000Y233687*
X249937*
X250563Y233375*
X250875Y233063*
Y241813D02*
X250563Y241500D01*
X249937Y241187*
X249000*
X248375Y241500*
X248063Y241813*
X247750Y242437*
Y243687*
X248063Y244313*
X248375Y244625*
X249000Y244937*
X249937*
X250563Y244625*
X250875Y244313*
Y251813D02*
X250563Y251500D01*
X249937Y251187*
X249000*
X248375Y251500*
X248063Y251813*
X247750Y252437*
Y253687*
X248063Y254313*
X248375Y254625*
X249000Y254937*
X249937*
X250563Y254625*
X250875Y254313*
Y260563D02*
X250563Y260250D01*
X249937Y259937*
X249000*
X248375Y260250*
X248063Y260563*
X247750Y261187*
Y262437*
X248063Y263063*
X248375Y263375*
X249000Y263687*
X249937*
X250563Y263375*
X250875Y263063*
Y268063D02*
X250563Y267750D01*
X249937Y267437*
X249000*
X248375Y267750*
X248063Y268063*
X247750Y268687*
Y269937*
X248063Y270563*
X248375Y270875*
X249000Y271187*
X249937*
X250563Y270875*
X250875Y270563*
D02*
D133*
X10250Y75250D03*
Y87750D03*
Y97750D03*
Y107750D03*
Y116500D03*
Y127750D03*
Y139000D03*
Y151500D03*
Y161500D03*
Y170250D03*
Y177750D03*
Y186500D03*
Y195250D03*
Y205250D03*
Y215250D03*
Y225250D03*
Y236500D03*
Y246500D03*
Y255250D03*
Y264000D03*
X16500Y60250D03*
Y277750D03*
X17750Y176000D03*
X27750Y86000D03*
Y96000D03*
Y106000D03*
Y116000D03*
Y126000D03*
Y136000D03*
Y156000D03*
Y166000D03*
Y176000D03*
Y186000D03*
Y196000D03*
Y206000D03*
Y216000D03*
Y226000D03*
X32750Y54000D03*
X34000Y284000D03*
X41500D03*
X42750Y54000D03*
Y129000D03*
Y169000D03*
Y179000D03*
X47250Y189000D03*
X50250Y284000D03*
X54000Y54000D03*
X57750Y219000D03*
X59250Y199000D03*
X60250Y284000D03*
X64000Y54000D03*
X67750Y219000D03*
Y239000D03*
X71500Y284000D03*
X72750Y127500D03*
X74000Y54000D03*
X77750Y209000D03*
Y219000D03*
X80250Y124000D03*
X80500Y140250D03*
X81500Y284000D03*
X84000Y54000D03*
X91500Y284000D03*
X92750Y230500D03*
Y237500D03*
X94000Y54000D03*
X96250Y199000D03*
X97750Y115250D03*
X100250Y84287D03*
X101500Y284000D03*
X104000Y94000D03*
Y100250D03*
Y107750D03*
Y114000D03*
Y120250D03*
Y127750D03*
Y135250D03*
Y142750D03*
Y150250D03*
Y157750D03*
X105250Y54000D03*
X106500Y74000D03*
X111500Y284000D03*
X112750Y243500D03*
X116500Y52750D03*
Y60250D03*
Y67750D03*
Y74000D03*
Y92750D03*
Y100250D03*
Y107750D03*
Y115250D03*
Y122750D03*
Y130250D03*
Y137750D03*
Y145250D03*
Y152750D03*
X117750Y184000D03*
X121500Y284000D03*
X122750Y244000D03*
X126500Y92750D03*
X127750Y114000D03*
Y137750D03*
X131500Y284000D03*
X134250Y189500D03*
X135250Y114000D03*
Y137750D03*
X137750Y55250D03*
Y62750D03*
Y70250D03*
Y79000D03*
X141250Y214000D03*
X141500Y284000D03*
X142750Y114000D03*
Y137750D03*
Y249000D03*
X144000Y101500D03*
X145250Y55250D03*
X150250Y137750D03*
X151500Y284000D03*
X152750Y219500D03*
X153250Y179000D03*
X155250Y55250D03*
X157750Y130000D03*
X159000Y152500D03*
X160000Y110250D03*
X162750Y179000D03*
Y205500D03*
X164000Y114000D03*
Y284000D03*
X166500Y55250D03*
X169650Y108016D03*
X170250Y116500D03*
X172750Y189000D03*
X175250Y284000D03*
X176500Y55250D03*
X176766Y126500D03*
X177750Y138500D03*
X182250Y189000D03*
X182750Y119000D03*
X184650Y109984D03*
X186500Y55250D03*
Y284000D03*
X187632Y146150D03*
X187750Y94000D03*
X192750Y136953D03*
X195250Y284000D03*
X196500Y55250D03*
X200191Y159000D03*
X200250Y120500D03*
X202750Y94000D03*
X205250Y284000D03*
X206500Y55250D03*
X207750Y165500D03*
Y184000D03*
X215250Y284000D03*
X217750Y55250D03*
Y86000D03*
Y96000D03*
Y106000D03*
Y116000D03*
Y126000D03*
Y136000D03*
Y146000D03*
Y156000D03*
Y169000D03*
Y179000D03*
Y189000D03*
Y199000D03*
Y209000D03*
Y219000D03*
Y229000D03*
Y239000D03*
Y249000D03*
Y259000D03*
X230250Y60250D03*
X231500Y279000D03*
X237750Y70250D03*
Y80250D03*
Y90250D03*
Y100250D03*
Y110250D03*
Y120250D03*
Y131500D03*
Y144000D03*
Y154000D03*
Y164000D03*
Y174000D03*
Y184000D03*
Y194000D03*
Y204000D03*
Y214000D03*
Y224000D03*
Y235250D03*
Y245250D03*
Y254000D03*
Y261500D03*
X0Y0D02*
M02*
