G04 DesignSpark PCB Gerber Version 9.0 Build 5138 *
G04 #@! TF.Part,Single*
G04 #@! TF.FileFunction,Other,Version 1 - Top Documentation *
G04 #@! TF.FilePolarity,Positive *
%FSLAX35Y35*%
%MOIN*%
%ADD116C,0.00100*%
%ADD115C,0.00197*%
%ADD117C,0.00300*%
%ADD119C,0.00600*%
X0Y0D02*
D02*
D115*
X103478Y198272D02*
X132022D01*
Y169728*
X103478*
Y198272*
D02*
D116*
X112000Y80037D02*
X113000Y81037D01*
Y88537D02*
X107500D01*
Y80037*
X113000*
Y88537*
X115348Y41470D02*
X140152D01*
Y46589*
X115348*
Y41470*
Y46589D02*
Y13911D01*
X140152*
Y46589*
X115348*
X127750Y43530D02*
G75*
G03Y44130J300D01*
G01*
G75*
G03Y43530J-300*
G01*
X140152Y19030D02*
X115348D01*
Y13911*
X140152*
Y19030*
X174000Y104750D02*
Y105347*
Y106747D01*
X174400*
Y105347*
X174000*
Y107316D02*
Y108716D01*
X174400*
Y107316*
X174000*
Y109284D02*
Y110684D01*
X174400*
Y109284*
X174000*
Y111253D02*
Y112653D01*
X174400*
Y111253*
X174000*
Y113250D02*
X176566*
X177966D01*
Y112850*
X176566*
Y113250*
X177966Y104750D02*
X176566D01*
Y105150*
X177966*
Y104750*
X178534Y113250D02*
X179934D01*
Y112850*
X178534*
Y113250*
X179934Y104750D02*
X178534D01*
Y105150*
X179934*
Y104750*
X182500D02*
Y106747*
Y105347D01*
X182100*
Y106747*
X182500*
Y108716D02*
Y107316D01*
X182100*
Y108716*
X182500*
Y109750D02*
X177500Y104750D01*
X182500Y110684D02*
Y109284D01*
X182100*
Y110684*
X182500*
Y112653D02*
Y111253D01*
X182100*
Y112653*
X182500*
Y113250D02*
X174000D01*
Y104750*
X182500*
Y113250*
X185841Y161450D02*
Y150850D01*
X194541*
Y161450*
X185841*
X194541Y157350D02*
G75*
G03Y154950J-1200D01*
G01*
D02*
D117*
X183300Y105376D02*
X180800D01*
X182675Y106626D02*
X181425Y104126D01*
X182675D02*
X181425Y106626D01*
D02*
D119*
X192750Y157050D02*
G75*
G03Y157650J300D01*
G01*
G75*
G03Y157050J-300*
G01*
X0Y0D02*
M02*
