G05
M48
INCH,TZ
FMAT,2
T1C000.01600
T2C000.02400
T3C000.03200
T4C000.03500
T5C000.14173
%
T001
X0.10250Y0.75250
X0.10250Y0.87750
X0.10250Y0.97750
X0.10250Y1.07750
X0.10250Y1.16500
X0.10250Y1.27750
X0.10250Y1.39000
X0.10250Y1.51500
X0.10250Y1.61500
X0.10250Y1.70250
X0.10250Y1.77750
X0.10250Y1.86500
X0.10250Y1.95250
X0.10250Y2.05250
X0.10250Y2.15250
X0.10250Y2.25250
X0.10250Y2.36500
X0.10250Y2.46500
X0.10250Y2.55250
X0.10250Y2.64000
X0.32750Y0.54000
X0.34000Y2.84000
X0.41500Y2.84000
X0.42750Y0.54000
X0.50250Y2.84000
X0.54000Y0.54000
X0.60250Y2.84000
X0.64000Y0.54000
X0.71500Y2.84000
X0.74000Y0.54000
X0.81500Y2.84000
X0.84000Y0.54000
X0.91500Y2.84000
X0.94000Y0.54000
X1.01500Y2.84000
X1.04000Y0.94000
X1.04000Y1.00250
X1.04000Y1.07750
X1.04000Y1.14000
X1.04000Y1.20250
X1.04000Y1.27750
X1.04000Y1.35250
X1.04000Y1.42750
X1.04000Y1.50250
X1.04000Y1.57750
X1.05250Y0.54000
X1.06500Y0.74000
X1.11500Y2.84000
X1.16500Y0.52750
X1.16500Y0.60250
X1.16500Y0.67750
X1.16500Y0.74000
X1.16500Y0.92750
X1.16500Y1.00250
X1.16500Y1.07750
X1.16500Y1.15250
X1.16500Y1.22750
X1.16500Y1.30250
X1.16500Y1.37750
X1.16500Y1.45250
X1.16500Y1.52750
X1.21500Y2.84000
X1.31500Y2.84000
X1.34250Y1.89500
X1.37750Y0.55250
X1.37750Y0.62750
X1.37750Y0.70250
X1.37750Y0.79000
X1.41500Y2.84000
X1.45250Y0.55250
X1.51500Y2.84000
X1.53250Y1.79000
X1.55250Y0.55250
X1.64000Y2.84000
X1.66500Y0.55250
X1.69650Y1.08016
X1.75250Y2.84000
X1.76500Y0.55250
X1.84650Y1.09984
X1.86500Y0.55250
X1.86500Y2.84000
X1.87632Y1.46150
X1.95250Y2.84000
X1.96500Y0.55250
X2.05250Y2.84000
X2.06500Y0.55250
X2.15250Y2.84000
X2.17750Y0.55250
X2.37750Y0.70250
X2.37750Y0.80250
X2.37750Y0.90250
X2.37750Y1.00250
X2.37750Y1.10250
X2.37750Y1.20250
X2.37750Y1.31500
X2.37750Y1.44000
X2.37750Y1.54000
X2.37750Y1.64000
X2.37750Y1.74000
X2.37750Y1.84000
X2.37750Y1.94000
X2.37750Y2.04000
X2.37750Y2.14000
X2.37750Y2.24000
X2.37750Y2.35250
X2.37750Y2.45250
X2.37750Y2.54000
X2.37750Y2.61500
T002
X1.42750Y2.49000
X1.64000Y1.14000
X1.70250Y1.16500
X1.76766Y1.26500
X1.87750Y0.94000
X2.02750Y0.94000
X2.07750Y1.65500
X2.07750Y1.84000
T003
X0.17750Y1.76000
X0.42750Y1.29000
X0.42750Y1.69000
X0.42750Y1.79000
X0.47250Y1.89000
X0.57750Y2.19000
X0.59250Y1.99000
X0.67750Y2.19000
X0.67750Y2.39000
X0.72750Y1.27500
X0.77750Y2.09000
X0.77750Y2.19000
X0.80250Y1.24000
X0.80500Y1.40250
X0.92750Y2.30500
X0.92750Y2.37500
X0.96250Y1.99000
X0.97750Y1.15250
X1.00250Y0.84287
X1.12750Y2.43500
X1.17750Y1.84000
X1.22750Y2.44000
X1.26500Y0.92750
X1.27750Y1.14000
X1.27750Y1.37750
X1.35250Y1.14000
X1.35250Y1.37750
X1.41250Y2.14000
X1.42750Y1.14000
X1.42750Y1.37750
X1.44000Y1.01500
X1.50250Y1.37750
X1.52750Y2.19500
X1.57750Y1.30000
X1.59000Y1.52500
X1.60000Y1.10250
X1.62750Y1.79000
X1.62750Y2.05500
X1.72750Y1.89000
X1.77750Y1.38500
X1.82250Y1.89000
X1.82750Y1.19000
X1.92750Y1.36953
X2.00191Y1.59000
X2.00250Y1.20500
T004
X0.27750Y0.86000
X0.27750Y0.96000
X0.27750Y1.06000
X0.27750Y1.16000
X0.27750Y1.26000
X0.27750Y1.36000
X0.27750Y1.56000
X0.27750Y1.66000
X0.27750Y1.76000
X0.27750Y1.86000
X0.27750Y1.96000
X0.27750Y2.06000
X0.27750Y2.16000
X0.27750Y2.26000
X2.17750Y0.86000
X2.17750Y0.96000
X2.17750Y1.06000
X2.17750Y1.16000
X2.17750Y1.26000
X2.17750Y1.36000
X2.17750Y1.46000
X2.17750Y1.56000
X2.17750Y1.69000
X2.17750Y1.79000
X2.17750Y1.89000
X2.17750Y1.99000
X2.17750Y2.09000
X2.17750Y2.19000
X2.17750Y2.29000
X2.17750Y2.39000
X2.17750Y2.49000
X2.17750Y2.59000
T005
X0.16500Y0.60250
X0.16500Y2.77750
X2.30250Y0.60250
X2.31500Y2.79000
M30
