G04 DesignSpark PCB Gerber Version 9.0 Build 5138 *
G04 #@! TF.Part,Single*
G04 #@! TF.FileFunction,Copper,L2,Bot *
G04 #@! TF.FilePolarity,Positive *
%FSLAX35Y35*%
%MOIN*%
G04 #@! TA.AperFunction,ComponentPad*
%ADD74R,0.06000X0.06000*%
G04 #@! TD.AperFunction*
%ADD94C,0.00500*%
%ADD95C,0.01000*%
%ADD15C,0.01496*%
G04 #@! TA.AperFunction,ViaPad*
%ADD14C,0.01969*%
G04 #@! TD.AperFunction*
%ADD12C,0.02500*%
G04 #@! TA.AperFunction,ViaPad*
%ADD16C,0.04800*%
G04 #@! TD.AperFunction*
%ADD10C,0.05000*%
G04 #@! TA.AperFunction,ViaPad*
%ADD13C,0.05600*%
G04 #@! TA.AperFunction,ComponentPad*
%ADD28C,0.06000*%
G04 #@! TA.AperFunction,WasherPad*
%ADD71C,0.15748*%
X0Y0D02*
D02*
D10*
X92750Y230500D02*
X158750D01*
X162750Y226500*
Y205500*
X92750Y230500D02*
X88750D01*
X69000Y250250*
X46500*
X41500Y245250*
Y204000*
X33500Y196000*
X27750*
X96250Y199000D02*
X133250D01*
X153250Y179000*
X97750Y115250D02*
Y117750D01*
X82750Y132750*
X75250*
X72750Y135250*
Y175250*
X51500Y196500*
X28250*
X27750Y196000*
X157750Y130000D02*
Y112500D01*
X160000Y110250*
X159000Y152500D02*
Y131250D01*
X157750Y130000*
X162750Y179000D02*
X172750Y169000D01*
X190191*
X200191Y159000*
X162750Y179000D02*
Y205500D01*
X174350Y146150D02*
X167750Y152750D01*
Y164500*
X153250Y179000*
X200191Y159000D02*
Y120559D01*
X200250Y120500*
D02*
D12*
X189734Y109984D02*
X200250Y120500D01*
D02*
D13*
X17750Y176000D03*
X42750Y129000D03*
Y169000D03*
Y179000D03*
X47250Y189000D03*
X57750Y219000D03*
X59250Y199000D03*
X72750Y127500D03*
X77750Y209000D03*
Y219000D03*
X80250Y124000D03*
X80500Y140250D03*
X92750Y230500D03*
Y237500D03*
X96250Y199000D03*
X97750Y115250D03*
X100250Y84287D03*
X112750Y243500D03*
X117750Y184000D03*
X122750Y244000D03*
X126500Y92750D03*
X127750Y114000D03*
Y137750D03*
X135250Y114000D03*
Y137750D03*
X141250Y214000D03*
X142750Y114000D03*
Y137750D03*
X144000Y101500D03*
X150250Y137750D03*
X152750Y219500D03*
X157750Y130000D03*
X159000Y152500D03*
X160000Y110250D03*
X162750Y179000D03*
Y205500D03*
X172750Y189000D03*
X177750Y138500D03*
X182250Y189000D03*
X182750Y119000D03*
X192750Y136953D03*
X200191Y159000D03*
X200250Y120500D03*
D02*
D14*
X10250Y75250D03*
Y87750D03*
Y97750D03*
Y107750D03*
Y116500D03*
Y127750D03*
Y139000D03*
Y151500D03*
Y161500D03*
Y170250D03*
Y177750D03*
Y186500D03*
Y195250D03*
Y205250D03*
Y215250D03*
Y225250D03*
Y236500D03*
Y246500D03*
Y255250D03*
Y264000D03*
X32750Y54000D03*
X34000Y284000D03*
X41500D03*
X42750Y54000D03*
X50250Y284000D03*
X54000Y54000D03*
X60250Y284000D03*
X64000Y54000D03*
X71500Y284000D03*
X74000Y54000D03*
X81500Y284000D03*
X84000Y54000D03*
X91500Y284000D03*
X94000Y54000D03*
X101500Y284000D03*
X104000Y94000D03*
Y100250D03*
Y107750D03*
Y114000D03*
Y120250D03*
Y127750D03*
Y135250D03*
Y142750D03*
Y150250D03*
Y157750D03*
X105250Y54000D03*
X106500Y74000D03*
X111500Y284000D03*
X116500Y52750D03*
Y60250D03*
Y67750D03*
Y74000D03*
Y92750D03*
Y100250D03*
Y107750D03*
Y115250D03*
Y122750D03*
Y130250D03*
Y137750D03*
Y145250D03*
Y152750D03*
X121500Y284000D03*
X131500D03*
X134250Y189500D03*
X137750Y55250D03*
Y62750D03*
Y70250D03*
Y79000D03*
X141500Y284000D03*
X145250Y55250D03*
X151500Y284000D03*
X153250Y179000D03*
X155250Y55250D03*
X164000Y284000D03*
X166500Y55250D03*
X169650Y108016D03*
X175250Y284000D03*
X176500Y55250D03*
X184650Y109984D03*
X186500Y55250D03*
Y284000D03*
X187632Y146150D03*
X195250Y284000D03*
X196500Y55250D03*
X205250Y284000D03*
X206500Y55250D03*
X215250Y284000D03*
X217750Y55250D03*
X237750Y70250D03*
Y80250D03*
Y90250D03*
Y100250D03*
Y110250D03*
Y120250D03*
Y131500D03*
Y144000D03*
Y154000D03*
Y164000D03*
Y174000D03*
Y184000D03*
Y194000D03*
Y204000D03*
Y214000D03*
Y224000D03*
Y235250D03*
Y245250D03*
Y254000D03*
Y261500D03*
D02*
D15*
X142750Y249000D02*
X152750Y239000D01*
X162750*
X167750Y234000*
Y184000*
X177750Y174000*
X192750*
X207750Y159000*
Y126000*
X217750Y116000*
X169650Y108016D02*
X178016D01*
X179000Y109000*
X183666*
X184650Y109984*
X169650Y108016D02*
X169266D01*
X167750Y106500*
X164000*
X160250Y110250*
X160000*
X184650Y109984D02*
X189734D01*
X187632Y146150D02*
X174350D01*
X187750Y94000D02*
X199750Y106000D01*
X217750*
X202750Y94000D02*
X207750Y89000D01*
Y84000*
X212750Y79000*
X222750*
X227750Y84000*
Y249000*
X217750Y259000*
X207750Y165500D02*
Y169000D01*
X197750Y179000*
Y229000*
X217750Y249000*
X207750Y184000D02*
X212750Y179000D01*
X217750*
D02*
D16*
X142750Y249000D03*
X164000Y114000D03*
X170250Y116500D03*
X176766Y126500D03*
X187750Y94000D03*
X202750D03*
X207750Y165500D03*
Y184000D03*
D02*
D71*
X16500Y60250D03*
Y277750D03*
X230250Y60250D03*
X231500Y279000D03*
D02*
D28*
X67750Y219000D03*
Y239000D03*
D02*
D74*
X27750Y86000D03*
Y96000D03*
Y106000D03*
Y116000D03*
Y126000D03*
Y136000D03*
Y156000D03*
Y166000D03*
Y176000D03*
Y186000D03*
Y196000D03*
Y206000D03*
Y216000D03*
Y226000D03*
X217750Y86000D03*
Y96000D03*
Y106000D03*
Y116000D03*
Y126000D03*
Y136000D03*
Y146000D03*
Y156000D03*
Y169000D03*
Y179000D03*
Y189000D03*
Y199000D03*
Y209000D03*
Y219000D03*
Y229000D03*
Y239000D03*
Y249000D03*
Y259000D03*
D02*
D94*
X6500Y287750D02*
Y50250D01*
X241500*
Y287750*
X234085*
G75*
G02X240624Y279000I-2585J-8750*
G01*
G75*
G02X222376I-9124*
G01*
G75*
G02X228915Y287750I9124*
G01*
X6500*
X235516Y70250D02*
G75*
G02X239984I2234D01*
G01*
G75*
G02X235516I-2234*
G01*
Y80250D02*
G75*
G02X239984I2234D01*
G01*
G75*
G02X235516I-2234*
G01*
Y90250D02*
G75*
G02X239984I2234D01*
G01*
G75*
G02X235516I-2234*
G01*
Y100250D02*
G75*
G02X239984I2234D01*
G01*
G75*
G02X235516I-2234*
G01*
Y110250D02*
G75*
G02X239984I2234D01*
G01*
G75*
G02X235516I-2234*
G01*
Y120250D02*
G75*
G02X239984I2234D01*
G01*
G75*
G02X235516I-2234*
G01*
Y131500D02*
G75*
G02X239984I2234D01*
G01*
G75*
G02X235516I-2234*
G01*
Y144000D02*
G75*
G02X239984I2234D01*
G01*
G75*
G02X235516I-2234*
G01*
Y154000D02*
G75*
G02X239984I2234D01*
G01*
G75*
G02X235516I-2234*
G01*
Y164000D02*
G75*
G02X239984I2234D01*
G01*
G75*
G02X235516I-2234*
G01*
Y174000D02*
G75*
G02X239984I2234D01*
G01*
G75*
G02X235516I-2234*
G01*
Y184000D02*
G75*
G02X239984I2234D01*
G01*
G75*
G02X235516I-2234*
G01*
Y194000D02*
G75*
G02X239984I2234D01*
G01*
G75*
G02X235516I-2234*
G01*
Y204000D02*
G75*
G02X239984I2234D01*
G01*
G75*
G02X235516I-2234*
G01*
Y214000D02*
G75*
G02X239984I2234D01*
G01*
G75*
G02X235516I-2234*
G01*
Y224000D02*
G75*
G02X239984I2234D01*
G01*
G75*
G02X235516I-2234*
G01*
Y235250D02*
G75*
G02X239984I2234D01*
G01*
G75*
G02X235516I-2234*
G01*
Y245250D02*
G75*
G02X239984I2234D01*
G01*
G75*
G02X235516I-2234*
G01*
Y254000D02*
G75*
G02X239984I2234D01*
G01*
G75*
G02X235516I-2234*
G01*
Y261500D02*
G75*
G02X239984I2234D01*
G01*
G75*
G02X235516I-2234*
G01*
X7376Y60250D02*
G75*
G02X25624I9124D01*
G01*
G75*
G02X7376I-9124*
G01*
Y277750D02*
G75*
G02X25624I9124D01*
G01*
G75*
G02X7376I-9124*
G01*
X8016Y75250D02*
G75*
G02X12484I2234D01*
G01*
G75*
G02X8016I-2234*
G01*
Y87750D02*
G75*
G02X12484I2234D01*
G01*
G75*
G02X8016I-2234*
G01*
Y97750D02*
G75*
G02X12484I2234D01*
G01*
G75*
G02X8016I-2234*
G01*
Y107750D02*
G75*
G02X12484I2234D01*
G01*
G75*
G02X8016I-2234*
G01*
Y116500D02*
G75*
G02X12484I2234D01*
G01*
G75*
G02X8016I-2234*
G01*
Y127750D02*
G75*
G02X12484I2234D01*
G01*
G75*
G02X8016I-2234*
G01*
Y139000D02*
G75*
G02X12484I2234D01*
G01*
G75*
G02X8016I-2234*
G01*
Y151500D02*
G75*
G02X12484I2234D01*
G01*
G75*
G02X8016I-2234*
G01*
Y161500D02*
G75*
G02X12484I2234D01*
G01*
G75*
G02X8016I-2234*
G01*
Y170250D02*
G75*
G02X12484I2234D01*
G01*
G75*
G02X8016I-2234*
G01*
Y177750D02*
G75*
G02X12484I2234D01*
G01*
G75*
G02X8016I-2234*
G01*
Y186500D02*
G75*
G02X12484I2234D01*
G01*
G75*
G02X8016I-2234*
G01*
Y195250D02*
G75*
G02X12484I2234D01*
G01*
G75*
G02X8016I-2234*
G01*
Y205250D02*
G75*
G02X12484I2234D01*
G01*
G75*
G02X8016I-2234*
G01*
Y215250D02*
G75*
G02X12484I2234D01*
G01*
G75*
G02X8016I-2234*
G01*
Y225250D02*
G75*
G02X12484I2234D01*
G01*
G75*
G02X8016I-2234*
G01*
Y236500D02*
G75*
G02X12484I2234D01*
G01*
G75*
G02X8016I-2234*
G01*
Y246500D02*
G75*
G02X12484I2234D01*
G01*
G75*
G02X8016I-2234*
G01*
Y255250D02*
G75*
G02X12484I2234D01*
G01*
G75*
G02X8016I-2234*
G01*
Y264000D02*
G75*
G02X12484I2234D01*
G01*
G75*
G02X8016I-2234*
G01*
X13700Y176000D02*
G75*
G02X21800I4050D01*
G01*
G75*
G02X13700I-4050*
G01*
X23500Y90250D02*
X32000D01*
Y81750*
X23500*
Y90250*
X30516Y54000D02*
G75*
G02X34984I2234D01*
G01*
G75*
G02X30516I-2234*
G01*
X23500Y100250D02*
X32000D01*
Y91750*
X23500*
Y100250*
Y110250D02*
X32000D01*
Y101750*
X23500*
Y110250*
Y120250D02*
X32000D01*
Y111750*
X23500*
Y120250*
Y130250D02*
X32000D01*
Y121750*
X23500*
Y130250*
Y140250D02*
X32000D01*
Y131750*
X23500*
Y140250*
Y160250D02*
X32000D01*
Y151750*
X23500*
Y160250*
Y170250D02*
X32000D01*
Y161750*
X23500*
Y170250*
Y180250D02*
X32000D01*
Y171750*
X23500*
Y180250*
Y190250D02*
X32000D01*
Y181750*
X23500*
Y190250*
X229163Y250413D02*
G75*
G02X229748Y249000I-1413J-1413D01*
G01*
Y84000*
G75*
G02X229163Y82587I-1998J0*
G01*
X224163Y77587*
G75*
G02X222747Y77002I-1413J1413*
G01*
X212753*
G75*
G02X211337Y77587I-3J1998*
G01*
X206337Y82587*
G75*
G02X205752Y84000I1413J1413*
G01*
Y88172*
X203497Y90427*
G75*
G02X199100Y94000I-747J3573*
G01*
G75*
G02X206400I3650*
G01*
G75*
G02X206323Y93253I-3651J0*
G01*
X209163Y90413*
G75*
G02X209748Y89000I-1413J-1413*
G01*
Y84828*
X213578Y80998*
X221922*
X225752Y84828*
Y248172*
X222000Y251924*
Y244750*
X216326*
X214826Y243250*
X222000*
Y234750*
X213500*
Y241924*
X199748Y228172*
Y179828*
X209163Y170413*
G75*
G02X209748Y169000I-1413J-1413*
G01*
Y168555*
G75*
G02X207726Y161850I-1998J-3055*
G01*
X209163Y160413*
G75*
G02X209748Y159000I-1413J-1413*
G01*
Y126828*
X213500Y123076*
Y130250*
X222000*
Y121750*
X214826*
X216326Y120250*
X222000*
Y111750*
X213500*
Y117424*
X206337Y124587*
G75*
G02X205752Y126000I1413J1413*
G01*
Y158172*
X204170Y159754*
G75*
G02X203941Y157470I-3979J-754*
G01*
Y122167*
G75*
G02X199765Y116479I-3691J-1667*
G01*
X191502Y108217*
G75*
G02X188231Y107986I-1768J1768*
G01*
X185652*
G75*
G02X185355Y107863I-1003J1996*
G01*
X185079Y107587*
G75*
G02X183663Y107002I-1413J1413*
G01*
X179828*
X179429Y106603*
G75*
G02X178013Y106018I-1413J1413*
G01*
X170650*
G75*
G02X169868Y105792I-1000J1998*
G01*
X169163Y105087*
G75*
G02X167747Y104502I-1413J1413*
G01*
X164003*
G75*
G02X162587Y105087I-3J1998*
G01*
X161272Y106403*
G75*
G02X156263Y108684I-1272J3847*
G01*
X155100Y109846*
G75*
G02X154000Y112500I2650J2654*
G01*
Y128465*
G75*
G02X155250Y133189I3750J1535*
G01*
Y150970*
G75*
G02X154950Y152500I3750J1530*
G01*
G75*
G02X163050I4050*
G01*
G75*
G02X162750Y150970I-4050*
G01*
Y131250*
G75*
G02X161650Y128596I-3750*
G01*
X161500Y128447*
Y116659*
G75*
G02X166600Y116561I2500J-2659*
G01*
G75*
G02X173900Y116500I3650J-61*
G01*
G75*
G02X167650Y113939I-3650*
G01*
G75*
G02X164051Y110350I-3650J61*
G01*
G75*
G02X164052Y110250I-4053J-98*
G01*
G75*
G02X163956Y109370I-4052J-1*
G01*
X164828Y108498*
X166922*
X167853Y109429*
G75*
G02X168157Y109678I1413J-1415*
G01*
G75*
G02X170650Y110014I1493J-1662*
G01*
X177188*
X177587Y110413*
G75*
G02X179003Y110998I1413J-1413*
G01*
X182658*
G75*
G02X185652Y111982I1992J-1014*
G01*
X188197*
X196229Y120015*
G75*
G02X196200Y120500I4022J485*
G01*
G75*
G02X196441Y121876I4050*
G01*
Y135285*
G75*
G02X188700Y136953I-3691J1667*
G01*
G75*
G02X196441Y138620I4050*
G01*
Y157447*
X188638Y165250*
X172750*
G75*
G02X171359Y165517J3750*
G01*
G75*
G02X171500Y164500I-3609J-1017*
G01*
Y154303*
X177002Y148802*
G75*
G02X177523Y148148I-2652J-2651*
G01*
X186632*
G75*
G02X189866Y146150I1000J-1998*
G01*
G75*
G02X186632Y144152I-2235J0*
G01*
X177523*
G75*
G02X171698Y143498I-3173J1998*
G01*
X165100Y150096*
G75*
G02X164000Y152750I2650J2654*
G01*
Y162947*
X131697Y195250*
X97780*
G75*
G02X92200Y199000I-1530J3750*
G01*
G75*
G02X97780Y202750I4050*
G01*
X133250*
G75*
G02X135904Y201650J-3750*
G01*
X155902Y181652*
X158703Y178850*
G75*
G02X158700Y179000I4053J150*
G01*
G75*
G02X159000Y180530I4050*
G01*
Y203970*
G75*
G02Y207030I3750J1530*
G01*
Y224947*
X157197Y226750*
X94285*
G75*
G02X91215I-1535J3750*
G01*
X88750*
G75*
G02X86096Y227850J3750*
G01*
X67447Y246500*
X48053*
X45250Y243697*
Y204000*
G75*
G02X44150Y201346I-3750*
G01*
X43053Y200250*
X51500*
G75*
G02X54154Y199150J-3750*
G01*
X55333Y197970*
G75*
G02X55200Y199000I3917J1030*
G01*
G75*
G02X63300I4050*
G01*
G75*
G02X58220Y195083I-4050*
G01*
X75400Y177904*
G75*
G02X76500Y175250I-2650J-2654*
G01*
Y140884*
G75*
G02X84550Y140250I4000J-634*
G01*
G75*
G02X82030Y136500I-4050*
G01*
X82750*
G75*
G02X85404Y135400J-3750*
G01*
X100400Y120404*
G75*
G02X101500Y117750I-2650J-2654*
G01*
Y116785*
G75*
G02X101802Y115250I-3750J-1535*
G01*
G75*
G02X93698I-4052*
G01*
G75*
G02X93850Y116347I4052J-1*
G01*
X81197Y129000*
X76512*
G75*
G02X76800Y127500I-3762J-1500*
G01*
G75*
G02X68700I-4050*
G01*
G75*
G02X71384Y131313I4050*
G01*
X70100Y132596*
G75*
G02X69000Y135250I2650J2654*
G01*
Y173697*
X49947Y192750*
X48780*
G75*
G02X51300Y189000I-1530J-3750*
G01*
G75*
G02X43200I-4050*
G01*
G75*
G02X45720Y192750I4050*
G01*
X35371*
G75*
G02X33500Y192250I-1871J3250*
G01*
X32000*
Y191750*
X23500*
Y200250*
X28244*
G75*
G02X28256I6J-3759*
G01*
X32447*
X37750Y205553*
Y245250*
G75*
G02X38850Y247904I3750*
G01*
X43846Y252900*
G75*
G02X46500Y254000I2654J-2650*
G01*
X69000*
G75*
G02X71654Y252900J-3750*
G01*
X89605Y234948*
G75*
G02X88700Y237500I3145J2552*
G01*
G75*
G02X96800I4050*
G01*
G75*
G02X95167Y234250I-4050*
G01*
X158750*
G75*
G02X161404Y233150J-3750*
G01*
X165400Y229154*
G75*
G02X165752Y228747I-2652J-2654*
G01*
Y233172*
X161922Y237002*
X152753*
G75*
G02X151337Y237587I-3J1998*
G01*
X143497Y245427*
G75*
G02X139100Y249000I-747J3573*
G01*
G75*
G02X146400I3650*
G01*
G75*
G02X146323Y248253I-3651J0*
G01*
X153578Y240998*
X162747*
G75*
G02X164163Y240413I3J-1998*
G01*
X169163Y235413*
G75*
G02X169748Y234000I-1413J-1413*
G01*
Y191719*
G75*
G02X176800Y189000I3002J-2719*
G01*
G75*
G02X169748Y186281I-4050*
G01*
Y184828*
X178578Y175998*
X192747*
G75*
G02X194163Y175413I3J-1998*
G01*
X204100Y165476*
G75*
G02Y165500I3652J12*
G01*
G75*
G02X205528Y168396I3650*
G01*
X196337Y177587*
G75*
G02X195752Y179000I1413J1413*
G01*
Y229000*
G75*
G02X196337Y230413I1998J0*
G01*
X213500Y247576*
Y253250*
X220674*
X219174Y254750*
X213500*
Y263250*
X222000*
Y257576*
X229163Y250413*
X215516Y55250D02*
G75*
G02X219984I2234D01*
G01*
G75*
G02X215516I-2234*
G01*
X221126Y60250D02*
G75*
G02X239374I9124D01*
G01*
G75*
G02X221126I-9124*
G01*
X204266Y55250D02*
G75*
G02X208734I2234D01*
G01*
G75*
G02X204266I-2234*
G01*
X213500Y183250D02*
X222000D01*
Y174750*
X213500*
Y177002*
X212753*
G75*
G02X211337Y177587I-3J1998*
G01*
X208497Y180427*
G75*
G02X204100Y184000I-747J3573*
G01*
G75*
G02X211400I3650*
G01*
G75*
G02X211323Y183253I-3651J0*
G01*
X213500Y181076*
Y183250*
Y140250D02*
X222000D01*
Y131750*
X213500*
Y140250*
Y150250D02*
X222000D01*
Y141750*
X213500*
Y150250*
Y160250D02*
X222000D01*
Y151750*
X213500*
Y160250*
Y173250D02*
X222000D01*
Y164750*
X213500*
Y173250*
Y193250D02*
X222000D01*
Y184750*
X213500*
Y193250*
Y203250D02*
X222000D01*
Y194750*
X213500*
Y203250*
Y213250D02*
X222000D01*
Y204750*
X213500*
Y213250*
Y223250D02*
X222000D01*
Y214750*
X213500*
Y223250*
Y233250D02*
X222000D01*
Y224750*
X213500*
Y233250*
Y110250D02*
X222000D01*
Y101750*
X213500*
Y104002*
X200578*
X191323Y94747*
G75*
G02X191400Y94000I-3574J-747*
G01*
G75*
G02X184100I-3650*
G01*
G75*
G02X188497Y97573I3650*
G01*
X198337Y107413*
G75*
G02X199753Y107998I1413J-1413*
G01*
X213500*
Y110250*
Y90250D02*
X222000D01*
Y81750*
X213500*
Y90250*
Y100250D02*
X222000D01*
Y91750*
X213500*
Y100250*
X194266Y55250D02*
G75*
G02X198734I2234D01*
G01*
G75*
G02X194266I-2234*
G01*
X184266D02*
G75*
G02X188734I2234D01*
G01*
G75*
G02X184266I-2234*
G01*
X174266D02*
G75*
G02X178734I2234D01*
G01*
G75*
G02X174266I-2234*
G01*
X164266D02*
G75*
G02X168734I2234D01*
G01*
G75*
G02X164266I-2234*
G01*
X173116Y126500D02*
G75*
G02X180416I3650D01*
G01*
G75*
G02X173116I-3650*
G01*
X178700Y119000D02*
G75*
G02X186800I4050D01*
G01*
G75*
G02X178700I-4050*
G01*
X177750Y142550D02*
G75*
G02X181800Y138500J-4050D01*
G01*
G75*
G02X177750Y134450I-4050*
G01*
G75*
G02X173700Y138500J4050*
G01*
G75*
G02X177750Y142550I4050*
G01*
X132016Y189500D02*
G75*
G02X136484I2234D01*
G01*
G75*
G02X132016I-2234*
G01*
X101766Y120250D02*
G75*
G02X106234I2234D01*
G01*
G75*
G02X101766I-2234*
G01*
Y127750D02*
G75*
G02X106234I2234D01*
G01*
G75*
G02X101766I-2234*
G01*
Y135250D02*
G75*
G02X106234I2234D01*
G01*
G75*
G02X101766I-2234*
G01*
Y142750D02*
G75*
G02X106234I2234D01*
G01*
G75*
G02X101766I-2234*
G01*
Y150250D02*
G75*
G02X106234I2234D01*
G01*
G75*
G02X101766I-2234*
G01*
Y157750D02*
G75*
G02X106234I2234D01*
G01*
G75*
G02X101766I-2234*
G01*
X113700Y184000D02*
G75*
G02X121800I4050D01*
G01*
G75*
G02X113700I-4050*
G01*
X114266Y52750D02*
G75*
G02X118734I2234D01*
G01*
G75*
G02X114266I-2234*
G01*
Y60250D02*
G75*
G02X118734I2234D01*
G01*
G75*
G02X114266I-2234*
G01*
Y67750D02*
G75*
G02X118734I2234D01*
G01*
G75*
G02X114266I-2234*
G01*
Y74000D02*
G75*
G02X118734I2234D01*
G01*
G75*
G02X114266I-2234*
G01*
Y92750D02*
G75*
G02X118734I2234D01*
G01*
G75*
G02X114266I-2234*
G01*
Y100250D02*
G75*
G02X118734I2234D01*
G01*
G75*
G02X114266I-2234*
G01*
Y107750D02*
G75*
G02X118734I2234D01*
G01*
G75*
G02X114266I-2234*
G01*
Y115250D02*
G75*
G02X118734I2234D01*
G01*
G75*
G02X114266I-2234*
G01*
Y122750D02*
G75*
G02X118734I2234D01*
G01*
G75*
G02X114266I-2234*
G01*
Y130250D02*
G75*
G02X118734I2234D01*
G01*
G75*
G02X114266I-2234*
G01*
Y137750D02*
G75*
G02X118734I2234D01*
G01*
G75*
G02X114266I-2234*
G01*
Y145250D02*
G75*
G02X118734I2234D01*
G01*
G75*
G02X114266I-2234*
G01*
Y152750D02*
G75*
G02X118734I2234D01*
G01*
G75*
G02X114266I-2234*
G01*
X122450Y92750D02*
G75*
G02X130550I4050D01*
G01*
G75*
G02X122450I-4050*
G01*
X139000Y115530D02*
G75*
G02X146800Y114000I3750J-1530D01*
G01*
G75*
G02X139000Y112470I-4050*
G01*
G75*
G02X131500I-3750J1530*
G01*
G75*
G02X123700Y114000I-3750J1530*
G01*
G75*
G02X131500Y115530I4050*
G01*
G75*
G02X139000I3750J-1530*
G01*
X139950Y101500D02*
G75*
G02X148050I4050D01*
G01*
G75*
G02X139950I-4050*
G01*
X143016Y55250D02*
G75*
G02X147484I2234D01*
G01*
G75*
G02X143016I-2234*
G01*
X135516D02*
G75*
G02X139984I2234D01*
G01*
G75*
G02X135516I-2234*
G01*
Y62750D02*
G75*
G02X139984I2234D01*
G01*
G75*
G02X135516I-2234*
G01*
Y70250D02*
G75*
G02X139984I2234D01*
G01*
G75*
G02X135516I-2234*
G01*
Y79000D02*
G75*
G02X139984I2234D01*
G01*
G75*
G02X135516I-2234*
G01*
X146500Y139280D02*
G75*
G02X154300Y137750I3750J-1530D01*
G01*
G75*
G02X146500Y136220I-4050*
G01*
G75*
G02X139000I-3750J1530*
G01*
G75*
G02X131500I-3750J1530*
G01*
G75*
G02X123700Y137750I-3750J1530*
G01*
G75*
G02X131500Y139280I4050*
G01*
G75*
G02X139000I3750J-1530*
G01*
G75*
G02X146500I3750J-1530*
G01*
X153016Y55250D02*
G75*
G02X157484I2234D01*
G01*
G75*
G02X153016I-2234*
G01*
X137200Y214000D02*
G75*
G02X145300I4050D01*
G01*
G75*
G02X137200I-4050*
G01*
X148700Y219500D02*
G75*
G02X156800I4050D01*
G01*
G75*
G02X148700I-4050*
G01*
X77750Y213050D02*
G75*
G02X81800Y209000J-4050D01*
G01*
G75*
G02X77750Y204950I-4050*
G01*
G75*
G02X73700Y209000J4050*
G01*
G75*
G02X77750Y213050I4050*
G01*
Y223050D02*
G75*
G02X81800Y219000J-4050D01*
G01*
G75*
G02X77750Y214950I-4050*
G01*
G75*
G02X73700Y219000J4050*
G01*
G75*
G02X77750Y223050I4050*
G01*
X57750D02*
G75*
G02X61800Y219000J-4050D01*
G01*
G75*
G02X57750Y214950I-4050*
G01*
G75*
G02X53700Y219000J4050*
G01*
G75*
G02X57750Y223050I4050*
G01*
X63500Y219000D02*
G75*
G02X72000I4250D01*
G01*
G75*
G02X63500I-4250*
G01*
Y239000D02*
G75*
G02X72000I4250D01*
G01*
G75*
G02X63500I-4250*
G01*
X96200Y84287D02*
G75*
G02X104300I4050D01*
G01*
G75*
G02X96200I-4050*
G01*
X103016Y54000D02*
G75*
G02X107484I2234D01*
G01*
G75*
G02X103016I-2234*
G01*
X104266Y74000D02*
G75*
G02X108734I2234D01*
G01*
G75*
G02X104266I-2234*
G01*
X101766Y94000D02*
G75*
G02X106234I2234D01*
G01*
G75*
G02X101766I-2234*
G01*
Y100250D02*
G75*
G02X106234I2234D01*
G01*
G75*
G02X101766I-2234*
G01*
Y107750D02*
G75*
G02X106234I2234D01*
G01*
G75*
G02X101766I-2234*
G01*
Y114000D02*
G75*
G02X106234I2234D01*
G01*
G75*
G02X101766I-2234*
G01*
X91766Y54000D02*
G75*
G02X96234I2234D01*
G01*
G75*
G02X91766I-2234*
G01*
X71766D02*
G75*
G02X76234I2234D01*
G01*
G75*
G02X71766I-2234*
G01*
X76200Y124000D02*
G75*
G02X84300I4050D01*
G01*
G75*
G02X76200I-4050*
G01*
X81766Y54000D02*
G75*
G02X86234I2234D01*
G01*
G75*
G02X81766I-2234*
G01*
X51766D02*
G75*
G02X56234I2234D01*
G01*
G75*
G02X51766I-2234*
G01*
X61766D02*
G75*
G02X66234I2234D01*
G01*
G75*
G02X61766I-2234*
G01*
X38700Y129000D02*
G75*
G02X46800I4050D01*
G01*
G75*
G02X38700I-4050*
G01*
X40516Y54000D02*
G75*
G02X44984I2234D01*
G01*
G75*
G02X40516I-2234*
G01*
X38700Y169000D02*
G75*
G02X46800I4050D01*
G01*
G75*
G02X38700I-4050*
G01*
Y179000D02*
G75*
G02X46800I4050D01*
G01*
G75*
G02X38700I-4050*
G01*
X23500Y210250D02*
X32000D01*
Y201750*
X23500*
Y210250*
Y220250D02*
X32000D01*
Y211750*
X23500*
Y220250*
Y230250D02*
X32000D01*
Y221750*
X23500*
Y230250*
X34000Y286234D02*
G75*
G02X36234Y284000J-2234D01*
G01*
G75*
G02X34000Y281766I-2234*
G01*
G75*
G02X31766Y284000J2234*
G01*
G75*
G02X34000Y286234I2234*
G01*
X41500D02*
G75*
G02X43734Y284000J-2234D01*
G01*
G75*
G02X41500Y281766I-2234*
G01*
G75*
G02X39266Y284000J2234*
G01*
G75*
G02X41500Y286234I2234*
G01*
X50250D02*
G75*
G02X52484Y284000J-2234D01*
G01*
G75*
G02X50250Y281766I-2234*
G01*
G75*
G02X48016Y284000J2234*
G01*
G75*
G02X50250Y286234I2234*
G01*
X60250D02*
G75*
G02X62484Y284000J-2234D01*
G01*
G75*
G02X60250Y281766I-2234*
G01*
G75*
G02X58016Y284000J2234*
G01*
G75*
G02X60250Y286234I2234*
G01*
X71500D02*
G75*
G02X73734Y284000J-2234D01*
G01*
G75*
G02X71500Y281766I-2234*
G01*
G75*
G02X69266Y284000J2234*
G01*
G75*
G02X71500Y286234I2234*
G01*
X81500D02*
G75*
G02X83734Y284000J-2234D01*
G01*
G75*
G02X81500Y281766I-2234*
G01*
G75*
G02X79266Y284000J2234*
G01*
G75*
G02X81500Y286234I2234*
G01*
X91500D02*
G75*
G02X93734Y284000J-2234D01*
G01*
G75*
G02X91500Y281766I-2234*
G01*
G75*
G02X89266Y284000J2234*
G01*
G75*
G02X91500Y286234I2234*
G01*
X101500D02*
G75*
G02X103734Y284000J-2234D01*
G01*
G75*
G02X101500Y281766I-2234*
G01*
G75*
G02X99266Y284000J2234*
G01*
G75*
G02X101500Y286234I2234*
G01*
X108700Y243500D02*
G75*
G02X116800I4050D01*
G01*
G75*
G02X108700I-4050*
G01*
X111500Y286234D02*
G75*
G02X113734Y284000J-2234D01*
G01*
G75*
G02X111500Y281766I-2234*
G01*
G75*
G02X109266Y284000J2234*
G01*
G75*
G02X111500Y286234I2234*
G01*
X118700Y244000D02*
G75*
G02X126800I4050D01*
G01*
G75*
G02X118700I-4050*
G01*
X121500Y286234D02*
G75*
G02X123734Y284000J-2234D01*
G01*
G75*
G02X121500Y281766I-2234*
G01*
G75*
G02X119266Y284000J2234*
G01*
G75*
G02X121500Y286234I2234*
G01*
X131500D02*
G75*
G02X133734Y284000J-2234D01*
G01*
G75*
G02X131500Y281766I-2234*
G01*
G75*
G02X129266Y284000J2234*
G01*
G75*
G02X131500Y286234I2234*
G01*
X141500D02*
G75*
G02X143734Y284000J-2234D01*
G01*
G75*
G02X141500Y281766I-2234*
G01*
G75*
G02X139266Y284000J2234*
G01*
G75*
G02X141500Y286234I2234*
G01*
X151500D02*
G75*
G02X153734Y284000J-2234D01*
G01*
G75*
G02X151500Y281766I-2234*
G01*
G75*
G02X149266Y284000J2234*
G01*
G75*
G02X151500Y286234I2234*
G01*
X164000D02*
G75*
G02X166234Y284000J-2234D01*
G01*
G75*
G02X164000Y281766I-2234*
G01*
G75*
G02X161766Y284000J2234*
G01*
G75*
G02X164000Y286234I2234*
G01*
X175250D02*
G75*
G02X177484Y284000J-2234D01*
G01*
G75*
G02X175250Y281766I-2234*
G01*
G75*
G02X173016Y284000J2234*
G01*
G75*
G02X175250Y286234I2234*
G01*
X178200Y189000D02*
G75*
G02X186300I4050D01*
G01*
G75*
G02X178200I-4050*
G01*
X186500Y286234D02*
G75*
G02X188734Y284000J-2234D01*
G01*
G75*
G02X186500Y281766I-2234*
G01*
G75*
G02X184266Y284000J2234*
G01*
G75*
G02X186500Y286234I2234*
G01*
X195250D02*
G75*
G02X197484Y284000J-2234D01*
G01*
G75*
G02X195250Y281766I-2234*
G01*
G75*
G02X193016Y284000J2234*
G01*
G75*
G02X195250Y286234I2234*
G01*
X205250D02*
G75*
G02X207484Y284000J-2234D01*
G01*
G75*
G02X205250Y281766I-2234*
G01*
G75*
G02X203016Y284000J2234*
G01*
G75*
G02X205250Y286234I2234*
G01*
X215250D02*
G75*
G02X217484Y284000J-2234D01*
G01*
G75*
G02X215250Y281766I-2234*
G01*
G75*
G02X213016Y284000J2234*
G01*
G75*
G02X215250Y286234I2234*
G01*
X6750Y54000D02*
G36*
Y50500D01*
X241250*
Y54000*
X236897*
G75*
G02X223603I-6647J6250*
G01*
X219602*
G75*
G02X215898I-1852J1250*
G01*
X208352*
G75*
G02X204648I-1852J1250*
G01*
X198352*
G75*
G02X194648I-1852J1250*
G01*
X188352*
G75*
G02X184648I-1852J1250*
G01*
X178352*
G75*
G02X174648I-1852J1250*
G01*
X168352*
G75*
G02X164648I-1852J1250*
G01*
X157102*
G75*
G02X153398I-1852J1250*
G01*
X147102*
G75*
G02X143398I-1852J1250*
G01*
X139602*
G75*
G02X135898I-1852J1250*
G01*
X118352*
G75*
G02X118734Y52750I-1852J-1250*
G01*
G75*
G02X114266I-2234*
G01*
G75*
G02X114648Y54000I2234*
G01*
X107484*
G75*
G02X103016I-2234*
G01*
X96234*
G75*
G02X91766I-2234*
G01*
X86234*
G75*
G02X81766I-2234*
G01*
X76234*
G75*
G02X71766I-2234*
G01*
X66234*
G75*
G02X61766I-2234*
G01*
X56234*
G75*
G02X51766I-2234*
G01*
X44984*
G75*
G02X40516I-2234*
G01*
X34984*
G75*
G02X30516I-2234*
G01*
X23147*
G75*
G02X9853I-6647J6250*
G01*
X6750*
G37*
Y60250D02*
G36*
Y54000D01*
X9853*
G75*
G02X7376Y60250I6647J6250*
G01*
X6750*
G37*
X25624D02*
G36*
G75*
G02X23147Y54000I-9124D01*
G01*
X30516*
G75*
G02X34984I2234*
G01*
X40516*
G75*
G02X44984I2234*
G01*
X51766*
G75*
G02X56234I2234*
G01*
X61766*
G75*
G02X66234I2234*
G01*
X71766*
G75*
G02X76234I2234*
G01*
X81766*
G75*
G02X86234I2234*
G01*
X91766*
G75*
G02X96234I2234*
G01*
X103016*
G75*
G02X107484I2234*
G01*
X114648*
G75*
G02X118352I1852J-1250*
G01*
X135898*
G75*
G02X135516Y55250I1852J1250*
G01*
G75*
G02X139984I2234*
G01*
G75*
G02X139602Y54000I-2234*
G01*
X143398*
G75*
G02X143016Y55250I1852J1250*
G01*
G75*
G02X147484I2234*
G01*
G75*
G02X147102Y54000I-2234*
G01*
X153398*
G75*
G02X153016Y55250I1852J1250*
G01*
G75*
G02X157484I2234*
G01*
G75*
G02X157102Y54000I-2234*
G01*
X164648*
G75*
G02X164266Y55250I1852J1250*
G01*
G75*
G02X168734I2234*
G01*
G75*
G02X168352Y54000I-2234*
G01*
X174648*
G75*
G02X174266Y55250I1852J1250*
G01*
G75*
G02X178734I2234*
G01*
G75*
G02X178352Y54000I-2234*
G01*
X184648*
G75*
G02X184266Y55250I1852J1250*
G01*
G75*
G02X188734I2234*
G01*
G75*
G02X188352Y54000I-2234*
G01*
X194648*
G75*
G02X194266Y55250I1852J1250*
G01*
G75*
G02X198734I2234*
G01*
G75*
G02X198352Y54000I-2234*
G01*
X204648*
G75*
G02X204266Y55250I1852J1250*
G01*
G75*
G02X208734I2234*
G01*
G75*
G02X208352Y54000I-2234*
G01*
X215898*
G75*
G02X215516Y55250I1852J1250*
G01*
G75*
G02X219984I2234*
G01*
G75*
G02X219602Y54000I-2234*
G01*
X223603*
G75*
G02X221126Y60250I6647J6250*
G01*
X118734*
G75*
G02X114266I-2234*
G01*
X25624*
G37*
X239374D02*
G36*
G75*
G02X236897Y54000I-9124D01*
G01*
X241250*
Y60250*
X239374*
G37*
X6750Y62750D02*
G36*
Y60250D01*
X7376*
G75*
G02X7725Y62750I9124*
G01*
X6750*
G37*
X25275D02*
G36*
G75*
G02X25624Y60250I-8775J-2500D01*
G01*
X114266*
G75*
G02X118734I2234*
G01*
X221126*
G75*
G02X221475Y62750I9124*
G01*
X139984*
G75*
G02X135516I-2234*
G01*
X25275*
G37*
X239025D02*
G36*
G75*
G02X239374Y60250I-8775J-2500D01*
G01*
X241250*
Y62750*
X239025*
G37*
X6750Y67750D02*
G36*
Y62750D01*
X7725*
G75*
G02X11304Y67750I8775J-2500*
G01*
X6750*
G37*
X21696D02*
G36*
G75*
G02X25275Y62750I-5196J-7500D01*
G01*
X135516*
G75*
G02X139984I2234*
G01*
X221475*
G75*
G02X225054Y67750I8775J-2500*
G01*
X118734*
G75*
G02X114266I-2234*
G01*
X21696*
G37*
X235446D02*
G36*
G75*
G02X239025Y62750I-5196J-7500D01*
G01*
X241250*
Y67750*
X235446*
G37*
X6750Y70250D02*
G36*
Y67750D01*
X11304*
G75*
G02X21696I5196J-7500*
G01*
X114266*
G75*
G02X118734I2234*
G01*
X225054*
G75*
G02X235446I5196J-7500*
G01*
X241250*
Y70250*
X239984*
G75*
G02X235516I-2234*
G01*
X139984*
G75*
G02X135516I-2234*
G01*
X6750*
G37*
Y75250D02*
G36*
Y70250D01*
X135516*
G75*
G02X139984I2234*
G01*
X235516*
G75*
G02X239984I2234*
G01*
X241250*
Y75250*
X118352*
G75*
G02X118734Y74000I-1852J-1250*
G01*
G75*
G02X114266I-2234*
G01*
G75*
G02X114648Y75250I2234*
G01*
X108352*
G75*
G02X108734Y74000I-1852J-1250*
G01*
G75*
G02X104266I-2234*
G01*
G75*
G02X104648Y75250I2234*
G01*
X12484*
G75*
G02X8016I-2234*
G01*
X6750*
G37*
Y80250D02*
G36*
Y75250D01*
X8016*
G75*
G02X12484I2234*
G01*
X104648*
G75*
G02X108352I1852J-1250*
G01*
X114648*
G75*
G02X118352I1852J-1250*
G01*
X241250*
Y80250*
X239984*
G75*
G02X235516I-2234*
G01*
X226826*
X224163Y77587*
G75*
G02X222747Y77002I-1413J1415*
G01*
X212753*
G75*
G02X211337Y77587I-2J2000*
G01*
X208674Y80250*
X139602*
G75*
G02X139984Y79000I-1852J-1250*
G01*
G75*
G02X135516I-2234*
G01*
G75*
G02X135898Y80250I2234*
G01*
X100569*
G75*
G02X99931I-319J4039*
G01*
X6750*
G37*
Y87750D02*
G36*
Y80250D01*
X99931*
G75*
G02X96200Y84287I319J4037*
G01*
G75*
G02X98149Y87750I4050*
G01*
X32000*
Y81750*
X23500*
Y87750*
X12484*
G75*
G02X8016I-2234*
G01*
X6750*
G37*
X104300Y84287D02*
G36*
G75*
G02X100569Y80250I-4050D01*
G01*
X135898*
G75*
G02X139602I1852J-1250*
G01*
X208674*
X206337Y82587*
G75*
G02X205752Y84000I1414J1413*
G01*
Y87750*
X102351*
G75*
G02X104300Y84287I-2101J-3463*
G01*
G37*
X209748Y87750D02*
G36*
Y84828D01*
X213578Y80998*
X221922*
X225752Y84828*
Y87750*
X222000*
Y81750*
X213500*
Y87750*
X209748*
G37*
X229163Y82587D02*
G36*
X226826Y80250D01*
X235516*
G75*
G02X239984I2234*
G01*
X241250*
Y87750*
X229748*
Y84000*
G75*
G02X229163Y82587I-1999*
G01*
G37*
X6750Y90250D02*
G36*
Y87750D01*
X8016*
G75*
G02X12484I2234*
G01*
X23500*
Y90250*
X6750*
G37*
X32000D02*
G36*
Y87750D01*
X98149*
G75*
G02X102351I2101J-3463*
G01*
X205752*
Y88172*
X203674Y90250*
X129686*
G75*
G02X123314I-3186J2500*
G01*
X32000*
G37*
X209748Y89000D02*
G36*
Y87750D01*
X213500*
Y90250*
X209309*
G75*
G02X209748Y89000I-1560J-1250*
G01*
G37*
X222000Y90250D02*
G36*
Y87750D01*
X225752*
Y90250*
X222000*
G37*
X229748D02*
G36*
Y87750D01*
X241250*
Y90250*
X239984*
G75*
G02X235516I-2234*
G01*
X229748*
G37*
X6750Y92750D02*
G36*
Y90250D01*
X23500*
X32000*
X123314*
G75*
G02X122450Y92750I3186J2500*
G01*
X118734*
G75*
G02X114266I-2234*
G01*
X105852*
G75*
G02X102148I-1852J1250*
G01*
X32000*
Y91750*
X23500*
Y92750*
X6750*
G37*
X130550D02*
G36*
G75*
G02X129686Y90250I-4050D01*
G01*
X203674*
X203497Y90427*
G75*
G02X199321Y92750I-747J3573*
G01*
X191179*
G75*
G02X184321I-3429J1250*
G01*
X130550*
G37*
X206826D02*
G36*
X209163Y90413D01*
G75*
G02X209309Y90250I-1413J-1414*
G01*
X213500*
X222000*
X225752*
Y92750*
X222000*
Y91750*
X213500*
Y92750*
X206826*
G37*
X229748D02*
G36*
Y90250D01*
X235516*
G75*
G02X239984I2234*
G01*
X241250*
Y92750*
X229748*
G37*
X6750Y97750D02*
G36*
Y92750D01*
X23500*
Y97750*
X12484*
G75*
G02X8016I-2234*
G01*
X6750*
G37*
X32000D02*
G36*
Y92750D01*
X102148*
G75*
G02X101766Y94000I1852J1250*
G01*
G75*
G02X106234I2234*
G01*
G75*
G02X105852Y92750I-2234*
G01*
X114266*
G75*
G02X118734I2234*
G01*
X122450*
G75*
G02X130550I4050*
G01*
X184321*
G75*
G02X184100Y94000I3429J1250*
G01*
G75*
G02X188497Y97573I3650J0*
G01*
X188674Y97750*
X145530*
G75*
G02X142470I-1530J3750*
G01*
X32000*
G37*
X191400Y94000D02*
G36*
G75*
G02X191179Y92750I-3650J0D01*
G01*
X199321*
G75*
G02X199100Y94000I3430J1250*
G01*
G75*
G02X206400I3650*
G01*
G75*
G02Y93999I-3222J0*
G01*
G75*
G02X206323Y93253I-3648*
G01*
X206826Y92750*
X213500*
Y97750*
X194326*
X191323Y94747*
G75*
G02X191400Y94001I-3571J-746*
G01*
G75*
G02Y94000I-3222J0*
G01*
G37*
X222000Y97750D02*
G36*
Y92750D01*
X225752*
Y97750*
X222000*
G37*
X229748D02*
G36*
Y92750D01*
X241250*
Y97750*
X229748*
G37*
X6750Y100250D02*
G36*
Y97750D01*
X8016*
G75*
G02X12484I2234*
G01*
X23500*
Y100250*
X6750*
G37*
X32000D02*
G36*
Y97750D01*
X142470*
G75*
G02X140148Y100250I1530J3750*
G01*
X118734*
G75*
G02X114266I-2234*
G01*
X106234*
G75*
G02X101766I-2234*
G01*
X32000*
G37*
X147852D02*
G36*
G75*
G02X145530Y97750I-3852J1250D01*
G01*
X188674*
X191174Y100250*
X147852*
G37*
X196826D02*
G36*
X194326Y97750D01*
X213500*
Y100250*
X196826*
G37*
X222000D02*
G36*
Y97750D01*
X225752*
Y100250*
X222000*
G37*
X229748D02*
G36*
Y97750D01*
X241250*
Y100250*
X239984*
G75*
G02X235516I-2234*
G01*
X229748*
G37*
X6750Y107750D02*
G36*
Y100250D01*
X23500*
X32000*
X101766*
G75*
G02X106234I2234*
G01*
X114266*
G75*
G02X118734I2234*
G01*
X140148*
G75*
G02X139950Y101500I3852J1250*
G01*
G75*
G02X148050I4050*
G01*
G75*
G02X147852Y100250I-4050J0*
G01*
X191174*
X198337Y107413*
G75*
G02X198786Y107750I1413J-1415*
G01*
X190856*
G75*
G02X188613I-1121J2235*
G01*
X185242*
X185079Y107587*
G75*
G02X183663Y107002I-1413J1415*
G01*
X179828*
X179429Y106603*
G75*
G02X178013Y106018I-1413J1415*
G01*
X170650*
G75*
G02X169868Y105792I-998J1992*
G01*
X169163Y105087*
G75*
G02X167747Y104502I-1413J1415*
G01*
X164003*
G75*
G02X162587Y105087I-2J2000*
G01*
X161272Y106403*
G75*
G02X156811Y107750I-1271J3848*
G01*
X118734*
G75*
G02X114266I-2234*
G01*
X106234*
G75*
G02X101766I-2234*
G01*
X32000*
Y101750*
X23500*
Y107750*
X12484*
G75*
G02X8016I-2234*
G01*
X6750*
G37*
X200578Y104002D02*
G36*
X196826Y100250D01*
X213500*
X222000*
X225752*
Y107750*
X222000*
Y101750*
X213500*
Y104002*
X200578*
G37*
X229748Y107750D02*
G36*
Y100250D01*
X235516*
G75*
G02X239984I2234*
G01*
X241250*
Y107750*
X229748*
G37*
X6750Y110250D02*
G36*
Y107750D01*
X8016*
G75*
G02X12484I2234*
G01*
X23500*
Y110250*
X6750*
G37*
X32000D02*
G36*
Y107750D01*
X101766*
G75*
G02X106234I2234*
G01*
X114266*
G75*
G02X118734I2234*
G01*
X156811*
G75*
G02X156263Y108684I3189J2501*
G01*
X155100Y109846*
G75*
G02X154750Y110250I2648J2653*
G01*
X144279*
G75*
G02X141221I-1529J3750*
G01*
X136779*
G75*
G02X133721I-1529J3750*
G01*
X129279*
G75*
G02X126221I-1529J3750*
G01*
X32000*
G37*
X164052Y110247D02*
G36*
G75*
G02X163956Y109370I-4029D01*
G01*
X164828Y108498*
X166922*
X167853Y109429*
G75*
G02X168157Y109678I1399J-1398*
G01*
G75*
G02X170650Y110014I1493J-1663*
G01*
X177188*
X177424Y110250*
X164052*
G75*
G02Y110247I-3839J-2*
G01*
G37*
X185355Y107863D02*
G36*
X185242Y107750D01*
X188613*
G75*
G02X188231Y107986I1122J2235*
G01*
X185652*
G75*
G02X185355Y107863I-999J1987*
G01*
G37*
X191502Y108217D02*
G36*
G75*
G02X190856Y107750I-1768J1769D01*
G01*
X198786*
G75*
G02X199753Y107998I965J-1751*
G01*
X213500*
Y110250*
X193535*
X191502Y108217*
G37*
X222000Y110250D02*
G36*
Y107750D01*
X225752*
Y110250*
X222000*
G37*
X229748D02*
G36*
Y107750D01*
X241250*
Y110250*
X239984*
G75*
G02X235516I-2234*
G01*
X229748*
G37*
X6750Y114000D02*
G36*
Y110250D01*
X23500*
X32000*
X126221*
G75*
G02X123700Y114000I1529J3750*
G01*
X118352*
G75*
G02X114648I-1852J1250*
G01*
X106234*
G75*
G02X101766I-2234*
G01*
X101604*
G75*
G02X93896I-3854J1250*
G01*
X32000*
Y111750*
X23500*
Y114000*
X6750*
G37*
X131500Y112470D02*
G36*
G75*
G02X129279Y110250I-3750J1530D01*
G01*
X133721*
G75*
G02X131500Y112470I1529J3750*
G01*
G37*
X139000D02*
G36*
G75*
G02X136779Y110250I-3750J1530D01*
G01*
X141221*
G75*
G02X139000Y112470I1529J3750*
G01*
G37*
X146800Y114000D02*
G36*
G75*
G02X144279Y110250I-4050J0D01*
G01*
X154750*
G75*
G02X154000Y112499I2998J2249*
G01*
G75*
G02Y112500I5013J0*
G01*
Y114000*
X146800*
G37*
X164051Y110350D02*
G36*
G75*
G02X164052Y110250I-6327J-125D01*
G01*
X177424*
X177587Y110413*
G75*
G02X179003Y110998I1413J-1415*
G01*
X182658*
G75*
G02X185652Y111982I1992J-1013*
G01*
X188197*
X190215Y114000*
X172909*
G75*
G02X167650Y113939I-2659J2500*
G01*
G75*
G02X164051Y110350I-3650J61*
G01*
G37*
X197285Y114000D02*
G36*
X193535Y110250D01*
X213500*
X222000*
X225752*
Y114000*
X222000*
Y111750*
X213500*
Y114000*
X197285*
G37*
X229748D02*
G36*
Y110250D01*
X235516*
G75*
G02X239984I2234*
G01*
X241250*
Y114000*
X229748*
G37*
X6750Y116500D02*
G36*
Y114000D01*
X23500*
Y116500*
X12484*
G75*
G02X8016I-2234*
G01*
X6750*
G37*
X32000D02*
G36*
Y114000D01*
X93896*
G75*
G02X93698Y115250I3854J1250*
G01*
G75*
G02X93850Y116347I4058J-2*
G01*
X93697Y116500*
X32000*
G37*
X101604Y114000D02*
G36*
X101766D01*
G75*
G02X106234I2234*
G01*
X114648*
G75*
G02X114266Y115250I1852J1250*
G01*
G75*
G02X114648Y116500I2234*
G01*
X101604*
G75*
G02X101802Y115250I-3863J-1252*
G01*
G75*
G02X101604Y114000I-4052*
G01*
G37*
X118734Y115250D02*
G36*
G75*
G02X118352Y114000I-2234D01*
G01*
X123700*
G75*
G02X124564Y116500I4050*
G01*
X118352*
G75*
G02X118734Y115250I-1852J-1250*
G01*
G37*
X130936Y116500D02*
G36*
G75*
G02X131500Y115530I-3186J-2500D01*
G01*
G75*
G02X132064Y116500I3750J-1530*
G01*
X130936*
G37*
X138436D02*
G36*
G75*
G02X139000Y115530I-3186J-2500D01*
G01*
G75*
G02X139564Y116500I3750J-1530*
G01*
X138436*
G37*
X145936D02*
G36*
G75*
G02X146800Y114000I-3186J-2500D01*
G01*
X154000*
Y116500*
X145936*
G37*
X173900D02*
G36*
G75*
G02X172909Y114000I-3650J0D01*
G01*
X190215*
X192715Y116500*
X185936*
G75*
G02X179564I-3186J2500*
G01*
X173900*
G37*
X199765Y116479D02*
G36*
X197285Y114000D01*
X213500*
Y116500*
X200885*
G75*
G02X199765Y116479I-635J4000*
G01*
G37*
X222000Y116500D02*
G36*
Y114000D01*
X225752*
Y116500*
X222000*
G37*
X229748D02*
G36*
Y114000D01*
X241250*
Y116500*
X229748*
G37*
X6750Y120250D02*
G36*
Y116500D01*
X8016*
G75*
G02X12484I2234*
G01*
X23500*
Y120250*
X6750*
G37*
X32000D02*
G36*
Y116500D01*
X93697*
X89947Y120250*
X81780*
G75*
G02X78720I-1530J3750*
G01*
X32000*
G37*
X101500Y117750D02*
G36*
Y116785D01*
G75*
G02X101604Y116500I-3759J-1537*
G01*
X114648*
G75*
G02X118352I1852J-1250*
G01*
X124564*
G75*
G02X130936I3186J-2500*
G01*
X132064*
G75*
G02X138436I3186J-2501*
G01*
X139564*
G75*
G02X145936I3186J-2500*
G01*
X154000*
Y120250*
X106234*
G75*
G02X101766I-2234*
G01*
X100545*
G75*
G02X101500Y117751I-2793J-2499*
G01*
G75*
G02Y117750I-4511J0*
G01*
G37*
X161500Y120250D02*
G36*
Y116659D01*
G75*
G02X166600Y116561I2500J-2659*
G01*
G75*
G02X173900Y116500I3650J-61*
G01*
X179564*
G75*
G02X178700Y119000I3186J2500*
G01*
G75*
G02X178898Y120250I4050J0*
G01*
X161500*
G37*
X186800Y119000D02*
G36*
G75*
G02X185936Y116500I-4050D01*
G01*
X192715*
X196229Y120015*
G75*
G02X196207Y120250I3915J479*
G01*
X186602*
G75*
G02X186800Y119000I-3852J-1250*
G01*
G37*
X204292Y120250D02*
G36*
G75*
G02X200885Y116500I-4043J250D01*
G01*
X213500*
Y117424*
X210674Y120250*
X204292*
G37*
X222000D02*
G36*
Y116500D01*
X225752*
Y120250*
X222000*
G37*
X229748D02*
G36*
Y116500D01*
X241250*
Y120250*
X239984*
G75*
G02X235516I-2234*
G01*
X229748*
G37*
X6750Y122750D02*
G36*
Y120250D01*
X23500*
X32000*
X78720*
G75*
G02X76398Y122750I1530J3750*
G01*
X32000*
Y121750*
X23500*
Y122750*
X6750*
G37*
X84102D02*
G36*
G75*
G02X81780Y120250I-3852J1250D01*
G01*
X89947*
X87447Y122750*
X84102*
G37*
X98054D02*
G36*
X100400Y120404D01*
G75*
G02X100545Y120250I-2648J-2652*
G01*
X101766*
G75*
G02X106234I2234*
G01*
X154000*
Y122750*
X118734*
G75*
G02X114266I-2234*
G01*
X98054*
G37*
X161500D02*
G36*
Y120250D01*
X178898*
G75*
G02X181220Y122750I3852J-1250*
G01*
X161500*
G37*
X184280D02*
G36*
G75*
G02X186602Y120250I-1530J-3750D01*
G01*
X196207*
G75*
G02X196200Y120493I3940J243*
G01*
G75*
G02Y120500I3874J4*
G01*
G75*
G02Y120501I5639J0*
G01*
G75*
G02X196441Y121876I4045*
G01*
Y122750*
X184280*
G37*
X203941D02*
G36*
Y122167D01*
G75*
G02X204300Y120500I-3691J-1667*
G01*
G75*
G02X204292Y120250I-4049J2*
G01*
X210674*
X208174Y122750*
X203941*
G37*
X214826Y121750D02*
G36*
X216326Y120250D01*
X222000*
X225752*
Y122750*
X222000*
Y121750*
X214826*
G37*
X229748Y122750D02*
G36*
Y120250D01*
X235516*
G75*
G02X239984I2234*
G01*
X241250*
Y122750*
X229748*
G37*
X6750Y127750D02*
G36*
Y122750D01*
X23500*
Y127750*
X12484*
G75*
G02X8016I-2234*
G01*
X6750*
G37*
X32000D02*
G36*
Y122750D01*
X76398*
G75*
G02X76200Y124000I3852J1250*
G01*
G75*
G02X78720Y127750I4050*
G01*
X76792*
G75*
G02X76800Y127500I-4047J-253*
G01*
G75*
G02X68700I-4050*
G01*
G75*
G02X68708Y127750I4051J-2*
G01*
X46602*
G75*
G02X38898I-3852J1250*
G01*
X32000*
G37*
X82447D02*
G36*
X81780D01*
G75*
G02X84300Y124000I-1530J-3750*
G01*
G75*
G02X84102Y122750I-4050J0*
G01*
X87447*
X82447Y127750*
G37*
X93054D02*
G36*
X98054Y122750D01*
X114266*
G75*
G02X118734I2234*
G01*
X154000*
Y127750*
X106234*
G75*
G02X101766I-2234*
G01*
X93054*
G37*
X161500D02*
G36*
Y122750D01*
X181220*
G75*
G02X184280I1530J-3750*
G01*
X196441*
Y127750*
X180195*
G75*
G02X180416Y126500I-3429J-1250*
G01*
G75*
G02X173116I-3650*
G01*
G75*
G02X173337Y127750I3650J0*
G01*
X161500*
G37*
X203941D02*
G36*
Y122750D01*
X208174*
X206337Y124587*
G75*
G02X205752Y126000I1414J1413*
G01*
Y127750*
X203941*
G37*
X209748D02*
G36*
Y126828D01*
X213500Y123076*
Y127750*
X209748*
G37*
X222000D02*
G36*
Y122750D01*
X225752*
Y127750*
X222000*
G37*
X229748D02*
G36*
Y122750D01*
X241250*
Y127750*
X229748*
G37*
X6750Y131500D02*
G36*
Y127750D01*
X8016*
G75*
G02X12484I2234*
G01*
X23500*
Y130250*
X32000*
Y127750*
X38898*
G75*
G02X38700Y129000I3852J1250*
G01*
G75*
G02X39564Y131500I4050*
G01*
X6750*
G37*
X46800Y129000D02*
G36*
G75*
G02X46602Y127750I-4050J0D01*
G01*
X68708*
G75*
G02X71384Y131313I4043J-250*
G01*
X71196Y131500*
X45936*
G75*
G02X46800Y129000I-3186J-2500*
G01*
G37*
X76512D02*
G36*
G75*
G02X76792Y127750I-3767J-1501D01*
G01*
X78720*
G75*
G02X81780I1530J-3750*
G01*
X82447*
X81197Y129000*
X76512*
G37*
X89304Y131500D02*
G36*
X93054Y127750D01*
X101766*
G75*
G02X106234I2234*
G01*
X154000*
Y128465*
G75*
G02X153698Y130000I3749J1535*
G01*
G75*
G02X153986Y131500I4052*
G01*
X118352*
G75*
G02X118734Y130250I-1852J-1250*
G01*
G75*
G02X114266I-2234*
G01*
G75*
G02X114648Y131500I2234*
G01*
X89304*
G37*
X161500Y128447D02*
G36*
Y127750D01*
X173337*
G75*
G02X180195I3429J-1250*
G01*
X196441*
Y131500*
X162750*
Y131250*
G75*
G02Y131249I-5013J0*
G01*
G75*
G02X161650Y128596I-3748*
G01*
X161500Y128447*
G37*
X203941Y131500D02*
G36*
Y127750D01*
X205752*
Y131500*
X203941*
G37*
X209748D02*
G36*
Y127750D01*
X213500*
Y130250*
X222000*
Y127750*
X225752*
Y131500*
X209748*
G37*
X229748D02*
G36*
Y127750D01*
X241250*
Y131500*
X239984*
G75*
G02X235516I-2234*
G01*
X229748*
G37*
X6750Y135250D02*
G36*
Y131500D01*
X39564*
G75*
G02X45936I3186J-2500*
G01*
X71196*
X70100Y132596*
G75*
G02X69000Y135249I2648J2653*
G01*
G75*
G02Y135250I5013J0*
G01*
X32000*
Y131750*
X23500*
Y135250*
X6750*
G37*
X85554D02*
G36*
X89304Y131500D01*
X114648*
G75*
G02X118352I1852J-1250*
G01*
X153986*
G75*
G02X155250Y133189I3764J-1500*
G01*
Y135250*
X153436*
G75*
G02X147064I-3186J2500*
G01*
X145936*
G75*
G02X139564I-3186J2501*
G01*
X138436*
G75*
G02X132064I-3186J2501*
G01*
X130936*
G75*
G02X124564I-3186J2500*
G01*
X106234*
G75*
G02X101766I-2234*
G01*
X85554*
G37*
X162750D02*
G36*
Y131500D01*
X196441*
Y135250*
X196425*
G75*
G02X189075I-3675J1702*
G01*
X180167*
G75*
G02X177750Y134450I-2417J3250*
G01*
G75*
G02X175333Y135250J4050*
G01*
X162750*
G37*
X203941D02*
G36*
Y131500D01*
X205752*
Y135250*
X203941*
G37*
X209748D02*
G36*
Y131500D01*
X225752*
Y135250*
X222000*
Y131750*
X213500*
Y135250*
X209748*
G37*
X229748D02*
G36*
Y131500D01*
X235516*
G75*
G02X239984I2234*
G01*
X241250*
Y135250*
X229748*
G37*
X6750Y139000D02*
G36*
Y135250D01*
X23500*
Y139000*
X12484*
G75*
G02X8016I-2234*
G01*
X6750*
G37*
X32000D02*
G36*
Y135250D01*
X69000*
Y139000*
X32000*
G37*
X82030Y136500D02*
G36*
X82750D01*
G75*
G02X85404Y135400I1J-3748*
G01*
X85554Y135250*
X101766*
G75*
G02X106234I2234*
G01*
X124564*
G75*
G02X123700Y137750I3186J2500*
G01*
G75*
G02X123898Y139000I4050J0*
G01*
X118352*
G75*
G02X118734Y137750I-1852J-1250*
G01*
G75*
G02X114266I-2234*
G01*
G75*
G02X114648Y139000I2234*
G01*
X84352*
G75*
G02X82030Y136500I-3852J1250*
G01*
G37*
X131500Y136220D02*
G36*
G75*
G02X130936Y135250I-3750J1530D01*
G01*
X132064*
G75*
G02X131500Y136220I3186J2500*
G01*
G37*
X139000D02*
G36*
G75*
G02X138436Y135250I-3750J1530D01*
G01*
X139564*
G75*
G02X139000Y136220I3186J2500*
G01*
G37*
X146500D02*
G36*
G75*
G02X145936Y135250I-3750J1530D01*
G01*
X147064*
G75*
G02X146500Y136220I3186J2500*
G01*
G37*
X154300Y137750D02*
G36*
G75*
G02X153436Y135250I-4050D01*
G01*
X155250*
Y139000*
X154102*
G75*
G02X154300Y137750I-3852J-1250*
G01*
G37*
X162750Y139000D02*
G36*
Y135250D01*
X175333*
G75*
G02X173700Y138500I2417J3250*
G01*
G75*
G02X173731Y139000I4050J-1*
G01*
X162750*
G37*
X181800Y138500D02*
G36*
G75*
G02X180167Y135250I-4050D01*
G01*
X189075*
G75*
G02X188700Y136952I3674J1702*
G01*
Y136953*
Y136953*
G75*
G02X189256Y139000I4050J0*
G01*
X181769*
G75*
G02X181800Y138500I-4019J-501*
G01*
G37*
X196425Y135250D02*
G36*
X196441D01*
Y135285*
G75*
G02X196425Y135250I-3693J1661*
G01*
G37*
X196244Y139000D02*
G36*
G75*
G02X196441Y138620I-3494J-2048D01*
G01*
Y139000*
X196244*
G37*
X203941D02*
G36*
Y135250D01*
X205752*
Y139000*
X203941*
G37*
X209748D02*
G36*
Y135250D01*
X213500*
Y139000*
X209748*
G37*
X222000D02*
G36*
Y135250D01*
X225752*
Y139000*
X222000*
G37*
X229748D02*
G36*
Y135250D01*
X241250*
Y139000*
X229748*
G37*
X6750Y144000D02*
G36*
Y139000D01*
X8016*
G75*
G02X12484I2234*
G01*
X23500*
Y140250*
X32000*
Y139000*
X69000*
Y144000*
X6750*
G37*
X76500D02*
G36*
Y140884D01*
G75*
G02X78970Y144000I4000J-634*
G01*
X76500*
G37*
X82030D02*
G36*
G75*
G02X84550Y140250I-1530J-3750D01*
G01*
G75*
G02X84352Y139000I-4050J0*
G01*
X114648*
G75*
G02X118352I1852J-1250*
G01*
X123898*
G75*
G02X131500Y139280I3852J-1250*
G01*
G75*
G02X139000I3750J-1530*
G01*
G75*
G02X146500I3750J-1530*
G01*
G75*
G02X154102Y139000I3750J-1530*
G01*
X155250*
Y144000*
X118352*
G75*
G02X114648I-1852J1250*
G01*
X105852*
G75*
G02X106234Y142750I-1852J-1250*
G01*
G75*
G02X101766I-2234*
G01*
G75*
G02X102148Y144000I2234*
G01*
X82030*
G37*
X162750D02*
G36*
Y139000D01*
X173731*
G75*
G02X177750Y142550I4019J-500*
G01*
G75*
G02X181769Y139000J-4050*
G01*
X189256*
G75*
G02X196244I3494J-2047*
G01*
X196441*
Y144000*
X188239*
G75*
G02X187024I-607J2151*
G01*
X177422*
G75*
G02X171698Y143498I-3072J2150*
G01*
X171197Y144000*
X162750*
G37*
X203941D02*
G36*
Y139000D01*
X205752*
Y144000*
X203941*
G37*
X209748D02*
G36*
Y139000D01*
X213500*
Y140250*
X222000*
Y139000*
X225752*
Y144000*
X222000*
Y141750*
X213500*
Y144000*
X209748*
G37*
X229748D02*
G36*
Y139000D01*
X241250*
Y144000*
X239984*
G75*
G02X235516I-2234*
G01*
X229748*
G37*
X6750Y151500D02*
G36*
Y144000D01*
X69000*
Y151500*
X12484*
G75*
G02X8016I-2234*
G01*
X6750*
G37*
X76500D02*
G36*
Y144000D01*
X78970*
G75*
G02X82030I1530J-3750*
G01*
X102148*
G75*
G02X105852I1852J-1250*
G01*
X114648*
G75*
G02X114266Y145250I1852J1250*
G01*
G75*
G02X118734I2234*
G01*
G75*
G02X118352Y144000I-2234*
G01*
X155250*
Y150970*
G75*
G02X155075Y151500I3741J1529*
G01*
X118352*
G75*
G02X114648I-1852J1250*
G01*
X105852*
G75*
G02X106234Y150250I-1852J-1250*
G01*
G75*
G02X101766I-2234*
G01*
G75*
G02X102148Y151500I2234*
G01*
X76500*
G37*
X162750Y150970D02*
G36*
Y144000D01*
X171197*
X165100Y150096*
G75*
G02X164214Y151500I2648J2654*
G01*
X162925*
G75*
G02X162750Y150970I-3920J1000*
G01*
G37*
X174303Y151500D02*
G36*
X177002Y148802D01*
G75*
G02X177523Y148148I-2650J-2650*
G01*
X186632*
G75*
G02X189866Y146150I1000J-1998*
G01*
G75*
G02X188239Y144000I-2234*
G01*
X196441*
Y151500*
X174303*
G37*
X177523Y144152D02*
G36*
G75*
G02X177422Y144000I-3174J1996D01*
G01*
X187024*
G75*
G02X186632Y144152I608J2150*
G01*
X177523*
G37*
X203941Y151500D02*
G36*
Y144000D01*
X205752*
Y151500*
X203941*
G37*
X209748D02*
G36*
Y144000D01*
X213500*
Y150250*
X222000*
Y144000*
X225752*
Y151500*
X209748*
G37*
X229748D02*
G36*
Y144000D01*
X235516*
G75*
G02X239984I2234*
G01*
X241250*
Y151500*
X229748*
G37*
X6750Y154000D02*
G36*
Y151500D01*
X8016*
G75*
G02X12484I2234*
G01*
X69000*
Y154000*
X32000*
Y151750*
X23500*
Y154000*
X6750*
G37*
X76500D02*
G36*
Y151500D01*
X102148*
G75*
G02X105852I1852J-1250*
G01*
X114648*
G75*
G02X114266Y152750I1852J1250*
G01*
G75*
G02X114648Y154000I2234*
G01*
X76500*
G37*
X118734Y152750D02*
G36*
G75*
G02X118352Y151500I-2234D01*
G01*
X155075*
G75*
G02X154950Y152498I3916J998*
G01*
G75*
G02Y152500I4101J1*
G01*
G75*
G02X155238Y154000I4050J0*
G01*
X118352*
G75*
G02X118734Y152750I-1852J-1250*
G01*
G37*
X162762Y154000D02*
G36*
G75*
G02X163050Y152500I-3762J-1500D01*
G01*
G75*
G02Y152499I-4101J0*
G01*
G75*
G02X162925Y151500I-4045J-1*
G01*
X164214*
G75*
G02X164000Y152749I3533J1249*
G01*
G75*
G02Y152750I5013J0*
G01*
Y154000*
X162762*
G37*
X171803D02*
G36*
X174303Y151500D01*
X196441*
Y154000*
X171803*
G37*
X203941D02*
G36*
Y151500D01*
X205752*
Y154000*
X203941*
G37*
X209748D02*
G36*
Y151500D01*
X225752*
Y154000*
X222000*
Y151750*
X213500*
Y154000*
X209748*
G37*
X229748D02*
G36*
Y151500D01*
X241250*
Y154000*
X239984*
G75*
G02X235516I-2234*
G01*
X229748*
G37*
X6750Y157750D02*
G36*
Y154000D01*
X23500*
Y157750*
X6750*
G37*
X32000D02*
G36*
Y154000D01*
X69000*
Y157750*
X32000*
G37*
X76500D02*
G36*
Y154000D01*
X114648*
G75*
G02X118352I1852J-1250*
G01*
X155238*
G75*
G02X162762I3762J-1500*
G01*
X164000*
Y157750*
X106234*
G75*
G02X101766I-2234*
G01*
X76500*
G37*
X171500D02*
G36*
Y154303D01*
X171803Y154000*
X196441*
Y157447*
X196138Y157750*
X171500*
G37*
X203941Y157470D02*
G36*
Y154000D01*
X205752*
Y157750*
X204043*
G75*
G02X203941Y157470I-3848J1251*
G01*
G37*
X209748Y157750D02*
G36*
Y154000D01*
X213500*
Y157750*
X209748*
G37*
X222000D02*
G36*
Y154000D01*
X225752*
Y157750*
X222000*
G37*
X229748D02*
G36*
Y154000D01*
X235516*
G75*
G02X239984I2234*
G01*
X241250*
Y157750*
X229748*
G37*
X6750Y161500D02*
G36*
Y157750D01*
X23500*
Y160250*
X32000*
Y157750*
X69000*
Y161500*
X12484*
G75*
G02X8016I-2234*
G01*
X6750*
G37*
X76500D02*
G36*
Y157750D01*
X101766*
G75*
G02X106234I2234*
G01*
X164000*
Y161500*
X76500*
G37*
X171500D02*
G36*
Y157750D01*
X196138*
X192388Y161500*
X171500*
G37*
X204241Y159000D02*
G36*
G75*
G02X204043Y157750I-4045J-1D01*
G01*
X205752*
Y158172*
X204170Y159754*
G75*
G02X204241Y159000I-3975J-754*
G01*
G37*
X208076Y161500D02*
G36*
X209163Y160413D01*
G75*
G02X209748Y159000I-1414J-1413*
G01*
Y157750*
X213500*
Y160250*
X222000*
Y157750*
X225752*
Y161500*
X208076*
G37*
X229748D02*
G36*
Y157750D01*
X241250*
Y161500*
X229748*
G37*
X6750Y164000D02*
G36*
Y161500D01*
X8016*
G75*
G02X12484I2234*
G01*
X69000*
Y164000*
X32000*
Y161750*
X23500*
Y164000*
X6750*
G37*
X76500D02*
G36*
Y161500D01*
X164000*
Y162947*
X162947Y164000*
X76500*
G37*
X171500D02*
G36*
Y161500D01*
X192388*
X189888Y164000*
X171500*
G37*
X207726Y161850D02*
G36*
X208076Y161500D01*
X225752*
Y164000*
X211078*
G75*
G02X207726Y161850I-3328J1500*
G01*
G37*
X229748Y164000D02*
G36*
Y161500D01*
X241250*
Y164000*
X239984*
G75*
G02X235516I-2234*
G01*
X229748*
G37*
X6750Y170250D02*
G36*
Y164000D01*
X23500*
Y170250*
X12484*
G75*
G02X8016I-2234*
G01*
X6750*
G37*
X32000D02*
G36*
Y164000D01*
X69000*
Y170250*
X46602*
G75*
G02X46800Y169000I-3852J-1250*
G01*
G75*
G02X38700I-4050*
G01*
G75*
G02X38898Y170250I4050J0*
G01*
X32000*
G37*
X76500D02*
G36*
Y164000D01*
X162947*
X156697Y170250*
X76500*
G37*
X171500Y164500D02*
G36*
Y164000D01*
X189888*
X188638Y165250*
X172750*
G75*
G02X171359Y165517I-1J3746*
G01*
G75*
G02X171500Y164500I-3627J-1019*
G01*
G37*
X203674Y170250D02*
G36*
X199326D01*
X204100Y165476*
Y165500*
Y165500*
G75*
G02X205528Y168396I3649*
G01*
X203674Y170250*
G37*
X209748Y169000D02*
G36*
Y168555D01*
G75*
G02X211400Y165500I-1998J-3055*
G01*
G75*
G02X211078Y164000I-3650*
G01*
X225752*
Y170250*
X222000*
Y164750*
X213500*
Y170250*
X209309*
G75*
G02X209748Y169000I-1560J-1250*
G01*
G37*
X229748Y170250D02*
G36*
Y164000D01*
X235516*
G75*
G02X239984I2234*
G01*
X241250*
Y170250*
X229748*
G37*
X6750Y174000D02*
G36*
Y170250D01*
X8016*
G75*
G02X12484I2234*
G01*
X23500*
X32000*
X38898*
G75*
G02X46602I3852J-1250*
G01*
X69000*
Y173697*
X68697Y174000*
X32000*
Y171750*
X23500*
Y174000*
X21272*
G75*
G02X14228I-3522J2000*
G01*
X6750*
G37*
X76500D02*
G36*
Y170250D01*
X156697*
X152947Y174000*
X76500*
G37*
X195576D02*
G36*
X199326Y170250D01*
X203674*
X199924Y174000*
X195576*
G37*
X205576D02*
G36*
X209163Y170413D01*
G75*
G02X209309Y170250I-1413J-1414*
G01*
X213500*
Y173250*
X222000*
Y170250*
X225752*
Y174000*
X205576*
G37*
X229748D02*
G36*
Y170250D01*
X241250*
Y174000*
X239984*
G75*
G02X235516I-2234*
G01*
X229748*
G37*
X6750Y177750D02*
G36*
Y174000D01*
X14228*
G75*
G02X13700Y176000I3522J2000*
G01*
G75*
G02X14098Y177750I4050*
G01*
X12484*
G75*
G02X8016I-2234*
G01*
X6750*
G37*
X21800Y176000D02*
G36*
G75*
G02X21272Y174000I-4050D01*
G01*
X23500*
Y177750*
X21402*
G75*
G02X21800Y176000I-3652J-1750*
G01*
G37*
X32000Y177750D02*
G36*
Y174000D01*
X68697*
X64947Y177750*
X46602*
G75*
G02X38898I-3852J1250*
G01*
X32000*
G37*
X76500Y175250D02*
G36*
Y174000D01*
X152947*
X149197Y177750*
X75545*
G75*
G02X76500Y175251I-2793J-2499*
G01*
G75*
G02Y175250I-4511J0*
G01*
G37*
X176826Y177750D02*
G36*
X178578Y175998D01*
X192747*
G75*
G02X194163Y175413I2J-2000*
G01*
X195576Y174000*
X199924*
X196337Y177587*
G75*
G02X196191Y177750I1413J1414*
G01*
X176826*
G37*
X201826D02*
G36*
X205576Y174000D01*
X225752*
Y177750*
X222000*
Y174750*
X213500*
Y177002*
X212753*
G75*
G02X211337Y177587I-2J2000*
G01*
X211174Y177750*
X201826*
G37*
X229748D02*
G36*
Y174000D01*
X235516*
G75*
G02X239984I2234*
G01*
X241250*
Y177750*
X229748*
G37*
X6750Y184000D02*
G36*
Y177750D01*
X8016*
G75*
G02X12484I2234*
G01*
X14098*
G75*
G02X21402I3652J-1750*
G01*
X23500*
Y180250*
X32000*
Y177750*
X38898*
G75*
G02X38700Y179000I3852J1250*
G01*
G75*
G02X46800I4050*
G01*
G75*
G02X46602Y177750I-4050J0*
G01*
X64947*
X58697Y184000*
X32000*
Y181750*
X23500*
Y184000*
X6750*
G37*
X69304D02*
G36*
X75400Y177904D01*
G75*
G02X75545Y177750I-2648J-2652*
G01*
X149197*
X142947Y184000*
X121800*
G75*
G02X113700I-4050*
G01*
X69304*
G37*
X153553D02*
G36*
X155902Y181652D01*
X158703Y178850*
G75*
G02X158700Y179000I4739J162*
G01*
G75*
G02Y179001I4101J0*
G01*
G75*
G02X159000Y180530I4045*
G01*
Y184000*
X153553*
G37*
X170576D02*
G36*
X176826Y177750D01*
X196191*
G75*
G02X195752Y179000I1560J1250*
G01*
Y184000*
X170576*
G37*
X199748D02*
G36*
Y179828D01*
X201826Y177750*
X211174*
X208497Y180427*
G75*
G02X204100Y184000I-747J3573*
G01*
X199748*
G37*
X211400Y183999D02*
G36*
G75*
G02X211323Y183253I-3648D01*
G01*
X213500Y181076*
Y183250*
X222000*
Y177750*
X225752*
Y184000*
X211400*
G75*
G02Y183999I-3222J0*
G01*
G37*
X229748Y184000D02*
G36*
Y177750D01*
X241250*
Y184000*
X239984*
G75*
G02X235516I-2234*
G01*
X229748*
G37*
X6750Y186500D02*
G36*
Y184000D01*
X23500*
Y186500*
X12484*
G75*
G02X8016I-2234*
G01*
X6750*
G37*
X32000D02*
G36*
Y184000D01*
X58697*
X56197Y186500*
X50436*
G75*
G02X44064I-3186J2500*
G01*
X32000*
G37*
X66803D02*
G36*
X69304Y184000D01*
X113700*
G75*
G02X114564Y186500I4050*
G01*
X66803*
G37*
X120936D02*
G36*
G75*
G02X121800Y184000I-3186J-2500D01*
G01*
X142947*
X140447Y186500*
X120936*
G37*
X151053D02*
G36*
X153553Y184000D01*
X159000*
Y186500*
X151053*
G37*
X169748Y186281D02*
G36*
Y184828D01*
X170576Y184000*
X195752*
Y186500*
X185436*
G75*
G02X179064I-3186J2500*
G01*
X175936*
G75*
G02X169748Y186281I-3186J2500*
G01*
G37*
X199748Y186500D02*
G36*
Y184000D01*
X204100*
G75*
G02X205091Y186500I3650*
G01*
X199748*
G37*
X210409D02*
G36*
G75*
G02X211400Y184000I-2659J-2500D01*
G01*
X225752*
Y186500*
X222000*
Y184750*
X213500*
Y186500*
X210409*
G37*
X229748D02*
G36*
Y184000D01*
X235516*
G75*
G02X239984I2234*
G01*
X241250*
Y186500*
X229748*
G37*
X6750Y189500D02*
G36*
Y186500D01*
X8016*
G75*
G02X12484I2234*
G01*
X23500*
Y189500*
X6750*
G37*
X32000D02*
G36*
Y186500D01*
X44064*
G75*
G02X43200Y189000I3186J2500*
G01*
G75*
G02X43231Y189500I4050J-1*
G01*
X32000*
G37*
X51300Y189000D02*
G36*
G75*
G02X50436Y186500I-4050D01*
G01*
X56197*
X53197Y189500*
X51269*
G75*
G02X51300Y189000I-4019J-501*
G01*
G37*
X63803Y189500D02*
G36*
X66803Y186500D01*
X114564*
G75*
G02X120936I3186J-2500*
G01*
X140447*
X137447Y189500*
X136484*
G75*
G02X132016I-2234*
G01*
X63803*
G37*
X148053D02*
G36*
X151053Y186500D01*
X159000*
Y189500*
X148053*
G37*
X176800Y189000D02*
G36*
G75*
G02X175936Y186500I-4050D01*
G01*
X179064*
G75*
G02X178200Y189000I3186J2500*
G01*
G75*
G02X178231Y189500I4050J-1*
G01*
X176769*
G75*
G02X176800Y189000I-4019J-501*
G01*
G37*
X186300D02*
G36*
G75*
G02X185436Y186500I-4050D01*
G01*
X195752*
Y189500*
X186269*
G75*
G02X186300Y189000I-4019J-501*
G01*
G37*
X199748Y189500D02*
G36*
Y186500D01*
X205091*
G75*
G02X210409I2659J-2500*
G01*
X213500*
Y189500*
X199748*
G37*
X222000D02*
G36*
Y186500D01*
X225752*
Y189500*
X222000*
G37*
X229748D02*
G36*
Y186500D01*
X241250*
Y189500*
X229748*
G37*
X6750Y194000D02*
G36*
Y189500D01*
X23500*
Y190250*
X32000*
Y189500*
X43231*
G75*
G02X45720Y192750I4019J-500*
G01*
X35371*
G75*
G02X33500Y192250I-1871J3252*
G01*
X32000*
Y191750*
X23500*
Y194000*
X12102*
G75*
G02X8398I-1852J1250*
G01*
X6750*
G37*
X49947Y192750D02*
G36*
X48780D01*
G75*
G02X51269Y189500I-1530J-3750*
G01*
X53197*
X49947Y192750*
G37*
X59303Y194000D02*
G36*
X63803Y189500D01*
X132016*
G75*
G02X136484I2234*
G01*
X137447*
X132947Y194000*
X59303*
G37*
X143554D02*
G36*
X148053Y189500D01*
X159000*
Y194000*
X143554*
G37*
X169748D02*
G36*
Y191719D01*
G75*
G02X176769Y189500I3002J-2719*
G01*
X178231*
G75*
G02X186269I4019J-500*
G01*
X195752*
Y194000*
X169748*
G37*
X199748D02*
G36*
Y189500D01*
X213500*
Y193250*
X222000*
Y189500*
X225752*
Y194000*
X199748*
G37*
X229748D02*
G36*
Y189500D01*
X241250*
Y194000*
X239984*
G75*
G02X235516I-2234*
G01*
X229748*
G37*
X6750Y199000D02*
G36*
Y194000D01*
X8398*
G75*
G02X8016Y195250I1852J1250*
G01*
G75*
G02X12484I2234*
G01*
G75*
G02X12102Y194000I-2234*
G01*
X23500*
Y199000*
X6750*
G37*
X55200D02*
G36*
X54304D01*
X55333Y197970*
G75*
G02X55200Y199000I3926J1031*
G01*
G37*
X58220Y195083D02*
G36*
X59303Y194000D01*
X132947*
X131697Y195250*
X97780*
G75*
G02X92200Y199000I-1530J3750*
G01*
X63300*
G75*
G02X58220Y195083I-4050*
G01*
G37*
X138554Y199000D02*
G36*
X143554Y194000D01*
X159000*
Y199000*
X138554*
G37*
X169748D02*
G36*
Y194000D01*
X195752*
Y199000*
X169748*
G37*
X199748D02*
G36*
Y194000D01*
X225752*
Y199000*
X222000*
Y194750*
X213500*
Y199000*
X199748*
G37*
X229748D02*
G36*
Y194000D01*
X235516*
G75*
G02X239984I2234*
G01*
X241250*
Y199000*
X229748*
G37*
X6750Y204000D02*
G36*
Y199000D01*
X23500*
Y200250*
X28244*
X28256*
X32447*
X36197Y204000*
X32000*
Y201750*
X23500*
Y204000*
X12102*
G75*
G02X8398I-1852J1250*
G01*
X6750*
G37*
X44150Y201346D02*
G36*
X43053Y200250D01*
X51500*
G75*
G02X54154Y199150I1J-3748*
G01*
X54304Y199000*
X55200*
G75*
G02X63300I4050*
G01*
X92200*
G75*
G02X97780Y202750I4050*
G01*
X133250*
G75*
G02X135904Y201650I1J-3748*
G01*
X138554Y199000*
X159000*
Y203970*
G75*
G02X158988Y204000I3754J1519*
G01*
X45250*
G75*
G02Y203999I-5013J0*
G01*
G75*
G02X44150Y201346I-3748*
G01*
G37*
X169748Y204000D02*
G36*
Y199000D01*
X195752*
Y204000*
X169748*
G37*
X199748D02*
G36*
Y199000D01*
X213500*
Y203250*
X222000*
Y199000*
X225752*
Y204000*
X199748*
G37*
X229748D02*
G36*
Y199000D01*
X241250*
Y204000*
X239984*
G75*
G02X235516I-2234*
G01*
X229748*
G37*
X6750Y209000D02*
G36*
Y204000D01*
X8398*
G75*
G02X8016Y205250I1852J1250*
G01*
G75*
G02X12484I2234*
G01*
G75*
G02X12102Y204000I-2234*
G01*
X23500*
Y209000*
X6750*
G37*
X32000D02*
G36*
Y204000D01*
X36197*
X37750Y205553*
Y209000*
X32000*
G37*
X45250D02*
G36*
Y204000D01*
X158988*
G75*
G02X158700Y205500I3761J1500*
G01*
G75*
G02X159000Y207030I4049*
G01*
Y209000*
X81800*
G75*
G02X77750Y204950I-4050*
G01*
G75*
G02X73700Y209000J4050*
G01*
X45250*
G37*
X169748D02*
G36*
Y204000D01*
X195752*
Y209000*
X169748*
G37*
X199748D02*
G36*
Y204000D01*
X225752*
Y209000*
X222000*
Y204750*
X213500*
Y209000*
X199748*
G37*
X229748D02*
G36*
Y204000D01*
X235516*
G75*
G02X239984I2234*
G01*
X241250*
Y209000*
X229748*
G37*
X6750Y214000D02*
G36*
Y209000D01*
X23500*
Y210250*
X32000*
Y209000*
X37750*
Y214000*
X32000*
Y211750*
X23500*
Y214000*
X12102*
G75*
G02X8398I-1852J1250*
G01*
X6750*
G37*
X45250D02*
G36*
Y209000D01*
X73700*
G75*
G02X77750Y213050I4050*
G01*
G75*
G02X81800Y209000J-4050*
G01*
X159000*
Y214000*
X145300*
G75*
G02X137200I-4050*
G01*
X45250*
G37*
X169748D02*
G36*
Y209000D01*
X195752*
Y214000*
X169748*
G37*
X199748D02*
G36*
Y209000D01*
X213500*
Y213250*
X222000*
Y209000*
X225752*
Y214000*
X199748*
G37*
X229748D02*
G36*
Y209000D01*
X241250*
Y214000*
X239984*
G75*
G02X235516I-2234*
G01*
X229748*
G37*
X6750Y219000D02*
G36*
Y214000D01*
X8398*
G75*
G02X8016Y215250I1852J1250*
G01*
G75*
G02X12484I2234*
G01*
G75*
G02X12102Y214000I-2234*
G01*
X23500*
Y219000*
X6750*
G37*
X32000D02*
G36*
Y214000D01*
X37750*
Y219000*
X32000*
G37*
X45250D02*
G36*
Y214000D01*
X137200*
G75*
G02X145300I4050*
G01*
X159000*
Y219000*
X156769*
G75*
G02X148731I-4019J500*
G01*
X81800*
G75*
G02X77750Y214950I-4050*
G01*
G75*
G02X73700Y219000J4050*
G01*
X72000*
G75*
G02X63500I-4250*
G01*
X61800*
G75*
G02X57750Y214950I-4050*
G01*
G75*
G02X53700Y219000J4050*
G01*
X45250*
G37*
X169748D02*
G36*
Y214000D01*
X195752*
Y219000*
X169748*
G37*
X199748D02*
G36*
Y214000D01*
X225752*
Y219000*
X222000*
Y214750*
X213500*
Y219000*
X199748*
G37*
X229748D02*
G36*
Y214000D01*
X235516*
G75*
G02X239984I2234*
G01*
X241250*
Y219000*
X229748*
G37*
X6750Y224000D02*
G36*
Y219000D01*
X23500*
Y220250*
X32000*
Y219000*
X37750*
Y224000*
X32000*
Y221750*
X23500*
Y224000*
X12102*
G75*
G02X8398I-1852J1250*
G01*
X6750*
G37*
X45250D02*
G36*
Y219000D01*
X53700*
G75*
G02X57750Y223050I4050*
G01*
G75*
G02X61800Y219000J-4050*
G01*
X63500*
G75*
G02X72000I4250*
G01*
X73700*
G75*
G02X77750Y223050I4050*
G01*
G75*
G02X81800Y219000J-4050*
G01*
X148731*
G75*
G02X148700Y219500I4019J501*
G01*
G75*
G02X156800I4050*
G01*
G75*
G02X156769Y219000I-4050J1*
G01*
X159000*
Y224000*
X45250*
G37*
X169748D02*
G36*
Y219000D01*
X195752*
Y224000*
X169748*
G37*
X199748D02*
G36*
Y219000D01*
X213500*
Y223250*
X222000*
Y219000*
X225752*
Y224000*
X199748*
G37*
X229748D02*
G36*
Y219000D01*
X241250*
Y224000*
X239984*
G75*
G02X235516I-2234*
G01*
X229748*
G37*
X6750Y229000D02*
G36*
Y224000D01*
X8398*
G75*
G02X8016Y225250I1852J1250*
G01*
G75*
G02X12484I2234*
G01*
G75*
G02X12102Y224000I-2234*
G01*
X23500*
Y229000*
X6750*
G37*
X32000D02*
G36*
Y224000D01*
X37750*
Y229000*
X32000*
G37*
X45250D02*
G36*
Y224000D01*
X159000*
Y224947*
X157197Y226750*
X94285*
G75*
G02X91215I-1535J3751*
G01*
X88750*
G75*
G02X86096Y227850I-1J3748*
G01*
X84947Y229000*
X45250*
G37*
X165545D02*
G36*
G75*
G02X165752Y228747I-2769J-2476D01*
G01*
Y229000*
X165545*
G37*
X169748D02*
G36*
Y224000D01*
X195752*
Y229000*
X169748*
G37*
X199748Y228172D02*
G36*
Y224000D01*
X225752*
Y229000*
X222000*
Y224750*
X213500*
Y229000*
X200576*
X199748Y228172*
G37*
X229748Y229000D02*
G36*
Y224000D01*
X235516*
G75*
G02X239984I2234*
G01*
X241250*
Y229000*
X229748*
G37*
X6750Y235250D02*
G36*
Y229000D01*
X23500*
Y230250*
X32000*
Y229000*
X37750*
Y235250*
X12102*
G75*
G02X8398I-1852J1250*
G01*
X6750*
G37*
X45250D02*
G36*
Y229000D01*
X84947*
X78697Y235250*
X69750*
G75*
G02X65750I-2000J3750*
G01*
X45250*
G37*
X89382D02*
G36*
X89303D01*
X89605Y234948*
G75*
G02X89382Y235250I3144J2552*
G01*
G37*
X96117D02*
G36*
G75*
G02X95167Y234250I-3369J2251D01*
G01*
X158750*
G75*
G02X161404Y233150I1J-3748*
G01*
X165400Y229154*
G75*
G02X165545Y229000I-2624J-2629*
G01*
X165752*
Y233172*
X163674Y235250*
X96117*
G37*
X169748Y234000D02*
G36*
Y229000D01*
X195752*
G75*
G02X196337Y230413I1999*
G01*
X201174Y235250*
X169309*
G75*
G02X169748Y234000I-1560J-1250*
G01*
G37*
X206826Y235250D02*
G36*
X200576Y229000D01*
X213500*
Y233250*
X222000*
Y229000*
X225752*
Y235250*
X222000*
Y234750*
X213500*
Y235250*
X206826*
G37*
X229748D02*
G36*
Y229000D01*
X241250*
Y235250*
X239984*
G75*
G02X235516I-2234*
G01*
X229748*
G37*
X6750Y245250D02*
G36*
Y235250D01*
X8398*
G75*
G02X8016Y236500I1852J1250*
G01*
G75*
G02X12484I2234*
G01*
G75*
G02X12102Y235250I-2234*
G01*
X37750*
Y245250*
X12102*
G75*
G02X8398I-1852J1250*
G01*
X6750*
G37*
X45250Y243697D02*
G36*
Y235250D01*
X65750*
G75*
G02X63500Y239000I2000J3750*
G01*
G75*
G02X72000I4250*
G01*
G75*
G02X69750Y235250I-4250*
G01*
X78697*
X68697Y245250*
X46803*
X45250Y243697*
G37*
X88700Y237499D02*
G36*
G75*
G02Y237500I3470J0D01*
G01*
G75*
G02X96800I4050*
G01*
G75*
G02X96117Y235250I-4052J1*
G01*
X163674*
X161922Y237002*
X152753*
G75*
G02X151337Y237587I-2J2000*
G01*
X143674Y245250*
X126602*
G75*
G02X126800Y244000I-3852J-1250*
G01*
G75*
G02X118700I-4050*
G01*
G75*
G02X118898Y245250I4050J0*
G01*
X116402*
G75*
G02X116800Y243500I-3652J-1750*
G01*
G75*
G02X108700I-4050*
G01*
G75*
G02X109098Y245250I4050*
G01*
X79304*
X89303Y235250*
X89382*
G75*
G02X88700Y237499I3366J2249*
G01*
G37*
X149326Y245250D02*
G36*
X153578Y240998D01*
X162747*
G75*
G02X164163Y240413I2J-2000*
G01*
X169163Y235413*
G75*
G02X169309Y235250I-1413J-1414*
G01*
X201174*
X211174Y245250*
X149326*
G37*
X206826Y235250D02*
G36*
X213500D01*
Y241924*
X206826Y235250*
G37*
X216326Y244750D02*
G36*
X214826Y243250D01*
X222000*
Y235250*
X225752*
Y245250*
X222000*
Y244750*
X216326*
G37*
X229748Y245250D02*
G36*
Y235250D01*
X235516*
G75*
G02X239984I2234*
G01*
X241250*
Y245250*
X239984*
G75*
G02X235516I-2234*
G01*
X229748*
G37*
X6750Y254000D02*
G36*
Y245250D01*
X8398*
G75*
G02X8016Y246500I1852J1250*
G01*
G75*
G02X12484I2234*
G01*
G75*
G02X12102Y245250I-2234*
G01*
X37750*
G75*
G02Y245251I4511J1*
G01*
G75*
G02X38850Y247904I3748*
G01*
X43846Y252900*
G75*
G02X46499Y254000I2653J-2648*
G01*
X12102*
G75*
G02X8398I-1852J1250*
G01*
X6750*
G37*
X48053Y246500D02*
G36*
X46803Y245250D01*
X68697*
X67447Y246500*
X48053*
G37*
X69002Y254000D02*
G36*
G75*
G02X71654Y252900I-1J-3748D01*
G01*
X79304Y245250*
X109098*
G75*
G02X116402I3652J-1750*
G01*
X118898*
G75*
G02X126602I3852J-1250*
G01*
X143674*
X143497Y245427*
G75*
G02X139100Y249000I-747J3573*
G01*
G75*
G02X146400I3650*
G01*
G75*
G02Y248999I-3222J0*
G01*
G75*
G02X146323Y248253I-3648*
G01*
X149326Y245250*
X211174*
X213500Y247576*
Y253250*
X220674*
X219924Y254000*
X69002*
G37*
X222000Y251924D02*
G36*
Y245250D01*
X225752*
Y248172*
X222000Y251924*
G37*
X225576Y254000D02*
G36*
X229163Y250413D01*
G75*
G02X229748Y249000I-1414J-1413*
G01*
Y245250*
X235516*
G75*
G02X239984I2234*
G01*
X241250*
Y254000*
X239984*
G75*
G02X235516I-2234*
G01*
X225576*
G37*
X6750Y261500D02*
G36*
Y254000D01*
X8398*
G75*
G02X8016Y255250I1852J1250*
G01*
G75*
G02X12484I2234*
G01*
G75*
G02X12102Y254000I-2234*
G01*
X46499*
G75*
G02X46500I1J-3562*
G01*
X69000*
G75*
G02X69002I1J-3638*
G01*
X219924*
X219174Y254750*
X213500*
Y261500*
X6750*
G37*
X222000D02*
G36*
Y257576D01*
X225576Y254000*
X235516*
G75*
G02X239984I2234*
G01*
X241250*
Y261500*
X239984*
G75*
G02X235516I-2234*
G01*
X222000*
G37*
X6750Y264000D02*
G36*
Y261500D01*
X213500*
Y263250*
X222000*
Y261500*
X235516*
G75*
G02X239984I2234*
G01*
X241250*
Y264000*
X12484*
G75*
G02X8016I-2234*
G01*
X6750*
G37*
Y277750D02*
G36*
Y264000D01*
X8016*
G75*
G02X12484I2234*
G01*
X241250*
Y277750*
X240538*
G75*
G02X222462I-9038J1250*
G01*
X25624*
G75*
G02X7376I-9124*
G01*
X6750*
G37*
Y284000D02*
G36*
Y277750D01*
X7376*
G75*
G02X9853Y284000I9124*
G01*
X6750*
G37*
X23147D02*
G36*
G75*
G02X25624Y277750I-6647J-6250D01*
G01*
X222462*
G75*
G02X222376Y279000I9038J1252*
G01*
G75*
G02X223868Y284000I9125J0*
G01*
X217484*
Y284000*
G75*
G02X215250Y281766I-2234*
G01*
G75*
G02X213016Y284000J2234*
G01*
Y284000*
X207484*
Y284000*
G75*
G02X205250Y281766I-2234*
G01*
G75*
G02X203016Y284000J2234*
G01*
Y284000*
X197484*
Y284000*
G75*
G02X195250Y281766I-2234*
G01*
G75*
G02X193016Y284000J2234*
G01*
Y284000*
X188734*
Y284000*
G75*
G02X186500Y281766I-2234*
G01*
G75*
G02X184266Y284000J2234*
G01*
Y284000*
X177484*
Y284000*
G75*
G02X175250Y281766I-2234*
G01*
G75*
G02X173016Y284000J2234*
G01*
Y284000*
X166234*
Y284000*
G75*
G02X164000Y281766I-2234*
G01*
G75*
G02X161766Y284000J2234*
G01*
Y284000*
X153734*
Y284000*
G75*
G02X151500Y281766I-2234*
G01*
G75*
G02X149266Y284000J2234*
G01*
Y284000*
X143734*
Y284000*
G75*
G02X141500Y281766I-2234*
G01*
G75*
G02X139266Y284000J2234*
G01*
Y284000*
X133734*
Y284000*
G75*
G02X131500Y281766I-2234*
G01*
G75*
G02X129266Y284000J2234*
G01*
Y284000*
X123734*
Y284000*
G75*
G02X121500Y281766I-2234*
G01*
G75*
G02X119266Y284000J2234*
G01*
Y284000*
X113734*
Y284000*
G75*
G02X111500Y281766I-2234*
G01*
G75*
G02X109266Y284000J2234*
G01*
Y284000*
X103734*
Y284000*
G75*
G02X101500Y281766I-2234*
G01*
G75*
G02X99266Y284000J2234*
G01*
Y284000*
X93734*
Y284000*
G75*
G02X91500Y281766I-2234*
G01*
G75*
G02X89266Y284000J2234*
G01*
Y284000*
X83734*
Y284000*
G75*
G02X81500Y281766I-2234*
G01*
G75*
G02X79266Y284000J2234*
G01*
Y284000*
X73734*
Y284000*
G75*
G02X71500Y281766I-2234*
G01*
G75*
G02X69266Y284000J2234*
G01*
Y284000*
X62484*
Y284000*
G75*
G02X60250Y281766I-2234*
G01*
G75*
G02X58016Y284000J2234*
G01*
Y284000*
X52484*
Y284000*
G75*
G02X50250Y281766I-2234*
G01*
G75*
G02X48016Y284000J2234*
G01*
Y284000*
X43734*
Y284000*
G75*
G02X41500Y281766I-2234*
G01*
G75*
G02X39266Y284000J2234*
G01*
Y284000*
X36234*
Y284000*
G75*
G02X34000Y281766I-2234*
G01*
G75*
G02X31766Y284000J2234*
G01*
Y284000*
X23147*
G37*
X240624Y279000D02*
G36*
G75*
G02X240538Y277750I-9124J2D01*
G01*
X241250*
Y284000*
X239132*
G75*
G02X240624Y279000I-7632J-5000*
G01*
G37*
X6750Y287500D02*
G36*
Y284000D01*
X9853*
G75*
G02X23147I6647J-6250*
G01*
X31766*
Y284000*
G75*
G02X34000Y286234I2234*
G01*
G75*
G02X36234Y284000J-2234*
G01*
Y284000*
X39266*
Y284000*
G75*
G02X41500Y286234I2234*
G01*
G75*
G02X43734Y284000J-2234*
G01*
Y284000*
X48016*
Y284000*
G75*
G02X50250Y286234I2234*
G01*
G75*
G02X52484Y284000J-2234*
G01*
Y284000*
X58016*
Y284000*
G75*
G02X60250Y286234I2234*
G01*
G75*
G02X62484Y284000J-2234*
G01*
Y284000*
X69266*
Y284000*
G75*
G02X71500Y286234I2234*
G01*
G75*
G02X73734Y284000J-2234*
G01*
Y284000*
X79266*
Y284000*
G75*
G02X81500Y286234I2234*
G01*
G75*
G02X83734Y284000J-2234*
G01*
Y284000*
X89266*
Y284000*
G75*
G02X91500Y286234I2234*
G01*
G75*
G02X93734Y284000J-2234*
G01*
Y284000*
X99266*
Y284000*
G75*
G02X101500Y286234I2234*
G01*
G75*
G02X103734Y284000J-2234*
G01*
Y284000*
X109266*
Y284000*
G75*
G02X111500Y286234I2234*
G01*
G75*
G02X113734Y284000J-2234*
G01*
Y284000*
X119266*
Y284000*
G75*
G02X121500Y286234I2234*
G01*
G75*
G02X123734Y284000J-2234*
G01*
Y284000*
X129266*
Y284000*
G75*
G02X131500Y286234I2234*
G01*
G75*
G02X133734Y284000J-2234*
G01*
Y284000*
X139266*
Y284000*
G75*
G02X141500Y286234I2234*
G01*
G75*
G02X143734Y284000J-2234*
G01*
Y284000*
X149266*
Y284000*
G75*
G02X151500Y286234I2234*
G01*
G75*
G02X153734Y284000J-2234*
G01*
Y284000*
X161766*
Y284000*
G75*
G02X164000Y286234I2234*
G01*
G75*
G02X166234Y284000J-2234*
G01*
Y284000*
X173016*
Y284000*
G75*
G02X175250Y286234I2234*
G01*
G75*
G02X177484Y284000J-2234*
G01*
Y284000*
X184266*
Y284000*
G75*
G02X186500Y286234I2234*
G01*
G75*
G02X188734Y284000J-2234*
G01*
Y284000*
X193016*
Y284000*
G75*
G02X195250Y286234I2234*
G01*
G75*
G02X197484Y284000J-2234*
G01*
Y284000*
X203016*
Y284000*
G75*
G02X205250Y286234I2234*
G01*
G75*
G02X207484Y284000J-2234*
G01*
Y284000*
X213016*
Y284000*
G75*
G02X215250Y286234I2234*
G01*
G75*
G02X217484Y284000J-2234*
G01*
Y284000*
X223868*
G75*
G02X228184Y287500I7633J-5001*
G01*
X6750*
G37*
X234816D02*
G36*
G75*
G02X239132Y284000I-3316J-8500D01*
G01*
X241250*
Y287500*
X234816*
G37*
D02*
D95*
X15450Y176000D02*
X13450D01*
X17750Y173700D02*
Y171700D01*
Y178300D02*
Y180300D01*
X20050Y176000D02*
X22050D01*
X25250D02*
X23250D01*
X27750Y173500D02*
Y171500D01*
Y178500D02*
Y180500D01*
X30250Y176000D02*
X32250D01*
X40450Y129000D02*
X38450D01*
X40450Y169000D02*
X38450D01*
X40450Y179000D02*
X38450D01*
X42750Y126700D02*
Y124700D01*
Y131300D02*
Y133300D01*
Y166700D02*
Y164700D01*
Y171300D02*
Y173300D01*
Y176700D02*
Y174700D01*
Y181300D02*
Y183300D01*
X45050Y129000D02*
X47050D01*
X45050Y169000D02*
X47050D01*
X45050Y179000D02*
X47050D01*
X45624Y187374D02*
X44209Y185959D01*
X45624Y190626D02*
X44209Y192041D01*
X48876Y187374D02*
X50291Y185959D01*
X48876Y190626D02*
X50291Y192041D01*
X55450Y219000D02*
X53450D01*
X56950Y199000D02*
X54950D01*
X57750Y216700D02*
Y214700D01*
Y221300D02*
Y223300D01*
X59250Y196700D02*
Y194700D01*
Y201300D02*
Y203300D01*
X60050Y219000D02*
X62050D01*
X61550Y199000D02*
X63550D01*
X70450Y127500D02*
X68450D01*
X72750Y125200D02*
Y123200D01*
X75050Y127500D02*
X77050D01*
X75450Y209000D02*
X73450D01*
X75450Y219000D02*
X73450D01*
X77750Y206700D02*
Y204700D01*
Y211300D02*
Y213300D01*
Y216700D02*
Y214700D01*
Y221300D02*
Y223300D01*
X77950Y124000D02*
X75950D01*
X78874Y141876D02*
X77459Y143291D01*
X80050Y209000D02*
X82050D01*
X80050Y219000D02*
X82050D01*
X80250Y121700D02*
Y119700D01*
Y126300D02*
Y128300D01*
X82126Y138624D02*
X83541Y137209D01*
X82126Y141876D02*
X83541Y143291D01*
X82550Y124000D02*
X84550D01*
X90450Y237500D02*
X88450D01*
X92750Y239800D02*
Y241800D01*
X95050Y237500D02*
X97050D01*
X97950Y84287D02*
X95950D01*
X100250Y81987D02*
Y79987D01*
Y86587D02*
Y88587D01*
X102550Y84287D02*
X104550D01*
X110450Y243500D02*
X108450D01*
X112750Y241200D02*
Y239200D01*
Y245800D02*
Y247800D01*
X115050Y243500D02*
X117050D01*
X115450Y184000D02*
X113450D01*
X117750Y181700D02*
Y179700D01*
Y186300D02*
Y188300D01*
X120050Y184000D02*
X122050D01*
X120450Y244000D02*
X118450D01*
X122750Y241700D02*
Y239700D01*
Y246300D02*
Y248300D01*
X124200Y92750D02*
X122200D01*
X125050Y244000D02*
X127050D01*
X126124Y112374D02*
X124709Y110959D01*
X126124Y115626D02*
X124709Y117041D01*
X126124Y136124D02*
X124709Y134709D01*
X126124Y139376D02*
X124709Y140791D01*
X126500Y90450D02*
Y88450D01*
Y95050D02*
Y97050D01*
X128800Y92750D02*
X130800D01*
X129376Y112374D02*
X130791Y110959D01*
X129376Y115626D02*
X130791Y117041D01*
X129376Y136124D02*
X130791Y134709D01*
X129376Y139376D02*
X130791Y140791D01*
X133624Y112374D02*
X132209Y110959D01*
X133624Y115626D02*
X132209Y117041D01*
X133624Y136124D02*
X132209Y134709D01*
X133624Y139376D02*
X132209Y140791D01*
X133766Y189500D02*
X131766D01*
X134250Y189016D02*
Y187016D01*
Y189984D02*
Y191984D01*
X134734Y189500D02*
X136734D01*
X136876Y112374D02*
X138291Y110959D01*
X136876Y115626D02*
X138291Y117041D01*
X136876Y136124D02*
X138291Y134709D01*
X136876Y139376D02*
X138291Y140791D01*
X138950Y214000D02*
X136950D01*
X141124Y112374D02*
X139709Y110959D01*
X141124Y115626D02*
X139709Y117041D01*
X141124Y136124D02*
X139709Y134709D01*
X141124Y139376D02*
X139709Y140791D01*
X141250Y211700D02*
Y209700D01*
Y216300D02*
Y218300D01*
X141700Y101500D02*
X139700D01*
X143550Y214000D02*
X145550D01*
X144000Y99200D02*
Y97200D01*
Y103800D02*
Y105800D01*
X144376Y112374D02*
X145791Y110959D01*
X144376Y115626D02*
X145791Y117041D01*
X144376Y136124D02*
X145791Y134709D01*
X144376Y139376D02*
X145791Y140791D01*
X146300Y101500D02*
X148300D01*
X148624Y136124D02*
X147209Y134709D01*
X148624Y139376D02*
X147209Y140791D01*
X150450Y219500D02*
X148450D01*
X151876Y136124D02*
X153291Y134709D01*
X151876Y139376D02*
X153291Y140791D01*
X152750Y217200D02*
Y215200D01*
Y221800D02*
Y223800D01*
X155050Y219500D02*
X157050D01*
X164000Y115900D02*
Y117900D01*
X170250Y114600D02*
Y112600D01*
Y118400D02*
Y120400D01*
X172150Y116500D02*
X174150D01*
X172750Y186700D02*
Y184700D01*
Y191300D02*
Y193300D01*
X174866Y126500D02*
X172866D01*
X175050Y189000D02*
X177050D01*
X175450Y138500D02*
X173450D01*
X176766Y124600D02*
Y122600D01*
Y128400D02*
Y130400D01*
X177750Y136200D02*
Y134200D01*
Y140800D02*
Y142800D01*
X178666Y126500D02*
X180666D01*
X179950Y189000D02*
X177950D01*
X180050Y138500D02*
X182050D01*
X180450Y119000D02*
X178450D01*
X182250Y186700D02*
Y184700D01*
Y191300D02*
Y193300D01*
X182750Y116700D02*
Y114700D01*
Y121300D02*
Y123300D01*
X184550Y189000D02*
X186550D01*
X185050Y119000D02*
X187050D01*
X191124Y135326D02*
X189709Y133912D01*
X191124Y138579D02*
X189709Y139993D01*
X194376Y135326D02*
X195791Y133912D01*
X194376Y138579D02*
X195791Y139993D01*
X215250Y229000D02*
X213250D01*
X217750Y226500D02*
Y224500D01*
Y231500D02*
Y233500D01*
X220250Y229000D02*
X222250D01*
X0Y0D02*
M02*
