G04 DesignSpark PCB Gerber Version 9.0 Build 5138 *
G04 #@! TF.Part,Single*
G04 #@! TF.FileFunction,Copper,L1,Top *
G04 #@! TF.FilePolarity,Positive *
%FSLAX35Y35*%
%MOIN*%
G04 #@! TA.AperFunction,SMDPad,CuDef*
%ADD21R,0.00787X0.03740*%
%ADD73R,0.02800X0.03500*%
%ADD29R,0.03937X0.04291*%
%ADD75R,0.05500X0.06000*%
G04 #@! TA.AperFunction,ComponentPad*
%ADD74R,0.06000X0.06000*%
G04 #@! TA.AperFunction,SMDPad,CuDef*
%ADD22R,0.16535X0.16535*%
G04 #@! TD.AperFunction*
%ADD94C,0.00500*%
%ADD98C,0.00787*%
%ADD95C,0.01000*%
%ADD102C,0.01181*%
%ADD105C,0.01200*%
%ADD134C,0.01500*%
%ADD99C,0.01575*%
G04 #@! TA.AperFunction,ViaPad*
%ADD14C,0.01969*%
G04 #@! TD.AperFunction*
%ADD107C,0.02000*%
%ADD108C,0.02100*%
%ADD139C,0.02362*%
%ADD12C,0.02500*%
%ADD96C,0.04331*%
G04 #@! TA.AperFunction,ViaPad*
%ADD16C,0.04800*%
G04 #@! TD.AperFunction*
%ADD10C,0.05000*%
G04 #@! TA.AperFunction,ViaPad*
%ADD13C,0.05600*%
G04 #@! TD.AperFunction*
%ADD150C,0.12406*%
G04 #@! TA.AperFunction,SMDPad,CuDef*
%ADD20R,0.03740X0.00787*%
%ADD24R,0.03200X0.01200*%
%ADD72R,0.04291X0.03937*%
%ADD111R,0.04331X0.03937*%
%ADD76R,0.06000X0.05500*%
%ADD23R,0.24603X0.05718*%
X0Y0D02*
D02*
D10*
X62750Y180959D02*
Y190959D01*
X72750Y146209D02*
X66500D01*
X80250Y81459D02*
X74250D01*
X80250Y146209D02*
X72750D01*
X81250Y161209D02*
Y162161D01*
X81500*
Y169364*
X92750Y162459D02*
Y163709D01*
X100250*
X95874Y122293D02*
X96662Y121506D01*
X99024Y123868D02*
X96662Y121506D01*
X99505Y78626D02*
Y71887D01*
Y84617D02*
Y78626D01*
Y91107D02*
Y84617D01*
X106505Y78626D02*
X112116D01*
X106505Y84617D02*
X112241D01*
X106505Y91107D02*
X112365D01*
X118606Y69959D02*
X118605Y62459D01*
X118606Y77459D02*
Y69959D01*
Y84959D02*
Y77459D01*
Y92459D02*
Y84959D01*
X120500Y131506D02*
Y139006D01*
X123162Y109006D02*
Y115256D01*
X125606Y69959D02*
X133356D01*
X125606Y77459D02*
X133356D01*
X125606Y84959D02*
X133356D01*
X125606Y92459D02*
X133356D01*
X130162Y109006D02*
X133162Y121506*
Y115256D01*
X134453*
D02*
D12*
X86500Y144959D02*
Y156209D01*
X83325Y159383*
X88000Y137208D02*
X81750Y143459D01*
Y144709*
X80250Y146209*
X94300Y143709D02*
X92750Y145258D01*
Y162459*
X115412Y109006D02*
X123162D01*
X116500Y123819D02*
Y127506D01*
X120500Y131506*
X122498Y121506D02*
X133162D01*
X146750Y98709D02*
Y101209D01*
X146500*
Y104959*
D02*
D13*
X62750Y190959D03*
X66500Y146209D03*
X74250Y81459D03*
X81500Y169364D03*
X82187Y52863D03*
X91150Y127018D03*
X96662Y121506D03*
X99261Y52863D03*
X99505Y71887D03*
X100250Y163709D03*
X102174Y115994D03*
X112116Y78626D03*
X112241Y84617D03*
X112365Y91107D03*
X118605Y62459D03*
X120500Y139006D03*
X123162Y115256D03*
X130162Y109006D03*
X133356Y69959D03*
Y77459D03*
Y84959D03*
Y92459D03*
X134453Y115256D03*
D02*
D14*
X6139Y255872D03*
X6889Y54372D03*
Y61872D03*
Y69122D03*
Y76872D03*
Y84372D03*
Y91872D03*
Y99372D03*
Y106872D03*
Y114372D03*
Y121872D03*
Y129372D03*
Y136872D03*
Y144372D03*
Y151872D03*
Y159372D03*
Y166872D03*
Y174372D03*
Y181872D03*
Y189372D03*
Y196872D03*
Y204372D03*
Y211872D03*
Y219372D03*
Y226872D03*
Y234372D03*
Y241872D03*
Y249372D03*
X11787Y48247D03*
Y55747D03*
Y63247D03*
Y70747D03*
Y78247D03*
X12025Y109300D03*
X12185Y116289D03*
X12209Y86277D03*
Y93777D03*
Y101277D03*
X12621Y255892D03*
X18639Y48372D03*
Y55872D03*
Y63372D03*
Y70860D03*
X19139Y78224D03*
X19263Y86086D03*
X19513Y93824D03*
Y101437D03*
X19525Y109300D03*
X19685Y116289D03*
X20121Y255892D03*
X26139Y48372D03*
Y55872D03*
Y63372D03*
Y70860D03*
X26639Y78224D03*
X26763Y86086D03*
X27013Y93824D03*
Y101437D03*
X27025Y109300D03*
X27185Y116289D03*
X27621Y255892D03*
X33889Y48872D03*
Y56372D03*
Y63872D03*
Y71360D03*
X34389Y78724D03*
X34513Y86586D03*
X34763Y94324D03*
Y101937D03*
X35121Y255892D03*
X41639Y48622D03*
Y56122D03*
Y63622D03*
Y71122D03*
X42621Y255892D03*
X48639Y76622D03*
X49139Y48622D03*
Y56122D03*
Y63622D03*
Y71122D03*
X50121Y255892D03*
X55639Y76872D03*
X56639Y48622D03*
Y56122D03*
Y63622D03*
Y71122D03*
X57621Y255892D03*
X64139Y48622D03*
Y56122D03*
Y63622D03*
Y71122D03*
X65121Y255892D03*
X71639Y48622D03*
Y56122D03*
Y63622D03*
Y71122D03*
X72621Y255892D03*
X79139Y63122D03*
X80121Y255892D03*
X84389Y70660D03*
X87621Y255892D03*
X88528Y52863D02*
X82187D01*
X92147D02*
X99261D01*
X95121Y255892D03*
X95889Y102872D02*
X98762Y100000D01*
X102621Y255892D03*
X106874Y137750D03*
X108522Y48395D03*
X108657Y56095D03*
X110121Y255892D03*
X112639Y48145D03*
Y55872D03*
X117621Y255892D03*
X119336Y48145D03*
Y55872D03*
X125121Y255892D03*
X125522Y48145D03*
Y55872D03*
X132139Y48530D03*
Y55437D03*
Y62134D03*
X132621Y255892D03*
X139502Y48530D03*
X139639Y55437D03*
Y62134D03*
X140121Y255892D03*
X140696Y116317D03*
X147139Y55437D03*
Y62134D03*
X147240Y48530D03*
X147621Y255892D03*
X149681Y154756D03*
X149931Y142151D03*
Y148017D03*
X154139Y47780D03*
Y54847D03*
Y62347D03*
Y69847D03*
Y77347D03*
Y84847D03*
X155121Y255892D03*
X161639Y54847D03*
Y62347D03*
Y69847D03*
Y77347D03*
Y84847D03*
X161752Y47780D03*
X162621Y255892D03*
X168639Y62122D03*
Y69622D03*
Y77122D03*
Y84622D03*
Y92122D03*
Y99622D03*
Y107122D03*
X168889Y114622D03*
X169014Y54509D03*
X169139Y47021D03*
X170121Y255892D03*
X175389Y114622D03*
X176121Y255892D03*
X176139Y62122D03*
Y69622D03*
Y77122D03*
Y84622D03*
Y92122D03*
Y99622D03*
Y107122D03*
X176514Y54509D03*
X176639Y47021D03*
X180890Y69223D03*
Y76723D03*
Y84223D03*
Y91723D03*
Y99223D03*
Y106723D03*
Y114223D03*
Y121723D03*
X181140Y159825D03*
Y167325D03*
Y174825D03*
Y182325D03*
Y189825D03*
Y197325D03*
Y204825D03*
Y212325D03*
Y219825D03*
Y227325D03*
Y234825D03*
Y242325D03*
Y249825D03*
X181265Y61610D03*
X181389Y54122D03*
X181640Y137325D03*
Y144825D03*
Y152325D03*
X181738Y255917D03*
X181890Y128723D03*
D02*
D16*
X142750Y147459D03*
X146500Y104959D03*
X157750Y116209D03*
X159000Y124959D03*
D02*
D20*
X85244Y112844D03*
Y114419D03*
Y115994D03*
Y117569D03*
Y119144D03*
Y120719D03*
Y122293D03*
Y123868D03*
Y125443D03*
Y127018D03*
Y128593D03*
Y130167D03*
X108079Y112844D03*
Y114419D03*
Y115994D03*
Y117569D03*
Y119144D03*
Y120719D03*
Y122293D03*
Y123868D03*
Y125443D03*
Y127018D03*
Y128593D03*
Y130167D03*
D02*
D21*
X88000Y110089D03*
Y132923D03*
X89575Y110089D03*
Y132923D03*
X91150Y110089D03*
Y132923D03*
X92725Y110089D03*
Y132923D03*
X94300Y110089D03*
Y132923D03*
X95874Y110089D03*
Y132923D03*
X97449Y110089D03*
Y132923D03*
X99024Y110089D03*
Y132923D03*
X100599Y110089D03*
Y132923D03*
X102174Y110089D03*
Y132923D03*
X103748Y110089D03*
Y132923D03*
X105323Y110089D03*
Y132923D03*
D02*
D22*
X96662Y121506D03*
D02*
D23*
X93520Y8885D03*
Y37044D03*
D02*
D24*
X87841Y50678D03*
Y53237D03*
Y55796D03*
X92959Y50678D03*
Y53237D03*
Y55796D03*
D02*
D29*
X52750Y102709D03*
Y109709D03*
X60250Y146459D03*
Y153459D03*
X62750Y103959D03*
Y110959D03*
X67750Y83959D03*
Y90959D03*
X72750Y146209D03*
Y153209D03*
X80250Y74459D03*
Y81459D03*
Y146209D03*
Y153209D03*
X92750Y162459D03*
Y169459D03*
X99074Y149053D03*
Y156053D03*
X112750Y132709D03*
Y139709D03*
D02*
D72*
X41750Y117459D03*
X43000Y83709D03*
X44250Y91209D03*
Y123709D03*
X48750Y117459D03*
X49250Y138709D03*
X50000Y83709D03*
X51250Y91209D03*
Y123709D03*
X56250Y138709D03*
X61912Y97459D03*
X68912D03*
X69412Y110256D03*
X74250Y161209D03*
X76412Y110256D03*
X81250Y161209D03*
X99505Y78626D03*
Y84617D03*
Y91107D03*
X106505Y78626D03*
Y84617D03*
Y91107D03*
X118606Y69959D03*
Y77459D03*
Y84959D03*
Y92459D03*
X120500Y131506D03*
X123162Y109006D03*
X125606Y69959D03*
Y77459D03*
Y84959D03*
Y92459D03*
X127500Y131506D03*
X130162Y109006D03*
X133162Y121506D03*
X140162D03*
X146750Y98709D03*
X153750D03*
D02*
D73*
X87654Y60975D03*
Y66075D03*
X93250Y60975D03*
Y66075D03*
D02*
D74*
X32750Y180959D03*
X34389Y241372D03*
X42750Y180959D03*
X44389Y241372D03*
X52750Y180959D03*
X54389Y241372D03*
X62750Y180959D03*
X64389Y241372D03*
X67250Y219459D03*
X72750Y180959D03*
X74389Y241372D03*
X77250Y219459D03*
X82750Y180959D03*
X84389Y241372D03*
X92750Y180959D03*
X94389Y241372D03*
X102750Y180959D03*
X104389Y241372D03*
X112667Y180959D03*
X114389Y241372D03*
X122667Y180959D03*
X124389Y241372D03*
X132667Y180959D03*
X134389Y241372D03*
X142667Y180959D03*
X144389Y241372D03*
D02*
D75*
X44000Y100459D03*
Y109459D03*
X76662Y93256D03*
Y102256D03*
D02*
D76*
X45750Y131209D03*
X54750D03*
D02*
D94*
X2750Y258709D02*
Y44959D01*
X86534*
Y45179*
G75*
G02X87562Y48827I6986*
G01*
X84990*
Y49939*
G75*
G02X78137Y52863I-2803J2923*
G01*
G75*
G02X84633Y56091I4050*
G01*
Y60975*
G75*
G02X85006Y62430I3022*
G01*
Y69075*
X85381*
Y102459*
G75*
G02X85580Y103536I3022J0*
G01*
X85050Y103006*
Y88709*
G75*
G02X84376Y87082I-2300*
G01*
X83050Y85756*
Y84854*
X83469*
Y83383*
G75*
G02Y79534I-3219J-1924*
G01*
Y78063*
X81841*
G75*
G02X81285Y77854I-1591J3397*
G01*
X83469*
Y71063*
X77031*
Y77709*
X75780*
G75*
G02X70300Y80563I-1530J3750*
G01*
X64531*
Y87354*
X68144*
X68353Y87563*
X64531*
Y94240*
X58518*
Y100677*
X59531*
Y107210*
G75*
G02X59058Y106400I-1781J498*
G01*
X55969Y103311*
Y99313*
X54600*
Y94427*
X54646*
Y87990*
X51850*
Y86927*
X53396*
Y80490*
X46604*
Y86927*
X48150*
Y87990*
X47854*
Y94427*
X50900*
Y99313*
X49531*
Y106104*
X53530*
X53738Y106313*
X49531*
Y107859*
X48000*
Y105209*
X40000*
Y113709*
X48000*
Y111559*
X49531*
Y113104*
X52280*
X53509Y114334*
G75*
G02X53944Y115019I1741J-626*
G01*
X54534Y115609*
X52146*
Y114240*
X45354*
Y120490*
X45146*
Y114240*
X38354*
Y120677*
X40854*
Y126927*
X47646*
Y120677*
X47854*
Y126927*
X53478*
G75*
G02X53474Y126942I1783J524*
G01*
X53396Y127209*
X50500*
Y135209*
X57134*
X56852Y135490*
X52854*
Y141927*
X59646*
Y137929*
X63587Y133988*
Y139388*
X65173*
G75*
G02X64190Y139903I327J1820*
G01*
X61030Y143063*
X57031*
Y149854*
X63469*
Y148894*
G75*
G02X68030Y149959I3031J-2685*
G01*
X69531*
Y156604*
X75969*
Y149959*
X77031*
Y156604*
X82569*
X81689Y157484*
G75*
G02X79326Y157990I-438J3724*
G01*
X77854*
Y159617*
G75*
G02X77646Y160174I3397J1591*
G01*
Y157990*
X70854*
Y164427*
X77646*
Y163196*
G75*
G02X77750Y163508I3606J-1035*
G01*
Y167835*
G75*
G02X78309Y171859I3750J1530*
G01*
X75250*
G75*
G02X73940Y172403J1850*
G01*
X72694Y173648*
G75*
G02X72150Y174959I1306J1310*
G01*
Y176709*
X68500*
Y185209*
X77000*
Y176709*
X75850*
Y175725*
X76016Y175559*
X82747*
G75*
G02X84058Y175017I4J-1850*
G01*
X87808Y171267*
G75*
G02X88350Y169959I-1308J-1308*
G01*
G75*
G02Y169958I-644J0*
G01*
G75*
G02Y169956I-654J-1*
G01*
Y161975*
X89274Y161050*
G75*
G02X89000Y162459I3476J1408*
G01*
Y163709*
G75*
G02X89531Y165633I3750*
G01*
Y165854*
X89674*
G75*
G02X89831Y166063I3076J-2146*
G01*
X89531*
Y172854*
X95969*
Y167459*
X98720*
G75*
G02X104300Y163709I1530J-3750*
G01*
G75*
G02X98720Y159959I-4050*
G01*
X95969*
Y159449*
X102293*
Y152657*
X95856*
Y159063*
X95250*
Y146294*
X95599Y145944*
Y147429*
G75*
G02X95856Y148370I1850*
G01*
Y152449*
X102293*
Y146868*
X112690Y157265*
G75*
G02X114000Y157809I1310J-1306*
G01*
X135984*
X149900Y171725*
Y190204*
X113069Y227826*
G75*
G02X112539Y229122I1320J1296*
G01*
Y237122*
X110140*
Y245622*
X118640*
Y237122*
X116239*
Y229877*
X122650Y223328*
G75*
G02X122539Y223959I1740J630*
G01*
Y237122*
X120140*
Y245622*
X128640*
Y237122*
X126239*
Y224700*
X154650Y194957*
Y196240*
X133025Y219872*
G75*
G02X132539Y221122I1364J1250*
G01*
Y237122*
X130140*
Y245622*
X138640*
Y237122*
X136239*
Y221841*
X157150Y198989*
Y199505*
X143007Y215392*
G75*
G02X142539Y216622I1382J1230*
G01*
Y237122*
X140140*
Y245622*
X148640*
Y237122*
X146239*
Y217326*
X160382Y201439*
G75*
G02X160850Y200209I-1382J-1230*
G01*
Y167212*
G75*
G02Y167209I-663J-1*
G01*
G75*
G02X160308Y165900I-1850J-1*
G01*
X157100Y162693*
Y128075*
G75*
G02X162650Y124959I1900J-3117*
G01*
G75*
G02X158083Y121426I-3650*
G01*
X156144Y119486*
G75*
G02X161400Y116209I1606J-3278*
G01*
G75*
G02X154604Y114359I-3650*
G01*
X153766*
X147783Y108376*
G75*
G02X149000Y102299I-1283J-3417*
G01*
Y102298*
G75*
G02X149144Y101927I-2250J-1089*
G01*
X150146*
Y95490*
X143354*
Y96971*
X117275*
X118075Y96171*
G75*
G02X120530Y95677I530J-3712*
G01*
X122002*
Y94048*
G75*
G02X122106Y93805I-3393J-1590*
G01*
G75*
G02X129330Y92899I3500J-1346*
G01*
G75*
G02X137406Y92459I4026J-441*
G01*
G75*
G02X134886Y88709I-4050*
G01*
G75*
G02X134885Y81209I-1530J-3750*
G01*
G75*
G02X134885Y73709I-1529J-3750*
G01*
G75*
G02X137406Y69959I-1530J-3750*
G01*
G75*
G02X129330Y69518I-4050*
G01*
G75*
G02X122355Y68089I-3724J441*
G01*
Y63988*
G75*
G02X118605Y58409I-3750J-1530*
G01*
G75*
G02X114855Y63988I0J4050*
G01*
Y69959*
G75*
G02X114856Y70013I3751*
G01*
Y75644*
G75*
G02X109102Y75921I-2740J2983*
G01*
G75*
G02X103255Y76756I-2597J2706*
G01*
Y73417*
G75*
G02X103555Y71887I-3750J-1530*
G01*
G75*
G02X95455I-4050*
G01*
G75*
G02X95755Y73417I4050*
G01*
Y91107*
G75*
G02X96108Y92695I3750*
G01*
Y94327*
X96331*
Y97991*
X95419Y98903*
Y69075*
X95900*
Y62428*
G75*
G02X96272Y60975I-2650J-1453*
G01*
Y56087*
G75*
G02X96222Y55539I-3021J0*
G01*
G75*
G02X103311Y52863I3039J-2677*
G01*
G75*
G02X99483Y48819I-4050*
G01*
G75*
G02X100506Y45179I-5964J-3639*
G01*
Y44959*
X185250*
Y258709*
X2750*
X28500Y185209D02*
X37000D01*
Y176709*
X28500*
Y185209*
X30140Y245622D02*
X38640D01*
Y237122*
X30140*
Y245622*
X38500Y185209D02*
X47000D01*
Y176709*
X38500*
Y185209*
X41500Y135209D02*
X50000D01*
Y127209*
X41500*
Y135209*
X45854Y141927D02*
X52646D01*
Y135490*
X45854*
Y141927*
X40140Y245622D02*
X48640D01*
Y237122*
X40140*
Y245622*
X48500Y185209D02*
X57000D01*
Y176709*
X48500*
Y185209*
X50140Y245622D02*
X58640D01*
Y237122*
X50140*
Y245622*
X57031Y156854D02*
X63469D01*
Y150063*
X57031*
Y156854*
X58500Y185209D02*
X67000D01*
Y176709*
X58500*
Y185209*
X58700Y190959D02*
G75*
G02X66800I4050D01*
G01*
G75*
G02X58700I-4050*
G01*
X60140Y245622D02*
X68640D01*
Y237122*
X60140*
Y245622*
X63000Y223709D02*
X71500D01*
Y215209*
X63000*
Y223709*
X70140Y245622D02*
X78640D01*
Y237122*
X70140*
Y245622*
X73000Y223709D02*
X81500D01*
Y215209*
X73000*
Y223709*
X78500Y185209D02*
X87000D01*
Y176709*
X78500*
Y185209*
X80140Y245622D02*
X88640D01*
Y237122*
X80140*
Y245622*
X88500Y185209D02*
X97000D01*
Y176709*
X88500*
Y185209*
X90140Y245622D02*
X98640D01*
Y237122*
X90140*
Y245622*
X98500Y185209D02*
X107000D01*
Y176709*
X98500*
Y185209*
X100140Y245622D02*
X108640D01*
Y237122*
X100140*
Y245622*
X108415Y185209D02*
X116915D01*
Y176709*
X108415*
Y185209*
X39604Y86927D02*
X46396D01*
Y80490*
X39604*
Y86927*
X40000Y104709D02*
X48000D01*
Y96209*
X45850*
Y94427*
X47646*
Y87990*
X40854*
Y94427*
X42150*
Y96209*
X40000*
Y104709*
X118415Y185209D02*
X126915D01*
Y176709*
X118415*
Y185209*
X128415D02*
X136915D01*
Y176709*
X128415*
Y185209*
X138415D02*
X146915D01*
Y176709*
X138415*
Y185209*
X150354Y101927D02*
X157146D01*
Y95490*
X150354*
Y101927*
X3000Y83709D02*
G36*
Y45209D01*
X86534*
G75*
G02X87562Y48827I6983J-29*
G01*
X84990*
Y49939*
G75*
G02X78137Y52863I-2803J2923*
G01*
G75*
G02X84633Y56091I4050*
G01*
Y60975*
G75*
G02X85006Y62430I3025J-1*
G01*
Y69075*
X85381*
Y83709*
X83469*
Y83383*
G75*
G02X84000Y81459I-3218J-1924*
G01*
G75*
G02X83469Y79534I-3750*
G01*
Y78063*
X81841*
G75*
G02X81285Y77854I-1593J3400*
G01*
X83469*
Y71063*
X77031*
Y77709*
X75780*
G75*
G02X70300Y80563I-1530J3750*
G01*
X64531*
Y83709*
X53396*
Y80490*
X46604*
Y83709*
X46396*
Y80490*
X39604*
Y83709*
X3000*
G37*
X95419D02*
G36*
Y69075D01*
X95900*
Y62428*
G75*
G02X96272Y60976I-2649J-1452*
G01*
Y60975*
Y56087*
G75*
G02X96222Y55539I-3045J2*
G01*
G75*
G02X103311Y52863I3039J-2677*
G01*
G75*
G02X99483Y48819I-4050J0*
G01*
G75*
G02X100506Y45209I-5965J-3640*
G01*
X185000*
Y83709*
X137207*
G75*
G02X134885Y81209I-3852J1250*
G01*
G75*
G02X137406Y77459I-1529J-3750*
G01*
G75*
G02X134885Y73709I-4050*
G01*
G75*
G02X137406Y69959I-1530J-3750*
G01*
G75*
G02X129330Y69518I-4050*
G01*
G75*
G02X122355Y68089I-3724J441*
G01*
Y63988*
G75*
G02X122655Y62459I-3750J-1530*
G01*
G75*
G02X118605Y58409I-4050*
G01*
G75*
G02X114555Y62458J4050*
G01*
G75*
G02X114855Y63988I4050J0*
G01*
Y69959*
G75*
G02Y69972I1902J7*
G01*
G75*
G02X114856Y70013I1866J2*
G01*
Y75644*
G75*
G02X109102Y75921I-2740J2983*
G01*
G75*
G02X103255Y76756I-2597J2705*
G01*
Y73417*
G75*
G02X103555Y71889I-3741J-1528*
G01*
G75*
G02Y71887I-4101J-1*
G01*
G75*
G02X95455I-4050*
G01*
G75*
G02Y71888I4101J0*
G01*
G75*
G02X95755Y73417I4045*
G01*
Y83709*
X95419*
G37*
X3000Y96349D02*
G36*
Y83709D01*
X39604*
Y86927*
X46396*
Y83709*
X46604*
Y86927*
X48150*
Y87990*
X47854*
Y94427*
X50900*
Y96349*
X48000*
Y96209*
X45850*
Y94427*
X47646*
Y87990*
X40854*
Y94427*
X42150*
Y96209*
X40000*
Y96349*
X3000*
G37*
X51850Y87990D02*
G36*
Y86927D01*
X53396*
Y83709*
X64531*
Y87354*
X68144*
X68353Y87563*
X64531*
Y94240*
X58518*
Y96349*
X54600*
Y94427*
X54646*
Y87990*
X51850*
G37*
X83050Y85756D02*
G36*
Y84854D01*
X83469*
Y83709*
X85381*
Y96349*
X85050*
Y88709*
G75*
G02X84376Y87082I-2301J0*
G01*
X83050Y85756*
G37*
X95419Y96349D02*
G36*
Y83709D01*
X95755*
Y91107*
G75*
G02X96108Y92695I3750*
G01*
Y94327*
X96331*
Y96349*
X95419*
G37*
X117897D02*
G36*
X118075Y96171D01*
G75*
G02X120530Y95677I531J-3711*
G01*
X122002*
Y94048*
G75*
G02X122106Y93805I-3319J-1558*
G01*
G75*
G02X129330Y92899I3500J-1346*
G01*
G75*
G02X132230Y96349I4026J-441*
G01*
X117897*
G37*
X137406Y92459D02*
G36*
G75*
G02X134886Y88709I-4051J1D01*
G01*
G75*
G02X137406Y84959I-1530J-3750*
G01*
G75*
G02X137207Y83709I-4051J0*
G01*
X185000*
Y96349*
X157146*
Y95490*
X150354*
Y96349*
X150146*
Y95490*
X143354*
Y96349*
X134481*
G75*
G02X137406Y92459I-1126J-3891*
G01*
G37*
X3000Y131209D02*
G36*
Y96349D01*
X40000*
Y104709*
X48000*
Y96349*
X50900*
Y99313*
X49531*
Y106104*
X53530*
X53738Y106313*
X49531*
Y107859*
X48000*
Y105209*
X40000*
Y113709*
X48000*
Y111559*
X49531*
Y113104*
X52280*
X53509Y114334*
G75*
G02X53944Y115019I1739J-625*
G01*
X54534Y115609*
X52146*
Y114240*
X45354*
Y120490*
X45146*
Y114240*
X38354*
Y120677*
X40854*
Y126927*
X47646*
Y120677*
X47854*
Y126927*
X53478*
G75*
G02X53474Y126942I152J52*
G01*
X53396Y127209*
X50500*
Y131209*
X50000*
Y127209*
X41500*
Y131209*
X3000*
G37*
X54600Y99313D02*
G36*
Y96349D01*
X58518*
Y100677*
X59531*
Y107210*
G75*
G02X59058Y106400I-1787J502*
G01*
X55969Y103311*
Y99313*
X54600*
G37*
X85050Y103006D02*
G36*
Y96349D01*
X85381*
Y102459*
G75*
G02X85580Y103536I3026J0*
G01*
X85050Y103006*
G37*
X95419Y98903D02*
G36*
Y96349D01*
X96331*
Y97991*
X95419Y98903*
G37*
X117275Y96971D02*
G36*
X117897Y96349D01*
X132230*
G75*
G02X134481I1126J-3891*
G01*
X143354*
Y96971*
X117275*
G37*
X149000Y102299D02*
G36*
Y102298D01*
G75*
G02X149144Y101927I-2277J-1100*
G01*
X150146*
Y96349*
X150354*
Y101927*
X157146*
Y96349*
X185000*
Y131209*
X157100*
Y128075*
G75*
G02X162650Y124959I1900J-3117*
G01*
G75*
G02X158083Y121426I-3650*
G01*
X156144Y119486*
G75*
G02X161400Y116209I1606J-3278*
G01*
G75*
G02X154604Y114359I-3650J0*
G01*
X153766*
X147783Y108376*
G75*
G02X150150Y104959I-1283J-3417*
G01*
G75*
G02X149000Y102299I-3650*
G01*
G37*
X3000Y138709D02*
G36*
Y131209D01*
X41500*
Y135209*
X50000*
Y131209*
X50500*
Y135209*
X57134*
X56852Y135490*
X52854*
Y138709*
X52646*
Y135490*
X45854*
Y138709*
X3000*
G37*
X59646D02*
G36*
Y137929D01*
X63587Y133988*
Y138709*
X59646*
G37*
X157100D02*
G36*
Y131209D01*
X185000*
Y138709*
X157100*
G37*
X3000Y153459D02*
G36*
Y138709D01*
X45854*
Y141927*
X52646*
Y138709*
X52854*
Y141927*
X59646*
Y138709*
X63587*
Y139388*
X65173*
G75*
G02X64190Y139903I326J1818*
G01*
X61030Y143063*
X57031*
Y149854*
X63469*
Y148894*
G75*
G02X68030Y149959I3031J-2685*
G01*
X69531*
Y153459*
X63469*
Y150063*
X57031*
Y153459*
X3000*
G37*
X75969D02*
G36*
Y149959D01*
X77031*
Y153459*
X75969*
G37*
X95250D02*
G36*
Y146294D01*
X95599Y145944*
Y147429*
G75*
G02Y147430I2148J0*
G01*
G75*
G02X95856Y148370I1848*
G01*
Y152449*
X102293*
Y146868*
X108884Y153459*
X102293*
Y152657*
X95856*
Y153459*
X95250*
G37*
X157100D02*
G36*
Y138709D01*
X185000*
Y153459*
X157100*
G37*
X3000Y180959D02*
G36*
Y153459D01*
X57031*
Y156854*
X63469*
Y153459*
X69531*
Y156604*
X75969*
Y153459*
X77031*
Y156604*
X82569*
X81689Y157484*
G75*
G02X79326Y157990I-438J3726*
G01*
X77854*
Y159617*
G75*
G02X77646Y160174I3400J1593*
G01*
Y157990*
X70854*
Y164427*
X77646*
Y163196*
G75*
G02X77750Y163508I3719J-1072*
G01*
Y167835*
G75*
G02X77450Y169364I3749J1530*
G01*
G75*
G02X78309Y171859I4050*
G01*
X75250*
G75*
G02X73940Y172403I0J1848*
G01*
X72694Y173648*
G75*
G02X72150Y174958I1304J1309*
G01*
G75*
G02Y174959I2506J0*
G01*
Y176709*
X68500*
Y180959*
X67000*
Y176709*
X58500*
Y180959*
X57000*
Y176709*
X48500*
Y180959*
X47000*
Y176709*
X38500*
Y180959*
X37000*
Y176709*
X28500*
Y180959*
X3000*
G37*
X75850Y176709D02*
G36*
Y175725D01*
X76016Y175559*
X82747*
G75*
G02X84058Y175017I4J-1850*
G01*
X87808Y171267*
G75*
G02X88350Y169959I-1311J-1309*
G01*
Y169958*
Y169956*
Y161975*
X89274Y161050*
G75*
G02X89000Y162459I3480J1409*
G01*
Y163709*
G75*
G02X89531Y165633I3754J-1*
G01*
Y165854*
X89674*
G75*
G02X89831Y166063I3059J-2133*
G01*
X89531*
Y172854*
X95969*
Y167459*
X98720*
G75*
G02X104300Y163709I1530J-3750*
G01*
G75*
G02X98720Y159959I-4050*
G01*
X95969*
Y159449*
X102293*
Y153459*
X108884*
X112690Y157265*
G75*
G02X114000Y157809I1310J-1304*
G01*
X135984*
X149900Y171725*
Y180959*
X146915*
Y176709*
X138415*
Y180959*
X136915*
Y176709*
X128415*
Y180959*
X126915*
Y176709*
X118415*
Y180959*
X116915*
Y176709*
X108415*
Y180959*
X107000*
Y176709*
X98500*
Y180959*
X97000*
Y176709*
X88500*
Y180959*
X87000*
Y176709*
X78500*
Y180959*
X77000*
Y176709*
X75850*
G37*
X95250Y159063D02*
G36*
Y153459D01*
X95856*
Y159063*
X95250*
G37*
X157100Y162693D02*
G36*
Y153459D01*
X185000*
Y180959*
X160850*
Y167212*
Y167209*
Y167209*
G75*
G02X160308Y165900I-1853J1*
G01*
X157100Y162693*
G37*
X3000Y190959D02*
G36*
Y180959D01*
X28500*
Y185209*
X37000*
Y180959*
X38500*
Y185209*
X47000*
Y180959*
X48500*
Y185209*
X57000*
Y180959*
X58500*
Y185209*
X67000*
Y180959*
X68500*
Y185209*
X77000*
Y180959*
X78500*
Y185209*
X87000*
Y180959*
X88500*
Y185209*
X97000*
Y180959*
X98500*
Y185209*
X107000*
Y180959*
X108415*
Y185209*
X116915*
Y180959*
X118415*
Y185209*
X126915*
Y180959*
X128415*
Y185209*
X136915*
Y180959*
X138415*
Y185209*
X146915*
Y180959*
X149900*
Y190204*
X149161Y190959*
X66800*
G75*
G02X58700I-4050*
G01*
X3000*
G37*
X160850D02*
G36*
Y180959D01*
X185000*
Y190959*
X160850*
G37*
X3000Y219459D02*
G36*
Y190959D01*
X58700*
G75*
G02X66800I4050*
G01*
X149161*
X121261Y219459*
X81500*
Y215209*
X73000*
Y219459*
X71500*
Y215209*
X63000*
Y219459*
X3000*
G37*
X133404D02*
G36*
X131246D01*
X154650Y194957*
Y196240*
X133404Y219459*
G37*
X142539Y216622D02*
G36*
Y216622D01*
Y219459*
X138419*
X157150Y198989*
Y199505*
X143007Y215392*
G75*
G02X142539Y216622I1381J1230*
G01*
G37*
X146239Y219459D02*
G36*
Y217326D01*
X160382Y201439*
G75*
G02X160850Y200209I-1381J-1230*
G01*
Y200209*
Y190959*
X185000*
Y219459*
X146239*
G37*
X3000Y241372D02*
G36*
Y219459D01*
X63000*
Y223709*
X71500*
Y219459*
X73000*
Y223709*
X81500*
Y219459*
X121261*
X113069Y227826*
G75*
G02X112539Y229121I1319J1295*
G01*
G75*
G02Y229122I2051J0*
G01*
Y237122*
X110140*
Y241372*
X108640*
Y237122*
X100140*
Y241372*
X98640*
Y237122*
X90140*
Y241372*
X88640*
Y237122*
X80140*
Y241372*
X78640*
Y237122*
X70140*
Y241372*
X68640*
Y237122*
X60140*
Y241372*
X58640*
Y237122*
X50140*
Y241372*
X48640*
Y237122*
X40140*
Y241372*
X38640*
Y237122*
X30140*
Y241372*
X3000*
G37*
X116239Y237122D02*
G36*
Y229877D01*
X122650Y223328*
G75*
G02X122539Y223959I1745J631*
G01*
Y237122*
X120140*
Y241372*
X118640*
Y237122*
X116239*
G37*
X126239D02*
G36*
Y224700D01*
X131246Y219459*
X133404*
X133025Y219872*
G75*
G02X132539Y221121I1362J1249*
G01*
G75*
G02Y221122I1671J0*
G01*
Y237122*
X130140*
Y241372*
X128640*
Y237122*
X126239*
G37*
X136239D02*
G36*
Y221841D01*
X138419Y219459*
X142539*
Y237122*
X140140*
Y241372*
X138640*
Y237122*
X136239*
G37*
X146239D02*
G36*
Y219459D01*
X185000*
Y241372*
X148640*
Y237122*
X146239*
G37*
X3000Y258459D02*
G36*
Y241372D01*
X30140*
Y245622*
X38640*
Y241372*
X40140*
Y245622*
X48640*
Y241372*
X50140*
Y245622*
X58640*
Y241372*
X60140*
Y245622*
X68640*
Y241372*
X70140*
Y245622*
X78640*
Y241372*
X80140*
Y245622*
X88640*
Y241372*
X90140*
Y245622*
X98640*
Y241372*
X100140*
Y245622*
X108640*
Y241372*
X110140*
Y245622*
X118640*
Y241372*
X120140*
Y245622*
X128640*
Y241372*
X130140*
Y245622*
X138640*
Y241372*
X140140*
Y245622*
X148640*
Y241372*
X185000*
Y258459*
X3000*
G37*
X59000Y127209D02*
X58116D01*
X59607Y125718*
X69916*
X67604Y128030*
X63587*
Y129402*
G75*
G02X62400Y129942I124J1846*
G01*
X59000Y133343*
Y127209*
G36*
X58116*
X59607Y125718*
X69916*
X67604Y128030*
X63587*
Y129402*
G75*
G02X62400Y129942I124J1846*
G01*
X59000Y133343*
Y127209*
G37*
X69116Y142459D02*
X72155Y139388D01*
X76913*
Y136762*
G75*
G02X77810Y136265I-413J-1803*
G01*
X79056Y135019*
G75*
G02X79600Y133709I-1306J-1310*
G01*
Y133225*
X82124Y130701*
Y131811*
X86356*
Y132075*
G75*
G02X86150Y132923I1644J848*
G01*
Y135523*
X79982Y141691*
G75*
G02X79459Y142459I1768J1768*
G01*
X69116*
G36*
X72155Y139388*
X76913*
Y136762*
G75*
G02X77810Y136265I-413J-1803*
G01*
X79056Y135019*
G75*
G02X79600Y133709I-1306J-1310*
G01*
Y133225*
X82124Y130701*
Y131811*
X86356*
Y132075*
G75*
G02X86150Y132923I1644J848*
G01*
Y135523*
X79982Y141691*
G75*
G02X79459Y142459I1768J1768*
G01*
X69116*
G37*
X78262Y107037D02*
Y106506D01*
X80663*
Y104926*
G75*
G02X81124Y105585I2087J-967*
G01*
X83124Y107585*
G75*
G02X84752Y108259I1626J-1626*
G01*
X86356*
Y111201*
X86093*
G75*
G02X85244Y110994I-849J1643*
G01*
X79809*
Y107037*
X78262*
G36*
Y106506*
X80663*
Y104926*
G75*
G02X81124Y105585I2087J-967*
G01*
X83124Y107585*
G75*
G02X84752Y108259I1626J-1626*
G01*
X86356*
Y111201*
X86093*
G75*
G02X85244Y110994I-849J1643*
G01*
X79809*
Y107037*
X78262*
G37*
X106967Y135517D02*
Y131811D01*
X109531*
Y136104*
X115969*
Y130510*
X116756Y131297*
G75*
G02X116750Y131506I3745J210*
G01*
Y137476*
G75*
G02X116450Y139006I3750J1530*
G01*
G75*
G02X124550I4050*
G01*
G75*
G02X124250Y137476I-4050*
G01*
Y134724*
X130896*
Y128287*
X124104*
Y130471*
G75*
G02X123896Y129915I-3606J1035*
G01*
Y128287*
X122424*
G75*
G02X120291Y127762I-1924J3219*
G01*
X119000Y126470*
Y123825*
X122440Y127265*
G75*
G02X123750Y127809I1310J-1306*
G01*
X131984*
X140900Y136725*
Y144312*
G75*
G02X140350Y150209I1850J3146*
G01*
G75*
G02X139750Y150109I-600J1750*
G01*
X117440*
X110435Y143104*
X115969*
Y136313*
X109531*
Y142200*
X107278Y139947*
G75*
G02X106967Y135517I-404J-2197*
G01*
G36*
Y131811*
X109531*
Y136104*
X115969*
Y130510*
X116756Y131297*
G75*
G02X116750Y131506I3745J210*
G01*
Y137476*
G75*
G02X116450Y139006I3750J1530*
G01*
G75*
G02X124550I4050*
G01*
G75*
G02X124250Y137476I-4050*
G01*
Y134724*
X130896*
Y128287*
X124104*
Y130471*
G75*
G02X123896Y129915I-3606J1035*
G01*
Y128287*
X122424*
G75*
G02X120291Y127762I-1924J3219*
G01*
X119000Y126470*
Y123825*
X122440Y127265*
G75*
G02X123750Y127809I1310J-1306*
G01*
X131984*
X140900Y136725*
Y144312*
G75*
G02X140350Y150209I1850J3146*
G01*
G75*
G02X139750Y150109I-600J1750*
G01*
X117440*
X110435Y143104*
X115969*
Y136313*
X109531*
Y142200*
X107278Y139947*
G75*
G02X106967Y135517I-404J-2197*
G01*
G37*
X134439Y125031D02*
G75*
G02X135086Y124724I-1277J-3525D01*
G01*
X136557*
Y123098*
G75*
G02X136766Y122542I-3397J-1592*
G01*
Y124724*
X143557*
Y118287*
X141749*
G75*
G02X142922Y116498I-1053J-1970*
G01*
X153400Y126975*
Y162993*
X141144Y150736*
G75*
G02X144600Y144312I1606J-3278*
G01*
Y135962*
G75*
G02Y135959I-663J-1*
G01*
G75*
G02X144058Y134650I-1850J-1*
G01*
X134439Y125031*
X149681Y156991D02*
G75*
G02X151916Y154756J-2234D01*
G01*
G75*
G02X149681Y152522I-2234*
G01*
G75*
G02X147447Y154756J2234*
G01*
G75*
G02X149681Y156991I2234*
G01*
X149931Y144385D02*
G75*
G02X152165Y142151J-2234D01*
G01*
G75*
G02X149931Y139917I-2234*
G01*
G75*
G02X147697Y142151J2234*
G01*
G75*
G02X149931Y144385I2234*
G01*
Y150251D02*
G75*
G02X152165Y148017J-2234D01*
G01*
G75*
G02X149931Y145783I-2234*
G01*
G75*
G02X147697Y148017J2234*
G01*
G75*
G02X149931Y150251I2234*
G01*
X134689Y125281D02*
G36*
Y124930D01*
G75*
G02X135086Y124724I-1539J-3452*
G01*
X136557*
Y123098*
G75*
G02X136766Y122542I-3374J-1584*
G01*
Y124724*
X143557*
Y118287*
X141749*
G75*
G02X142888Y116748I-1054J-1971*
G01*
X143172*
X153150Y126725*
Y142151*
X152165*
Y142151*
G75*
G02X149931Y139917I-2234*
G01*
G75*
G02X147697Y142151J2234*
G01*
Y142151*
X144600*
Y135962*
Y135959*
Y135959*
G75*
G02X144058Y134650I-1853J1*
G01*
X134689Y125281*
G37*
X144600Y144312D02*
G36*
Y142151D01*
X147697*
Y142152*
G75*
G02X149931Y144385I2234*
G01*
G75*
G02X152165Y142152J-2234*
G01*
Y142151*
X153150*
Y148017*
X152165*
Y148017*
G75*
G02X149931Y145783I-2234*
G01*
G75*
G02X147697Y148017J2234*
G01*
Y148017*
X146357*
G75*
G02X146400Y147459I-3606J-561*
G01*
G75*
G02X144600Y144312I-3650*
G01*
G37*
X145164Y154756D02*
G36*
X141144Y150736D01*
G75*
G02X146357Y148017I1606J-3278*
G01*
X147697*
Y148017*
G75*
G02X149931Y150251I2234*
G01*
G75*
G02X152165Y148017J-2234*
G01*
Y148017*
X153150*
Y154756*
X151916*
Y154756*
G75*
G02X149681Y152522I-2234*
G01*
G75*
G02X147447Y154756J2234*
G01*
Y154756*
X145164*
G37*
G36*
X147447*
Y154757*
G75*
G02X149681Y156991I2234*
G01*
G75*
G02X151916Y154757J-2234*
G01*
Y154756*
X153150*
Y162743*
X145164Y154756*
G37*
D02*
D95*
X40135Y115844D02*
X38281Y113990D01*
X40135Y119074D02*
X38281Y120927D01*
X41385Y82094D02*
X39531Y80240D01*
X41385Y85324D02*
X39531Y87177D01*
X42604Y123709D02*
X40604D01*
X43250Y131209D02*
X41250D01*
X43365Y115844D02*
X45219Y113990D01*
X44615Y82094D02*
X46469Y80240D01*
X44615Y85324D02*
X46469Y87177D01*
X47604Y138709D02*
X45604D01*
X48250Y131209D02*
X50250D01*
X49250Y140177D02*
Y142177D01*
X58635Y151844D02*
X56781Y149990D01*
X58635Y155074D02*
X56781Y156927D01*
X60250Y180959D02*
X58250D01*
X60266Y97459D02*
X58266D01*
X60450Y190959D02*
X58450D01*
X61281Y103959D02*
X59281D01*
X61865Y151844D02*
X63719Y149990D01*
X61865Y155074D02*
X63719Y156927D01*
X61912Y95990D02*
Y93990D01*
X62750Y178459D02*
Y176459D01*
Y183459D02*
Y185459D01*
Y188659D02*
Y186659D01*
Y193259D02*
Y195259D01*
X65050Y190959D02*
X67050D01*
X65250Y180959D02*
X67250D01*
X65337Y136169D02*
X63337D01*
X71281Y153209D02*
X69281D01*
X72604Y161209D02*
X70604D01*
X72750Y154854D02*
Y156854D01*
X74219Y153209D02*
X76219D01*
X74250Y159740D02*
Y157740D01*
Y162677D02*
Y164677D01*
X78781Y74459D02*
X76781D01*
X78781Y153209D02*
X76781D01*
X79887Y52863D02*
X77887D01*
X80250Y72813D02*
Y70813D01*
Y154854D02*
Y156854D01*
X81719Y74459D02*
X83719D01*
X82187Y50563D02*
Y48563D01*
Y55163D02*
Y57163D01*
X91281Y169459D02*
X89281D01*
X92750Y171104D02*
Y173104D01*
X94219Y169459D02*
X96219D01*
X97459Y154438D02*
X95604Y152584D01*
X99261Y55163D02*
Y57163D01*
X100689Y154438D02*
X102541Y152585D01*
X100689Y157668D02*
X102541Y159521D01*
X101561Y52863D02*
X103561D01*
X106505Y77158D02*
Y74626D01*
X111281Y139709D02*
X109281D01*
X112116Y76326D02*
Y74326D01*
X112750Y141354D02*
Y143354D01*
X114219Y139709D02*
X116219D01*
X123991Y68344D02*
X122777Y67130D01*
X123991Y94074D02*
X122777Y95287D01*
X127220Y68344D02*
X128434Y67130D01*
X127220Y94074D02*
X128434Y95287D01*
X127500Y132974D02*
Y134974D01*
X129146Y131506D02*
X131146D01*
X131729Y68332D02*
X130315Y66918D01*
X131729Y94085D02*
X130315Y95499D01*
X134982Y68332D02*
X136396Y66918D01*
X134982Y71585D02*
X136396Y72999D01*
X134982Y75832D02*
X136396Y74418D01*
X134982Y79085D02*
X136396Y80499D01*
X134982Y83333D02*
X136396Y81919D01*
X134982Y86585D02*
X136396Y88000D01*
X134982Y90832D02*
X136396Y89418D01*
X134982Y94085D02*
X136396Y95499D01*
X138547Y123121D02*
X136693Y124974D01*
X141777Y119891D02*
X143630Y118037D01*
X141777Y123121D02*
X143630Y124974D01*
X152135Y97094D02*
X150281Y95240D01*
X152135Y100324D02*
X150281Y102177D01*
X155365Y97094D02*
X157219Y95240D01*
X155365Y100324D02*
X157219Y102177D01*
D02*
D96*
X87654Y60975D02*
X87889D01*
Y55983*
Y101787D02*
Y66075D01*
X92639Y100872D02*
Y66075D01*
X93250Y60975D02*
X92639D01*
Y56087*
D02*
D98*
X87841Y53237D02*
X88528D01*
Y52863*
X92959Y53237D02*
X92147D01*
Y52863*
D02*
D99*
X87889Y55983D02*
X87841Y55934D01*
Y55796*
D02*
D102*
X84639Y74622D03*
Y78122D03*
Y80872D03*
Y83872D03*
Y86622D03*
Y89372D03*
Y92122D03*
Y95372D03*
Y98372D03*
Y101122D03*
X96139Y75122D03*
Y77622D03*
Y80122D03*
Y83372D03*
Y86122D03*
Y88872D03*
Y91872D03*
Y94622D03*
Y97372D03*
D02*
D105*
X44000Y100459D02*
Y91459D01*
X44250Y91209*
X50000Y83709D02*
Y89959D01*
X51250Y91209*
X52750Y102709D02*
Y92709D01*
X51250Y91209*
X52750Y109709D02*
X44250D01*
X44000Y109459*
X67002Y131248D02*
X63711D01*
X56250Y138709*
X67750Y83959D02*
Y84344D01*
X76662Y93256*
X68912Y97459D02*
Y92120D01*
X67750Y90959*
X69412Y110256D02*
Y97959D01*
X68912Y97459*
X73498Y136169D02*
X72750D01*
X71539Y137380*
Y137419*
X67750Y141209*
X65500*
X60250Y146459*
X73498Y136169D02*
X74709Y134959D01*
X76500*
X77750Y133709*
Y132459*
X83191Y127018*
X85244*
X76412Y110256D02*
Y102506D01*
X76662Y102256*
X83325Y159383D02*
X82878D01*
X81250Y161011*
Y161209*
X85244Y112844D02*
X79000D01*
X76412Y110256*
X85244Y114419D02*
X73325D01*
X69162Y110256*
X69412*
X85244Y115994D02*
X67785D01*
X62750Y110959*
X85244Y117569D02*
X62860D01*
X57750Y112459*
Y107709*
X52750Y102709*
X85244Y119144D02*
X60685D01*
X55250Y113709*
Y113459*
X52750Y110959*
Y109709*
X85244Y120719D02*
X59162D01*
X55902Y117459*
X48750*
X85244Y122293D02*
X56662D01*
X55246Y123709*
X51250*
X85244Y123868D02*
X61500D01*
X58841*
X55250Y127459*
X54159Y131209*
X54750*
X85244Y125443D02*
X72807D01*
X67002Y131248*
X87889Y66075D02*
X87654D01*
X88000Y132923D02*
Y137208D01*
X89575Y132923D02*
X90250D01*
Y141209*
X86500Y144959*
X91150Y110089D02*
Y107859D01*
X89250Y105959*
X91150Y132923D02*
Y127018D01*
X92639Y56087D02*
X92930Y55796D01*
X92959*
X92639Y66075D02*
X93250D01*
X92725Y110089D02*
Y106622D01*
X87889Y101787*
X92725Y132923D02*
Y141234D01*
X90250Y143709*
Y157459*
X86500Y161209*
Y169959*
X82750Y173709*
X75250*
X74000Y174959*
Y179709*
X72750Y180959*
X92959Y50678D02*
Y44805D01*
X91648*
X93520Y45179*
Y40936D02*
X96498Y40204D01*
X93520*
Y37044*
X94300Y110089D02*
X94139D01*
Y102372*
X92639Y100872*
X94300Y132923D02*
Y143709D01*
X95874Y110089D02*
X95889D01*
Y102872*
X95874Y132923D02*
Y122293D01*
X97449Y110089D02*
Y105259D01*
Y132923D02*
Y147429D01*
X99074Y149053*
X98762Y91850D02*
X99505Y91107D01*
X99024Y110089D02*
Y106209D01*
X106412Y98821*
X146750*
Y98709*
X102174Y110089D02*
Y115994D01*
X103748Y110089D02*
Y107459D01*
X108248Y102959*
X137000*
X159000Y124959*
X108079Y112844D02*
X111573D01*
X115412Y109006*
X108079Y114419D02*
X115412D01*
X108079Y115994D02*
X113785D01*
X123750Y125959*
X132750*
X142750Y135959*
Y147459*
X108079Y117569D02*
X110250D01*
X116500Y123819*
X108079Y122293D02*
X110085D01*
X112750Y124959*
Y132709*
X108079Y123868D02*
X99024D01*
X114389Y241372D02*
Y229122D01*
X151750Y190959*
Y170959*
X136750Y155959*
X114000*
X99024Y140983*
Y132923*
X124389Y241372D02*
Y223959D01*
X154000Y192959*
Y169959*
X138000Y153959*
X115250*
X100599Y139307*
Y132923*
X134389Y241372D02*
Y221122D01*
X156500Y196959*
Y168709*
X139750Y151959*
X116674*
X102174Y137459*
Y132923*
X144389Y241372D02*
Y216622D01*
X159000Y200209*
Y167209*
X155250Y163459*
Y126209*
X134000Y104959*
X109073*
X105323Y108709*
Y110089*
X157750Y116209D02*
X153000D01*
X137750Y100959*
X107099*
X100599Y107459*
Y110089*
D02*
D107*
X106500Y96209D02*
X114856D01*
X118606Y92459*
D02*
D108*
X89250Y105959D02*
X84750D01*
X82750Y103959*
Y88709*
X80750Y86709*
Y81959*
X80250Y81459*
X115412Y114419D02*
X122498Y121506D01*
D02*
D111*
X67002Y131248D03*
Y136169D03*
X73498Y131248D03*
Y136169D03*
D02*
D134*
X97449Y105259D02*
X106500Y96209D01*
D02*
D139*
X98762Y100000D02*
Y91850D01*
D02*
D150*
X93520Y45179D02*
Y40936D01*
X0Y0D02*
M02*
