G04 DesignSpark PCB Gerber Version 9.0 Build 5138 *
G04 #@! TF.Part,Single*
G04 #@! TF.FileFunction,Copper,L2,Bot *
G04 #@! TF.FilePolarity,Positive *
%FSLAX35Y35*%
%MOIN*%
G04 #@! TA.AperFunction,ComponentPad*
%ADD27R,0.06000X0.06000*%
G04 #@! TD.AperFunction*
%ADD71C,0.00500*%
%ADD20C,0.01000*%
%ADD24C,0.01200*%
G04 #@! TA.AperFunction,WasherPad*
%ADD25C,0.01969*%
G04 #@! TA.AperFunction,ViaPad*
%ADD23C,0.04800*%
G04 #@! TD.AperFunction*
%ADD21C,0.05000*%
G04 #@! TA.AperFunction,ViaPad*
%ADD22C,0.05600*%
X0Y0D02*
D02*
D71*
X4000Y259959D02*
Y43709D01*
X184502*
Y259959*
X4000*
X138203Y116785D02*
G75*
G02X133483Y111324I-3750J-1530D01*
G01*
G75*
G02X126913Y106587I-3321J-2318*
G01*
Y104150*
G75*
G02X125815Y101497I-3750*
G01*
X121980Y97665*
Y64697*
G75*
G02X116457Y59026I-3375J-2239*
G01*
X113991*
G75*
G02X111336Y60124I-3J3750*
G01*
X103324Y68136*
X101032*
G75*
G02X95455Y71887I-1527J3751*
G01*
G75*
G02X101038Y75636I4050*
G01*
X104874*
G75*
G02X107529Y74537I3J-3750*
G01*
X114480Y67586*
Y75338*
G75*
G02X109454Y81678I-2365J3288*
G01*
G75*
G02X109881Y87908I2787J2939*
G01*
G75*
G02X114480Y94561I2485J3198*
G01*
Y99219*
G75*
G02X115579Y101871I3750*
G01*
X119413Y105704*
Y113722*
G75*
G02X124691Y119006I3748J1533*
G01*
X130703*
Y123500*
X118930Y135272*
G75*
G02X116494Y138411I1570J3733*
G01*
X112447Y142459*
X68030*
G75*
G02X64970I-1530J3750*
G01*
X60553*
X54000Y135906*
Y126512*
X76900Y103613*
G75*
G02X78000Y100959I-2650J-2654*
G01*
Y82988*
G75*
G02X78300Y81459I-3750J-1530*
G01*
G75*
G02X70200I-4050*
G01*
G75*
G02X70500Y82988I4050*
G01*
Y99406*
X47600Y122305*
G75*
G02X46500Y124959I2650J2654*
G01*
Y137459*
G75*
G02X47600Y140113I3750*
G01*
X56346Y148858*
G75*
G02X59000Y149959I2654J-2650*
G01*
X64970*
G75*
G02X68030I1530J-3750*
G01*
X77750*
Y165614*
X25844*
G75*
G02X23191Y166715J3750*
G01*
X17600Y172305*
G75*
G02X16500Y174959I2650J2654*
G01*
Y209909*
G75*
G02X15500Y212459I2750J2550*
G01*
Y222622*
G75*
G02X16600Y225276I3750*
G01*
X25096Y233772*
G75*
G02X27750Y234872I2654J-2650*
G01*
X59533*
X60639Y235978*
Y237122*
X60140*
Y245622*
X68640*
Y237122*
X68139*
Y234425*
G75*
G02X67039Y231771I-3750*
G01*
X63741Y228472*
G75*
G02X61087Y227372I-2654J2650*
G01*
X29303*
X23000Y221069*
Y215008*
G75*
G02X24000Y212459I-2750J-2550*
G01*
Y176512*
X27398Y173114*
X79970*
G75*
G02X85250Y167835I1530J-3750*
G01*
Y149959*
X114000*
G75*
G02X116654Y148858J-3750*
G01*
X123150Y142363*
G75*
G02X124013Y141022I-2650J-2654*
G01*
G75*
G02X124233Y140576I-3511J-2016*
G01*
X137102Y127707*
G75*
G02X138203Y125053I-2650J-2654*
G01*
Y116785*
X63000Y223709D02*
X71500D01*
Y215209*
X63000*
Y223709*
X68500Y185209D02*
X77000D01*
Y176709*
X68500*
Y185209*
X38500D02*
X47000D01*
Y176709*
X38500*
Y185209*
X48500D02*
X57000D01*
Y176709*
X48500*
Y185209*
X58500D02*
X67000D01*
Y176709*
X58500*
Y185209*
X58700Y190959D02*
G75*
G02X66800I4050D01*
G01*
G75*
G02X58700I-4050*
G01*
X28500Y185209D02*
X37000D01*
Y176709*
X28500*
Y185209*
X129306Y92459D02*
G75*
G02X137406I4050D01*
G01*
G75*
G02X134886Y88709I-4050*
G01*
G75*
G02X134885Y81209I-1530J-3750*
G01*
G75*
G02X134885Y73709I-1529J-3750*
G01*
G75*
G02X137406Y69959I-1530J-3750*
G01*
G75*
G02X129306I-4050*
G01*
G75*
G02X131826Y73709I4050*
G01*
G75*
G02X131826Y81209I1530J3750*
G01*
G75*
G02X131825Y88709I1529J3750*
G01*
G75*
G02X129306Y92459I1530J3750*
G01*
X100196Y119529D02*
G75*
G02X106224Y115994I1977J-3535D01*
G01*
G75*
G02X98124I-4050*
G01*
G75*
G02X98639Y117971I4050*
G01*
G75*
G02X93127Y123483I-1978J3534*
G01*
G75*
G02X87100Y127018I-1977J3535*
G01*
G75*
G02X95200I4050*
G01*
G75*
G02X94685Y125041I-4050*
G01*
G75*
G02X100196Y119529I1977J-3535*
G01*
X95211Y52863D02*
G75*
G02X103311I4050D01*
G01*
G75*
G02X95211I-4050*
G01*
X106874Y139984D02*
G75*
G02X109108Y137750J-2234D01*
G01*
G75*
G02X106874Y135515I-2234*
G01*
G75*
G02X104640Y137750J2234*
G01*
G75*
G02X106874Y139984I2234*
G01*
X78137Y52863D02*
G75*
G02X86237I4050D01*
G01*
G75*
G02X78137I-4050*
G01*
X30140Y245622D02*
X38640D01*
Y237122*
X30140*
Y245622*
X40140D02*
X48640D01*
Y237122*
X40140*
Y245622*
X50140D02*
X58640D01*
Y237122*
X50140*
Y245622*
X70140D02*
X78640D01*
Y237122*
X70140*
Y245622*
X73000Y223709D02*
X81500D01*
Y215209*
X73000*
Y223709*
X78500Y185209D02*
X87000D01*
Y176709*
X78500*
Y185209*
X80140Y245622D02*
X88640D01*
Y237122*
X80140*
Y245622*
X88500Y185209D02*
X97000D01*
Y176709*
X88500*
Y185209*
X158083Y128492D02*
G75*
G02X162650Y124959I917J-3533D01*
G01*
G75*
G02X159016Y121309I-3650*
G01*
X159056Y121269*
G75*
G02X159600Y119959I-1306J-1310*
G01*
Y119355*
G75*
G02X161400Y116209I-1850J-3146*
G01*
G75*
G02X154100I-3650*
G01*
G75*
G02X155799Y119293I3650*
G01*
X151500Y123593*
Y104959*
G75*
G02X147750Y101209I-3750*
G01*
X146500*
G75*
G02X144000Y107754I0J3750*
G01*
Y122156*
X106197Y159959*
X101780*
G75*
G02X96200Y163709I-1530J3750*
G01*
G75*
G02X101780Y167459I4050*
G01*
X107634*
X101444Y173648*
G75*
G02X100900Y174959I1306J1310*
G01*
Y176709*
X98500*
Y185209*
X107000*
Y176709*
X104600*
Y175725*
X155350Y124975*
G75*
G02X155467Y125875I3650J-16*
G01*
X111444Y169898*
G75*
G02X110900Y171209I1306J1310*
G01*
Y176709*
X108415*
Y185209*
X116915*
Y176709*
X114600*
Y171975*
X139100Y147475*
G75*
G02X140900Y150605I3650J-16*
G01*
Y176709*
X138415*
Y185209*
X146915*
Y176709*
X144600*
Y150605*
G75*
G02X142766Y143809I-1850J-3146*
G01*
X158083Y128492*
X140696Y118551D02*
G75*
G02X142930Y116317J-2234D01*
G01*
G75*
G02X140696Y114083I-2234*
G01*
G75*
G02X138461Y116317J2234*
G01*
G75*
G02X140696Y118551I2234*
G01*
X90140Y245622D02*
X98640D01*
Y237122*
X90140*
Y245622*
X100140D02*
X108640D01*
Y237122*
X100140*
Y245622*
X110140D02*
X118640D01*
Y237122*
X110140*
Y245622*
X118415Y185209D02*
X126915D01*
Y176709*
X118415*
Y185209*
X120140Y245622D02*
X128640D01*
Y237122*
X120140*
Y245622*
X128415Y185209D02*
X136915D01*
Y176709*
X128415*
Y185209*
X130140Y245622D02*
X138640D01*
Y237122*
X130140*
Y245622*
X140140D02*
X148640D01*
Y237122*
X140140*
Y245622*
X149681Y156991D02*
G75*
G02X151916Y154756J-2234D01*
G01*
G75*
G02X149681Y152522I-2234*
G01*
G75*
G02X147447Y154756J2234*
G01*
G75*
G02X149681Y156991I2234*
G01*
X149931Y144385D02*
G75*
G02X152165Y142151J-2234D01*
G01*
G75*
G02X149931Y139917I-2234*
G01*
G75*
G02X147697Y142151J2234*
G01*
G75*
G02X149931Y144385I2234*
G01*
Y150251D02*
G75*
G02X152165Y148017J-2234D01*
G01*
G75*
G02X149931Y145783I-2234*
G01*
G75*
G02X147697Y148017J2234*
G01*
G75*
G02X149931Y150251I2234*
G01*
X4250Y52863D02*
G36*
Y43959D01*
X184252*
Y52863*
X103311*
G75*
G02X95211I-4050*
G01*
X86237*
G75*
G02X78137I-4050*
G01*
X4250*
G37*
Y81209D02*
G36*
Y52863D01*
X78137*
G75*
G02X86237I4050*
G01*
X95211*
G75*
G02X103311I4050*
G01*
X184252*
Y81209*
X134885*
G75*
G02X137406Y77459I-1530J-3750*
G01*
G75*
G02X134885Y73709I-4050*
G01*
G75*
G02X137406Y69959I-1530J-3750*
G01*
G75*
G02X129306I-4050*
G01*
G75*
G02X131826Y73709I4050*
G01*
G75*
G02X129306Y77459I1530J3750*
G01*
G75*
G02X131826Y81209I4050*
G01*
X121980*
Y64697*
G75*
G02X122655Y62459I-3375J-2239*
G01*
G75*
G02X116457Y59026I-4050*
G01*
X113991*
G75*
G02X111336Y60124I-4J3748*
G01*
X103324Y68136*
X101032*
G75*
G02X95455Y71887I-1527J3751*
G01*
G75*
G02X101038Y75636I4050*
G01*
X104874*
G75*
G02X107529Y74537I4J-3748*
G01*
X114480Y67586*
Y75338*
G75*
G02X108066Y78626I-2365J3288*
G01*
G75*
G02X108996Y81209I4050*
G01*
X78292*
G75*
G02X70208I-4042J250*
G01*
X4250*
G37*
Y116317D02*
G36*
Y81209D01*
X70208*
G75*
G02X70200Y81459I4042J252*
G01*
G75*
G02X70500Y82988I4045J1*
G01*
Y99406*
X53589Y116317*
X4250*
G37*
X64195D02*
G36*
X76900Y103613D01*
G75*
G02X78000Y100960I-2648J-2653*
G01*
G75*
G02Y100959I-4511J0*
G01*
Y82988*
G75*
G02X78300Y81460I-3741J-1528*
G01*
G75*
G02Y81459I-4101J-1*
G01*
G75*
G02X78292Y81209I-4050J2*
G01*
X108996*
G75*
G02X109454Y81678I3120J-2584*
G01*
G75*
G02X108191Y84617I2787J2939*
G01*
G75*
G02X109881Y87908I4050*
G01*
G75*
G02X108315Y91107I2485J3198*
G01*
G75*
G02X114480Y94561I4050*
G01*
Y99219*
Y99219*
G75*
G02X115579Y101871I3750*
G01*
X119413Y105704*
Y113722*
G75*
G02X119112Y115256I3748J1533*
G01*
G75*
G02X119253Y116317I4050J0*
G01*
X106211*
G75*
G02X106224Y115994I-4035J-324*
G01*
Y115994*
G75*
G02X98124I-4050*
G01*
G75*
G02X98137Y116317I4054J-2*
G01*
X64195*
G37*
X121980Y97665D02*
G36*
Y81209D01*
X131826*
G75*
G02X129306Y84959I1530J3751*
G01*
G75*
G02X131825Y88709I4050*
G01*
G75*
G02X129306Y92459I1531J3750*
G01*
G75*
G02X137406I4050*
G01*
G75*
G02X134886Y88709I-4051J1*
G01*
G75*
G02X137406Y84959I-1530J-3750*
G01*
G75*
G02X134885Y81209I-4050*
G01*
X184252Y81209*
Y116317*
X161398*
G75*
G02X161400Y116209I-3650J-107*
G01*
G75*
G02X154100I-3650*
G01*
G75*
G02X154102Y116317I3652J1*
G01*
X151500*
Y104959*
G75*
G02X147750Y101209I-3750*
G01*
X146500*
G75*
G02X142750Y104959J3750*
G01*
G75*
G02X144000Y107754I3750*
G01*
Y116317*
X142930*
Y116317*
G75*
G02X140696Y114083I-2234*
G01*
G75*
G02X138461Y116317J2234*
G01*
Y116317*
X138361*
G75*
G02X138503Y115256I-3909J-1062*
G01*
G75*
G02X133483Y111324I-4050*
G01*
G75*
G02X134212Y109006I-3322J-2318*
G01*
G75*
G02X126913Y106587I-4050*
G01*
Y104150*
Y104149*
G75*
G02X125815Y101497I-3750*
G01*
X121980Y97665*
G37*
X4250Y121506D02*
G36*
Y116317D01*
X53589*
X48400Y121506*
X4250*
G37*
X59006D02*
G36*
X64195Y116317D01*
X98137*
G75*
G02X98639Y117971I4041J-324*
G01*
G75*
G02X92612Y121506I-1977J3534*
G01*
Y121506*
X59006*
G37*
X100712D02*
G36*
G75*
G02X100196Y119529I-4050D01*
G01*
G75*
G02X106211Y116317I1977J-3534*
G01*
X119253*
G75*
G02X124691Y119006I3909J-1061*
G01*
X130703*
Y121506*
X100712*
G37*
X138203D02*
G36*
Y116785D01*
G75*
G02X138361Y116317I-3751J-1528*
G01*
X138461*
Y116317*
G75*
G02X140696Y118551I2234*
G01*
G75*
G02X142930Y116317J-2234*
G01*
Y116317*
X144000*
Y121506*
X138203*
G37*
X151500D02*
G36*
Y116317D01*
X154102*
G75*
G02X155799Y119293I3648J-108*
G01*
X153587Y121506*
X151500*
G37*
X159016Y121309D02*
G36*
X159056Y121269D01*
G75*
G02X159600Y119959I-1304J-1309*
G01*
Y119355*
G75*
G02X161398Y116317I-1850J-3146*
G01*
X184252*
Y121506*
X160183*
G75*
G02X159016Y121309I-1184J3453*
G01*
G37*
X4250Y137750D02*
G36*
Y121506D01*
X48400*
X47600Y122305*
G75*
G02X46500Y124958I2648J2653*
G01*
G75*
G02Y124959I5013J0*
G01*
Y137459*
G75*
G02Y137460I4511J1*
G01*
G75*
G02X46511Y137750I3746J-2*
G01*
X4250*
G37*
X54000Y135906D02*
G36*
Y126512D01*
X59006Y121506*
X92612*
G75*
G02X93127Y123483I4050*
G01*
G75*
G02X87100Y127017I-1977J3534*
G01*
Y127018*
G75*
G02X95200I4050*
G01*
G75*
G02X94685Y125041I-4054J1*
G01*
G75*
G02X100712Y121506I1977J-3535*
G01*
X130703*
Y123500*
X118930Y135272*
G75*
G02X116650Y137750I1569J3733*
G01*
X109108*
Y137749*
G75*
G02X106874Y135515I-2234*
G01*
G75*
G02X104640Y137749J2234*
G01*
Y137750*
X55844*
X54000Y135906*
G37*
X128406Y137750D02*
G36*
X127060D01*
X137102Y127707*
G75*
G02X138203Y125054I-2648J-2653*
G01*
G75*
G02Y125053I-4511J0*
G01*
Y121506*
X144000*
Y122156*
X128406Y137750*
G37*
X143593D02*
G36*
X142575D01*
X155350Y124975*
G75*
G02X155467Y125875I3643J-15*
G01*
X143593Y137750*
G37*
X151500Y123593D02*
G36*
Y121506D01*
X153587*
X151500Y123593*
G37*
X148825Y137750D02*
G36*
X158083Y128492D01*
G75*
G02X162650Y124959I917J-3533*
G01*
G75*
G02X160183Y121506I-3650J0*
G01*
X184252*
Y137750*
X148825*
G37*
X4250Y142151D02*
G36*
Y137750D01*
X46511*
G75*
G02X47600Y140113I3737J-290*
G01*
X49639Y142151*
X4250*
G37*
X60246D02*
G36*
X55844Y137750D01*
X104640*
Y137750*
G75*
G02X106874Y139984I2234*
G01*
G75*
G02X109108Y137750J-2234*
G01*
Y137750*
X116650*
G75*
G02X116494Y138411I3850J1256*
G01*
X112754Y142151*
X60246*
G37*
X124004D02*
G36*
X123346D01*
G75*
G02X124013Y141022I-2849J-2444*
G01*
G75*
G02X124233Y140576I-3510J-2015*
G01*
X127060Y137750*
X128406*
X124004Y142151*
G37*
X139191D02*
G36*
X138174D01*
X142575Y137750*
X143593*
X139191Y142151*
G37*
X147697Y142151D02*
G36*
Y142151D01*
X144424*
X148825Y137750*
X184252*
Y142151*
X152165*
Y142151*
G75*
G02X149931Y139917I-2234*
G01*
G75*
G02X147697Y142151J2234*
G01*
G37*
X4250Y148017D02*
G36*
Y142151D01*
X49639*
X55505Y148017*
X4250*
G37*
X60553Y142459D02*
G36*
X60246Y142151D01*
X112754*
X112447Y142459*
X68030*
G75*
G02X64970I-1530J3749*
G01*
X60553*
G37*
X118139Y148017D02*
G36*
X117495D01*
X123150Y142363*
G75*
G02X123346Y142151I-2653J-2657*
G01*
X124004*
X118139Y148017*
G37*
X133326D02*
G36*
X132308D01*
X138174Y142151*
X139191*
X133326Y148017*
G37*
X138558D02*
G36*
X139100Y147475D01*
G75*
G02X139143Y148017I3651J-16*
G01*
X138558*
G37*
X142766Y143809D02*
G36*
X144424Y142151D01*
X147697*
Y142152*
G75*
G02X149931Y144385I2234*
G01*
G75*
G02X152165Y142152J-2234*
G01*
Y142151*
X184252*
Y148017*
X152165*
Y148017*
G75*
G02X149931Y145783I-2234*
G01*
G75*
G02X147697Y148017J2234*
G01*
Y148017*
X146357*
G75*
G02X146400Y147459I-3607J-558*
G01*
G75*
G02X142766Y143809I-3650*
G01*
G37*
X4250Y152015D02*
G36*
Y148017D01*
X55505*
X56346Y148858*
G75*
G02X59000Y149959I2653J-2648*
G01*
X64970*
G75*
G02X68030I1530J-3749*
G01*
X77750*
Y152015*
X4250*
G37*
X85250D02*
G36*
Y149959D01*
X114000*
G75*
G02X116654Y148858I1J-3748*
G01*
X117495Y148017*
X118139*
X114140Y152015*
X85250*
G37*
X129327D02*
G36*
X128309D01*
X132308Y148017*
X133326*
X129327Y152015*
G37*
X134559D02*
G36*
X138558Y148017D01*
X139143*
G75*
G02X140900Y150605I3608J-559*
G01*
Y152015*
X134559*
G37*
X144600D02*
G36*
Y150605D01*
G75*
G02X146357Y148017I-1850J-3146*
G01*
X147697*
Y148017*
G75*
G02X149931Y150251I2234*
G01*
G75*
G02X152165Y148017J-2234*
G01*
Y148017*
X184252*
Y152015*
X144600*
G37*
X4250Y154756D02*
G36*
Y152015D01*
X77750*
Y154756*
X4250*
G37*
X85250D02*
G36*
Y152015D01*
X114140*
X111399Y154756*
X85250*
G37*
X126586D02*
G36*
X125569D01*
X128309Y152015*
X129327*
X126586Y154756*
G37*
X131819D02*
G36*
X134559Y152015D01*
X140900*
Y154756*
X131819*
G37*
X144600D02*
G36*
Y152015D01*
X184252*
Y154756*
X151916*
Y154756*
G75*
G02X149681Y152522I-2234*
G01*
G75*
G02X147447Y154756J2234*
G01*
Y154756*
X144600*
G37*
X4250Y180959D02*
G36*
Y154756D01*
X77750*
Y165614*
X25844*
G75*
G02X23191Y166715I-1J3748*
G01*
X17600Y172305*
G75*
G02X16500Y174958I2648J2653*
G01*
G75*
G02Y174959I5013J0*
G01*
Y180959*
X4250*
G37*
X24000D02*
G36*
Y176512D01*
X27398Y173114*
X79970*
G75*
G02X85550Y169364I1530J-3750*
G01*
G75*
G02X85250Y167835I-4050*
G01*
Y154756*
X111399*
X106197Y159959*
X101780*
G75*
G02X96200Y163709I-1530J3750*
G01*
G75*
G02X101780Y167459I4050*
G01*
X107634*
X101444Y173648*
G75*
G02X100900Y174958I1304J1309*
G01*
G75*
G02Y174959I2506J0*
G01*
Y176709*
X98500*
Y180959*
X97000*
Y176709*
X88500*
Y180959*
X87000*
Y176709*
X78500*
Y180959*
X77000*
Y176709*
X68500*
Y180959*
X67000*
Y176709*
X58500*
Y180959*
X57000*
Y176709*
X48500*
Y180959*
X47000*
Y176709*
X38500*
Y180959*
X37000*
Y176709*
X28500*
Y180959*
X24000*
G37*
X104600Y176709D02*
G36*
Y175725D01*
X125569Y154756*
X126586*
X111444Y169898*
G75*
G02X110900Y171208I1304J1309*
G01*
G75*
G02Y171209I2506J0*
G01*
Y176709*
X108415*
Y180959*
X107000*
Y176709*
X104600*
G37*
X114600D02*
G36*
Y171975D01*
X131819Y154756*
X140900*
Y176709*
X138415*
Y180959*
X136915*
Y176709*
X128415*
Y180959*
X126915*
Y176709*
X118415*
Y180959*
X116915*
Y176709*
X114600*
G37*
X144600D02*
G36*
Y154756D01*
X147447*
Y154757*
G75*
G02X149681Y156991I2234*
G01*
G75*
G02X151916Y154757J-2234*
G01*
Y154756*
X184252*
Y180959*
X146915*
Y176709*
X144600*
G37*
X4250Y190959D02*
G36*
Y180959D01*
X16500*
Y190959*
X4250*
G37*
X24000D02*
G36*
Y180959D01*
X28500*
Y185209*
X37000*
Y180959*
X38500*
Y185209*
X47000*
Y180959*
X48500*
Y185209*
X57000*
Y180959*
X58500*
Y185209*
X67000*
Y180959*
X68500*
Y185209*
X77000*
Y180959*
X78500*
Y185209*
X87000*
Y180959*
X88500*
Y185209*
X97000*
Y180959*
X98500*
Y185209*
X107000*
Y180959*
X108415*
Y185209*
X116915*
Y180959*
X118415*
Y185209*
X126915*
Y180959*
X128415*
Y185209*
X136915*
Y180959*
X138415*
Y185209*
X146915*
Y180959*
X184252*
Y190959*
X66800*
G75*
G02X58700I-4050*
G01*
X24000*
G37*
X4250Y219459D02*
G36*
Y190959D01*
X16500*
Y209909*
G75*
G02X15500Y212459I2752J2550*
G01*
Y219459*
X4250*
G37*
X23000D02*
G36*
Y215008D01*
G75*
G02X24000Y212459I-2752J-2550*
G01*
Y190959*
X58700*
G75*
G02X66800I4050*
G01*
X184252*
Y219459*
X81500*
Y215209*
X73000*
Y219459*
X71500*
Y215209*
X63000*
Y219459*
X23000*
G37*
X4250Y241372D02*
G36*
Y219459D01*
X15500*
Y222622*
G75*
G02Y222623I4511J1*
G01*
G75*
G02X16600Y225276I3748*
G01*
X25096Y233772*
G75*
G02X27750Y234872I2653J-2648*
G01*
X59533*
X60639Y235978*
Y237122*
X60140*
Y241372*
X58640*
Y237122*
X50140*
Y241372*
X48640*
Y237122*
X40140*
Y241372*
X38640*
Y237122*
X30140*
Y241372*
X4250*
G37*
X23000Y221069D02*
G36*
Y219459D01*
X63000*
Y223709*
X71500*
Y219459*
X73000*
Y223709*
X81500*
Y219459*
X184252*
Y241372*
X148640*
Y237122*
X140140*
Y241372*
X138640*
Y237122*
X130140*
Y241372*
X128640*
Y237122*
X120140*
Y241372*
X118640*
Y237122*
X110140*
Y241372*
X108640*
Y237122*
X100140*
Y241372*
X98640*
Y237122*
X90140*
Y241372*
X88640*
Y237122*
X80140*
Y241372*
X78640*
Y237122*
X70140*
Y241372*
X68640*
Y237122*
X68139*
Y234425*
G75*
G02Y234424I-5013J0*
G01*
G75*
G02X67039Y231771I-3748*
G01*
X63741Y228472*
G75*
G02X61087Y227372I-2653J2648*
G01*
X29303*
X23000Y221069*
G37*
X4250Y259709D02*
G36*
Y241372D01*
X30140*
Y245622*
X38640*
Y241372*
X40140*
Y245622*
X48640*
Y241372*
X50140*
Y245622*
X58640*
Y241372*
X60140*
Y245622*
X68640*
Y241372*
X70140*
Y245622*
X78640*
Y241372*
X80140*
Y245622*
X88640*
Y241372*
X90140*
Y245622*
X98640*
Y241372*
X100140*
Y245622*
X108640*
Y241372*
X110140*
Y245622*
X118640*
Y241372*
X120140*
Y245622*
X128640*
Y241372*
X130140*
Y245622*
X138640*
Y241372*
X140140*
Y245622*
X148640*
Y241372*
X184252*
Y259709*
X4250*
G37*
D02*
D20*
X60250Y180959D02*
X58250D01*
X60450Y190959D02*
X58450D01*
X62750Y178459D02*
Y176459D01*
Y183459D02*
Y185459D01*
Y188659D02*
Y186659D01*
Y193259D02*
Y195259D01*
X65050Y190959D02*
X67050D01*
X65250Y180959D02*
X67250D01*
X79887Y52863D02*
X77887D01*
X82187Y50563D02*
Y48563D01*
Y55163D02*
Y57163D01*
X84487Y52863D02*
X86487D01*
X88850Y127018D02*
X86850D01*
X91150Y124718D02*
Y122718D01*
Y129318D02*
Y131318D01*
X93450Y127018D02*
X95450D01*
X94362Y121506D02*
X92362D01*
X96662Y119206D02*
Y117206D01*
Y123806D02*
Y125806D01*
X96961Y52863D02*
X94961D01*
X98962Y121506D02*
X100962D01*
X99261Y50563D02*
Y48563D01*
Y55163D02*
Y57163D01*
X99874Y115994D02*
X97874D01*
X101561Y52863D02*
X103561D01*
X102174Y113694D02*
Y111694D01*
Y118294D02*
Y120294D01*
X104474Y115994D02*
X106474D01*
X109816Y78626D02*
X107816D01*
X109941Y84617D02*
X107941D01*
X110065Y91107D02*
X108065D01*
X112116Y76326D02*
Y74326D01*
X112365Y93407D02*
Y95407D01*
X130162Y106706D02*
Y104706D01*
X131729Y68332D02*
X130315Y66918D01*
X131729Y71585D02*
X130315Y72999D01*
X131729Y75832D02*
X130315Y74418D01*
X131729Y79085D02*
X130315Y80499D01*
X131729Y83333D02*
X130315Y81919D01*
X131729Y86585D02*
X130315Y88000D01*
X131729Y90832D02*
X130315Y89418D01*
X131729Y94085D02*
X130315Y95499D01*
X132462Y109006D02*
X134462D01*
X134982Y68332D02*
X136396Y66918D01*
X134982Y71585D02*
X136396Y72999D01*
X134982Y75832D02*
X136396Y74418D01*
X134982Y79085D02*
X136396Y80499D01*
X134982Y83333D02*
X136396Y81919D01*
X134982Y86585D02*
X136396Y88000D01*
X134982Y90832D02*
X136396Y89418D01*
X134982Y94085D02*
X136396Y95499D01*
D02*
D21*
X74250Y81459D02*
Y100959D01*
X50250Y124959*
Y137459*
X59000Y146209*
X66500*
X81500D02*
X66500D01*
X81500Y169364D02*
Y146209D01*
Y169364D02*
X25844D01*
X20250Y174959*
Y212459*
X19250*
Y222622*
X27750Y231122*
X61087*
X64389Y234425*
Y241372*
X91150Y127018D02*
X96662Y121506D01*
X99505Y71887D02*
X104877D01*
X113988Y62776*
X118287*
X118605Y62459*
X100250Y163709D02*
X107750D01*
X147750Y123709*
Y104959*
X146500*
X102174Y115994D02*
X96662Y121506D01*
X120500Y139006D02*
Y139709D01*
X114000Y146209*
X81500*
X123162Y115256D02*
Y104150D01*
X118231Y99219*
Y62833*
X118605Y62459*
X134453Y115256D02*
Y125053D01*
X120500Y139006*
X134453Y115256D02*
X123162D01*
D02*
D22*
X62750Y190959D03*
X66500Y146209D03*
X74250Y81459D03*
X81500Y169364D03*
X82187Y52863D03*
X91150Y127018D03*
X96662Y121506D03*
X99261Y52863D03*
X99505Y71887D03*
X100250Y163709D03*
X102174Y115994D03*
X112116Y78626D03*
X112241Y84617D03*
X112365Y91107D03*
X118605Y62459D03*
X120500Y139006D03*
X123162Y115256D03*
X130162Y109006D03*
X133356Y69959D03*
Y77459D03*
Y84959D03*
Y92459D03*
X134453Y115256D03*
D02*
D23*
X142750Y147459D03*
X146500Y104959D03*
X157750Y116209D03*
X159000Y124959D03*
D02*
D24*
X142750Y147459D02*
Y180875D01*
X142667Y180959*
X157750Y116209D02*
Y119959D01*
X102750Y174959*
Y180959*
X159000Y124959D02*
X112750Y171209D01*
Y180875*
X112667Y180959*
D02*
D25*
X6139Y255872D03*
X6889Y54372D03*
Y61872D03*
Y69122D03*
Y76872D03*
Y84372D03*
Y91872D03*
Y99372D03*
Y106872D03*
Y114372D03*
Y121872D03*
Y129372D03*
Y136872D03*
Y144372D03*
Y151872D03*
Y159372D03*
Y166872D03*
Y174372D03*
Y181872D03*
Y189372D03*
Y196872D03*
Y204372D03*
Y211872D03*
Y219372D03*
Y226872D03*
Y234372D03*
Y241872D03*
Y249372D03*
X11787Y48247D03*
Y55747D03*
Y63247D03*
Y70747D03*
Y78247D03*
X12025Y109300D03*
X12185Y116289D03*
X12209Y86277D03*
Y93777D03*
Y101277D03*
X12621Y255892D03*
X18639Y48372D03*
Y55872D03*
Y63372D03*
Y70860D03*
X19139Y78224D03*
X19263Y86086D03*
X19513Y93824D03*
Y101437D03*
X19525Y109300D03*
X19685Y116289D03*
X20121Y255892D03*
X26139Y48372D03*
Y55872D03*
Y63372D03*
Y70860D03*
X26639Y78224D03*
X26763Y86086D03*
X27013Y93824D03*
Y101437D03*
X27025Y109300D03*
X27185Y116289D03*
X27621Y255892D03*
X33889Y48872D03*
Y56372D03*
Y63872D03*
Y71360D03*
X34389Y78724D03*
X34513Y86586D03*
X34763Y94324D03*
Y101937D03*
X35121Y255892D03*
X41639Y48622D03*
Y56122D03*
Y63622D03*
Y71122D03*
X42621Y255892D03*
X48639Y76622D03*
X49139Y48622D03*
Y56122D03*
Y63622D03*
Y71122D03*
X50121Y255892D03*
X55639Y76872D03*
X56639Y48622D03*
Y56122D03*
Y63622D03*
Y71122D03*
X57621Y255892D03*
X64139Y48622D03*
Y56122D03*
Y63622D03*
Y71122D03*
X65121Y255892D03*
X71639Y48622D03*
Y56122D03*
Y63622D03*
Y71122D03*
X72621Y255892D03*
X79139Y63122D03*
X80121Y255892D03*
X84765Y70660D03*
Y73660D03*
Y76660D03*
Y79641D03*
Y82641D03*
Y85641D03*
Y88641D03*
X84889Y91622D03*
Y94622D03*
Y97622D03*
Y100622D03*
X87621Y255892D03*
X95121D03*
X95639Y74891D03*
Y77891D03*
Y80622D03*
Y83622D03*
Y86622D03*
Y89622D03*
Y92622D03*
Y95622D03*
X102621Y255892D03*
X106874Y137750D03*
X108522Y48395D03*
X108657Y56095D03*
X110121Y255892D03*
X112639Y48145D03*
Y55872D03*
X117621Y255892D03*
X119336Y48145D03*
Y55872D03*
X125121Y255892D03*
X125522Y48145D03*
Y55872D03*
X132139Y48530D03*
Y55437D03*
Y62134D03*
X132621Y255892D03*
X139502Y48530D03*
X139639Y55437D03*
Y62134D03*
X140121Y255892D03*
X140696Y116317D03*
X147139Y55437D03*
Y62134D03*
X147240Y48530D03*
X147621Y255892D03*
X149681Y154756D03*
X149931Y142151D03*
Y148017D03*
X154139Y47780D03*
Y54847D03*
Y62347D03*
Y69847D03*
Y77347D03*
Y84847D03*
X155121Y255892D03*
X161639Y54847D03*
Y62347D03*
Y69847D03*
Y77347D03*
Y84847D03*
X161752Y47780D03*
X162621Y255892D03*
X168639Y62122D03*
Y69622D03*
Y77122D03*
Y84622D03*
Y92122D03*
Y99622D03*
Y107122D03*
X168889Y114622D03*
X169014Y54509D03*
X169139Y47021D03*
X170121Y255892D03*
X175389Y114622D03*
X176121Y255892D03*
X176139Y62122D03*
Y69622D03*
Y77122D03*
Y84622D03*
Y92122D03*
Y99622D03*
Y107122D03*
X176514Y54509D03*
X176639Y47021D03*
X180890Y69223D03*
Y76723D03*
Y84223D03*
Y91723D03*
Y99223D03*
Y106723D03*
Y114223D03*
Y121723D03*
X181140Y159825D03*
Y167325D03*
Y174825D03*
Y182325D03*
Y189825D03*
Y197325D03*
Y204825D03*
Y212325D03*
Y219825D03*
Y227325D03*
Y234825D03*
Y242325D03*
Y249825D03*
X181265Y61610D03*
X181389Y54122D03*
X181640Y137325D03*
Y144825D03*
Y152325D03*
X181738Y255917D03*
X181890Y128723D03*
D02*
D27*
X32750Y180959D03*
X34389Y241372D03*
X42750Y180959D03*
X44389Y241372D03*
X52750Y180959D03*
X54389Y241372D03*
X62750Y180959D03*
X64389Y241372D03*
X67250Y219459D03*
X72750Y180959D03*
X74389Y241372D03*
X77250Y219459D03*
X82750Y180959D03*
X84389Y241372D03*
X92750Y180959D03*
X94389Y241372D03*
X102750Y180959D03*
X104389Y241372D03*
X112667Y180959D03*
X114389Y241372D03*
X122667Y180959D03*
X124389Y241372D03*
X132667Y180959D03*
X134389Y241372D03*
X142667Y180959D03*
X144389Y241372D03*
X0Y0D02*
M02*
