G05
M48
INCH,TZ
FMAT,2
T1C000.01600
T2C000.02400
T3C000.03200
T4C000.03500
%
T001
X0.06139Y2.55872
X0.06889Y0.54372
X0.06889Y0.61872
X0.06889Y0.69122
X0.06889Y0.76872
X0.06889Y0.84372
X0.06889Y0.91872
X0.06889Y0.99372
X0.06889Y1.06872
X0.06889Y1.14372
X0.06889Y1.21872
X0.06889Y1.29372
X0.06889Y1.36872
X0.06889Y1.44372
X0.06889Y1.51872
X0.06889Y1.59372
X0.06889Y1.66872
X0.06889Y1.74372
X0.06889Y1.81872
X0.06889Y1.89372
X0.06889Y1.96872
X0.06889Y2.04372
X0.06889Y2.11872
X0.06889Y2.19372
X0.06889Y2.26872
X0.06889Y2.34372
X0.06889Y2.41872
X0.06889Y2.49372
X0.11787Y0.48247
X0.11787Y0.55747
X0.11787Y0.63247
X0.11787Y0.70747
X0.11787Y0.78247
X0.12025Y1.09300
X0.12185Y1.16289
X0.12209Y0.86277
X0.12209Y0.93777
X0.12209Y1.01277
X0.12621Y2.55892
X0.18639Y0.48372
X0.18639Y0.55872
X0.18639Y0.63372
X0.18639Y0.70860
X0.19139Y0.78224
X0.19263Y0.86086
X0.19513Y0.93824
X0.19513Y1.01437
X0.19525Y1.09300
X0.19685Y1.16289
X0.20121Y2.55892
X0.26139Y0.48372
X0.26139Y0.55872
X0.26139Y0.63372
X0.26139Y0.70860
X0.26639Y0.78224
X0.26763Y0.86086
X0.27013Y0.93824
X0.27013Y1.01437
X0.27025Y1.09300
X0.27185Y1.16289
X0.27621Y2.55892
X0.33889Y0.48872
X0.33889Y0.56372
X0.33889Y0.63872
X0.33889Y0.71360
X0.34389Y0.78724
X0.34513Y0.86586
X0.34763Y0.94324
X0.34763Y1.01937
X0.35121Y2.55892
X0.41639Y0.48622
X0.41639Y0.56122
X0.41639Y0.63622
X0.41639Y0.71122
X0.42621Y2.55892
X0.48639Y0.76622
X0.49139Y0.48622
X0.49139Y0.56122
X0.49139Y0.63622
X0.49139Y0.71122
X0.50121Y2.55892
X0.55639Y0.76872
X0.56639Y0.48622
X0.56639Y0.56122
X0.56639Y0.63622
X0.56639Y0.71122
X0.57621Y2.55892
X0.64139Y0.48622
X0.64139Y0.56122
X0.64139Y0.63622
X0.64139Y0.71122
X0.65121Y2.55892
X0.71639Y0.48622
X0.71639Y0.56122
X0.71639Y0.63622
X0.71639Y0.71122
X0.72621Y2.55892
X0.79139Y0.63122
X0.80121Y2.55892
X0.84765Y0.70660
X0.84765Y0.73660
X0.84765Y0.76660
X0.84765Y0.79641
X0.84765Y0.82641
X0.84765Y0.85641
X0.84765Y0.88641
X0.84889Y0.91622
X0.84889Y0.94622
X0.84889Y0.97622
X0.84889Y1.00622
X0.87621Y2.55892
X0.95121Y2.55892
X0.95639Y0.74891
X0.95639Y0.77891
X0.95639Y0.80622
X0.95639Y0.83622
X0.95639Y0.86622
X0.95639Y0.89622
X0.95639Y0.92622
X0.95639Y0.95622
X1.02621Y2.55892
X1.06874Y1.37750
X1.08522Y0.48395
X1.08657Y0.56095
X1.10121Y2.55892
X1.12639Y0.48145
X1.12639Y0.55872
X1.17621Y2.55892
X1.19336Y0.48145
X1.19336Y0.55872
X1.25121Y2.55892
X1.25522Y0.48145
X1.25522Y0.55872
X1.32139Y0.48530
X1.32139Y0.55437
X1.32139Y0.62134
X1.32621Y2.55892
X1.39502Y0.48530
X1.39639Y0.55437
X1.39639Y0.62134
X1.40121Y2.55892
X1.40696Y1.16317
X1.47139Y0.55437
X1.47139Y0.62134
X1.47240Y0.48530
X1.47621Y2.55892
X1.49681Y1.54756
X1.49931Y1.42151
X1.49931Y1.48017
X1.54139Y0.47780
X1.54139Y0.54847
X1.54139Y0.62347
X1.54139Y0.69847
X1.54139Y0.77347
X1.54139Y0.84847
X1.55121Y2.55892
X1.61639Y0.54847
X1.61639Y0.62347
X1.61639Y0.69847
X1.61639Y0.77347
X1.61639Y0.84847
X1.61752Y0.47780
X1.62621Y2.55892
X1.68639Y0.62122
X1.68639Y0.69622
X1.68639Y0.77122
X1.68639Y0.84622
X1.68639Y0.92122
X1.68639Y0.99622
X1.68639Y1.07122
X1.68889Y1.14622
X1.69014Y0.54509
X1.69139Y0.47021
X1.70121Y2.55892
X1.75389Y1.14622
X1.76121Y2.55892
X1.76139Y0.62122
X1.76139Y0.69622
X1.76139Y0.77122
X1.76139Y0.84622
X1.76139Y0.92122
X1.76139Y0.99622
X1.76139Y1.07122
X1.76514Y0.54509
X1.76639Y0.47021
X1.80890Y0.69223
X1.80890Y0.76723
X1.80890Y0.84223
X1.80890Y0.91723
X1.80890Y0.99223
X1.80890Y1.06723
X1.80890Y1.14223
X1.80890Y1.21723
X1.81140Y1.59825
X1.81140Y1.67325
X1.81140Y1.74825
X1.81140Y1.82325
X1.81140Y1.89825
X1.81140Y1.97325
X1.81140Y2.04825
X1.81140Y2.12325
X1.81140Y2.19825
X1.81140Y2.27325
X1.81140Y2.34825
X1.81140Y2.42325
X1.81140Y2.49825
X1.81265Y0.61610
X1.81389Y0.54122
X1.81640Y1.37325
X1.81640Y1.44825
X1.81640Y1.52325
X1.81738Y2.55917
X1.81890Y1.28723
T002
X1.42750Y1.47459
X1.46500Y1.04959
X1.57750Y1.16209
X1.59000Y1.24959
T003
X0.62750Y1.90959
X0.66500Y1.46209
X0.74250Y0.81459
X0.81500Y1.69364
X0.82187Y0.52863
X0.91150Y1.27018
X0.96662Y1.21506
X0.99261Y0.52863
X0.99505Y0.71887
X1.00250Y1.63709
X1.02174Y1.15994
X1.12116Y0.78626
X1.12241Y0.84617
X1.12365Y0.91107
X1.18605Y0.62459
X1.20500Y1.39006
X1.23162Y1.15256
X1.30162Y1.09006
X1.33356Y0.69959
X1.33356Y0.77459
X1.33356Y0.84959
X1.33356Y0.92459
X1.34453Y1.15256
T004
X0.32750Y1.80959
X0.34389Y2.41372
X0.42750Y1.80959
X0.44389Y2.41372
X0.52750Y1.80959
X0.54389Y2.41372
X0.62750Y1.80959
X0.64389Y2.41372
X0.67250Y2.19459
X0.72750Y1.80959
X0.74389Y2.41372
X0.77250Y2.19459
X0.82750Y1.80959
X0.84389Y2.41372
X0.92750Y1.80959
X0.94389Y2.41372
X1.02750Y1.80959
X1.04389Y2.41372
X1.12667Y1.80959
X1.14389Y2.41372
X1.22667Y1.80959
X1.24389Y2.41372
X1.32667Y1.80959
X1.34389Y2.41372
X1.42667Y1.80959
X1.44389Y2.41372
M30
