G04 DesignSpark PCB Gerber Version 9.0 Build 5138 *
G04 #@! TF.Part,Single*
G04 #@! TF.FileFunction,Drillmap *
G04 #@! TF.FilePolarity,Positive *
%FSLAX35Y35*%
%MOIN*%
%ADD71C,0.00500*%
G04 #@! TA.AperFunction,ViaPad*
%ADD72C,0.10000*%
X0Y0D02*
D02*
D71*
X19265Y262435D02*
X18952Y262122D01*
X18327Y261809*
X17389*
X16765Y262122*
X16452Y262435*
X16139Y263059*
Y264309*
X16452Y264935*
X16765Y265247*
X17389Y265559*
X18327*
X18952Y265247*
X19265Y264935*
X20015Y60935D02*
X19702Y60622D01*
X19077Y60309*
X18139*
X17515Y60622*
X17202Y60935*
X16889Y61559*
Y62809*
X17202Y63435*
X17515Y63747*
X18139Y64059*
X19077*
X19702Y63747*
X20015Y63435*
Y68435D02*
X19702Y68122D01*
X19077Y67809*
X18139*
X17515Y68122*
X17202Y68435*
X16889Y69059*
Y70309*
X17202Y70935*
X17515Y71247*
X18139Y71559*
X19077*
X19702Y71247*
X20015Y70935*
Y75685D02*
X19702Y75372D01*
X19077Y75059*
X18139*
X17515Y75372*
X17202Y75685*
X16889Y76309*
Y77559*
X17202Y78185*
X17515Y78497*
X18139Y78809*
X19077*
X19702Y78497*
X20015Y78185*
Y83435D02*
X19702Y83122D01*
X19077Y82809*
X18139*
X17515Y83122*
X17202Y83435*
X16889Y84059*
Y85309*
X17202Y85935*
X17515Y86247*
X18139Y86559*
X19077*
X19702Y86247*
X20015Y85935*
Y90935D02*
X19702Y90622D01*
X19077Y90309*
X18139*
X17515Y90622*
X17202Y90935*
X16889Y91559*
Y92809*
X17202Y93435*
X17515Y93747*
X18139Y94059*
X19077*
X19702Y93747*
X20015Y93435*
Y98435D02*
X19702Y98122D01*
X19077Y97809*
X18139*
X17515Y98122*
X17202Y98435*
X16889Y99059*
Y100309*
X17202Y100935*
X17515Y101247*
X18139Y101559*
X19077*
X19702Y101247*
X20015Y100935*
Y105935D02*
X19702Y105622D01*
X19077Y105309*
X18139*
X17515Y105622*
X17202Y105935*
X16889Y106559*
Y107809*
X17202Y108435*
X17515Y108747*
X18139Y109059*
X19077*
X19702Y108747*
X20015Y108435*
Y113435D02*
X19702Y113122D01*
X19077Y112809*
X18139*
X17515Y113122*
X17202Y113435*
X16889Y114059*
Y115309*
X17202Y115935*
X17515Y116247*
X18139Y116559*
X19077*
X19702Y116247*
X20015Y115935*
Y120935D02*
X19702Y120622D01*
X19077Y120309*
X18139*
X17515Y120622*
X17202Y120935*
X16889Y121559*
Y122809*
X17202Y123435*
X17515Y123747*
X18139Y124059*
X19077*
X19702Y123747*
X20015Y123435*
Y128435D02*
X19702Y128122D01*
X19077Y127809*
X18139*
X17515Y128122*
X17202Y128435*
X16889Y129059*
Y130309*
X17202Y130935*
X17515Y131247*
X18139Y131559*
X19077*
X19702Y131247*
X20015Y130935*
Y135935D02*
X19702Y135622D01*
X19077Y135309*
X18139*
X17515Y135622*
X17202Y135935*
X16889Y136559*
Y137809*
X17202Y138435*
X17515Y138747*
X18139Y139059*
X19077*
X19702Y138747*
X20015Y138435*
Y143435D02*
X19702Y143122D01*
X19077Y142809*
X18139*
X17515Y143122*
X17202Y143435*
X16889Y144059*
Y145309*
X17202Y145935*
X17515Y146247*
X18139Y146559*
X19077*
X19702Y146247*
X20015Y145935*
Y150935D02*
X19702Y150622D01*
X19077Y150309*
X18139*
X17515Y150622*
X17202Y150935*
X16889Y151559*
Y152809*
X17202Y153435*
X17515Y153747*
X18139Y154059*
X19077*
X19702Y153747*
X20015Y153435*
Y158435D02*
X19702Y158122D01*
X19077Y157809*
X18139*
X17515Y158122*
X17202Y158435*
X16889Y159059*
Y160309*
X17202Y160935*
X17515Y161247*
X18139Y161559*
X19077*
X19702Y161247*
X20015Y160935*
Y165935D02*
X19702Y165622D01*
X19077Y165309*
X18139*
X17515Y165622*
X17202Y165935*
X16889Y166559*
Y167809*
X17202Y168435*
X17515Y168747*
X18139Y169059*
X19077*
X19702Y168747*
X20015Y168435*
Y173435D02*
X19702Y173122D01*
X19077Y172809*
X18139*
X17515Y173122*
X17202Y173435*
X16889Y174059*
Y175309*
X17202Y175935*
X17515Y176247*
X18139Y176559*
X19077*
X19702Y176247*
X20015Y175935*
Y180935D02*
X19702Y180622D01*
X19077Y180309*
X18139*
X17515Y180622*
X17202Y180935*
X16889Y181559*
Y182809*
X17202Y183435*
X17515Y183747*
X18139Y184059*
X19077*
X19702Y183747*
X20015Y183435*
Y188435D02*
X19702Y188122D01*
X19077Y187809*
X18139*
X17515Y188122*
X17202Y188435*
X16889Y189059*
Y190309*
X17202Y190935*
X17515Y191247*
X18139Y191559*
X19077*
X19702Y191247*
X20015Y190935*
Y195935D02*
X19702Y195622D01*
X19077Y195309*
X18139*
X17515Y195622*
X17202Y195935*
X16889Y196559*
Y197809*
X17202Y198435*
X17515Y198747*
X18139Y199059*
X19077*
X19702Y198747*
X20015Y198435*
Y203435D02*
X19702Y203122D01*
X19077Y202809*
X18139*
X17515Y203122*
X17202Y203435*
X16889Y204059*
Y205309*
X17202Y205935*
X17515Y206247*
X18139Y206559*
X19077*
X19702Y206247*
X20015Y205935*
Y210935D02*
X19702Y210622D01*
X19077Y210309*
X18139*
X17515Y210622*
X17202Y210935*
X16889Y211559*
Y212809*
X17202Y213435*
X17515Y213747*
X18139Y214059*
X19077*
X19702Y213747*
X20015Y213435*
Y218435D02*
X19702Y218122D01*
X19077Y217809*
X18139*
X17515Y218122*
X17202Y218435*
X16889Y219059*
Y220309*
X17202Y220935*
X17515Y221247*
X18139Y221559*
X19077*
X19702Y221247*
X20015Y220935*
Y225935D02*
X19702Y225622D01*
X19077Y225309*
X18139*
X17515Y225622*
X17202Y225935*
X16889Y226559*
Y227809*
X17202Y228435*
X17515Y228747*
X18139Y229059*
X19077*
X19702Y228747*
X20015Y228435*
Y233435D02*
X19702Y233122D01*
X19077Y232809*
X18139*
X17515Y233122*
X17202Y233435*
X16889Y234059*
Y235309*
X17202Y235935*
X17515Y236247*
X18139Y236559*
X19077*
X19702Y236247*
X20015Y235935*
Y240935D02*
X19702Y240622D01*
X19077Y240309*
X18139*
X17515Y240622*
X17202Y240935*
X16889Y241559*
Y242809*
X17202Y243435*
X17515Y243747*
X18139Y244059*
X19077*
X19702Y243747*
X20015Y243435*
Y248435D02*
X19702Y248122D01*
X19077Y247809*
X18139*
X17515Y248122*
X17202Y248435*
X16889Y249059*
Y250309*
X17202Y250935*
X17515Y251247*
X18139Y251559*
X19077*
X19702Y251247*
X20015Y250935*
Y255935D02*
X19702Y255622D01*
X19077Y255309*
X18139*
X17515Y255622*
X17202Y255935*
X16889Y256559*
Y257809*
X17202Y258435*
X17515Y258747*
X18139Y259059*
X19077*
X19702Y258747*
X20015Y258435*
X24912Y54810D02*
X24600Y54497D01*
X23974Y54185*
X23037*
X22412Y54497*
X22100Y54810*
X21787Y55435*
Y56685*
X22100Y57310*
X22412Y57622*
X23037Y57935*
X23974*
X24600Y57622*
X24912Y57310*
Y62310D02*
X24600Y61997D01*
X23974Y61685*
X23037*
X22412Y61997*
X22100Y62310*
X21787Y62935*
Y64185*
X22100Y64810*
X22412Y65122*
X23037Y65435*
X23974*
X24600Y65122*
X24912Y64810*
Y69810D02*
X24600Y69497D01*
X23974Y69185*
X23037*
X22412Y69497*
X22100Y69810*
X21787Y70435*
Y71685*
X22100Y72310*
X22412Y72622*
X23037Y72935*
X23974*
X24600Y72622*
X24912Y72310*
Y77310D02*
X24600Y76997D01*
X23974Y76685*
X23037*
X22412Y76997*
X22100Y77310*
X21787Y77935*
Y79185*
X22100Y79810*
X22412Y80122*
X23037Y80435*
X23974*
X24600Y80122*
X24912Y79810*
Y84810D02*
X24600Y84497D01*
X23974Y84185*
X23037*
X22412Y84497*
X22100Y84810*
X21787Y85435*
Y86685*
X22100Y87310*
X22412Y87622*
X23037Y87935*
X23974*
X24600Y87622*
X24912Y87310*
X25150Y115862D02*
X24837Y115550D01*
X24212Y115237*
X23275*
X22650Y115550*
X22337Y115862*
X22025Y116487*
Y117737*
X22337Y118362*
X22650Y118675*
X23275Y118987*
X24212*
X24837Y118675*
X25150Y118362*
X25310Y122851D02*
X24998Y122539D01*
X24372Y122226*
X23435*
X22810Y122539*
X22498Y122851*
X22185Y123476*
Y124726*
X22498Y125351*
X22810Y125664*
X23435Y125976*
X24372*
X24998Y125664*
X25310Y125351*
X25334Y92839D02*
X25021Y92527D01*
X24396Y92214*
X23459*
X22834Y92527*
X22521Y92839*
X22209Y93464*
Y94714*
X22521Y95339*
X22834Y95652*
X23459Y95964*
X24396*
X25021Y95652*
X25334Y95339*
Y100339D02*
X25021Y100027D01*
X24396Y99714*
X23459*
X22834Y100027*
X22521Y100339*
X22209Y100964*
Y102214*
X22521Y102839*
X22834Y103152*
X23459Y103464*
X24396*
X25021Y103152*
X25334Y102839*
Y107839D02*
X25021Y107527D01*
X24396Y107214*
X23459*
X22834Y107527*
X22521Y107839*
X22209Y108464*
Y109714*
X22521Y110339*
X22834Y110652*
X23459Y110964*
X24396*
X25021Y110652*
X25334Y110339*
X25746Y262455D02*
X25434Y262142D01*
X24809Y261830*
X23871*
X23246Y262142*
X22934Y262455*
X22621Y263080*
Y264330*
X22934Y264955*
X23246Y265267*
X23871Y265580*
X24809*
X25434Y265267*
X25746Y264955*
X31765Y54935D02*
X31452Y54622D01*
X30827Y54309*
X29889*
X29265Y54622*
X28952Y54935*
X28639Y55559*
Y56809*
X28952Y57435*
X29265Y57747*
X29889Y58059*
X30827*
X31452Y57747*
X31765Y57435*
Y62435D02*
X31452Y62122D01*
X30827Y61809*
X29889*
X29265Y62122*
X28952Y62435*
X28639Y63059*
Y64309*
X28952Y64935*
X29265Y65247*
X29889Y65559*
X30827*
X31452Y65247*
X31765Y64935*
Y69935D02*
X31452Y69622D01*
X30827Y69309*
X29889*
X29265Y69622*
X28952Y69935*
X28639Y70559*
Y71809*
X28952Y72435*
X29265Y72747*
X29889Y73059*
X30827*
X31452Y72747*
X31765Y72435*
Y77423D02*
X31452Y77110D01*
X30827Y76798*
X29889*
X29265Y77110*
X28952Y77423*
X28639Y78048*
Y79298*
X28952Y79923*
X29265Y80235*
X29889Y80548*
X30827*
X31452Y80235*
X31765Y79923*
X32264Y84786D02*
X31951Y84474D01*
X31326Y84161*
X30389*
X29764Y84474*
X29451Y84786*
X29139Y85411*
Y86661*
X29451Y87286*
X29764Y87599*
X30389Y87911*
X31326*
X31951Y87599*
X32264Y87286*
X32389Y92649D02*
X32076Y92336D01*
X31451Y92024*
X30513*
X29889Y92336*
X29576Y92649*
X29263Y93274*
Y94524*
X29576Y95149*
X29889Y95461*
X30513Y95774*
X31451*
X32076Y95461*
X32389Y95149*
X32638Y100387D02*
X32326Y100074D01*
X31700Y99761*
X30763*
X30138Y100074*
X29826Y100387*
X29513Y101011*
Y102261*
X29826Y102887*
X30138Y103199*
X30763Y103511*
X31700*
X32326Y103199*
X32638Y102887*
Y108000D02*
X32326Y107687D01*
X31700Y107374*
X30763*
X30138Y107687*
X29826Y108000*
X29513Y108624*
Y109874*
X29826Y110500*
X30138Y110812*
X30763Y111124*
X31700*
X32326Y110812*
X32638Y110500*
X32650Y115862D02*
X32337Y115550D01*
X31712Y115237*
X30775*
X30150Y115550*
X29837Y115862*
X29525Y116487*
Y117737*
X29837Y118362*
X30150Y118675*
X30775Y118987*
X31712*
X32337Y118675*
X32650Y118362*
X32810Y122851D02*
X32498Y122539D01*
X31872Y122226*
X30935*
X30310Y122539*
X29998Y122851*
X29685Y123476*
Y124726*
X29998Y125351*
X30310Y125664*
X30935Y125976*
X31872*
X32498Y125664*
X32810Y125351*
X33246Y262455D02*
X32934Y262142D01*
X32309Y261830*
X31371*
X30746Y262142*
X30434Y262455*
X30121Y263080*
Y264330*
X30434Y264955*
X30746Y265267*
X31371Y265580*
X32309*
X32934Y265267*
X33246Y264955*
X39265Y54935D02*
X38952Y54622D01*
X38327Y54309*
X37389*
X36765Y54622*
X36452Y54935*
X36139Y55559*
Y56809*
X36452Y57435*
X36765Y57747*
X37389Y58059*
X38327*
X38952Y57747*
X39265Y57435*
Y62435D02*
X38952Y62122D01*
X38327Y61809*
X37389*
X36765Y62122*
X36452Y62435*
X36139Y63059*
Y64309*
X36452Y64935*
X36765Y65247*
X37389Y65559*
X38327*
X38952Y65247*
X39265Y64935*
Y69935D02*
X38952Y69622D01*
X38327Y69309*
X37389*
X36765Y69622*
X36452Y69935*
X36139Y70559*
Y71809*
X36452Y72435*
X36765Y72747*
X37389Y73059*
X38327*
X38952Y72747*
X39265Y72435*
Y77423D02*
X38952Y77110D01*
X38327Y76798*
X37389*
X36765Y77110*
X36452Y77423*
X36139Y78048*
Y79298*
X36452Y79923*
X36765Y80235*
X37389Y80548*
X38327*
X38952Y80235*
X39265Y79923*
X39764Y84786D02*
X39451Y84474D01*
X38826Y84161*
X37889*
X37264Y84474*
X36951Y84786*
X36639Y85411*
Y86661*
X36951Y87286*
X37264Y87599*
X37889Y87911*
X38826*
X39451Y87599*
X39764Y87286*
X39889Y92649D02*
X39576Y92336D01*
X38951Y92024*
X38013*
X37389Y92336*
X37076Y92649*
X36763Y93274*
Y94524*
X37076Y95149*
X37389Y95461*
X38013Y95774*
X38951*
X39576Y95461*
X39889Y95149*
X40138Y100387D02*
X39826Y100074D01*
X39200Y99761*
X38263*
X37638Y100074*
X37326Y100387*
X37013Y101011*
Y102261*
X37326Y102887*
X37638Y103199*
X38263Y103511*
X39200*
X39826Y103199*
X40138Y102887*
Y108000D02*
X39826Y107687D01*
X39200Y107374*
X38263*
X37638Y107687*
X37326Y108000*
X37013Y108624*
Y109874*
X37326Y110500*
X37638Y110812*
X38263Y111124*
X39200*
X39826Y110812*
X40138Y110500*
X40150Y115862D02*
X39837Y115550D01*
X39212Y115237*
X38275*
X37650Y115550*
X37337Y115862*
X37025Y116487*
Y117737*
X37337Y118362*
X37650Y118675*
X38275Y118987*
X39212*
X39837Y118675*
X40150Y118362*
X40310Y122851D02*
X39998Y122539D01*
X39372Y122226*
X38435*
X37810Y122539*
X37498Y122851*
X37185Y123476*
Y124726*
X37498Y125351*
X37810Y125664*
X38435Y125976*
X39372*
X39998Y125664*
X40310Y125351*
X40746Y262455D02*
X40434Y262142D01*
X39809Y261830*
X38871*
X38246Y262142*
X37934Y262455*
X37621Y263080*
Y264330*
X37934Y264955*
X38246Y265267*
X38871Y265580*
X39809*
X40434Y265267*
X40746Y264955*
X44937Y188771D02*
X45563Y188459D01*
X45875Y187834*
X45563Y187209*
X44937Y186896*
X42750*
Y190646*
X44937*
X45563Y190334*
X45875Y189709*
X45563Y189084*
X44937Y188771*
X42750*
X47015Y55435D02*
X46702Y55122D01*
X46077Y54809*
X45139*
X44515Y55122*
X44202Y55435*
X43889Y56059*
Y57309*
X44202Y57935*
X44515Y58247*
X45139Y58559*
X46077*
X46702Y58247*
X47015Y57935*
Y62935D02*
X46702Y62622D01*
X46077Y62309*
X45139*
X44515Y62622*
X44202Y62935*
X43889Y63559*
Y64809*
X44202Y65435*
X44515Y65747*
X45139Y66059*
X46077*
X46702Y65747*
X47015Y65435*
Y70435D02*
X46702Y70122D01*
X46077Y69809*
X45139*
X44515Y70122*
X44202Y70435*
X43889Y71059*
Y72309*
X44202Y72935*
X44515Y73247*
X45139Y73559*
X46077*
X46702Y73247*
X47015Y72935*
Y77923D02*
X46702Y77610D01*
X46077Y77298*
X45139*
X44515Y77610*
X44202Y77923*
X43889Y78548*
Y79798*
X44202Y80423*
X44515Y80735*
X45139Y81048*
X46077*
X46702Y80735*
X47015Y80423*
X47514Y85286D02*
X47201Y84974D01*
X46576Y84661*
X45639*
X45014Y84974*
X44701Y85286*
X44389Y85911*
Y87161*
X44701Y87786*
X45014Y88099*
X45639Y88411*
X46576*
X47201Y88099*
X47514Y87786*
X46577Y249185D02*
X47202Y248872D01*
X47515Y248247*
X47202Y247622*
X46577Y247309*
X44389*
Y251059*
X46577*
X47202Y250747*
X47515Y250122*
X47202Y249497*
X46577Y249185*
X44389*
X47639Y93149D02*
X47326Y92836D01*
X46701Y92524*
X45763*
X45139Y92836*
X44826Y93149*
X44513Y93774*
Y95024*
X44826Y95649*
X45139Y95961*
X45763Y96274*
X46701*
X47326Y95961*
X47639Y95649*
X47888Y100887D02*
X47576Y100574D01*
X46950Y100261*
X46013*
X45388Y100574*
X45076Y100887*
X44763Y101511*
Y102761*
X45076Y103387*
X45388Y103699*
X46013Y104011*
X46950*
X47576Y103699*
X47888Y103387*
Y108500D02*
X47576Y108187D01*
X46950Y107874*
X46013*
X45388Y108187*
X45076Y108500*
X44763Y109124*
Y110374*
X45076Y111000*
X45388Y111312*
X46013Y111624*
X46950*
X47576Y111312*
X47888Y111000*
X48246Y262455D02*
X47934Y262142D01*
X47309Y261830*
X46371*
X45746Y262142*
X45434Y262455*
X45121Y263080*
Y264330*
X45434Y264955*
X45746Y265267*
X46371Y265580*
X47309*
X47934Y265267*
X48246Y264955*
X54765Y55185D02*
X54452Y54872D01*
X53827Y54559*
X52889*
X52265Y54872*
X51952Y55185*
X51639Y55809*
Y57059*
X51952Y57685*
X52265Y57997*
X52889Y58309*
X53827*
X54452Y57997*
X54765Y57685*
Y62685D02*
X54452Y62372D01*
X53827Y62059*
X52889*
X52265Y62372*
X51952Y62685*
X51639Y63309*
Y64559*
X51952Y65185*
X52265Y65497*
X52889Y65809*
X53827*
X54452Y65497*
X54765Y65185*
Y70185D02*
X54452Y69872D01*
X53827Y69559*
X52889*
X52265Y69872*
X51952Y70185*
X51639Y70809*
Y72059*
X51952Y72685*
X52265Y72997*
X52889Y73309*
X53827*
X54452Y72997*
X54765Y72685*
Y77685D02*
X54452Y77372D01*
X53827Y77059*
X52889*
X52265Y77372*
X51952Y77685*
X51639Y78309*
Y79559*
X51952Y80185*
X52265Y80497*
X52889Y80809*
X53827*
X54452Y80497*
X54765Y80185*
X55746Y262455D02*
X55434Y262142D01*
X54809Y261830*
X53871*
X53246Y262142*
X52934Y262455*
X52621Y263080*
Y264330*
X52934Y264955*
X53246Y265267*
X53871Y265580*
X54809*
X55434Y265267*
X55746Y264955*
X54937Y188771D02*
X55563Y188459D01*
X55875Y187834*
X55563Y187209*
X54937Y186896*
X52750*
Y190646*
X54937*
X55563Y190334*
X55875Y189709*
X55563Y189084*
X54937Y188771*
X52750*
X56577Y249185D02*
X57202Y248872D01*
X57515Y248247*
X57202Y247622*
X56577Y247309*
X54389*
Y251059*
X56577*
X57202Y250747*
X57515Y250122*
X57202Y249497*
X56577Y249185*
X54389*
X61765Y83185D02*
X61452Y82872D01*
X60827Y82559*
X59889*
X59265Y82872*
X58952Y83185*
X58639Y83809*
Y85059*
X58952Y85685*
X59265Y85997*
X59889Y86309*
X60827*
X61452Y85997*
X61765Y85685*
X62265Y55185D02*
X61952Y54872D01*
X61327Y54559*
X60389*
X59765Y54872*
X59452Y55185*
X59139Y55809*
Y57059*
X59452Y57685*
X59765Y57997*
X60389Y58309*
X61327*
X61952Y57997*
X62265Y57685*
Y62685D02*
X61952Y62372D01*
X61327Y62059*
X60389*
X59765Y62372*
X59452Y62685*
X59139Y63309*
Y64559*
X59452Y65185*
X59765Y65497*
X60389Y65809*
X61327*
X61952Y65497*
X62265Y65185*
Y70185D02*
X61952Y69872D01*
X61327Y69559*
X60389*
X59765Y69872*
X59452Y70185*
X59139Y70809*
Y72059*
X59452Y72685*
X59765Y72997*
X60389Y73309*
X61327*
X61952Y72997*
X62265Y72685*
Y77685D02*
X61952Y77372D01*
X61327Y77059*
X60389*
X59765Y77372*
X59452Y77685*
X59139Y78309*
Y79559*
X59452Y80185*
X59765Y80497*
X60389Y80809*
X61327*
X61952Y80497*
X62265Y80185*
X63246Y262455D02*
X62934Y262142D01*
X62309Y261830*
X61371*
X60746Y262142*
X60434Y262455*
X60121Y263080*
Y264330*
X60434Y264955*
X60746Y265267*
X61371Y265580*
X62309*
X62934Y265267*
X63246Y264955*
X64937Y188771D02*
X65563Y188459D01*
X65875Y187834*
X65563Y187209*
X64937Y186896*
X62750*
Y190646*
X64937*
X65563Y190334*
X65875Y189709*
X65563Y189084*
X64937Y188771*
X62750*
X66577Y249185D02*
X67202Y248872D01*
X67515Y248247*
X67202Y247622*
X66577Y247309*
X64389*
Y251059*
X66577*
X67202Y250747*
X67515Y250122*
X67202Y249497*
X66577Y249185*
X64389*
X68765Y83435D02*
X68452Y83122D01*
X67827Y82809*
X66889*
X66265Y83122*
X65952Y83435*
X65639Y84059*
Y85309*
X65952Y85935*
X66265Y86247*
X66889Y86559*
X67827*
X68452Y86247*
X68765Y85935*
X69765Y55185D02*
X69452Y54872D01*
X68827Y54559*
X67889*
X67265Y54872*
X66952Y55185*
X66639Y55809*
Y57059*
X66952Y57685*
X67265Y57997*
X67889Y58309*
X68827*
X69452Y57997*
X69765Y57685*
Y62685D02*
X69452Y62372D01*
X68827Y62059*
X67889*
X67265Y62372*
X66952Y62685*
X66639Y63309*
Y64559*
X66952Y65185*
X67265Y65497*
X67889Y65809*
X68827*
X69452Y65497*
X69765Y65185*
Y70185D02*
X69452Y69872D01*
X68827Y69559*
X67889*
X67265Y69872*
X66952Y70185*
X66639Y70809*
Y72059*
X66952Y72685*
X67265Y72997*
X67889Y73309*
X68827*
X69452Y72997*
X69765Y72685*
Y77685D02*
X69452Y77372D01*
X68827Y77059*
X67889*
X67265Y77372*
X66952Y77685*
X66639Y78309*
Y79559*
X66952Y80185*
X67265Y80497*
X67889Y80809*
X68827*
X69452Y80497*
X69765Y80185*
X70746Y262455D02*
X70434Y262142D01*
X69809Y261830*
X68871*
X68246Y262142*
X67934Y262455*
X67621Y263080*
Y264330*
X67934Y264955*
X68246Y265267*
X68871Y265580*
X69809*
X70434Y265267*
X70746Y264955*
X74937Y188771D02*
X75563Y188459D01*
X75875Y187834*
X75563Y187209*
X74937Y186896*
X72750*
Y190646*
X74937*
X75563Y190334*
X75875Y189709*
X75563Y189084*
X74937Y188771*
X72750*
Y196896D02*
X74313Y200646D01*
X75875Y196896*
X73375Y198459D02*
X75250D01*
X77265Y55185D02*
X76952Y54872D01*
X76327Y54559*
X75389*
X74765Y54872*
X74452Y55185*
X74139Y55809*
Y57059*
X74452Y57685*
X74765Y57997*
X75389Y58309*
X76327*
X76952Y57997*
X77265Y57685*
Y62685D02*
X76952Y62372D01*
X76327Y62059*
X75389*
X74765Y62372*
X74452Y62685*
X74139Y63309*
Y64559*
X74452Y65185*
X74765Y65497*
X75389Y65809*
X76327*
X76952Y65497*
X77265Y65185*
Y70185D02*
X76952Y69872D01*
X76327Y69559*
X75389*
X74765Y69872*
X74452Y70185*
X74139Y70809*
Y72059*
X74452Y72685*
X74765Y72997*
X75389Y73309*
X76327*
X76952Y72997*
X77265Y72685*
Y77685D02*
X76952Y77372D01*
X76327Y77059*
X75389*
X74765Y77372*
X74452Y77685*
X74139Y78309*
Y79559*
X74452Y80185*
X74765Y80497*
X75389Y80809*
X76327*
X76952Y80497*
X77265Y80185*
X76577Y249185D02*
X77202Y248872D01*
X77515Y248247*
X77202Y247622*
X76577Y247309*
X74389*
Y251059*
X76577*
X77202Y250747*
X77515Y250122*
X77202Y249497*
X76577Y249185*
X74389*
X78246Y262455D02*
X77934Y262142D01*
X77309Y261830*
X76371*
X75746Y262142*
X75434Y262455*
X75121Y263080*
Y264330*
X75434Y264955*
X75746Y265267*
X76371Y265580*
X77309*
X77934Y265267*
X78246Y264955*
X76500Y152146D02*
X78063Y155896D01*
X79625Y152146*
X77125Y153709D02*
X79000D01*
X79437Y227271D02*
X80063Y226959D01*
X80375Y226334*
X80063Y225709*
X79437Y225396*
X77250*
Y229146*
X79437*
X80063Y228834*
X80375Y228209*
X80063Y227584*
X79437Y227271*
X77250*
X84765Y55185D02*
X84452Y54872D01*
X83827Y54559*
X82889*
X82265Y54872*
X81952Y55185*
X81639Y55809*
Y57059*
X81952Y57685*
X82265Y57997*
X82889Y58309*
X83827*
X84452Y57997*
X84765Y57685*
Y62685D02*
X84452Y62372D01*
X83827Y62059*
X82889*
X82265Y62372*
X81952Y62685*
X81639Y63309*
Y64559*
X81952Y65185*
X82265Y65497*
X82889Y65809*
X83827*
X84452Y65497*
X84765Y65185*
Y70185D02*
X84452Y69872D01*
X83827Y69559*
X82889*
X82265Y69872*
X81952Y70185*
X81639Y70809*
Y72059*
X81952Y72685*
X82265Y72997*
X82889Y73309*
X83827*
X84452Y72997*
X84765Y72685*
Y77685D02*
X84452Y77372D01*
X83827Y77059*
X82889*
X82265Y77372*
X81952Y77685*
X81639Y78309*
Y79559*
X81952Y80185*
X82265Y80497*
X82889Y80809*
X83827*
X84452Y80497*
X84765Y80185*
X85746Y262455D02*
X85434Y262142D01*
X84809Y261830*
X83871*
X83246Y262142*
X82934Y262455*
X82621Y263080*
Y264330*
X82934Y264955*
X83246Y265267*
X83871Y265580*
X84809*
X85434Y265267*
X85746Y264955*
X84937Y188771D02*
X85563Y188459D01*
X85875Y187834*
X85563Y187209*
X84937Y186896*
X82750*
Y190646*
X84937*
X85563Y190334*
X85875Y189709*
X85563Y189084*
X84937Y188771*
X82750*
X84250Y87396D02*
X85813Y91146D01*
X87375Y87396*
X84875Y88959D02*
X86750D01*
X86577Y249185D02*
X87202Y248872D01*
X87515Y248247*
X87202Y247622*
X86577Y247309*
X84389*
Y251059*
X86577*
X87202Y250747*
X87515Y250122*
X87202Y249497*
X86577Y249185*
X84389*
X89437Y227271D02*
X90063Y226959D01*
X90375Y226334*
X90063Y225709*
X89437Y225396*
X87250*
Y229146*
X89437*
X90063Y228834*
X90375Y228209*
X90063Y227584*
X89437Y227271*
X87250*
X92265Y69685D02*
X91952Y69372D01*
X91327Y69059*
X90389*
X89765Y69372*
X89452Y69685*
X89139Y70309*
Y71559*
X89452Y72185*
X89765Y72497*
X90389Y72809*
X91327*
X91952Y72497*
X92265Y72185*
X93246Y262455D02*
X92934Y262142D01*
X92309Y261830*
X91371*
X90746Y262142*
X90434Y262455*
X90121Y263080*
Y264330*
X90434Y264955*
X90746Y265267*
X91371Y265580*
X92309*
X92934Y265267*
X93246Y264955*
X91500Y175302D02*
X93063Y179052D01*
X94625Y175302*
X92125Y176864D02*
X94000D01*
X92187Y58800D02*
X93750Y62550D01*
X95312Y58800*
X92812Y60363D02*
X94687D01*
X94937Y188771D02*
X95563Y188459D01*
X95875Y187834*
X95563Y187209*
X94937Y186896*
X92750*
Y190646*
X94937*
X95563Y190334*
X95875Y189709*
X95563Y189084*
X94937Y188771*
X92750*
X96577Y249185D02*
X97202Y248872D01*
X97515Y248247*
X97202Y247622*
X96577Y247309*
X94389*
Y251059*
X96577*
X97202Y250747*
X97515Y250122*
X97202Y249497*
X96577Y249185*
X94389*
X97890Y77222D02*
X97577Y76910D01*
X96952Y76597*
X96015*
X95390Y76910*
X95077Y77222*
X94765Y77847*
Y79097*
X95077Y79722*
X95390Y80035*
X96015Y80347*
X96952*
X97577Y80035*
X97890Y79722*
Y80222D02*
X97577Y79910D01*
X96952Y79597*
X96015*
X95390Y79910*
X95077Y80222*
X94765Y80847*
Y82097*
X95077Y82722*
X95390Y83035*
X96015Y83347*
X96952*
X97577Y83035*
X97890Y82722*
Y83222D02*
X97577Y82910D01*
X96952Y82597*
X96015*
X95390Y82910*
X95077Y83222*
X94765Y83847*
Y85097*
X95077Y85722*
X95390Y86035*
X96015Y86347*
X96952*
X97577Y86035*
X97890Y85722*
Y86204D02*
X97577Y85891D01*
X96952Y85578*
X96015*
X95390Y85891*
X95077Y86204*
X94765Y86828*
Y88078*
X95077Y88704*
X95390Y89016*
X96015Y89328*
X96952*
X97577Y89016*
X97890Y88704*
Y89204D02*
X97577Y88891D01*
X96952Y88578*
X96015*
X95390Y88891*
X95077Y89204*
X94765Y89828*
Y91078*
X95077Y91704*
X95390Y92016*
X96015Y92328*
X96952*
X97577Y92016*
X97890Y91704*
Y92204D02*
X97577Y91891D01*
X96952Y91578*
X96015*
X95390Y91891*
X95077Y92204*
X94765Y92828*
Y94078*
X95077Y94704*
X95390Y95016*
X96015Y95328*
X96952*
X97577Y95016*
X97890Y94704*
Y95204D02*
X97577Y94891D01*
X96952Y94578*
X96015*
X95390Y94891*
X95077Y95204*
X94765Y95828*
Y97078*
X95077Y97704*
X95390Y98016*
X96015Y98328*
X96952*
X97577Y98016*
X97890Y97704*
X98015Y98185D02*
X97702Y97872D01*
X97077Y97559*
X96139*
X95515Y97872*
X95202Y98185*
X94889Y98809*
Y100059*
X95202Y100685*
X95515Y100997*
X96139Y101309*
X97077*
X97702Y100997*
X98015Y100685*
Y101185D02*
X97702Y100872D01*
X97077Y100559*
X96139*
X95515Y100872*
X95202Y101185*
X94889Y101809*
Y103059*
X95202Y103685*
X95515Y103997*
X96139Y104309*
X97077*
X97702Y103997*
X98015Y103685*
Y104185D02*
X97702Y103872D01*
X97077Y103559*
X96139*
X95515Y103872*
X95202Y104185*
X94889Y104809*
Y106059*
X95202Y106685*
X95515Y106997*
X96139Y107309*
X97077*
X97702Y106997*
X98015Y106685*
Y107185D02*
X97702Y106872D01*
X97077Y106559*
X96139*
X95515Y106872*
X95202Y107185*
X94889Y107809*
Y109059*
X95202Y109685*
X95515Y109997*
X96139Y110309*
X97077*
X97702Y109997*
X98015Y109685*
X100746Y262455D02*
X100434Y262142D01*
X99809Y261830*
X98871*
X98246Y262142*
X97934Y262455*
X97621Y263080*
Y264330*
X97934Y264955*
X98246Y265267*
X98871Y265580*
X99809*
X100434Y265267*
X100746Y264955*
X101150Y132955D02*
X102713Y136705D01*
X104275Y132955*
X101775Y134518D02*
X103650D01*
X104937Y188771D02*
X105563Y188459D01*
X105875Y187834*
X105563Y187209*
X104937Y186896*
X102750*
Y190646*
X104937*
X105563Y190334*
X105875Y189709*
X105563Y189084*
X104937Y188771*
X102750*
X106577Y249185D02*
X107202Y248872D01*
X107515Y248247*
X107202Y247622*
X106577Y247309*
X104389*
Y251059*
X106577*
X107202Y250747*
X107515Y250122*
X107202Y249497*
X106577Y249185*
X104389*
X108246Y262455D02*
X107934Y262142D01*
X107309Y261830*
X106371*
X105746Y262142*
X105434Y262455*
X105121Y263080*
Y264330*
X105434Y264955*
X105746Y265267*
X106371Y265580*
X107309*
X107934Y265267*
X108246Y264955*
X108765Y81453D02*
X108452Y81141D01*
X107827Y80828*
X106889*
X106265Y81141*
X105952Y81453*
X105639Y82078*
Y83328*
X105952Y83953*
X106265Y84266*
X106889Y84578*
X107827*
X108452Y84266*
X108765Y83953*
Y84453D02*
X108452Y84141D01*
X107827Y83828*
X106889*
X106265Y84141*
X105952Y84453*
X105639Y85078*
Y86328*
X105952Y86953*
X106265Y87266*
X106889Y87578*
X107827*
X108452Y87266*
X108765Y86953*
Y87185D02*
X108452Y86872D01*
X107827Y86559*
X106889*
X106265Y86872*
X105952Y87185*
X105639Y87809*
Y89059*
X105952Y89685*
X106265Y89997*
X106889Y90309*
X107827*
X108452Y89997*
X108765Y89685*
Y90185D02*
X108452Y89872D01*
X107827Y89559*
X106889*
X106265Y89872*
X105952Y90185*
X105639Y90809*
Y92059*
X105952Y92685*
X106265Y92997*
X106889Y93309*
X107827*
X108452Y92997*
X108765Y92685*
Y93185D02*
X108452Y92872D01*
X107827Y92559*
X106889*
X106265Y92872*
X105952Y93185*
X105639Y93809*
Y95059*
X105952Y95685*
X106265Y95997*
X106889Y96309*
X107827*
X108452Y95997*
X108765Y95685*
Y96185D02*
X108452Y95872D01*
X107827Y95559*
X106889*
X106265Y95872*
X105952Y96185*
X105639Y96809*
Y98059*
X105952Y98685*
X106265Y98997*
X106889Y99309*
X107827*
X108452Y98997*
X108765Y98685*
Y99185D02*
X108452Y98872D01*
X107827Y98559*
X106889*
X106265Y98872*
X105952Y99185*
X105639Y99809*
Y101059*
X105952Y101685*
X106265Y101997*
X106889Y102309*
X107827*
X108452Y101997*
X108765Y101685*
Y102185D02*
X108452Y101872D01*
X107827Y101559*
X106889*
X106265Y101872*
X105952Y102185*
X105639Y102809*
Y104059*
X105952Y104685*
X106265Y104997*
X106889Y105309*
X107827*
X108452Y104997*
X108765Y104685*
X106662Y127443D02*
X108224Y131193D01*
X109787Y127443*
X107287Y129006D02*
X109162D01*
X109261Y58800D02*
X110824Y62550D01*
X112386Y58800*
X109886Y60363D02*
X111761D01*
X109505Y77824D02*
X111068Y81574D01*
X112630Y77824*
X110130Y79387D02*
X112005D01*
X110250Y169646D02*
X111813Y173396D01*
X113375Y169646*
X110875Y171209D02*
X112750D01*
X112174Y121931D02*
X113736Y125681D01*
X115299Y121931*
X112799Y123494D02*
X114674D01*
X115746Y262455D02*
X115434Y262142D01*
X114809Y261830*
X113871*
X113246Y262142*
X112934Y262455*
X112621Y263080*
Y264330*
X112934Y264955*
X113246Y265267*
X113871Y265580*
X114809*
X115434Y265267*
X115746Y264955*
X114937Y188771D02*
X115563Y188459D01*
X115875Y187834*
X115563Y187209*
X114937Y186896*
X112750*
Y190646*
X114937*
X115563Y190334*
X115875Y189709*
X115563Y189084*
X114937Y188771*
X112750*
X116577Y249185D02*
X117202Y248872D01*
X117515Y248247*
X117202Y247622*
X116577Y247309*
X114389*
Y251059*
X116577*
X117202Y250747*
X117515Y250122*
X117202Y249497*
X116577Y249185*
X114389*
X119999Y144312D02*
X119687Y144000D01*
X119061Y143687*
X118124*
X117499Y144000*
X117187Y144312*
X116874Y144937*
Y146187*
X117187Y146812*
X117499Y147125*
X118124Y147437*
X119061*
X119687Y147125*
X119999Y146812*
X121647Y54958D02*
X121335Y54645D01*
X120709Y54333*
X119772*
X119147Y54645*
X118835Y54958*
X118522Y55583*
Y56833*
X118835Y57458*
X119147Y57770*
X119772Y58083*
X120709*
X121335Y57770*
X121647Y57458*
X121783Y62658D02*
X121470Y62345D01*
X120845Y62033*
X119907*
X119283Y62345*
X118970Y62658*
X118657Y63283*
Y64533*
X118970Y65158*
X119283Y65470*
X119907Y65783*
X120845*
X121470Y65470*
X121783Y65158*
X123246Y262455D02*
X122934Y262142D01*
X122309Y261830*
X121371*
X120746Y262142*
X120434Y262455*
X120121Y263080*
Y264330*
X120434Y264955*
X120746Y265267*
X121371Y265580*
X122309*
X122934Y265267*
X123246Y264955*
X122116Y84564D02*
X123678Y88314D01*
X125241Y84564*
X122741Y86126D02*
X124616D01*
X122241Y90554D02*
X123803Y94304D01*
X125366Y90554*
X122866Y92117D02*
X124741D01*
X122365Y97044D02*
X123928Y100794D01*
X125491Y97044*
X122991Y98607D02*
X124865D01*
X125765Y54708D02*
X125452Y54395D01*
X124827Y54083*
X123889*
X123265Y54395*
X122952Y54708*
X122639Y55333*
Y56583*
X122952Y57208*
X123265Y57520*
X123889Y57833*
X124827*
X125452Y57520*
X125765Y57208*
Y62435D02*
X125452Y62122D01*
X124827Y61809*
X123889*
X123265Y62122*
X122952Y62435*
X122639Y63059*
Y64309*
X122952Y64935*
X123265Y65247*
X123889Y65559*
X124827*
X125452Y65247*
X125765Y64935*
X124854Y188771D02*
X125479Y188459D01*
X125792Y187834*
X125479Y187209*
X124854Y186896*
X122667*
Y190646*
X124854*
X125479Y190334*
X125792Y189709*
X125479Y189084*
X124854Y188771*
X122667*
X126577Y249185D02*
X127202Y248872D01*
X127515Y248247*
X127202Y247622*
X126577Y247309*
X124389*
Y251059*
X126577*
X127202Y250747*
X127515Y250122*
X127202Y249497*
X126577Y249185*
X124389*
X130746Y262455D02*
X130434Y262142D01*
X129809Y261830*
X128871*
X128246Y262142*
X127934Y262455*
X127621Y263080*
Y264330*
X127934Y264955*
X128246Y265267*
X128871Y265580*
X129809*
X130434Y265267*
X130746Y264955*
X128605Y68396D02*
X130168Y72146D01*
X131730Y68396*
X129230Y69959D02*
X131105D01*
X132461Y54708D02*
X132149Y54395D01*
X131524Y54083*
X130586*
X129961Y54395*
X129649Y54708*
X129336Y55333*
Y56583*
X129649Y57208*
X129961Y57520*
X130586Y57833*
X131524*
X132149Y57520*
X132461Y57208*
Y62435D02*
X132149Y62122D01*
X131524Y61809*
X130586*
X129961Y62122*
X129649Y62435*
X129336Y63059*
Y64309*
X129649Y64935*
X129961Y65247*
X130586Y65559*
X131524*
X132149Y65247*
X132461Y64935*
X130500Y144943D02*
X132063Y148693D01*
X133625Y144943*
X131125Y146506D02*
X133000D01*
X134854Y188771D02*
X135479Y188459D01*
X135792Y187834*
X135479Y187209*
X134854Y186896*
X132667*
Y190646*
X134854*
X135479Y190334*
X135792Y189709*
X135479Y189084*
X134854Y188771*
X132667*
X133162Y121193D02*
X134724Y124943D01*
X136287Y121193*
X133787Y122756D02*
X135662D01*
X136577Y249185D02*
X137202Y248872D01*
X137515Y248247*
X137202Y247622*
X136577Y247309*
X134389*
Y251059*
X136577*
X137202Y250747*
X137515Y250122*
X137202Y249497*
X136577Y249185*
X134389*
X138246Y262455D02*
X137934Y262142D01*
X137309Y261830*
X136371*
X135746Y262142*
X135434Y262455*
X135121Y263080*
Y264330*
X135434Y264955*
X135746Y265267*
X136371Y265580*
X137309*
X137934Y265267*
X138246Y264955*
X138647Y54708D02*
X138335Y54395D01*
X137709Y54083*
X136772*
X136147Y54395*
X135835Y54708*
X135522Y55333*
Y56583*
X135835Y57208*
X136147Y57520*
X136772Y57833*
X137709*
X138335Y57520*
X138647Y57208*
Y62435D02*
X138335Y62122D01*
X137709Y61809*
X136772*
X136147Y62122*
X135835Y62435*
X135522Y63059*
Y64309*
X135835Y64935*
X136147Y65247*
X136772Y65559*
X137709*
X138335Y65247*
X138647Y64935*
X140162Y114943D02*
X141724Y118693D01*
X143287Y114943*
X140787Y116506D02*
X142662D01*
X145264Y55093D02*
X144951Y54780D01*
X144326Y54468*
X143389*
X142764Y54780*
X142451Y55093*
X142139Y55718*
Y56968*
X142451Y57593*
X142764Y57906*
X143389Y58218*
X144326*
X144951Y57906*
X145264Y57593*
Y62000D02*
X144951Y61687D01*
X144326Y61374*
X143389*
X142764Y61687*
X142451Y62000*
X142139Y62624*
Y63874*
X142451Y64500*
X142764Y64812*
X143389Y65124*
X144326*
X144951Y64812*
X145264Y64500*
Y68696D02*
X144951Y68384D01*
X144326Y68071*
X143389*
X142764Y68384*
X142451Y68696*
X142139Y69321*
Y70571*
X142451Y71196*
X142764Y71509*
X143389Y71821*
X144326*
X144951Y71509*
X145264Y71196*
X145746Y262455D02*
X145434Y262142D01*
X144809Y261830*
X143871*
X143246Y262142*
X142934Y262455*
X142621Y263080*
Y264330*
X142934Y264955*
X143246Y265267*
X143871Y265580*
X144809*
X145434Y265267*
X145746Y264955*
X144854Y188771D02*
X145479Y188459D01*
X145792Y187834*
X145479Y187209*
X144854Y186896*
X142667*
Y190646*
X144854*
X145479Y190334*
X145792Y189709*
X145479Y189084*
X144854Y188771*
X142667*
X143356Y75896D02*
X144918Y79646D01*
X146481Y75896*
X143981Y77459D02*
X145856D01*
X143356Y83396D02*
X144918Y87146D01*
X146481Y83396*
X143981Y84959D02*
X145856D01*
X143356Y90896D02*
X144918Y94646D01*
X146481Y90896*
X143981Y92459D02*
X145856D01*
X143356Y98396D02*
X144918Y102146D01*
X146481Y98396*
X143981Y99959D02*
X145856D01*
X146577Y249185D02*
X147202Y248872D01*
X147515Y248247*
X147202Y247622*
X146577Y247309*
X144389*
Y251059*
X146577*
X147202Y250747*
X147515Y250122*
X147202Y249497*
X146577Y249185*
X144389*
X144453Y121193D02*
X146015Y124943D01*
X147578Y121193*
X145078Y122756D02*
X146953D01*
X152627Y55093D02*
X152315Y54780D01*
X151689Y54468*
X150752*
X150127Y54780*
X149815Y55093*
X149502Y55718*
Y56968*
X149815Y57593*
X150127Y57906*
X150752Y58218*
X151689*
X152315Y57906*
X152627Y57593*
X152764Y62000D02*
X152451Y61687D01*
X151826Y61374*
X150889*
X150264Y61687*
X149951Y62000*
X149639Y62624*
Y63874*
X149951Y64500*
X150264Y64812*
X150889Y65124*
X151826*
X152451Y64812*
X152764Y64500*
Y68696D02*
X152451Y68384D01*
X151826Y68071*
X150889*
X150264Y68384*
X149951Y68696*
X149639Y69321*
Y70571*
X149951Y71196*
X150264Y71509*
X150889Y71821*
X151826*
X152451Y71509*
X152764Y71196*
X153246Y262455D02*
X152934Y262142D01*
X152309Y261830*
X151371*
X150746Y262142*
X150434Y262455*
X150121Y263080*
Y264330*
X150434Y264955*
X150746Y265267*
X151371Y265580*
X152309*
X152934Y265267*
X153246Y264955*
X153821Y122880D02*
X153508Y122567D01*
X152883Y122254*
X151946*
X151321Y122567*
X151008Y122880*
X150696Y123504*
Y124754*
X151008Y125380*
X151321Y125692*
X151946Y126004*
X152883*
X153508Y125692*
X153821Y125380*
X154854Y188771D02*
X155479Y188459D01*
X155792Y187834*
X155479Y187209*
X154854Y186896*
X152667*
Y190646*
X154854*
X155479Y190334*
X155792Y189709*
X155479Y189084*
X154854Y188771*
X152667*
X152750Y153396D02*
Y157146D01*
X154625*
X155250Y156834*
X155563Y156521*
X155875Y155896*
Y154646*
X155563Y154021*
X155250Y153709*
X154625Y153396*
X152750*
X156577Y249185D02*
X157202Y248872D01*
X157515Y248247*
X157202Y247622*
X156577Y247309*
X154389*
Y251059*
X156577*
X157202Y250747*
X157515Y250122*
X157202Y249497*
X156577Y249185*
X154389*
X156500Y110896D02*
Y114646D01*
X158375*
X159000Y114334*
X159313Y114021*
X159625Y113396*
Y112146*
X159313Y111521*
X159000Y111209*
X158375Y110896*
X156500*
X160264Y62000D02*
X159951Y61687D01*
X159326Y61374*
X158389*
X157764Y61687*
X157451Y62000*
X157139Y62624*
Y63874*
X157451Y64500*
X157764Y64812*
X158389Y65124*
X159326*
X159951Y64812*
X160264Y64500*
Y68696D02*
X159951Y68384D01*
X159326Y68071*
X158389*
X157764Y68384*
X157451Y68696*
X157139Y69321*
Y70571*
X157451Y71196*
X157764Y71509*
X158389Y71821*
X159326*
X159951Y71509*
X160264Y71196*
X160365Y55093D02*
X160052Y54780D01*
X159427Y54468*
X158490*
X157865Y54780*
X157552Y55093*
X157240Y55718*
Y56968*
X157552Y57593*
X157865Y57906*
X158490Y58218*
X159427*
X160052Y57906*
X160365Y57593*
X160746Y262455D02*
X160434Y262142D01*
X159809Y261830*
X158871*
X158246Y262142*
X157934Y262455*
X157621Y263080*
Y264330*
X157934Y264955*
X158246Y265267*
X158871Y265580*
X159809*
X160434Y265267*
X160746Y264955*
X162807Y161319D02*
X162494Y161006D01*
X161869Y160694*
X160931*
X160307Y161006*
X159994Y161319*
X159681Y161944*
Y163194*
X159994Y163819*
X160307Y164131*
X160931Y164444*
X161869*
X162494Y164131*
X162807Y163819*
X163056Y148714D02*
X162744Y148401D01*
X162119Y148089*
X161181*
X160556Y148401*
X160244Y148714*
X159931Y149339*
Y150589*
X160244Y151214*
X160556Y151526*
X161181Y151839*
X162119*
X162744Y151526*
X163056Y151214*
Y154580D02*
X162744Y154267D01*
X162119Y153954*
X161181*
X160556Y154267*
X160244Y154580*
X159931Y155204*
Y156454*
X160244Y157080*
X160556Y157392*
X161181Y157704*
X162119*
X162744Y157392*
X163056Y157080*
X167264Y54343D02*
X166951Y54030D01*
X166326Y53718*
X165389*
X164764Y54030*
X164451Y54343*
X164139Y54968*
Y56218*
X164451Y56843*
X164764Y57156*
X165389Y57468*
X166326*
X166951Y57156*
X167264Y56843*
Y61409D02*
X166951Y61097D01*
X166326Y60784*
X165389*
X164764Y61097*
X164451Y61409*
X164139Y62034*
Y63284*
X164451Y63909*
X164764Y64222*
X165389Y64534*
X166326*
X166951Y64222*
X167264Y63909*
Y68909D02*
X166951Y68597D01*
X166326Y68284*
X165389*
X164764Y68597*
X164451Y68909*
X164139Y69534*
Y70784*
X164451Y71409*
X164764Y71722*
X165389Y72034*
X166326*
X166951Y71722*
X167264Y71409*
Y76409D02*
X166951Y76097D01*
X166326Y75784*
X165389*
X164764Y76097*
X164451Y76409*
X164139Y77034*
Y78284*
X164451Y78909*
X164764Y79222*
X165389Y79534*
X166326*
X166951Y79222*
X167264Y78909*
Y83909D02*
X166951Y83597D01*
X166326Y83284*
X165389*
X164764Y83597*
X164451Y83909*
X164139Y84534*
Y85784*
X164451Y86409*
X164764Y86722*
X165389Y87034*
X166326*
X166951Y86722*
X167264Y86409*
Y91409D02*
X166951Y91097D01*
X166326Y90784*
X165389*
X164764Y91097*
X164451Y91409*
X164139Y92034*
Y93284*
X164451Y93909*
X164764Y94222*
X165389Y94534*
X166326*
X166951Y94222*
X167264Y93909*
X168246Y262455D02*
X167934Y262142D01*
X167309Y261830*
X166371*
X165746Y262142*
X165434Y262455*
X165121Y263080*
Y264330*
X165434Y264955*
X165746Y265267*
X166371Y265580*
X167309*
X167934Y265267*
X168246Y264955*
X167750Y122146D02*
Y125896D01*
X169625*
X170250Y125584*
X170563Y125271*
X170875Y124646*
Y123396*
X170563Y122771*
X170250Y122459*
X169625Y122146*
X167750*
X169000Y130896D02*
Y134646D01*
X170875*
X171500Y134334*
X171813Y134021*
X172125Y133396*
Y132146*
X171813Y131521*
X171500Y131209*
X170875Y130896*
X169000*
X174764Y61409D02*
X174451Y61097D01*
X173826Y60784*
X172889*
X172264Y61097*
X171951Y61409*
X171639Y62034*
Y63284*
X171951Y63909*
X172264Y64222*
X172889Y64534*
X173826*
X174451Y64222*
X174764Y63909*
Y68909D02*
X174451Y68597D01*
X173826Y68284*
X172889*
X172264Y68597*
X171951Y68909*
X171639Y69534*
Y70784*
X171951Y71409*
X172264Y71722*
X172889Y72034*
X173826*
X174451Y71722*
X174764Y71409*
Y76409D02*
X174451Y76097D01*
X173826Y75784*
X172889*
X172264Y76097*
X171951Y76409*
X171639Y77034*
Y78284*
X171951Y78909*
X172264Y79222*
X172889Y79534*
X173826*
X174451Y79222*
X174764Y78909*
Y83909D02*
X174451Y83597D01*
X173826Y83284*
X172889*
X172264Y83597*
X171951Y83909*
X171639Y84534*
Y85784*
X171951Y86409*
X172264Y86722*
X172889Y87034*
X173826*
X174451Y86722*
X174764Y86409*
Y91409D02*
X174451Y91097D01*
X173826Y90784*
X172889*
X172264Y91097*
X171951Y91409*
X171639Y92034*
Y93284*
X171951Y93909*
X172264Y94222*
X172889Y94534*
X173826*
X174451Y94222*
X174764Y93909*
X174877Y54343D02*
X174564Y54030D01*
X173939Y53718*
X173002*
X172377Y54030*
X172064Y54343*
X171752Y54968*
Y56218*
X172064Y56843*
X172377Y57156*
X173002Y57468*
X173939*
X174564Y57156*
X174877Y56843*
X175746Y262455D02*
X175434Y262142D01*
X174809Y261830*
X173871*
X173246Y262142*
X172934Y262455*
X172621Y263080*
Y264330*
X172934Y264955*
X173246Y265267*
X173871Y265580*
X174809*
X175434Y265267*
X175746Y264955*
X181765Y68685D02*
X181452Y68372D01*
X180827Y68059*
X179889*
X179265Y68372*
X178952Y68685*
X178639Y69309*
Y70559*
X178952Y71185*
X179265Y71497*
X179889Y71809*
X180827*
X181452Y71497*
X181765Y71185*
Y76185D02*
X181452Y75872D01*
X180827Y75559*
X179889*
X179265Y75872*
X178952Y76185*
X178639Y76809*
Y78059*
X178952Y78685*
X179265Y78997*
X179889Y79309*
X180827*
X181452Y78997*
X181765Y78685*
Y83685D02*
X181452Y83372D01*
X180827Y83059*
X179889*
X179265Y83372*
X178952Y83685*
X178639Y84309*
Y85559*
X178952Y86185*
X179265Y86497*
X179889Y86809*
X180827*
X181452Y86497*
X181765Y86185*
Y91185D02*
X181452Y90872D01*
X180827Y90559*
X179889*
X179265Y90872*
X178952Y91185*
X178639Y91809*
Y93059*
X178952Y93685*
X179265Y93997*
X179889Y94309*
X180827*
X181452Y93997*
X181765Y93685*
Y98685D02*
X181452Y98372D01*
X180827Y98059*
X179889*
X179265Y98372*
X178952Y98685*
X178639Y99309*
Y100559*
X178952Y101185*
X179265Y101497*
X179889Y101809*
X180827*
X181452Y101497*
X181765Y101185*
Y106185D02*
X181452Y105872D01*
X180827Y105559*
X179889*
X179265Y105872*
X178952Y106185*
X178639Y106809*
Y108059*
X178952Y108685*
X179265Y108997*
X179889Y109309*
X180827*
X181452Y108997*
X181765Y108685*
Y113685D02*
X181452Y113372D01*
X180827Y113059*
X179889*
X179265Y113372*
X178952Y113685*
X178639Y114309*
Y115559*
X178952Y116185*
X179265Y116497*
X179889Y116809*
X180827*
X181452Y116497*
X181765Y116185*
X182014Y121185D02*
X181701Y120872D01*
X181076Y120559*
X180139*
X179514Y120872*
X179201Y121185*
X178889Y121809*
Y123059*
X179201Y123685*
X179514Y123997*
X180139Y124309*
X181076*
X181701Y123997*
X182014Y123685*
X182139Y61072D02*
X181826Y60759D01*
X181201Y60446*
X180264*
X179639Y60759*
X179326Y61072*
X179014Y61696*
Y62946*
X179326Y63572*
X179639Y63884*
X180264Y64196*
X181201*
X181826Y63884*
X182139Y63572*
X182264Y53583D02*
X181951Y53271D01*
X181326Y52958*
X180389*
X179764Y53271*
X179451Y53583*
X179139Y54208*
Y55458*
X179451Y56083*
X179764Y56396*
X180389Y56708*
X181326*
X181951Y56396*
X182264Y56083*
X183246Y262455D02*
X182934Y262142D01*
X182309Y261830*
X181371*
X180746Y262142*
X180434Y262455*
X180121Y263080*
Y264330*
X180434Y264955*
X180746Y265267*
X181371Y265580*
X182309*
X182934Y265267*
X183246Y264955*
X188514Y121185D02*
X188201Y120872D01*
X187576Y120559*
X186639*
X186014Y120872*
X185701Y121185*
X185389Y121809*
Y123059*
X185701Y123685*
X186014Y123997*
X186639Y124309*
X187576*
X188201Y123997*
X188514Y123685*
X189246Y262455D02*
X188934Y262142D01*
X188309Y261830*
X187371*
X186746Y262142*
X186434Y262455*
X186121Y263080*
Y264330*
X186434Y264955*
X186746Y265267*
X187371Y265580*
X188309*
X188934Y265267*
X189246Y264955*
X189265Y68685D02*
X188952Y68372D01*
X188327Y68059*
X187389*
X186765Y68372*
X186452Y68685*
X186139Y69309*
Y70559*
X186452Y71185*
X186765Y71497*
X187389Y71809*
X188327*
X188952Y71497*
X189265Y71185*
Y76185D02*
X188952Y75872D01*
X188327Y75559*
X187389*
X186765Y75872*
X186452Y76185*
X186139Y76809*
Y78059*
X186452Y78685*
X186765Y78997*
X187389Y79309*
X188327*
X188952Y78997*
X189265Y78685*
Y83685D02*
X188952Y83372D01*
X188327Y83059*
X187389*
X186765Y83372*
X186452Y83685*
X186139Y84309*
Y85559*
X186452Y86185*
X186765Y86497*
X187389Y86809*
X188327*
X188952Y86497*
X189265Y86185*
Y91185D02*
X188952Y90872D01*
X188327Y90559*
X187389*
X186765Y90872*
X186452Y91185*
X186139Y91809*
Y93059*
X186452Y93685*
X186765Y93997*
X187389Y94309*
X188327*
X188952Y93997*
X189265Y93685*
Y98685D02*
X188952Y98372D01*
X188327Y98059*
X187389*
X186765Y98372*
X186452Y98685*
X186139Y99309*
Y100559*
X186452Y101185*
X186765Y101497*
X187389Y101809*
X188327*
X188952Y101497*
X189265Y101185*
Y106185D02*
X188952Y105872D01*
X188327Y105559*
X187389*
X186765Y105872*
X186452Y106185*
X186139Y106809*
Y108059*
X186452Y108685*
X186765Y108997*
X187389Y109309*
X188327*
X188952Y108997*
X189265Y108685*
Y113685D02*
X188952Y113372D01*
X188327Y113059*
X187389*
X186765Y113372*
X186452Y113685*
X186139Y114309*
Y115559*
X186452Y116185*
X186765Y116497*
X187389Y116809*
X188327*
X188952Y116497*
X189265Y116185*
X189639Y61072D02*
X189326Y60759D01*
X188701Y60446*
X187764*
X187139Y60759*
X186826Y61072*
X186514Y61696*
Y62946*
X186826Y63572*
X187139Y63884*
X187764Y64196*
X188701*
X189326Y63884*
X189639Y63572*
X189764Y53583D02*
X189451Y53271D01*
X188826Y52958*
X187889*
X187264Y53271*
X186951Y53583*
X186639Y54208*
Y55458*
X186951Y56083*
X187264Y56396*
X187889Y56708*
X188826*
X189451Y56396*
X189764Y56083*
X194015Y75786D02*
X193703Y75473D01*
X193078Y75161*
X192140*
X191515Y75473*
X191203Y75786*
X190890Y76411*
Y77661*
X191203Y78286*
X191515Y78598*
X192140Y78911*
X193078*
X193703Y78598*
X194015Y78286*
Y83286D02*
X193703Y82973D01*
X193078Y82661*
X192140*
X191515Y82973*
X191203Y83286*
X190890Y83911*
Y85161*
X191203Y85786*
X191515Y86098*
X192140Y86411*
X193078*
X193703Y86098*
X194015Y85786*
Y90786D02*
X193703Y90473D01*
X193078Y90161*
X192140*
X191515Y90473*
X191203Y90786*
X190890Y91411*
Y92661*
X191203Y93286*
X191515Y93598*
X192140Y93911*
X193078*
X193703Y93598*
X194015Y93286*
Y98286D02*
X193703Y97973D01*
X193078Y97661*
X192140*
X191515Y97973*
X191203Y98286*
X190890Y98911*
Y100161*
X191203Y100786*
X191515Y101098*
X192140Y101411*
X193078*
X193703Y101098*
X194015Y100786*
Y105786D02*
X193703Y105473D01*
X193078Y105161*
X192140*
X191515Y105473*
X191203Y105786*
X190890Y106411*
Y107661*
X191203Y108286*
X191515Y108598*
X192140Y108911*
X193078*
X193703Y108598*
X194015Y108286*
Y113286D02*
X193703Y112973D01*
X193078Y112661*
X192140*
X191515Y112973*
X191203Y113286*
X190890Y113911*
Y115161*
X191203Y115786*
X191515Y116098*
X192140Y116411*
X193078*
X193703Y116098*
X194015Y115786*
Y120786D02*
X193703Y120473D01*
X193078Y120161*
X192140*
X191515Y120473*
X191203Y120786*
X190890Y121411*
Y122661*
X191203Y123286*
X191515Y123598*
X192140Y123911*
X193078*
X193703Y123598*
X194015Y123286*
Y128286D02*
X193703Y127973D01*
X193078Y127661*
X192140*
X191515Y127973*
X191203Y128286*
X190890Y128911*
Y130161*
X191203Y130786*
X191515Y131098*
X192140Y131411*
X193078*
X193703Y131098*
X194015Y130786*
X194265Y166388D02*
X193952Y166075D01*
X193327Y165763*
X192390*
X191765Y166075*
X191452Y166388*
X191140Y167013*
Y168263*
X191452Y168888*
X191765Y169200*
X192390Y169513*
X193327*
X193952Y169200*
X194265Y168888*
Y173888D02*
X193952Y173575D01*
X193327Y173263*
X192390*
X191765Y173575*
X191452Y173888*
X191140Y174513*
Y175763*
X191452Y176388*
X191765Y176700*
X192390Y177013*
X193327*
X193952Y176700*
X194265Y176388*
Y181388D02*
X193952Y181075D01*
X193327Y180763*
X192390*
X191765Y181075*
X191452Y181388*
X191140Y182013*
Y183263*
X191452Y183888*
X191765Y184200*
X192390Y184513*
X193327*
X193952Y184200*
X194265Y183888*
Y188888D02*
X193952Y188575D01*
X193327Y188263*
X192390*
X191765Y188575*
X191452Y188888*
X191140Y189513*
Y190763*
X191452Y191388*
X191765Y191700*
X192390Y192013*
X193327*
X193952Y191700*
X194265Y191388*
Y196388D02*
X193952Y196075D01*
X193327Y195763*
X192390*
X191765Y196075*
X191452Y196388*
X191140Y197013*
Y198263*
X191452Y198888*
X191765Y199200*
X192390Y199513*
X193327*
X193952Y199200*
X194265Y198888*
Y203888D02*
X193952Y203575D01*
X193327Y203263*
X192390*
X191765Y203575*
X191452Y203888*
X191140Y204513*
Y205763*
X191452Y206388*
X191765Y206700*
X192390Y207013*
X193327*
X193952Y206700*
X194265Y206388*
Y211388D02*
X193952Y211075D01*
X193327Y210763*
X192390*
X191765Y211075*
X191452Y211388*
X191140Y212013*
Y213263*
X191452Y213888*
X191765Y214200*
X192390Y214513*
X193327*
X193952Y214200*
X194265Y213888*
Y218888D02*
X193952Y218575D01*
X193327Y218263*
X192390*
X191765Y218575*
X191452Y218888*
X191140Y219513*
Y220763*
X191452Y221388*
X191765Y221700*
X192390Y222013*
X193327*
X193952Y221700*
X194265Y221388*
Y226388D02*
X193952Y226075D01*
X193327Y225763*
X192390*
X191765Y226075*
X191452Y226388*
X191140Y227013*
Y228263*
X191452Y228888*
X191765Y229200*
X192390Y229513*
X193327*
X193952Y229200*
X194265Y228888*
Y233888D02*
X193952Y233575D01*
X193327Y233263*
X192390*
X191765Y233575*
X191452Y233888*
X191140Y234513*
Y235763*
X191452Y236388*
X191765Y236700*
X192390Y237013*
X193327*
X193952Y236700*
X194265Y236388*
Y241388D02*
X193952Y241075D01*
X193327Y240763*
X192390*
X191765Y241075*
X191452Y241388*
X191140Y242013*
Y243263*
X191452Y243888*
X191765Y244200*
X192390Y244513*
X193327*
X193952Y244200*
X194265Y243888*
Y248888D02*
X193952Y248575D01*
X193327Y248263*
X192390*
X191765Y248575*
X191452Y248888*
X191140Y249513*
Y250763*
X191452Y251388*
X191765Y251700*
X192390Y252013*
X193327*
X193952Y251700*
X194265Y251388*
Y256388D02*
X193952Y256075D01*
X193327Y255763*
X192390*
X191765Y256075*
X191452Y256388*
X191140Y257013*
Y258263*
X191452Y258888*
X191765Y259200*
X192390Y259513*
X193327*
X193952Y259200*
X194265Y258888*
X194390Y68173D02*
X194077Y67860D01*
X193452Y67548*
X192515*
X191890Y67860*
X191577Y68173*
X191265Y68798*
Y70048*
X191577Y70673*
X191890Y70985*
X192515Y71298*
X193452*
X194077Y70985*
X194390Y70673*
X194515Y60685D02*
X194202Y60372D01*
X193577Y60059*
X192639*
X192015Y60372*
X191702Y60685*
X191389Y61309*
Y62559*
X191702Y63185*
X192015Y63497*
X192639Y63809*
X193577*
X194202Y63497*
X194515Y63185*
X194765Y143888D02*
X194452Y143575D01*
X193827Y143263*
X192890*
X192265Y143575*
X191952Y143888*
X191640Y144513*
Y145763*
X191952Y146388*
X192265Y146700*
X192890Y147013*
X193827*
X194452Y146700*
X194765Y146388*
Y151388D02*
X194452Y151075D01*
X193827Y150763*
X192890*
X192265Y151075*
X191952Y151388*
X191640Y152013*
Y153263*
X191952Y153888*
X192265Y154200*
X192890Y154513*
X193827*
X194452Y154200*
X194765Y153888*
Y158888D02*
X194452Y158575D01*
X193827Y158263*
X192890*
X192265Y158575*
X191952Y158888*
X191640Y159513*
Y160763*
X191952Y161388*
X192265Y161700*
X192890Y162013*
X193827*
X194452Y161700*
X194765Y161388*
X194863Y262480D02*
X194551Y262167D01*
X193926Y261855*
X192988*
X192363Y262167*
X192051Y262480*
X191738Y263105*
Y264355*
X192051Y264980*
X192363Y265293*
X192988Y265605*
X193926*
X194551Y265293*
X194863Y264980*
X195015Y135286D02*
X194703Y134973D01*
X194078Y134661*
X193140*
X192515Y134973*
X192203Y135286*
X191890Y135911*
Y137161*
X192203Y137786*
X192515Y138098*
X193140Y138411*
X194078*
X194703Y138098*
X195015Y137786*
D02*
D72*
X6139Y255872D03*
X6889Y54372D03*
Y61872D03*
Y69122D03*
Y76872D03*
Y84372D03*
Y91872D03*
Y99372D03*
Y106872D03*
Y114372D03*
Y121872D03*
Y129372D03*
Y136872D03*
Y144372D03*
Y151872D03*
Y159372D03*
Y166872D03*
Y174372D03*
Y181872D03*
Y189372D03*
Y196872D03*
Y204372D03*
Y211872D03*
Y219372D03*
Y226872D03*
Y234372D03*
Y241872D03*
Y249372D03*
X11787Y48247D03*
Y55747D03*
Y63247D03*
Y70747D03*
Y78247D03*
X12025Y109300D03*
X12185Y116289D03*
X12209Y86277D03*
Y93777D03*
Y101277D03*
X12621Y255892D03*
X18639Y48372D03*
Y55872D03*
Y63372D03*
Y70860D03*
X19139Y78224D03*
X19263Y86086D03*
X19513Y93824D03*
Y101437D03*
X19525Y109300D03*
X19685Y116289D03*
X20121Y255892D03*
X26139Y48372D03*
Y55872D03*
Y63372D03*
Y70860D03*
X26639Y78224D03*
X26763Y86086D03*
X27013Y93824D03*
Y101437D03*
X27025Y109300D03*
X27185Y116289D03*
X27621Y255892D03*
X32750Y180959D03*
X33889Y48872D03*
Y56372D03*
Y63872D03*
Y71360D03*
X34389Y78724D03*
X34389Y241372D03*
X34513Y86586D03*
X34763Y94324D03*
Y101937D03*
X35121Y255892D03*
X41639Y48622D03*
Y56122D03*
Y63622D03*
Y71122D03*
X42621Y255892D03*
X42750Y180959D03*
X44389Y241372D03*
X48639Y76622D03*
X49139Y48622D03*
Y56122D03*
Y63622D03*
Y71122D03*
X50121Y255892D03*
X52750Y180959D03*
X54389Y241372D03*
X55639Y76872D03*
X56639Y48622D03*
Y56122D03*
Y63622D03*
Y71122D03*
X57621Y255892D03*
X62750Y180959D03*
Y190959D03*
X64139Y48622D03*
Y56122D03*
Y63622D03*
Y71122D03*
X64389Y241372D03*
X65121Y255892D03*
X66500Y146209D03*
X67250Y219459D03*
X71639Y48622D03*
Y56122D03*
Y63622D03*
Y71122D03*
X72621Y255892D03*
X72750Y180959D03*
X74250Y81459D03*
X74389Y241372D03*
X77250Y219459D03*
X79139Y63122D03*
X80121Y255892D03*
X81500Y169364D03*
X82187Y52863D03*
X82750Y180959D03*
X84389Y241372D03*
X84765Y70660D03*
Y73660D03*
Y76660D03*
Y79641D03*
Y82641D03*
Y85641D03*
Y88641D03*
X84889Y91622D03*
Y94622D03*
Y97622D03*
Y100622D03*
X87621Y255892D03*
X91150Y127018D03*
X92750Y180959D03*
X94389Y241372D03*
X95121Y255892D03*
X95639Y74891D03*
Y77891D03*
Y80622D03*
Y83622D03*
Y86622D03*
Y89622D03*
Y92622D03*
Y95622D03*
X96662Y121506D03*
X99261Y52863D03*
X99505Y71887D03*
X100250Y163709D03*
X102174Y115994D03*
X102621Y255892D03*
X102750Y180959D03*
X104389Y241372D03*
X106874Y137750D03*
X108522Y48395D03*
X108657Y56095D03*
X110121Y255892D03*
X112116Y78626D03*
X112241Y84617D03*
X112365Y91107D03*
X112639Y48145D03*
Y55872D03*
X112667Y180959D03*
X114389Y241372D03*
X117621Y255892D03*
X118605Y62459D03*
X119336Y48145D03*
Y55872D03*
X120500Y139006D03*
X122667Y180959D03*
X123162Y115256D03*
X124389Y241372D03*
X125121Y255892D03*
X125522Y48145D03*
Y55872D03*
X130162Y109006D03*
X132139Y48530D03*
Y55437D03*
Y62134D03*
X132621Y255892D03*
X132667Y180959D03*
X133356Y69959D03*
Y77459D03*
Y84959D03*
Y92459D03*
X134389Y241372D03*
X134453Y115256D03*
X139502Y48530D03*
X139639Y55437D03*
Y62134D03*
X140121Y255892D03*
X140696Y116317D03*
X142667Y180959D03*
X142750Y147459D03*
X144389Y241372D03*
X146500Y104959D03*
X147139Y55437D03*
Y62134D03*
X147240Y48530D03*
X147621Y255892D03*
X149681Y154756D03*
X149931Y142151D03*
Y148017D03*
X154139Y47780D03*
Y54847D03*
Y62347D03*
Y69847D03*
Y77347D03*
Y84847D03*
X155121Y255892D03*
X157750Y116209D03*
X159000Y124959D03*
X161639Y54847D03*
Y62347D03*
Y69847D03*
Y77347D03*
Y84847D03*
X161752Y47780D03*
X162621Y255892D03*
X168639Y62122D03*
Y69622D03*
Y77122D03*
Y84622D03*
Y92122D03*
Y99622D03*
Y107122D03*
X168889Y114622D03*
X169014Y54509D03*
X169139Y47021D03*
X170121Y255892D03*
X175389Y114622D03*
X176121Y255892D03*
X176139Y62122D03*
Y69622D03*
Y77122D03*
Y84622D03*
Y92122D03*
Y99622D03*
Y107122D03*
X176514Y54509D03*
X176639Y47021D03*
X180890Y69223D03*
Y76723D03*
Y84223D03*
Y91723D03*
Y99223D03*
Y106723D03*
Y114223D03*
Y121723D03*
X181140Y159825D03*
Y167325D03*
Y174825D03*
Y182325D03*
Y189825D03*
Y197325D03*
Y204825D03*
Y212325D03*
Y219825D03*
Y227325D03*
Y234825D03*
Y242325D03*
Y249825D03*
X181265Y61610D03*
X181389Y54122D03*
X181640Y137325D03*
Y144825D03*
Y152325D03*
X181738Y255917D03*
X181890Y128723D03*
X0Y0D02*
M02*
