G04 DesignSpark PCB Gerber Version 9.0 Build 5138 *
G04 #@! TF.Part,Single*
G04 #@! TF.FileFunction,Legend,Top *
G04 #@! TF.FilePolarity,Positive *
%FSLAX35Y35*%
%MOIN*%
%ADD78C,0.00300*%
%ADD75C,0.00394*%
%ADD71C,0.00500*%
%ADD77C,0.00600*%
%ADD76C,0.00787*%
%ADD20C,0.01000*%
X0Y0D02*
D02*
D71*
X29463Y123724D02*
X29151Y123411D01*
X28526Y123099*
X27588*
X26963Y123411*
X26651Y123724*
X26338Y124349*
Y125599*
X26651Y126224*
X26963Y126537*
X27588Y126849*
X28526*
X29151Y126537*
X29463Y126224*
X31963Y123099D02*
X33213D01*
X32588D02*
Y126849D01*
X31963Y126224*
X36651Y123411D02*
X37276Y123099D01*
X37901*
X38526Y123411*
X38838Y124037*
Y125911*
X38526Y126537*
X37901Y126849*
X37276*
X36651Y126537*
X36338Y125911*
Y124037*
X36651Y123411*
X38526Y126537*
X32765Y120685D02*
X32452Y120372D01*
X31827Y120059*
X30889*
X30265Y120372*
X29952Y120685*
X29639Y121309*
Y122559*
X29952Y123185*
X30265Y123497*
X30889Y123809*
X31827*
X32452Y123497*
X32765Y123185*
X35265Y120059D02*
X36515D01*
X35889D02*
Y123809D01*
X35265Y123185*
X40265Y120059D02*
X41515D01*
X40889D02*
Y123809D01*
X40265Y123185*
X34015Y90685D02*
X33702Y90372D01*
X33077Y90059*
X32139*
X31515Y90372*
X31202Y90685*
X30889Y91309*
Y92559*
X31202Y93185*
X31515Y93497*
X32139Y93809*
X33077*
X33702Y93497*
X34015Y93185*
X35889Y90997D02*
X36202Y91622D01*
X36827Y91935*
X37452*
X38077Y91622*
X38389Y90997*
X38077Y90372*
X37452Y90059*
X36827*
X36202Y90372*
X35889Y90997*
Y91935*
X36202Y92872*
X36827Y93497*
X37452Y93809*
X32338Y130099D02*
Y133849D01*
X34526*
X35151Y133537*
X35463Y132911*
X35151Y132287*
X34526Y131974*
X32338*
X34526D02*
X35463Y130099D01*
X37963D02*
X39213D01*
X38588D02*
Y133849D01*
X37963Y133224*
X32750Y188896D02*
Y192646D01*
X34937*
X35563Y192334*
X35875Y191709*
X35563Y191084*
X34937Y190771*
X32750*
X37750Y192646D02*
Y188896D01*
X40875*
X43375D02*
X44625D01*
X44000D02*
Y192646D01*
X43375Y192021*
X47750Y189834D02*
X48063Y190459D01*
X48687Y190771*
X49313*
X49937Y190459*
X50250Y189834*
X49937Y189209*
X49313Y188896*
X48687*
X48063Y189209*
X47750Y189834*
Y190771*
X48063Y191709*
X48687Y192334*
X49313Y192646*
X37639Y107809D02*
Y111559D01*
X39827*
X40452Y111247*
X40765Y110622*
X40452Y109997*
X39827Y109685*
X37639*
X39827D02*
X40765Y107809D01*
X42952Y108122D02*
X43577Y107809D01*
X44202*
X44827Y108122*
X45139Y108747*
X44827Y109372*
X44202Y109685*
X43577*
X44202D02*
X44827Y109997D01*
X45139Y110622*
X44827Y111247*
X44202Y111559*
X43577*
X42952Y111247*
X39100Y114809D02*
Y120109D01*
X51400*
Y114809*
X39100*
X39389Y248059D02*
Y251809D01*
X41577*
X42202Y251497*
X42515Y250872*
X42202Y250247*
X41577Y249935*
X39389*
X44389Y251809D02*
Y248059D01*
X47515*
X50015D02*
X51265D01*
X50639D02*
Y251809D01*
X50015Y251185*
X54389Y248372D02*
X55015Y248059D01*
X55952*
X56577Y248372*
X56889Y248997*
Y249309*
X56577Y249935*
X55952Y250247*
X54389*
Y251809*
X56889*
X43375Y76521D02*
X43063Y76209D01*
X42437Y75896*
X41500*
X40875Y76209*
X40563Y76521*
X40250Y77146*
Y78396*
X40563Y79021*
X40875Y79334*
X41500Y79646*
X42437*
X43063Y79334*
X43375Y79021*
X46187Y77771D02*
X46813D01*
X47437Y78084*
X47750Y78709*
X47437Y79334*
X46813Y79646*
X46187*
X45563Y79334*
X45250Y78709*
X45563Y78084*
X46187Y77771*
X45563Y77459*
X45250Y76834*
X45563Y76209*
X46187Y75896*
X46813*
X47437Y76209*
X47750Y76834*
X47437Y77459*
X46813Y77771*
X40500Y112959D02*
Y96959D01*
X47500*
Y112959*
X40500*
X41600Y88559D02*
Y93859D01*
X53900*
Y88559*
X41600*
Y121059D02*
Y126359D01*
X53900*
Y121059*
X41600*
X45875Y142771D02*
X45563Y142459D01*
X44937Y142146*
X44000*
X43375Y142459*
X43063Y142771*
X42750Y143396*
Y144646*
X43063Y145271*
X43375Y145584*
X44000Y145896*
X44937*
X45563Y145584*
X45875Y145271*
X48375Y142146D02*
X49625D01*
X49000D02*
Y145896D01*
X48375Y145271*
X44250Y217396D02*
Y221146D01*
X46437*
X47063Y220834*
X47375Y220209*
X47063Y219584*
X46437Y219271*
X44250*
X49250Y221146D02*
Y217396D01*
X52375*
X54875D02*
X56125D01*
X55500D02*
Y221146D01*
X54875Y220521*
X52125Y96521D02*
X51813Y96209D01*
X51187Y95896*
X50250*
X49625Y96209*
X49313Y96521*
X49000Y97146*
Y98396*
X49313Y99021*
X49625Y99334*
X50250Y99646*
X51187*
X51813Y99334*
X52125Y99021*
X54000Y95896D02*
X56500Y99646D01*
X54000*
X52125Y149021D02*
X51813Y148709D01*
X51187Y148396*
X50250*
X49625Y148709*
X49313Y149021*
X49000Y149646*
Y150896*
X49313Y151521*
X49625Y151834*
X50250Y152146*
X51187*
X51813Y151834*
X52125Y151521*
X56500Y148396D02*
X54000D01*
X56187Y150584*
X56500Y151209*
X56187Y151834*
X55563Y152146*
X54625*
X54000Y151834*
X50100Y112359D02*
X55400D01*
Y100059*
X50100*
Y112359*
X52650Y86359D02*
Y81059D01*
X40350*
Y86359*
X52650*
X58375Y90271D02*
X58063Y89959D01*
X57437Y89646*
X56500*
X55875Y89959*
X55563Y90271*
X55250Y90896*
Y92146*
X55563Y92771*
X55875Y93084*
X56500Y93396*
X57437*
X58063Y93084*
X58375Y92771*
X60250Y89959D02*
X60875Y89646D01*
X61813*
X62437Y89959*
X62750Y90584*
Y90896*
X62437Y91521*
X61813Y91834*
X60250*
Y93396*
X62750*
X59625Y82771D02*
X59313Y82459D01*
X58687Y82146*
X57750*
X57125Y82459*
X56813Y82771*
X56500Y83396*
Y84646*
X56813Y85271*
X57125Y85584*
X57750Y85896*
X58687*
X59313Y85584*
X59625Y85271*
X63063Y82146D02*
Y85896D01*
X61500Y83396*
X64000*
X58250Y134709D02*
X42250D01*
Y127709*
X58250*
Y134709*
X58900Y141359D02*
Y136059D01*
X46600*
Y141359*
X58900*
X62213Y115271D02*
X61901Y114959D01*
X61276Y114646*
X60338*
X59713Y114959*
X59401Y115271*
X59088Y115896*
Y117146*
X59401Y117771*
X59713Y118084*
X60338Y118396*
X61276*
X61901Y118084*
X62213Y117771*
X65026Y114646D02*
X65651Y114959D01*
X66276Y115584*
X66588Y116521*
Y117459*
X66276Y118084*
X65651Y118396*
X65026*
X64401Y118084*
X64088Y117459*
X64401Y116834*
X65026Y116521*
X65651*
X66276Y116834*
X66588Y117459*
X65875Y156521D02*
X65563Y156209D01*
X64937Y155896*
X64000*
X63375Y156209*
X63063Y156521*
X62750Y157146*
Y158396*
X63063Y159021*
X63375Y159334*
X64000Y159646*
X64937*
X65563Y159334*
X65875Y159021*
X70250Y155896D02*
X67750D01*
X69937Y158084*
X70250Y158709*
X69937Y159334*
X69313Y159646*
X68375*
X67750Y159334*
X72750Y156209D02*
X73375Y155896D01*
X74313*
X74937Y156209*
X75250Y156834*
Y157146*
X74937Y157771*
X74313Y158084*
X72750*
Y159646*
X75250*
X62900Y143809D02*
X57600D01*
Y156109*
X62900*
Y143809*
X66265Y75435D02*
X65952Y75122D01*
X65327Y74809*
X64389*
X63765Y75122*
X63452Y75435*
X63139Y76059*
Y77309*
X63452Y77935*
X63765Y78247*
X64389Y78559*
X65327*
X65952Y78247*
X66265Y77935*
X70639Y74809D02*
X68139D01*
X70327Y76997*
X70639Y77622*
X70327Y78247*
X69702Y78559*
X68765*
X68139Y78247*
X73452Y75122D02*
X74077Y74809D01*
X74702*
X75327Y75122*
X75639Y75747*
Y77622*
X75327Y78247*
X74702Y78559*
X74077*
X73452Y78247*
X73139Y77622*
Y75747*
X73452Y75122*
X75327Y78247*
X67125Y166521D02*
X66813Y166209D01*
X66187Y165896*
X65250*
X64625Y166209*
X64313Y166521*
X64000Y167146*
Y168396*
X64313Y169021*
X64625Y169334*
X65250Y169646*
X66187*
X66813Y169334*
X67125Y169021*
X71500Y165896D02*
X69000D01*
X71187Y168084*
X71500Y168709*
X71187Y169334*
X70563Y169646*
X69625*
X69000Y169334*
X74313Y166209D02*
X74937Y165896D01*
X75563*
X76187Y166209*
X76500Y166834*
X76187Y167459*
X75563Y167771*
X74937*
X75563D02*
X76187Y168084D01*
X76500Y168709*
X76187Y169334*
X75563Y169646*
X74937*
X74313Y169334*
X65100Y93609D02*
X70400D01*
Y81309*
X65100*
Y93609*
X66901Y143099D02*
Y144974D01*
X65338Y146849*
X66901Y144974D02*
X68463Y146849D01*
X70963Y143099D02*
X72213D01*
X71588D02*
Y146849D01*
X70963Y146224*
X65400Y101309D02*
X60100D01*
Y113609*
X65400*
Y101309*
X66762Y107606D02*
Y112906D01*
X79062*
Y107606*
X66762*
X71515Y62435D02*
X71202Y62122D01*
X70577Y61809*
X69639*
X69015Y62122*
X68702Y62435*
X68389Y63059*
Y64309*
X68702Y64935*
X69015Y65247*
X69639Y65559*
X70577*
X71202Y65247*
X71515Y64935*
X73702Y62122D02*
X74327Y61809D01*
X74952*
X75577Y62122*
X75889Y62747*
X75577Y63372*
X74952Y63685*
X74327*
X74952D02*
X75577Y63997D01*
X75889Y64622*
X75577Y65247*
X74952Y65559*
X74327*
X73702Y65247*
X79015Y61809D02*
X80265D01*
X79639D02*
Y65559D01*
X79015Y64935*
X71562Y100109D02*
Y94809D01*
X59262*
Y100109*
X71562*
X71600Y158559D02*
Y163859D01*
X83900*
Y158559*
X71600*
X75875Y114021D02*
X75563Y113709D01*
X74937Y113396*
X74000*
X73375Y113709*
X73063Y114021*
X72750Y114646*
Y115896*
X73063Y116521*
X73375Y116834*
X74000Y117146*
X74937*
X75563Y116834*
X75875Y116521*
X78063Y113709D02*
X78687Y113396D01*
X79313*
X79937Y113709*
X80250Y114334*
X79937Y114959*
X79313Y115271*
X78687*
X79313D02*
X79937Y115584D01*
X80250Y116209*
X79937Y116834*
X79313Y117146*
X78687*
X78063Y116834*
X73162Y105756D02*
Y89756D01*
X80162*
Y105756*
X73162*
X74000Y103396D02*
Y107146D01*
X76187*
X76813Y106834*
X77125Y106209*
X76813Y105584*
X76187Y105271*
X74000*
X76187D02*
X77125Y103396D01*
X81500D02*
X79000D01*
X81187Y105584*
X81500Y106209*
X81187Y106834*
X80563Y107146*
X79625*
X79000Y106834*
X75400Y143559D02*
X70100D01*
Y155859*
X75400*
Y143559*
X77600Y84109D02*
X82900D01*
Y71809*
X77600*
Y84109*
X83375Y140271D02*
X83063Y139959D01*
X82437Y139646*
X81500*
X80875Y139959*
X80563Y140271*
X80250Y140896*
Y142146*
X80563Y142771*
X80875Y143084*
X81500Y143396*
X82437*
X83063Y143084*
X83375Y142771*
X87750Y139646D02*
X85250D01*
X87437Y141834*
X87750Y142459*
X87437Y143084*
X86813Y143396*
X85875*
X85250Y143084*
X91813Y139646D02*
Y143396D01*
X90250Y140896*
X92750*
X81389Y248559D02*
Y252309D01*
X83577*
X84202Y251997*
X84515Y251372*
X84202Y250747*
X83577Y250435*
X81389*
X86389Y252309D02*
Y248559D01*
X89515*
X92015D02*
X93265D01*
X92639D02*
Y252309D01*
X92015Y251685*
X96702Y248872D02*
X97327Y248559D01*
X97952*
X98577Y248872*
X98889Y249497*
X98577Y250122*
X97952Y250435*
X97327*
X97952D02*
X98577Y250747D01*
X98889Y251372*
X98577Y251997*
X97952Y252309*
X97327*
X96702Y251997*
X82900Y143559D02*
X77600D01*
Y155859*
X82900*
Y143559*
X86750Y185896D02*
Y189646D01*
X88937*
X89563Y189334*
X89875Y188709*
X89563Y188084*
X88937Y187771*
X86750*
X91750Y189646D02*
Y185896D01*
X94875*
X97375D02*
X98625D01*
X98000D02*
Y189646D01*
X97375Y189021*
X101750Y185896D02*
X104250Y189646D01*
X101750*
X89554Y58725D02*
X85754D01*
Y68325*
X89554*
Y58725*
X90100Y172109D02*
X95400D01*
Y159809*
X90100*
Y172109*
X91350Y68325D02*
X95150D01*
Y58725*
X91350*
Y68325*
X98875Y61685D02*
X98563Y61372D01*
X97937Y61059*
X97000*
X96375Y61372*
X96063Y61685*
X95750Y62309*
Y63559*
X96063Y64185*
X96375Y64497*
X97000Y64809*
X97937*
X98563Y64497*
X98875Y64185*
X101063Y61372D02*
X101687Y61059D01*
X102313*
X102937Y61372*
X103250Y61997*
X102937Y62622*
X102313Y62935*
X101687*
X102313D02*
X102937Y63247D01*
X103250Y63872*
X102937Y64497*
X102313Y64809*
X101687*
X101063Y64497*
X106063Y61372D02*
X106687Y61059D01*
X107313*
X107937Y61372*
X108250Y61997*
Y63872*
X107937Y64497*
X107313Y64809*
X106687*
X106063Y64497*
X105750Y63872*
Y61997*
X106063Y61372*
X107937Y64497*
X96424Y158703D02*
X101724D01*
Y146403*
X96424*
Y158703*
X99625Y169021D02*
X99313Y168709D01*
X98687Y168396*
X97750*
X97125Y168709*
X96813Y169021*
X96500Y169646*
Y170896*
X96813Y171521*
X97125Y171834*
X97750Y172146*
X98687*
X99313Y171834*
X99625Y171521*
X104000Y168396D02*
X101500D01*
X103687Y170584*
X104000Y171209*
X103687Y171834*
X103063Y172146*
X102125*
X101500Y171834*
X107437Y170271D02*
X108063D01*
X108687Y170584*
X109000Y171209*
X108687Y171834*
X108063Y172146*
X107437*
X106813Y171834*
X106500Y171209*
X106813Y170584*
X107437Y170271*
X106813Y169959*
X106500Y169334*
X106813Y168709*
X107437Y168396*
X108063*
X108687Y168709*
X109000Y169334*
X108687Y169959*
X108063Y170271*
X97599Y122443D02*
X98849D01*
X98224D02*
Y126193D01*
X97599D02*
X98849D01*
X104787Y123069D02*
X104474Y122756D01*
X103849Y122443*
X102912*
X102287Y122756*
X101974Y123069*
X101662Y123693*
Y124943*
X101974Y125569*
X102287Y125881*
X102912Y126193*
X103849*
X104474Y125881*
X104787Y125569*
X107287Y122443D02*
X108537D01*
X107912D02*
Y126193D01*
X107287Y125569*
X96855Y75976D02*
Y81276D01*
X109155*
Y75976*
X96855*
Y81967D02*
Y87267D01*
X109155*
Y81967*
X96855*
Y88457D02*
Y93757D01*
X109155*
Y88457*
X96855*
X104133Y94791D02*
X103821Y94478D01*
X103196Y94166*
X102258*
X101633Y94478*
X101321Y94791*
X101008Y95416*
Y96666*
X101321Y97291*
X101633Y97604*
X102258Y97916*
X103196*
X103821Y97604*
X104133Y97291*
X106633Y94166D02*
X107883D01*
X107258D02*
Y97916D01*
X106633Y97291*
X111321Y94478D02*
X111946Y94166D01*
X112571*
X113196Y94478*
X113508Y95104*
X113196Y95728*
X112571Y96041*
X111946*
X112571D02*
X113196Y96354D01*
X113508Y96978*
X113196Y97604*
X112571Y97916*
X111946*
X111321Y97604*
X105875Y156521D02*
X105563Y156209D01*
X104937Y155896*
X104000*
X103375Y156209*
X103063Y156521*
X102750Y157146*
Y158396*
X103063Y159021*
X103375Y159334*
X104000Y159646*
X104937*
X105563Y159334*
X105875Y159021*
X110250Y155896D02*
X107750D01*
X109937Y158084*
X110250Y158709*
X109937Y159334*
X109313Y159646*
X108375*
X107750Y159334*
X113687Y155896D02*
X114313Y156209D01*
X114937Y156834*
X115250Y157771*
Y158709*
X114937Y159334*
X114313Y159646*
X113687*
X113063Y159334*
X112750Y158709*
X113063Y158084*
X113687Y157771*
X114313*
X114937Y158084*
X115250Y158709*
X106879Y85680D02*
X106567Y85368D01*
X105941Y85055*
X105004*
X104379Y85368*
X104067Y85680*
X103754Y86305*
Y87555*
X104067Y88180*
X104379Y88493*
X105004Y88805*
X105941*
X106567Y88493*
X106879Y88180*
X109379Y85055D02*
X110629D01*
X110004D02*
Y88805D01*
X109379Y88180*
X115317Y85055D02*
Y88805D01*
X113754Y86305*
X116254*
X108127Y72701D02*
X107815Y72388D01*
X107189Y72076*
X106252*
X105627Y72388*
X105315Y72701*
X105002Y73326*
Y74576*
X105315Y75201*
X105627Y75513*
X106252Y75826*
X107189*
X107815Y75513*
X108127Y75201*
X110627Y72076D02*
X111877D01*
X111252D02*
Y75826D01*
X110627Y75201*
X115002Y72388D02*
X115627Y72076D01*
X116565*
X117189Y72388*
X117502Y73013*
Y73326*
X117189Y73951*
X116565Y74263*
X115002*
Y75826*
X117502*
X109625Y145271D02*
X109313Y144959D01*
X108687Y144646*
X107750*
X107125Y144959*
X106813Y145271*
X106500Y145896*
Y147146*
X106813Y147771*
X107125Y148084*
X107750Y148396*
X108687*
X109313Y148084*
X109625Y147771*
X114000Y144646D02*
X111500D01*
X113687Y146834*
X114000Y147459*
X113687Y148084*
X113063Y148396*
X112125*
X111500Y148084*
X116500Y144646D02*
X119000Y148396D01*
X116500*
X112125Y106521D02*
X111813Y106209D01*
X111187Y105896*
X110250*
X109625Y106209*
X109313Y106521*
X109000Y107146*
Y108396*
X109313Y109021*
X109625Y109334*
X110250Y109646*
X111187*
X111813Y109334*
X112125Y109021*
X116500Y105896D02*
X114000D01*
X116187Y108084*
X116500Y108709*
X116187Y109334*
X115563Y109646*
X114625*
X114000Y109334*
X119625Y105896D02*
X120875D01*
X120250D02*
Y109646D01*
X119625Y109021*
X115400Y130059D02*
X110100D01*
Y142359*
X115400*
Y130059*
X115956Y67309D02*
Y72609D01*
X128256*
Y67309*
X115956*
Y74809D02*
Y80109D01*
X128256*
Y74809*
X115956*
Y82309D02*
Y87609D01*
X128256*
Y82309*
X115956*
Y89809D02*
Y95109D01*
X128256*
Y89809*
X115956*
X117850Y128856D02*
Y134156D01*
X130150*
Y128856*
X117850*
X120512Y106356D02*
Y111656D01*
X132812*
Y106356*
X120512*
X122389Y248309D02*
Y252059D01*
X124577*
X125202Y251747*
X125515Y251122*
X125202Y250497*
X124577Y250185*
X122389*
X127389Y252059D02*
Y248309D01*
X130515*
X133015D02*
X134265D01*
X133639D02*
Y252059D01*
X133015Y251435*
X138952Y248309D02*
Y252059D01*
X137389Y249559*
X139889*
X127125Y135569D02*
X126813Y135256D01*
X126187Y134943*
X125250*
X124625Y135256*
X124313Y135569*
X124000Y136193*
Y137443*
X124313Y138069*
X124625Y138381*
X125250Y138693*
X126187*
X126813Y138381*
X127125Y138069*
X131500Y134943D02*
X129000D01*
X131187Y137131*
X131500Y137756*
X131187Y138381*
X130563Y138693*
X129625*
X129000Y138381*
X136500Y134943D02*
X134000D01*
X136187Y137131*
X136500Y137756*
X136187Y138381*
X135563Y138693*
X134625*
X134000Y138381*
X126750Y187896D02*
Y191646D01*
X128937*
X129563Y191334*
X129875Y190709*
X129563Y190084*
X128937Y189771*
X126750*
X131750Y191646D02*
Y187896D01*
X134875*
X137375D02*
X138625D01*
X138000D02*
Y191646D01*
X137375Y191021*
X142687Y189771D02*
X143313D01*
X143937Y190084*
X144250Y190709*
X143937Y191334*
X143313Y191646*
X142687*
X142063Y191334*
X141750Y190709*
X142063Y190084*
X142687Y189771*
X142063Y189459*
X141750Y188834*
X142063Y188209*
X142687Y187896*
X143313*
X143937Y188209*
X144250Y188834*
X143937Y189459*
X143313Y189771*
X140875Y125271D02*
X140563Y124959D01*
X139937Y124646*
X139000*
X138375Y124959*
X138063Y125271*
X137750Y125896*
Y127146*
X138063Y127771*
X138375Y128084*
X139000Y128396*
X139937*
X140563Y128084*
X140875Y127771*
X145250Y124646D02*
X142750D01*
X144937Y126834*
X145250Y127459*
X144937Y128084*
X144313Y128396*
X143375*
X142750Y128084*
X147750Y125584D02*
X148063Y126209D01*
X148687Y126521*
X149313*
X149937Y126209*
X150250Y125584*
X149937Y124959*
X149313Y124646*
X148687*
X148063Y124959*
X147750Y125584*
Y126521*
X148063Y127459*
X148687Y128084*
X149313Y128396*
X141361Y78298D02*
X141048Y77985D01*
X140423Y77672*
X139485*
X138861Y77985*
X138548Y78298*
X138235Y78922*
Y80172*
X138548Y80798*
X138861Y81110*
X139485Y81422*
X140423*
X141048Y81110*
X141361Y80798*
X143861Y77672D02*
X145111D01*
X144485D02*
Y81422D01*
X143861Y80798*
X149173Y79548D02*
X149798D01*
X150423Y79860*
X150735Y80485*
X150423Y81110*
X149798Y81422*
X149173*
X148548Y81110*
X148235Y80485*
X148548Y79860*
X149173Y79548*
X148548Y79235*
X148235Y78610*
X148548Y77985*
X149173Y77672*
X149798*
X150423Y77985*
X150735Y78610*
X150423Y79235*
X149798Y79548*
X141485Y90903D02*
X141173Y90590D01*
X140548Y90278*
X139610*
X138985Y90590*
X138673Y90903*
X138360Y91528*
Y92778*
X138673Y93403*
X138985Y93715*
X139610Y94028*
X140548*
X141173Y93715*
X141485Y93403*
X143985Y90278D02*
X145235D01*
X144610D02*
Y94028D01*
X143985Y93403*
X148360Y91215D02*
X148673Y91840D01*
X149298Y92153*
X149923*
X150548Y91840*
X150860Y91215*
X150548Y90590*
X149923Y90278*
X149298*
X148673Y90590*
X148360Y91215*
Y92153*
X148673Y93090*
X149298Y93715*
X149923Y94028*
X141985Y84288D02*
X141672Y83976D01*
X141047Y83663*
X140109*
X139485Y83976*
X139172Y84288*
X138859Y84913*
Y86163*
X139172Y86788*
X139485Y87101*
X140109Y87413*
X141047*
X141672Y87101*
X141985Y86788*
X144485Y83663D02*
X145735D01*
X145109D02*
Y87413D01*
X144485Y86788*
X148859Y83663D02*
X151359Y87413D01*
X148859*
X142765Y70685D02*
X142452Y70372D01*
X141827Y70059*
X140889*
X140265Y70372*
X139952Y70685*
X139639Y71309*
Y72559*
X139952Y73185*
X140265Y73497*
X140889Y73809*
X141827*
X142452Y73497*
X142765Y73185*
X145265Y70059D02*
X146515D01*
X145889D02*
Y73809D01*
X145265Y73185*
X150577Y70059D02*
X151202Y70372D01*
X151827Y70997*
X152139Y71935*
Y72872*
X151827Y73497*
X151202Y73809*
X150577*
X149952Y73497*
X149639Y72872*
X149952Y72247*
X150577Y71935*
X151202*
X151827Y72247*
X152139Y72872*
X142812Y124156D02*
Y118856D01*
X130512*
Y124156*
X142812*
X144100Y96059D02*
Y101359D01*
X156400*
Y96059*
X144100*
X156396Y101409D02*
X156084Y101097D01*
X155459Y100784*
X154521*
X153896Y101097*
X153584Y101409*
X153271Y102034*
Y103284*
X153584Y103909*
X153896Y104222*
X154521Y104534*
X155459*
X156084Y104222*
X156396Y103909*
X158896Y100784D02*
X160146D01*
X159521D02*
Y104534D01*
X158896Y103909*
X165771Y100784D02*
X163271D01*
X165459Y102972*
X165771Y103597*
X165459Y104222*
X164834Y104534*
X163896*
X163271Y104222*
D02*
D20*
X27750Y175959D02*
X67750D01*
Y185959*
X27750*
Y175959*
X29389Y236372D02*
X69389D01*
Y246372*
X29389*
Y236372*
X62250Y214459D02*
X82250D01*
Y224459*
X62250*
Y214459*
X67750Y175959D02*
X107750D01*
Y185959*
X67750*
Y175959*
X69389Y236372D02*
X109389D01*
Y246372*
X69389*
Y236372*
X107667Y175959D02*
X147667D01*
Y185959*
X107667*
Y175959*
X109389Y236372D02*
X149389D01*
Y246372*
X109389*
Y236372*
D02*
D75*
X66707Y127409D02*
G75*
G03Y127803J197D01*
G01*
Y127409D02*
G75*
G02Y127803J197D01*
G01*
D02*
D76*
X83768Y132530D02*
G75*
G02X82981I-394D01*
G01*
X83768D02*
G75*
G02X82981I-394D01*
G01*
G75*
G02X83768I394*
G01*
D02*
D77*
X80619Y33020D02*
Y12908D01*
X87150Y48487D02*
X93650D01*
X93520Y42903D02*
G75*
G03Y43503J300D01*
G01*
G75*
G03Y42903J-300*
G01*
X93650Y57987D02*
X87150D01*
X106422Y12908D02*
Y33020D01*
D02*
D78*
X90889Y59059D02*
Y56247D01*
X91202Y55622*
X91827Y55309*
X93077*
X93702Y55622*
X94015Y56247*
Y59059*
X98389Y55309D02*
X95889D01*
X98077Y57497*
X98389Y58122*
X98077Y58747*
X97452Y59059*
X96515*
X95889Y58747*
X111020Y35152D02*
Y32339D01*
X111333Y31714*
X111957Y31402*
X113207*
X113833Y31714*
X114145Y32339*
Y35152*
X116645Y31402D02*
X117895D01*
X117270D02*
Y35152D01*
X116645Y34527*
X0Y0D02*
M02*
