G04 DesignSpark PCB Gerber Version 9.0 Build 5138 *
G04 #@! TF.Part,Single*
G04 #@! TF.FileFunction,Paste,Top *
G04 #@! TF.FilePolarity,Positive *
%FSLAX35Y35*%
%MOIN*%
G04 #@! TA.AperFunction,SMDPad,CuDef*
%ADD11R,0.00387X0.03340*%
%ADD17R,0.02400X0.03100*%
%ADD16R,0.03537X0.03891*%
%ADD18R,0.05100X0.05600*%
%ADD12R,0.16135X0.16135*%
%ADD10R,0.03340X0.00387*%
%ADD14R,0.02800X0.00800*%
%ADD15R,0.03891X0.03537*%
%ADD70R,0.03931X0.03537*%
%ADD19R,0.05600X0.05100*%
%ADD13R,0.24203X0.05318*%
X0Y0D02*
D02*
D10*
X85244Y112844D03*
Y114419D03*
Y115994D03*
Y117569D03*
Y119144D03*
Y120719D03*
Y122293D03*
Y123868D03*
Y125443D03*
Y127018D03*
Y128593D03*
Y130167D03*
X108079Y112844D03*
Y114419D03*
Y115994D03*
Y117569D03*
Y119144D03*
Y120719D03*
Y122293D03*
Y123868D03*
Y125443D03*
Y127018D03*
Y128593D03*
Y130167D03*
D02*
D11*
X88000Y110089D03*
Y132923D03*
X89575Y110089D03*
Y132923D03*
X91150Y110089D03*
Y132923D03*
X92725Y110089D03*
Y132923D03*
X94300Y110089D03*
Y132923D03*
X95874Y110089D03*
Y132923D03*
X97449Y110089D03*
Y132923D03*
X99024Y110089D03*
Y132923D03*
X100599Y110089D03*
Y132923D03*
X102174Y110089D03*
Y132923D03*
X103748Y110089D03*
Y132923D03*
X105323Y110089D03*
Y132923D03*
D02*
D12*
X96662Y121506D03*
D02*
D13*
X93520Y8885D03*
Y37044D03*
D02*
D14*
X87841Y50678D03*
Y53237D03*
Y55796D03*
X92959Y50678D03*
Y53237D03*
Y55796D03*
D02*
D15*
X41750Y117459D03*
X43000Y83709D03*
X44250Y91209D03*
Y123709D03*
X48750Y117459D03*
X49250Y138709D03*
X50000Y83709D03*
X51250Y91209D03*
Y123709D03*
X56250Y138709D03*
X61912Y97459D03*
X68912D03*
X69412Y110256D03*
X74250Y161209D03*
X76412Y110256D03*
X81250Y161209D03*
X99505Y78626D03*
Y84617D03*
Y91107D03*
X106505Y78626D03*
Y84617D03*
Y91107D03*
X118606Y69959D03*
Y77459D03*
Y84959D03*
Y92459D03*
X120500Y131506D03*
X123162Y109006D03*
X125606Y69959D03*
Y77459D03*
Y84959D03*
Y92459D03*
X127500Y131506D03*
X130162Y109006D03*
X133162Y121506D03*
X140162D03*
X146750Y98709D03*
X153750D03*
D02*
D16*
X52750Y102709D03*
Y109709D03*
X60250Y146459D03*
Y153459D03*
X62750Y103959D03*
Y110959D03*
X67750Y83959D03*
Y90959D03*
X72750Y146209D03*
Y153209D03*
X80250Y74459D03*
Y81459D03*
Y146209D03*
Y153209D03*
X92750Y162459D03*
Y169459D03*
X99074Y149053D03*
Y156053D03*
X112750Y132709D03*
Y139709D03*
D02*
D17*
X87654Y60975D03*
Y66075D03*
X93250Y60975D03*
Y66075D03*
D02*
D18*
X44000Y100459D03*
Y109459D03*
X76662Y93256D03*
Y102256D03*
D02*
D19*
X45750Y131209D03*
X54750D03*
D02*
D70*
X67002Y131248D03*
Y136169D03*
X73498Y131248D03*
Y136169D03*
X0Y0D02*
M02*
